<?xml version="1.0" encoding="utf-8"?>
<!-- Generator: Adobe Illustrator 23.0.0, SVG Export Plug-In . SVG Version: 6.00 Build 0)  -->
<svg version="1.1" id="Layer_1" xmlns="http://www.w3.org/2000/svg" xmlns:xlink="http://www.w3.org/1999/xlink" width="229.289" height="126.391" viewBox="0 0 1000 1000" style="enable-background:new 0 0 1000 1000;" xml:space="preserve">
<style type="text/css">
	.st0{fill:#CCF6FE;stroke:#000000;stroke-width:32.3139;stroke-miterlimit:10;}
	.st1{fill:#CCF6FE;}
	.st2{fill:#73DAEE;}
	.st3{fill:#FFDE55;stroke:#000000;stroke-width:17.3998;stroke-miterlimit:10;}
</style>
<g>
	<path class="st0" d="M501.56,637.54c-98.09,0-196.19,0.19-294.28-0.07c-74.83-0.19-135.11-48.39-151.38-120.33
		c-18.54-81.98,37.04-166.46,119.65-181.88c25.97-4.84,33.1-13.67,32.17-39.79c-3.17-88,63.44-159.35,151.18-160.5
		c42.6-0.56,79.55,14.97,109.89,45.33c2.34,2.35,4.54,4.84,6.86,7.2c13.21,13.44,27.08,15.16,42.74,4.39
		c21.56-14.83,44.8-25.24,70.52-30.51c97.69-20.06,195.28,44.21,214.68,142.3c3.77,19.05,13.48,29.2,32.36,33.67
		c69.83,16.55,118.2,82.58,114.92,155.53c-3.22,71.5-58.2,132.3-129.34,142.65c-9.78,1.42-19.77,1.91-29.67,1.93
		C695.08,637.6,598.32,637.54,501.56,637.54z"/>
	<path d="M446.28,841.85c-2.36,0-4.12,0-5.89,0c-54.57,0-109.14-0.06-163.71,0.09c-5.81,0.02-10.25-1.48-13.16-6.63
		c0-109.46,0-218.92,0-328.39c2.18-5.76,6.53-7.5,12.43-7.5c150.48,0.07,300.97,0.07,451.45,0c5.89,0,10.24,1.75,12.43,7.5
		c0,109.46,0,218.92,0,328.39c-2.91,5.15-7.33,7.04-13.16,6.61c-4.32-0.32-8.68,0.07-13.01-0.12c-5.73-0.23-9.64-4.12-9.66-9.27
		c-0.02-5.16,3.88-9.01,9.6-9.32c2.3-0.13,4.6-0.02,7.23-0.02c0-15.47,0-30.58,0-46.07c-145.9,0-291.86,0-438.2,0
		c0,15.05,0,30.27,0,46.05c2.02,0,3.98,0,5.95,0c115.18,0,230.38,0,345.56,0.01c2.01,0,4.06-0.09,6.03,0.21
		c4.68,0.71,7.79,4.38,7.88,8.95s-2.92,8.34-7.53,9.24c-1.65,0.32-3.39,0.28-5.1,0.28c-24.8,0.02-49.61,0.01-74.41,0.01
		c-1.67,0-3.34,0-5.61,0 M720.73,757.89c0-80.09,0-159.8,0-239.35c-146.35,0-292.29,0-438.2,0c0,79.97,0,159.57,0,239.35
		C428.69,757.89,574.53,757.89,720.73,757.89z"/>
	<path d="M502.15,809.29c-5.4,0-10.82,0.08-16.22-0.03c-6.44-0.12-10.42-3.78-10.4-9.36c0.03-5.56,4.02-9.21,10.48-9.27
		c10.66-0.09,21.33-0.08,31.98,0c6.47,0.05,10.55,3.65,10.67,9.13c0.12,5.68-4.04,9.41-10.75,9.51
		C512.66,809.36,507.4,809.29,502.15,809.29z"/>
	<path d="M675.84,823.08c5.15,0.09,9.09,4.06,9.07,9.16c-0.02,5.04-4.5,9.46-9.56,9.43c-5.26-0.03-9.3-4.24-9.21-9.6
		C666.23,826.76,670.3,822.98,675.84,823.08z"/>
	<path class="st1" d="M720.73,757.89c-146.19,0-292.03,0-438.2,0c0-79.77,0-159.37,0-239.35c145.9,0,291.85,0,438.2,0
		C720.73,598.1,720.73,677.8,720.73,757.89z M552.17,533.79c-46.03,0-92.05-0.01-138.08,0.01c-8.87,0-12,3.17-12.02,12.07
		c-0.03,16.11-0.02,32.24,0,48.35c0.01,9.67,3.14,12.89,12.73,12.89c91.59,0.02,183.17,0.02,274.77,0c9.46,0,12.82-3.39,12.84-12.89
		c0.03-15.8,0.02-31.62,0-47.42c-0.01-9.88-3.16-13.01-13.08-13.01C643.6,533.79,597.89,533.79,552.17,533.79z M301.45,637.64
		c0,30.37-0.01,60.75,0.01,91.13c0.01,9.76,2.96,12.65,12.82,12.65c19.37,0.01,38.74,0.01,58.11,0c9.4-0.01,12.62-3.14,12.62-12.5
		c0.03-60.9,0.03-121.82,0-182.72c0-9.34-3.2-12.39-12.71-12.4c-19.37-0.02-38.74-0.01-58.11,0c-9.85,0.01-12.74,2.88-12.74,12.71
		C301.44,576.89,301.45,607.27,301.45,637.64z M503.54,622.12c-29.61,0-59.22-0.01-88.83,0.01c-9.56,0.01-12.61,3.02-12.63,12.41
		c-0.02,10.07-0.02,20.16,0,30.23c0.02,9.11,3.22,12.34,12.33,12.35c59.22,0.02,118.44,0.01,177.67,0c9.29,0,12.71-3.36,12.73-12.51
		c0.03-9.92,0.03-19.85,0-29.76c-0.02-9.58-3.19-12.71-12.9-12.71C562.44,622.12,532.99,622.13,503.54,622.12z M618.76,681.9
		c0,15.96-0.03,31.93,0.01,47.89c0.03,8.28,3.31,11.59,11.52,11.61c20.15,0.03,40.3,0.04,60.44,0c8.05-0.02,11.62-3.51,11.64-11.65
		c0.06-31.93,0.06-63.86,0.01-95.79c-0.02-8.36-3.55-11.82-11.91-11.84c-20-0.03-39.99-0.04-59.99,0
		c-8.55,0.02-11.7,3.23-11.72,11.87C618.74,649.98,618.76,665.94,618.76,681.9z M503.01,709.04c29.43,0,58.86,0.01,88.28-0.01
		c1.85,0,3.73,0.02,5.55-0.26c5.61-0.87,8.91-6.27,7.27-11.73c-1.38-4.57-4.92-6.72-11.39-6.73c-59.63-0.02-119.26-0.02-178.89,0.03
		c-1.83,0-3.73,0.24-5.48,0.78c-3.98,1.21-6.52,5.19-6.21,9.31c0.31,4.13,3.37,7.66,7.48,8.32c1.97,0.32,4.01,0.3,6.02,0.3
		C444.78,709.04,473.9,709.04,503.01,709.04z M503.69,720.65c-30.23,0-60.47-0.03-90.7,0.03c-6.82,0.02-10.96,3.78-10.86,9.44
		c0.09,5.4,4.24,9.02,10.69,9.29c0.78,0.03,1.55,0.01,2.32,0.01c58.76,0,117.52,0,176.28,0c8.65,0,13.37-3.42,13.25-9.6
		c-0.12-6.04-4.55-9.16-13.08-9.16C562.3,720.64,533,720.65,503.69,720.65z"/>
	<path d="M552.17,533.79c45.72,0,91.44,0,137.14,0c9.92,0,13.07,3.12,13.08,13.01c0.02,15.8,0.03,31.62,0,47.42
		c-0.02,9.49-3.37,12.88-12.84,12.89c-91.59,0.02-183.17,0.02-274.77,0c-9.59,0-12.72-3.22-12.73-12.89
		c-0.01-16.11-0.02-32.24,0-48.35c0.02-8.9,3.14-12.07,12.02-12.07C460.11,533.78,506.14,533.79,552.17,533.79z M683.32,552.8
		c-87.67,0-174.96,0-262.31,0c0,11.86,0,23.41,0,35.09c87.53,0,174.82,0,262.31,0C683.32,576.1,683.32,564.67,683.32,552.8z"/>
	<path d="M301.45,637.64c0-30.37-0.01-60.75,0.01-91.13c0.01-9.84,2.89-12.71,12.74-12.71c19.37-0.01,38.74-0.02,58.11,0
		c9.51,0.01,12.7,3.07,12.71,12.4c0.03,60.9,0.03,121.82,0,182.72c0,9.36-3.22,12.49-12.62,12.5c-19.37,0.02-38.74,0.01-58.11,0
		c-9.87-0.01-12.81-2.9-12.82-12.65C301.44,698.39,301.45,668.02,301.45,637.64z M365.8,722.59c0-56.87,0-113.33,0-169.82
		c-15.33,0-30.28,0-45.28,0c0,56.74,0,113.21,0,169.82C335.69,722.59,350.54,722.59,365.8,722.59z"/>
	<path d="M503.54,622.12c29.45,0,58.91-0.01,88.37,0c9.71,0,12.88,3.13,12.9,12.71c0.02,9.92,0.03,19.85,0,29.76
		c-0.03,9.15-3.44,12.5-12.73,12.51c-59.22,0.01-118.44,0.01-177.67,0c-9.11,0-12.31-3.22-12.33-12.35
		c-0.03-10.07-0.02-20.16,0-30.23c0.02-9.39,3.08-12.4,12.63-12.41C444.31,622.11,473.92,622.12,503.54,622.12z M585.84,641.21
		c-55.28,0-110.07,0-164.75,0c0,5.86,0,11.35,0,16.8c55.08,0,109.84,0,164.75,0C585.84,652.23,585.84,646.86,585.84,641.21z"/>
	<path d="M618.76,681.9c0-15.96-0.03-31.93,0.01-47.89c0.02-8.64,3.17-11.85,11.72-11.87c20-0.04,39.99-0.03,59.99,0
		c8.36,0.02,11.9,3.47,11.91,11.84c0.05,31.93,0.06,63.86-0.01,95.79c-0.02,8.14-3.58,11.64-11.64,11.65
		c-20.15,0.04-40.3,0.04-60.44,0c-8.21-0.02-11.5-3.33-11.52-11.61C618.73,713.83,618.76,697.87,618.76,681.9z M683.28,641.19
		c-15.43,0-30.49,0-45.48,0c0,27.32,0,54.31,0,81.29c15.3,0,30.26,0,45.48,0C683.28,695.35,683.28,668.47,683.28,641.19z"/>
	<path d="M503.01,709.04c-29.12,0-58.23,0.01-87.35-0.01c-2,0-4.05,0.02-6.02-0.3c-4.11-0.66-7.16-4.18-7.48-8.32
		c-0.31-4.12,2.22-8.09,6.21-9.31c1.75-0.53,3.65-0.77,5.48-0.78c59.63-0.04,119.26-0.04,178.89-0.03c6.47,0,10.01,2.16,11.39,6.73
		c1.65,5.45-1.65,10.87-7.27,11.73c-1.82,0.28-3.7,0.26-5.55,0.26C561.87,709.04,532.44,709.04,503.01,709.04z"/>
	<path d="M503.69,720.65c29.3,0,58.61-0.01,87.91,0c8.54,0,12.96,3.12,13.08,9.16c0.12,6.16-4.59,9.6-13.25,9.6
		c-58.76,0-117.52,0-176.28,0c-0.78,0-1.55,0.03-2.32-0.01c-6.45-0.27-10.6-3.88-10.69-9.29c-0.1-5.66,4.03-9.42,10.86-9.44
		C443.23,720.61,473.46,720.65,503.69,720.65z"/>
	<path class="st2" d="M683.32,552.8c0,11.88,0,23.31,0,35.09c-87.5,0-174.78,0-262.31,0c0-11.68,0-23.23,0-35.09
		C508.36,552.8,595.65,552.8,683.32,552.8z"/>
	<path class="st2" d="M365.8,722.59c-15.26,0-30.11,0-45.28,0c0-56.61,0-113.08,0-169.82c15,0,29.95,0,45.28,0
		C365.8,609.26,365.8,665.72,365.8,722.59z"/>
	<path class="st1" d="M585.84,641.21c0,5.66,0,11.03,0,16.8c-54.91,0-109.67,0-164.75,0c0-5.45,0-10.94,0-16.8
		C475.77,641.21,530.55,641.21,585.84,641.21z"/>
	<path class="st2" d="M683.28,641.19c0,27.28,0,54.16,0,81.29c-15.21,0-30.16,0-45.48,0c0-26.98,0-53.97,0-81.29
		C652.79,641.19,667.85,641.19,683.28,641.19z"/>
	<path class="st3" d="M529.46,365.8c0,1.13,0,1.92,0,2.71c0,23.45,0.01,46.9-0.01,70.35c0,1.38-0.02,2.79-0.29,4.13
		c-0.53,2.64-1.27,3.17-3.93,3.18c-3.77,0.02-7.53,0.01-11.29,0.01c-11.63,0-23.26-0.12-34.88,0.06c-4.96,0.08-8.4-3.2-8.37-8.25
		c0.16-23.26,0.07-46.5,0.07-69.76c0-0.72,0-1.44,0-2.42c-0.82,0-1.51,0-2.21,0c-8.26,0-16.51,0.03-24.78-0.01
		c-3.81-0.02-6.11-2.71-5.08-5.96c0.3-0.95,0.99-1.87,1.72-2.59c19.33-18.97,38.68-37.92,58.06-56.85c2.24-2.19,4.24-2.1,6.71,0.3
		c6.92,6.72,13.79,13.48,20.68,20.23c12.23,11.97,24.45,23.94,36.68,35.9c1.3,1.27,2.46,2.61,2.35,4.59
		c-0.17,2.77-2.19,4.39-5.54,4.39c-9.18,0.02-18.37,0.01-27.55,0.01C531.09,365.8,530.38,365.8,529.46,365.8z"/>
</g>
</svg>
