<?xml version="1.0" encoding="utf-8"?>
<!-- Generator: Adobe Illustrator 23.0.0, SVG Export Plug-In . SVG Version: 6.00 Build 0)  -->
<svg version="1.1" id="Layer_1" xmlns="http://www.w3.org/2000/svg" xmlns:xlink="http://www.w3.org/1999/xlink" x="0px" y="0px"
	 viewBox="0 0 1454.72 1000" style="enable-background:new 0 0 1454.72 1000;" xml:space="preserve">
<style type="text/css">
	.st0{fill:#73DAEE;}
	.st1{fill:#CCF6FE;}
	.st2{fill:#FFDE55;}
</style>
<path class="st0" d="M951.57,668.73H401.08c-41.55,0-75.24-33.69-75.24-75.24V152.18c0-41.55,33.69-75.24,75.24-75.24h550.49
	c41.55,0,75.24,33.69,75.24,75.24v441.31C1026.81,635.04,993.12,668.73,951.57,668.73z"/>
<path class="st1" d="M1068.7,779.73H454.92c-24.08,0-43.59-19.51-43.59-43.59V244.68c0-24.08,19.51-43.59,43.59-43.59h613.78
	c24.08,0,43.59,19.51,43.59,43.59v491.42C1112.29,760.19,1092.78,779.73,1068.7,779.73z"/>
<path d="M973.49,66.49c17.2,3.66,32.94,10.09,45.14,23.47c16.2,17.77,20.85,39.01,19.26,62.93c-9.27,0-18.42,0-28.74,0
	c0-2.93,0.02-5.95,0-8.95c-0.18-30.71-18.01-48.41-48.96-48.41c-142.8-0.02-285.6,0-428.41,0c-47.41,0-94.82-0.02-142.23,0
	c-31.83,0.02-49.41,17.63-49.43,49.66c-0.02,151.03,0.07,302.07-0.09,453.1c-0.02,23.29,9.13,39.87,32.65,48.57
	c-2.18,8.88-4.38,17.79-6.82,27.74c-21.63-5.88-37.85-18.11-46.46-37.96c-4.82-11.13-7.97-23.97-8-36.05
	c-0.52-152.46-0.43-304.91-0.27-457.35c0.05-40.19,23.22-67.9,62.11-75.6c0.8-0.16,1.5-0.73,2.25-1.11
	C574.8,66.49,774.14,66.49,973.49,66.49z"/>
<path d="M834.44,430.4c0-33.85,0-67.49,0-101.62c10.02,0,18.99,0,29.03,0c0,33.87,0,67.47,0,101.5c10.13,1.43,19.24,2.73,29.31,4.13
	c0-45.07,0-89.53,0-134.62c9.97,0,19.11,0,29.17,0c0,3.88,0,7.22,0,10.56c0,41.73,0.11,83.46-0.11,125.2
	c-0.02,5.88,1.36,9.25,7.29,11.34c7.11,2.5,13.77,6.32,21.67,10.04c0-33.37,0-65.81,0-98.91c10,0,19.15,0,29.35,0
	c0,3.25,0,6.29,0,9.34c0,34.35-0.18,68.7,0.23,103.05c0.05,4.16,2.27,9.29,5.23,12.24c7.54,7.61,16.04,14.24,23.19,20.45
	c0-27.01,0-56.61,0-86.89c9.93,0,19.11,0,29.42,0c0,2.91,0,5.93,0,8.95c0,42.03-0.02,84.03,0.02,126.06c0,3.09-0.27,6.47,0.8,9.22
	c12.81,32.71,16.08,66.49,11.43,101.75c2.86,0.16,5.36,0.36,7.84,0.43c2.54,0.07,5.09,0.02,8.29,0.02c0,9.5,0,18.67,0,28.47
	c-2.02,0.18-4.18,0.52-6.36,0.55c-16.22,0.2-16.08,0.23-21.65,14.97c-2.41,6.34-5.04,12.68-8.41,18.54
	c-3.11,5.41-2.11,8.72,2.23,13.04c42.32,41.98,84.42,84.21,126.58,126.35c13.27,13.27,13.22,18.95-0.25,32.4
	c-11.04,11.04-22.08,22.08-33.14,33.1c-11.61,11.56-17.83,11.61-29.31,0.14c-41.16-41.14-82.33-82.28-123.4-123.51
	c-2.18-2.18-3.48-5.25-5.18-7.91c-0.43,1.14-0.86,2.27-1.29,3.38c-18.26,8.22-36.01,17.97-54.89,24.42
	c-102.5,35.08-217.57-21.35-253.12-123.86c-3.02-8.72-6.79-11.38-15.95-11.31c-58.47,0.45-116.97,0.23-175.45,0.23
	c-3.07,0-6.13,0-9.75,0c0-9.7,0-18.65,0-29.03c31.51,0,63.15,0,94.8,0c31.74,0,63.47,0,95.71,0c-3.09-26.44-4.61-52.43,4.07-76.69
	c9-25.19,8.2-50.59,8.25-76.26c0.05-32.94,0.02-65.86,0.02-98.8c0-3.04,0-6.11,0-9.65c9.79,0,18.74,0,28.65,0
	c0,34.78,0,69.52,0,102.34c9-7.86,18.7-15.92,27.81-24.63c1.75-1.66,1.54-5.79,1.54-8.77c0.09-32.35,0.07-64.7,0.07-97.8
	c9.54,0,18.7,0,28.65,0c0,27.62,0,55.32,0,84.65c10.02-4.59,18.92-8.41,27.49-12.88c1.45-0.77,1.93-4.41,1.95-6.72
	c0.18-13.9,0.07-27.83,0.11-41.73c0-2.77,0.23-5.54,0.36-8.77c9.54,0,18.49,0,28.42,0c0,15.63,0,31.1,0,47.48
	C815.24,433.03,824.33,431.79,834.44,430.4z M1023.4,633.77c0.18-96.21-77.38-174.08-173.99-174.72
	c-95.64-0.61-174.02,77.56-174.56,174.17c-0.55,95.82,77.74,174.33,174.06,174.58C945.12,808.03,1023.22,730.16,1023.4,633.77z
	 M1110.07,901.83c7.66-7.38,15.13-14.63,21.08-20.38c-40.51-40.51-81.33-81.33-122.17-122.15c-6.09,6.79-13.02,14.47-19.67,21.88
	C1030.08,821.91,1070.4,862.21,1110.07,901.83z"/>
<path d="M659.65,764.46c0,10.15,0,19.11,0,28.71c-3.14,0.14-5.88,0.39-8.66,0.39c-58.2,0.02-116.4,0.09-174.61,0
	c-31.58-0.05-56.66-12.34-70.17-41.71c-5.02-10.95-7.52-24.01-7.54-36.12c-0.5-151.62-0.39-303.21-0.27-454.83
	c0.02-38.73,19.7-65.7,55-75.35c7.54-2.07,15.68-2.73,23.54-2.73c189.94-0.14,379.88-0.14,569.82-0.09
	c47.77,0.02,78.49,30.6,78.49,78.1c0.05,151.62-0.05,303.21,0.09,454.83c0.02,19.72-4.75,37.46-18.38,52.98
	c-7.18-6.32-14.13-12.47-21.6-19.06c10.15-11.7,11-25.28,11-39.46c-0.16-150.19-0.09-300.39-0.11-450.58
	c0-23.13-11.25-39.8-31.05-45.43c-5.63-1.61-11.74-2.2-17.63-2.2c-190.51-0.11-381.02-0.11-571.53-0.07
	c-30.58,0-48.41,17.54-48.43,47.93c-0.11,152.18-0.11,304.35,0,456.53c0.02,30.51,17.65,48.07,48.18,48.16
	c57.63,0.14,115.27,0.05,172.9,0.05C652.06,764.46,655.44,764.46,659.65,764.46z"/>
<path d="M572.32,633.18c-9.22,0-18.17,0-27.76,0c0-57.84,0-115.54,0-173.74c9.2,0,18.15,0,27.76,0
	C572.32,517.36,572.32,575.04,572.32,633.18z"/>
<path d="M602.44,503.07c9.79,0,18.76,0,28.17,0c0,43.44,0,86.44,0,130.03c-9.38,0-18.56,0-28.17,0
	C602.44,589.72,602.44,546.71,602.44,503.07z"/>
<path d="M486.54,546.85c9.2,0,18.15,0,27.69,0c0,28.74,0,57.18,0,86.21c-9.09,0-17.99,0-27.69,0
	C486.54,604.76,486.54,576.36,486.54,546.85z"/>
<path d="M369.79,124.96c9.45,0,18.38,0,27.94,0c0,9.29,0,18.24,0,27.92c-9.02,0-18.2,0-27.94,0
	C369.79,143.73,369.79,134.55,369.79,124.96z"/>
<path d="M427.84,152.91c0-9.56,0-18.31,0-27.72c9.45,0,18.61,0,28.28,0c0,9.16,0,18.11,0,27.72
	C446.83,152.91,437.7,152.91,427.84,152.91z"/>
<path d="M514.3,153.16c-9.63,0-18.61,0-28.06,0c0-9.38,0-18.36,0-27.97c9.2,0,18.36,0,28.06,0
	C514.3,134.35,514.3,143.3,514.3,153.16z"/>
<path d="M573.66,241.28c9.43,0,18.33,0,27.78,0c0,9.52,0,18.61,0,28.22c-9.25,0-18.17,0-27.78,0
	C573.66,260.4,573.66,251.27,573.66,241.28z"/>
<path d="M457.17,268.86c0-8.81,0-17.72,0-27.94c8.25,0,16.33-0.2,24.4,0.18c1.45,0.07,2.82,2.52,4.11,3.98
	c0.3,0.32,0.05,1.09,0.09,1.66C487.34,270.6,483.25,273.85,457.17,268.86z"/>
<path d="M543.56,241.5c0,9.72,0,18.42,0,27.81c-9.5,0-18.63,0-28.24,0c0-9.27,0-18.22,0-27.81
	C524.64,241.5,533.79,241.5,543.56,241.5z"/>
<path class="st2" d="M1023.4,633.77c-0.18,96.39-78.26,174.27-174.52,174.02c-96.32-0.25-174.61-78.76-174.06-174.58
	c0.55-96.62,78.92-174.79,174.56-174.17C946.02,459.68,1023.56,537.56,1023.4,633.77z M848.91,488.22
	c-80.37,0.34-144.91,65.02-145.01,145.3c-0.07,80.53,65.24,145.62,145.8,145.26c80.24-0.34,145.12-65.7,144.6-145.6
	C993.78,552.76,928.71,487.87,848.91,488.22z"/>
<path class="st2" d="M1110.07,901.83c-39.66-39.62-79.99-79.94-120.74-120.65c6.66-7.41,13.56-15.08,19.67-21.88
	c40.85,40.85,81.67,81.65,122.17,122.15C1125.2,887.23,1117.7,894.45,1110.07,901.83z"/>
<path d="M848.91,488.22c79.81-0.34,144.87,64.54,145.39,144.96c0.52,79.92-64.38,145.26-144.6,145.6
	c-80.56,0.34-145.87-64.72-145.8-145.26C703.99,553.23,768.55,488.53,848.91,488.22z M863.7,518.77c0,19.54,0,38.48,0,57.43
	c0,18.92,0,37.87,0,57.04c-10.15,0-19.13,0-29.19,0c0-19.33,0-38.28,0-57.23c0-18.92,0-37.87,0-58.02
	c-7.54,1.82-13.74,3.54-20.06,4.77c-6.91,1.34-9.41,4.7-9.27,12.15c0.5,29.78,0.23,59.59,0.18,89.39c0,2.95-0.34,5.93-0.52,8.68
	c-10,0-18.9,0-28.56,0c0-15.06,0-29.49,0-43.91c0-14.61,0-29.24,0-44.5c-33.69,21.24-52.48,79.13-38.87,117.74
	c74.49,0,149.05,0,223.52,0c13.54-43.23-6.72-96.32-39.28-117.79c0,30.03,0,59.32,0,88.53c-10.13,0-19.11,0-28.85,0
	c0-3.63,0-6.7,0-9.77c0-24.69,0-49.39,0-74.08C892.82,522.38,892.82,522.38,863.7,518.77z M748.52,692.06
	c27.4,40.94,63.84,60.93,111.32,56.91c38.76-3.29,68.27-22.9,89.44-56.91C881.96,692.06,816.19,692.06,748.52,692.06z"/>
<path class="st1" d="M863.7,518.77c29.12,3.61,29.12,3.61,29.12,30.46c0,24.69,0,49.39,0,74.08c0,3.07,0,6.16,0,9.77
	c9.75,0,18.72,0,28.85,0c0-29.19,0-58.47,0-88.53c32.55,21.47,52.82,74.56,39.28,117.79c-74.47,0-149.05,0-223.52,0
	c-13.61-38.6,5.18-96.5,38.87-117.74c0,15.27,0,29.87,0,44.5c0,14.43,0,28.85,0,43.91c9.65,0,18.56,0,28.56,0
	c0.18-2.75,0.52-5.72,0.52-8.68c0.05-29.81,0.32-59.61-0.18-89.39c-0.14-7.45,2.39-10.81,9.27-12.15
	c6.29-1.23,12.52-2.95,20.06-4.77c0,20.15,0,39.1,0,58.02c0,18.95,0,37.89,0,57.23c10.06,0,19.04,0,29.19,0c0-19.17,0-38.12,0-57.04
	C863.7,557.25,863.7,538.31,863.7,518.77z"/>
<path class="st1" d="M748.52,692.06c67.68,0,133.44,0,200.75,0c-21.17,33.99-50.68,53.61-89.44,56.91
	C812.35,752.99,775.92,733,748.52,692.06z"/>
</svg>
