<?xml version="1.0" encoding="utf-8"?>
<!-- Generator: Adobe Illustrator 23.0.0, SVG Export Plug-In . SVG Version: 6.00 Build 0)  -->
<svg width="100" height="100" version="1.1" id="Layer_1" xmlns="http://www.w3.org/2000/svg" xmlns:xlink="http://www.w3.org/1999/xlink" x="0px" y="0px"
	 viewBox="0 0 1454.72 1000" style="enable-background:new 0 0 1454.72 1000;" xml:space="preserve">
<style type="text/css">
	.st0{fill:#FFFFFF;}
	.st1{fill:#CCF6FE;}
	.st2{fill:#FFDE55;}
	.st3{fill:#73DAEE;}
	.st4{fill:#62BB9F;}
</style>
<g>
	<path d="M721.87,65.28c114.76,0,229.52,0,344.28,0c1.57,0.55,3.09,1.25,4.68,1.57c46.75,9.66,76.54,37.45,89.31,83.45
		c1.11,4.02,2.11,8.07,3.16,12.11c0,72.15,0,144.3,0,216.45c-0.5,1.27-1.25,2.52-1.48,3.86c-8.7,49.22-44.79,84.72-94.26,91.99
		c-10.14,1.5-20.52,1.32-30.45,1.91c6.34,17.07,12.5,33.63,18.77,50.56c10.61,0,21.43-0.45,32.18,0.09
		c32.5,1.59,55.65,17.43,69.11,47c2.77,6.11,4.11,12.89,6.14,19.36c0,40.9,0,81.81,0,122.71c-0.43,1.05-1.05,2.05-1.3,3.11
		c-9.84,40.95-38.02,63.29-79.97,63.36c-9.02,0.02-18.02,0-26.91,0c-0.66,2.68-1.02,4.32-1.45,5.95
		c-24.04,90.47-100.13,149.08-193.78,149.12c-90.04,0.05-180.07,0.25-270.11-0.07c-79.42-0.27-150.17-48.15-180.37-121.65
		c-4.39-10.66-7.5-21.84-11.41-33.38c-9.98,0-20.18,0.11-30.36-0.02c-43.2-0.55-76.58-33.75-76.92-76.88
		c-0.27-34.09-0.57-68.17,0.09-102.24c0.61-32.54,16.41-56.02,45.88-69.81c5.14-2.41,7-4.84,6.95-10.59
		c-0.27-48.56-0.25-97.13-0.02-145.71c0.02-5.82-1.61-8.68-7.09-11.36c-26.66-12.98-41.77-34.66-43.88-64.2
		c-2.8-39.11,24.22-73.02,62.7-80.24c37.43-7.02,74.67,15.04,86.56,51.29c12.11,36.88-5.16,77.06-40.7,93.38
		c-5.45,2.5-6.7,5.27-6.68,10.73c0.18,47.43,0.11,94.85,0.14,142.3c0,2.45,0.27,4.89,0.41,7.34c1.18,0.48,2.36,0.93,3.55,1.41
		c6.39-23.82,15.07-46.52,28.77-66.81c14.32-21.2,31.88-39.16,53.02-53.54c20.86-14.2,43.4-25.38,68.38-29.11
		c24.79-3.73,50.02-4.73,75.97-7c0-1.84,0-4.89,0-7.95c0-61.93-0.18-123.83,0.07-185.75c0.16-43,18.79-76.22,55.97-97.63
		C693.23,73.21,708.1,70.21,721.87,65.28z M624.72,424.9c-12.48,0-23.57-0.07-34.63,0.02c-79.79,0.61-143.87,64.52-144.28,144.28
		c-0.3,57.93-0.32,115.85,0.02,173.8c0.45,78.83,64.36,143.26,143.08,143.67c92.01,0.48,184,0.48,276.02,0
		c78.79-0.39,142.67-64.65,143.17-143.58c0.39-58.22,0.25-116.42,0-174.64c-0.14-31.95-10.43-60.61-29.36-86.33
		c-3.39-4.61-7.09-6.2-12.77-6.2c-66.74,0.18-133.46,0.05-200.21,0.27c-4.59,0.02-9.54,1.27-13.68,3.3
		c-29.29,14.34-58.27,29.29-87.67,43.36c-5.79,2.77-13.23,4.25-19.5,3.39c-12.41-1.68-20.09-12.39-20.18-25.72
		C624.63,475.58,624.72,450.67,624.72,424.9z M675.85,460.19c20.61-10.27,39.36-20.23,58.65-28.95c7.73-3.5,16.66-6.02,25.07-6.07
		c96.24-0.41,192.48-0.25,288.74-0.27c38.86-0.02,63.83-25.02,63.86-63.95c0.05-60.2,0.05-120.37,0-180.57
		c-0.02-38.95-24.97-63.93-63.83-63.95c-102.78-0.02-205.55-0.02-308.33,0c-39.34,0-64.13,24.95-64.13,64.52
		c-0.02,89.72,0,179.44,0,269.15C675.85,452.85,675.85,455.65,675.85,460.19z M1059.92,578.36c0,51.68,0,102.28,0,153.32
		c2.55,0,4.5,0,6.45,0c7.09-0.02,14.2,0.25,21.27-0.11c13.57-0.7,24.22-11.11,24.36-24.75c0.32-34.59,0.32-69.2,0-103.81
		c-0.14-13.27-10.54-23.82-23.63-24.57C1079.1,577.93,1069.76,578.36,1059.92,578.36z M394.33,578.36
		c-10.11,0-19.45-0.43-28.72,0.09c-13.09,0.75-23.52,11.32-23.66,24.54c-0.32,34.61-0.3,69.2-0.02,103.81
		c0.09,12.27,8.98,22.91,21,24.27c10.25,1.16,20.73,0.25,31.41,0.25C394.33,680.24,394.33,629.86,394.33,578.36z M394.58,296.76
		c-0.18-13.79-11.84-25.27-25.63-25.22c-13.79,0.05-25.36,11.64-25.43,25.43c-0.07,14.11,11.98,25.95,26.04,25.66
		C383.38,322.3,394.76,310.53,394.58,296.76z"/>
	<path class="st0" d="M1163.3,593.63c-2-6.48-3.34-13.25-6.14-19.36c-13.45-29.59-36.61-45.4-69.11-47
		c-10.75-0.52-21.54-0.09-32.18-0.09c-6.29-16.93-12.43-33.5-18.77-50.56c9.93-0.57,20.32-0.41,30.45-1.91
		c49.47-7.29,85.54-42.77,94.26-91.99c0.23-1.34,0.98-2.57,1.48-3.86C1163.3,450.47,1163.3,522.05,1163.3,593.63z"/>
	<path class="st0" d="M1163.3,162.43c-1.05-4.05-2.05-8.09-3.16-12.11c-12.77-46-42.56-73.79-89.31-83.45
		c-1.61-0.34-3.14-1.05-4.68-1.57c32.38,0,64.77,0,97.15,0C1163.3,97.66,1163.3,130.05,1163.3,162.43z"/>
	<path class="st1" d="M624.72,424.9c0,25.77-0.09,50.68,0.05,75.58c0.07,13.36,7.77,24.07,20.18,25.72
		c6.27,0.84,13.7-0.64,19.5-3.39c29.41-14.07,58.4-29.02,87.67-43.36c4.14-2.02,9.09-3.3,13.68-3.3
		c66.74-0.2,133.46-0.07,200.21-0.27c5.68-0.02,9.36,1.57,12.77,6.2c18.93,25.72,29.22,54.4,29.36,86.33
		c0.25,58.22,0.39,116.42,0,174.64c-0.52,78.9-64.4,143.17-143.17,143.58c-92.01,0.45-184,0.48-276.02,0
		c-78.72-0.41-142.64-64.81-143.08-143.67c-0.34-57.93-0.3-115.85-0.02-173.8c0.41-79.76,64.49-143.67,144.28-144.28
		C601.17,424.83,612.24,424.9,624.72,424.9z M726.12,782.82c16.73,0,33.45,0.09,50.18-0.02c15.86-0.11,27.22-10.73,27.36-25.32
		c0.14-14.59-11.23-25.68-26.91-25.75c-33.16-0.14-66.33-0.14-99.49,0c-15.66,0.07-27.04,11.16-26.93,25.72
		c0.11,14.54,11.52,25.22,27.32,25.34C693.8,782.91,709.96,782.82,726.12,782.82z M573.59,629.18c0,8.5-0.16,17,0.05,25.5
		c0.36,14.57,11.16,25.61,25.04,25.86c14.23,0.27,25.7-10.89,25.95-25.79c0.27-17,0.3-34-0.02-50.97
		c-0.27-14.45-11.54-25.41-25.45-25.43c-13.91-0.02-25.09,10.95-25.54,25.36C573.38,612.18,573.61,620.68,573.59,629.18z
		 M880.35,629.45c0-8.5,0.2-17-0.05-25.5c-0.41-14.52-11.39-25.5-25.27-25.63c-14.23-0.14-25.54,11.04-25.75,26
		c-0.23,16.7-0.23,33.43,0,50.13c0.2,15,11.45,26.18,25.68,26.07c14.23-0.11,25.04-11.32,25.36-26.43
		C880.49,645.88,880.37,637.67,880.35,629.45z"/>
	<path class="st2" d="M675.85,460.19c0-4.52,0-7.32,0-10.11c0-89.72-0.02-179.44,0-269.15c0-39.56,24.79-64.49,64.13-64.52
		c102.78-0.02,205.55-0.02,308.33,0c38.86,0,63.81,25,63.83,63.95c0.05,60.2,0.05,120.37,0,180.57
		c-0.02,38.95-24.97,63.95-63.86,63.95c-96.24,0.02-192.5-0.14-288.74,0.27c-8.41,0.05-17.34,2.57-25.07,6.07
		C715.21,439.95,696.46,449.9,675.85,460.19z M894.87,194.81c-45.97,0-91.94,0.07-137.92-0.05c-10.82-0.02-19.45,3.68-24.88,13.25
		c-9.91,17.43,2.66,37.77,23.59,37.88c37.45,0.18,74.9,0.05,112.37,0.05c54.47,0,108.97-0.05,163.44,0.02
		c11.59,0.02,20.48-4.5,25.43-15.11c8.16-17.45-4.68-35.95-25-36C986.23,194.72,940.55,194.81,894.87,194.81z M894.87,297.07
		c-45.97,0-91.94,0.07-137.92-0.05c-10.82-0.02-19.45,3.68-24.88,13.25c-9.91,17.43,2.66,37.77,23.59,37.88
		c36.88,0.18,73.79,0.05,110.67,0.05c55.04,0,110.1-0.05,165.14,0.02c11.59,0.02,20.48-4.5,25.43-15.11
		c8.16-17.43-4.66-35.95-24.97-36C986.25,296.98,940.55,297.07,894.87,297.07z"/>
	<path class="st3" d="M1059.92,578.36c9.82,0,19.16-0.43,28.45,0.11c13.09,0.75,23.5,11.29,23.63,24.57
		c0.34,34.59,0.34,69.2,0,103.81c-0.14,13.63-10.79,24.04-24.36,24.75c-7.07,0.36-14.18,0.09-21.27,0.11c-1.95,0-3.91,0-6.45,0
		C1059.92,680.62,1059.92,630.04,1059.92,578.36z"/>
	<path class="st3" d="M394.33,578.36c0,51.49,0,101.9,0,152.96c-10.66,0-21.16,0.91-31.41-0.25c-12.02-1.36-20.91-12-21-24.27
		c-0.27-34.61-0.3-69.2,0.02-103.81c0.11-13.23,10.57-23.79,23.66-24.54C374.88,577.93,384.22,578.36,394.33,578.36z"/>
	<path class="st4" d="M394.58,296.76c0.18,13.77-11.23,25.54-25.02,25.86c-14.09,0.3-26.11-11.54-26.04-25.66
		c0.07-13.79,11.66-25.36,25.43-25.43C382.74,271.49,394.42,282.96,394.58,296.76z"/>
	<path d="M726.12,782.82c-16.16,0-32.31,0.09-48.47-0.02c-15.82-0.11-27.2-10.79-27.32-25.34c-0.11-14.57,11.27-25.66,26.93-25.72
		c33.16-0.14,66.33-0.14,99.49,0c15.66,0.07,27.04,11.16,26.91,25.75c-0.14,14.59-11.5,25.2-27.36,25.32
		C759.57,782.91,742.84,782.82,726.12,782.82z"/>
	<path d="M573.61,629.18c0-8.5-0.2-17,0.05-25.5c0.43-14.41,11.64-25.38,25.54-25.36c13.88,0.02,25.18,10.98,25.45,25.43
		c0.32,17,0.3,34,0.02,50.97c-0.25,14.91-11.73,26.07-25.95,25.79c-13.88-0.25-24.7-11.29-25.04-25.86
		C573.43,646.17,573.59,637.67,573.61,629.18z"/>
	<path d="M880.35,629.45c0,8.2,0.14,16.43-0.02,24.63c-0.3,15.13-11.14,26.34-25.36,26.43c-14.23,0.11-25.47-11.09-25.68-26.07
		c-0.23-16.7-0.23-33.43,0-50.13c0.2-14.95,11.5-26.13,25.75-26c13.88,0.14,24.86,11.14,25.27,25.63
		C880.55,612.45,880.35,620.95,880.35,629.45z"/>
	<path d="M894.87,194.81c45.68,0,91.38-0.09,137.05,0.05c20.32,0.05,33.13,18.54,25,36c-4.95,10.61-13.84,15.13-25.43,15.11
		c-54.47-0.07-108.97-0.02-163.44-0.02c-37.45,0-74.92,0.14-112.37-0.05c-20.93-0.11-33.5-20.45-23.59-37.88
		c5.43-9.57,14.07-13.27,24.88-13.25C802.93,194.88,848.9,194.81,894.87,194.81z"/>
	<path d="M894.87,297.07c45.68,0,91.38-0.09,137.05,0.05c20.32,0.05,33.13,18.57,24.97,36c-4.95,10.61-13.84,15.13-25.43,15.11
		c-55.04-0.07-110.1-0.02-165.14-0.02c-36.88,0-73.79,0.14-110.67-0.05c-20.93-0.11-33.47-20.45-23.59-37.88
		c5.43-9.57,14.07-13.27,24.88-13.25C802.93,297.14,848.9,297.07,894.87,297.07z"/>
</g>
</svg>
