<?xml version="1.0" encoding="utf-8"?>
<!-- Generator: Adobe Illustrator 23.0.0, SVG Export Plug-In . SVG Version: 6.00 Build 0)  -->
<svg width="100" height="100" version="1.1" id="Layer_1" xmlns="http://www.w3.org/2000/svg" xmlns:xlink="http://www.w3.org/1999/xlink" x="0px" y="0px"
	 viewBox="0 0 1454.72 1000" style="enable-background:new 0 0 1454.72 1000;" xml:space="preserve">
<style type="text/css">
	.st0{fill:#CCF6FE;}
	.st1{fill:#62BB9F;}
	.st2{fill:#73DAEE;}
	.st3{fill:#FFFFFF;}
	.st4{fill:#FFDE55;}
</style>
<g>
	<path d="M377.75,853.61c56.77,0,112.28,0,165.9,0c4.5-13.84,6.95-27.67,13.23-39.43c15.62-29.22,41.23-44.06,74.38-44.32
		c52.37-0.42,104.77-0.12,157.14-0.12c3.18,0,6.37,0,10.02,0c0.73-14.66,0.61-28.94,2.27-43.01c6.37-53.8,32.43-96.25,75.99-128.02
		c5.13-3.72,7.12-7.33,6.91-13.56c-0.49-13.7-0.14-27.42-0.14-41.7c-11,0-21.61,1.47-31.65-0.28
		c-29.73-5.22-51.72-31.63-52.49-61.85c-0.4-15.5-0.42-31.02,0.02-46.52c0.16-5.95-1.83-8.9-7.14-11.21
		c-8.52-3.7-16.67-8.26-25.17-12.55c6.06-14.19,12.55-27.58,17.58-41.51c10.11-28,14.73-57.08,14.61-86.9
		c-0.12-24.54-0.02-49.07-0.02-74.75c16.08,0.47,32.24,0.89,39.68-16.93c7.33-17.54-3.42-28.75-15.71-39.99
		c10.18-10.39,19.9-20.39,29.71-30.32c9.62-9.76,19.34-19.46,29.43-29.59c11.47,11.85,22.5,23.76,40.53,15.99
		c16.93-7.3,17.75-22.31,16.76-38.7c28.16,0,55.77,0,84.21,0c-0.3,15.33-0.68,31.49,17.25,38.84c17.56,7.21,28.68-3.82,40.01-15.97
		c19.43,20.63,38.42,40.78,57.71,61.27c-9.74,9.36-21.56,20.18-14.3,37.88c7.12,17.35,22.24,18.82,39.03,17.14
		c0.33,6.04,0.87,11.21,0.87,16.39c0.07,35.98,0.44,71.99-0.05,107.98c-0.84,61.99-27.79,109.68-79.23,144.29
		c-19.36,13.02-37.58,27.77-55.84,42.31c-3,2.39-4.59,7.66-5.15,11.8c-3.28,24.49,4.59,43.97,19.81,64.55
		c46.1,62.39,47.32,129.65,12.62,198.3c-2.51,4.96-4.26,10.91-4.31,16.41c-0.35,39.5-0.19,79.01-0.19,118.51c0,3.14,0,6.3,0,9.83
		c-84.45,0-168,0-252.57,0c0-18.24,0-36.5,0-55.25c-47.34,0-93.69,0-140.07,0c-1.05,5.34-1.66,10.56-3.11,15.52
		c-6.81,23.36-28.26,39.99-52.93,40.03c-89.25,0.21-178.49,0.21-267.76,0.02c-23.6-0.05-41.98-18.26-42.02-41.74
		c-0.19-103.29-0.19-206.59,0-309.88c0.05-23.06,18.38-40.29,41.35-41.72c32.24-2.01,43.55,9.93,43.17,41.42
		c-1.01,85.43-0.35,170.88-0.35,256.34C377.75,846.05,377.75,849.52,377.75,853.61z M995.51,685.8c0,7.96,0.28,14.96-0.09,21.94
		c-0.26,4.64-1.17,9.29-2.25,13.81c-10.93,45.49-49.49,76.06-96.88,76.23c-66.4,0.23-132.81,0.07-199.21,0.07c-3.35,0-6.7,0-9.79,0
		c0,19.48,0,37.51,0,56.19c2.51,0,4.5,0,6.49,0c76.06,0,152.11-0.19,228.17,0.12c20.3,0.09,38.86-4.99,55.56-16.06
		c46.31-30.74,70.82-74.52,74.19-129.61c2.79-45.54-15.36-83.74-45.35-116.87c-1.83-2.01-6.23-2.74-9.27-2.41
		c-11.33,1.24-22.57,3.11-33.85,4.85c-63.24,9.76-105.77,45.02-127.95,104.77c-8.45,22.78-9.2,46.59-7.52,70.8
		c25.33,0,49.89,0.75,74.43-0.19c31.16-1.19,58.08-25.14,63.8-55.74c1.69-9.04,1.73-18.4,2.55-27.86
		C977.46,685.8,986.12,685.8,995.51,685.8z M911.53,576.35c28.12-5.6,55.77-11.1,84.63-16.86c0-50.97,0-102.85,0-154.99
		c8.97,0,16.86,0.05,24.77,0c18.4-0.09,31.23-11.87,31.04-28.45c-0.19-16.18-12.9-27.63-30.86-27.74c-8.33-0.05-16.69,0-25.64,0
		c0-19.41,0-37.44,0-55.74c-56.4,0-112.14,0-168.47,0c-1.4,36.57-8.78,71.5-23.95,106.9c7.87,1.85,14.68,4.66,21.54,4.8
		c25.45,0.56,50.9,0.21,76.35,0.21c3.37,0,6.77,0,10.09,0c2.04,22.08-1.66,41.44-15.19,58.06c-17.09,21-40.08,27.84-66.37,26.22
		c5.27,19.88,23.13,30.79,43.34,27.37c25.89-4.38,51.79-8.66,78.41-13.11c1.57,9.34,3.04,18.12,4.64,27.58
		c-15.12,2.62-29.41,5.08-44.37,7.66c0,9.93,0,19.55,0,29.15C911.53,570.89,911.53,574.31,911.53,576.35z M1135.63,263.57
		c0-10.47,0-19.92,0-29.12c-32-12.97-48.56-38.84-38.89-67.33c5.17-15.24,0.02-22.31-9.65-30.37c-0.23-0.19-0.47-0.37-0.63-0.61
		c-3.72-5.29-7.63-5.9-13.98-3.18c-28.33,12.1-60.89-1.76-72.67-30.22c-0.98-2.36-1.92-4.73-2.74-6.72c-10.72,0-20.84,0-30.69,0
		c-13.72,32.45-38.58,48.63-67.14,39.05c-15.62-5.22-22.9-0.05-31.07,10.04c-0.19,0.23-0.37,0.44-0.61,0.63
		c-4.68,3.63-5.69,7.12-2.95,13.3c11.52,26.03,0.66,56.38-24.32,70.05c-4.05,2.22-8.43,3.84-12.43,5.64c0,9.81,0,19.31,0,28.73
		c19.13,0,37.67,0,56.26,0c-6.67-64.05,41.56-110.29,95.24-111.74c53.4-1.45,106.73,43.31,100.34,111.88
		C1098.27,263.57,1116.83,263.57,1135.63,263.57z M1024.31,483.45c18.35-12.55,36.24-24.56,53.87-36.94
		c5.71-4,11.07-8.66,16.11-13.53c40.2-38.89,45.65-88.03,41.11-140.28c-37.04,0-73.98,0-110.9,0c0,9.48,0,18.38,0,27.16
		c33.08,3.84,54.67,25.31,55.51,54.62c0.89,31.09-19.64,52.89-55.72,58.79C1024.31,449.81,1024.31,466.41,1024.31,483.45z
		 M630.29,882.55c-1.62-0.19-2.76-0.42-3.91-0.42c-90.04,0-180.06-0.05-270.1,0.21c-7.49,0.02-15.08,1.62-22.45,3.25
		c-6.41,1.43-12.74,3.98-12.06,12.46c0.59,7.26,6.79,12.13,15.71,12.13c88.29,0.07,176.55,0.12,264.83-0.05
		C618.04,910.08,628.67,899.43,630.29,882.55z M349.07,854.06c0-93.67,0-187.08,0-280.43c-23.88-2.08-27.51,1.19-27.51,24.16
		c0,83.63,0,167.25,0,250.88c0,3.42,0,6.81,0,10.49C331.34,857.36,340.17,855.72,349.07,854.06z M827.65,909.62
		c65.72,0,130.73,0,195.63,0c0-24.02,0-47.43,0-72.16c-4,3.56-6.95,6.3-10.02,8.9c-25.78,21.63-54.41,36.03-89.01,35.8
		c-23.39-0.16-46.78-0.02-70.14-0.02c-8.69,0-17.37,0-26.43,0C827.65,891.68,827.65,900.32,827.65,909.62z M1049.78,263.68
		c7.42-25.17-5.13-56.02-29.01-71.99c-25.47-17.04-58.48-15.69-82.71,3.42c-21.09,16.62-31.89,47.46-23.93,68.55
		c8.94,0,17.96,0,26.99,0c-3.49-32.73,11.47-54.41,38.23-55.72c11.99-0.59,22.52,3.21,31.18,11.5
		c12.74,12.2,15.69,27.27,11.45,44.25C1031.89,263.68,1040.91,263.68,1049.78,263.68z M658.2,853.57c0-19.01,0-37.01,0-54.95
		c-49.94-6.25-84.8,16.74-83.23,54.95C602.57,853.57,630.17,853.57,658.2,853.57z M879.9,433.12c-17.72,0-34.84,0-52.02,0
		c0,9.39,0,18.26,0,27.09C855.84,462.4,873.12,453.51,879.9,433.12z M995.75,250.34c0.21-7.59-6.02-14.14-13.63-14.33
		c-7.59-0.21-14.12,5.99-14.33,13.63c-0.21,7.59,6.02,14.14,13.6,14.35C988.98,264.18,995.54,257.93,995.75,250.34z"/>
	<path d="M490.12,516.88c-13.41,0-25.94,0-38.44,0c-28.38,0-56.75,0.05-85.13-0.02c-27.37-0.07-44.97-17.65-45-45.04
		c-0.05-82.48-0.07-164.96,0-247.44c0.02-26.83,17.75-44.6,44.53-44.6c110.85-0.05,221.71-0.07,332.56,0
		c26.31,0.02,44.25,17.77,44.27,43.97c0.09,83.06,0.09,166.13,0,249.19c-0.02,26.1-18.03,43.83-44.34,43.9
		c-32.17,0.09-64.36-0.16-96.53,0.26c-4.33,0.05-9.62,2.22-12.78,5.2c-13.23,12.38-25.8,25.5-38.68,38.25
		c-12.46,12.36-26.08,15.83-39.75,9.67c-14.7-6.63-21.14-18.52-20.74-34.44C490.24,529.97,490.12,524.12,490.12,516.88z
		 M518.22,488.79c0,16.11-0.23,31,0.19,45.89c0.09,3.25,2.62,6.41,4.03,9.62c2.95-1.4,6.56-2.15,8.76-4.31
		c15.52-15.1,30.53-30.72,46.21-45.63c3.16-3,8.4-5.27,12.74-5.31c35.4-0.42,70.82-0.21,106.22-0.26
		c13.79-0.02,18.5-4.66,18.5-18.38c0.02-81.36,0.02-162.69,0-244.04c0-13.81-4.66-18.5-18.38-18.5
		c-109.45-0.02-218.88-0.02-328.33,0c-13.81,0-18.5,4.64-18.5,18.35c-0.02,81.36-0.02,162.69,0,244.04
		c0,13.81,4.66,18.5,18.35,18.52c46.52,0.02,93.06,0.02,139.58,0.02C510.77,488.79,513.93,488.79,518.22,488.79z"/>
	<path d="M603.04,657.52c9.29,0,17.72,0,26.85,0c0,8.97,0,17.82,0,27.32c-8.62,0-17.47,0-26.85,0
		C603.04,675.99,603.04,667.14,603.04,657.52z"/>
	<path d="M686.06,685.26c-9.15,0-17.61,0-26.69,0c0-9.01,0-17.86,0-27.32c8.71,0,17.56,0,26.69,0
		C686.06,667.09,686.06,676.15,686.06,685.26z"/>
	<path d="M715.32,657.73c9.18,0,17.82,0,27.06,0c0,8.99,0,17.84,0,27.2c-8.92,0-17.77,0-27.06,0
		C715.32,675.99,715.32,667.35,715.32,657.73z"/>
	<path class="st0" d="M995.51,685.8c-9.39,0-18.05,0-26.97,0c-0.82,9.46-0.87,18.82-2.55,27.86c-5.69,30.6-32.64,54.53-63.8,55.74
		c-24.51,0.94-49.09,0.19-74.43,0.19c-1.69-24.21-0.94-48.02,7.52-70.8c22.17-59.75,64.69-95.01,127.95-104.77
		c11.26-1.73,22.52-3.61,33.85-4.85c3.02-0.33,7.44,0.4,9.27,2.41c29.99,33.13,48.16,71.34,45.35,116.87
		c-3.37,55.09-27.88,98.87-74.19,129.61c-16.69,11.07-35.26,16.15-55.56,16.06c-76.06-0.3-152.11-0.12-228.17-0.12
		c-1.99,0-3.98,0-6.48,0c0-18.68,0-36.71,0-56.19c3.09,0,6.44,0,9.79,0c66.4,0,132.81,0.16,199.21-0.07
		c47.39-0.16,85.94-30.72,96.88-76.23c1.08-4.52,1.99-9.18,2.25-13.81C995.79,700.76,995.51,693.74,995.51,685.8z"/>
	<path class="st0" d="M911.53,576.35c0-2.04,0-5.48,0-8.9c0-9.6,0-19.22,0-29.15c14.94-2.58,29.24-5.06,44.37-7.66
		c-1.59-9.46-3.07-18.24-4.64-27.58c-26.62,4.45-52.54,8.73-78.41,13.11c-20.2,3.42-38.07-7.52-43.34-27.37
		c26.27,1.59,49.28-5.22,66.37-26.22c13.53-16.62,17.23-35.98,15.19-58.06c-3.35,0-6.72,0-10.09,0c-25.45,0-50.92,0.33-76.35-0.21
		c-6.86-0.14-13.67-2.97-21.54-4.8c15.17-35.4,22.52-70.33,23.95-106.9c56.33,0,112.07,0,168.47,0c0,18.28,0,36.34,0,55.74
		c8.94,0,17.28-0.05,25.64,0c17.96,0.09,30.67,11.54,30.86,27.74c0.19,16.58-12.64,28.33-31.04,28.45c-7.89,0.05-15.78,0-24.77,0
		c0,52.14,0,104.02,0,154.99C967.3,565.25,939.65,570.75,911.53,576.35z M855.88,320.41c-2.32,20.51,1.31,37.93,19.41,49.49
		c14.33,9.15,32.5,8.71,46.17-1.1c16.69-11.99,19.97-28.89,17.61-47.97c-9.36,0-18.24,0-27.56,0c0,4.66,0.16,8.73-0.02,12.78
		c-0.44,8.85-6.25,14.75-14.19,14.63c-7.91-0.12-13.44-6.04-13.81-15.01c-0.16-4.21-0.02-8.45-0.02-12.83
		C873.63,320.41,865.2,320.41,855.88,320.41z"/>
	<path class="st1" d="M1135.63,263.57c-18.8,0-37.37,0-55.95,0c6.39-68.57-46.94-113.34-100.34-111.88
		c-53.68,1.45-101.89,47.69-95.24,111.74c-18.59,0-37.13,0-56.26,0c0-9.41,0-18.92,0-28.73c3.98-1.78,8.36-3.42,12.43-5.64
		c25-13.67,35.84-44.01,24.32-70.05c-2.74-6.18-1.71-9.67,2.95-13.3c0.23-0.19,0.42-0.4,0.61-0.63
		c8.17-10.09,15.45-15.26,31.07-10.04c28.56,9.58,53.43-6.6,67.14-39.05c9.86,0,19.97,0,30.69,0c0.82,1.99,1.76,4.38,2.74,6.72
		c11.78,28.47,44.34,42.33,72.67,30.22c6.37-2.72,10.25-2.11,13.98,3.18c0.16,0.23,0.4,0.42,0.63,0.61
		c9.67,8.05,14.82,15.15,9.65,30.37c-9.67,28.49,6.88,54.36,38.89,67.33C1135.63,243.64,1135.63,253.1,1135.63,263.57z"/>
	<path class="st0" d="M1024.31,483.45c0-17.04,0-33.64,0-50.17c36.08-5.9,56.61-27.7,55.72-58.79
		c-0.84-29.31-22.43-50.78-55.51-54.62c0-8.8,0-17.68,0-27.16c36.9,0,73.86,0,110.9,0c4.54,52.26-0.91,101.4-41.11,140.28
		c-5.03,4.87-10.39,9.51-16.11,13.53C1060.55,458.89,1042.66,470.9,1024.31,483.45z"/>
	<path class="st2" d="M630.29,882.55c-1.62,16.88-12.24,27.53-27.98,27.56c-88.29,0.14-176.55,0.09-264.83,0.05
		c-8.9,0-15.12-4.87-15.71-12.13c-0.68-8.48,5.64-11.03,12.06-12.46c7.37-1.64,14.96-3.23,22.45-3.25
		c90.04-0.23,180.06-0.19,270.1-0.21C627.53,882.13,628.67,882.36,630.29,882.55z"/>
	<path class="st2" d="M349.07,854.06c-8.9,1.66-17.75,3.3-27.51,5.13c0-3.68,0-7.09,0-10.49c0-83.63,0-167.25,0-250.88
		c0-22.97,3.65-26.24,27.51-24.16C349.07,666.98,349.07,760.39,349.07,854.06z"/>
	<path class="st0" d="M827.65,909.62c0-9.29,0-17.93,0-27.51c9.06,0,17.75,0,26.43,0c23.39,0,46.78-0.12,70.14,0.02
		c34.6,0.23,63.26-14.16,89.01-35.8c3.07-2.58,6.02-5.34,10.02-8.9c0,24.72,0,48.13,0,72.16
		C958.38,909.62,893.37,909.62,827.65,909.62z"/>
	<path class="st3" d="M1049.78,263.68c-8.9,0-17.89,0-27.77,0c4.24-16.97,1.29-32.05-11.45-44.25c-8.66-8.29-19.2-12.08-31.18-11.5
		c-26.76,1.31-41.74,22.99-38.23,55.72c-9.04,0-18.03,0-26.99,0c-7.96-21.09,2.83-51.93,23.93-68.55
		c24.23-19.1,57.22-20.46,82.71-3.42C1044.68,207.66,1057.2,238.52,1049.78,263.68z"/>
	<path class="st3" d="M658.2,853.57c-28.02,0-55.63,0-83.23,0c-1.59-38.21,33.29-61.2,83.23-54.95
		C658.2,816.55,658.2,834.56,658.2,853.57z"/>
	<path class="st3" d="M879.9,433.12c-6.79,20.39-24.04,29.29-52.02,27.09c0-8.8,0-17.68,0-27.09
		C845.04,433.12,862.18,433.12,879.9,433.12z"/>
	<path class="st1" d="M995.75,250.34c-0.21,7.59-6.77,13.84-14.33,13.63c-7.61-0.21-13.81-6.74-13.6-14.35
		c0.21-7.61,6.74-13.81,14.33-13.63C989.73,236.2,995.93,242.75,995.75,250.34z"/>
	<path class="st4" d="M518.22,488.79c-4.28,0-7.44,0-10.63,0c-46.52,0-93.06,0.02-139.58-0.02c-13.7,0-18.35-4.71-18.35-18.52
		c-0.02-81.36-0.02-162.69,0-244.04c0-13.72,4.68-18.35,18.5-18.35c109.45-0.02,218.88-0.02,328.33,0c13.72,0,18.38,4.68,18.38,18.5
		c0.02,81.36,0.02,162.69,0,244.04c0,13.72-4.71,18.35-18.5,18.38c-35.4,0.05-70.82-0.16-106.22,0.26
		c-4.33,0.05-9.58,2.32-12.74,5.31c-15.69,14.91-30.72,30.53-46.21,45.63c-2.22,2.15-5.81,2.9-8.76,4.31
		c-1.4-3.21-3.93-6.39-4.03-9.62C517.98,519.79,518.22,504.9,518.22,488.79z M602.19,236.36c0,65.67,0,130.73,0,195.79
		c-9.62,0-18.28,0-27.91,0c0-46.75,0-93.09,0-139.39c-28.56,0-56.16,0-84.4,0c0,46.75,0,92.87,0,139.3c-9.53,0-18.38,0-28.21,0
		c0-28.14,0-55.74,0-83.3c-28.35,0-55.74,0-83.39,0c0,37.41,0,74.36,0,111.3c103.06,0,205.56,0,308.05,0c0-74.85,0-149.04,0-223.68
		C658.55,236.36,631.15,236.36,602.19,236.36z"/>
	<path d="M855.88,320.41c9.32,0,17.75,0,27.58,0c0,4.38-0.14,8.62,0.02,12.83c0.37,8.97,5.9,14.89,13.81,15.01
		c7.94,0.12,13.74-5.78,14.19-14.63c0.21-4.05,0.02-8.12,0.02-12.78c9.32,0,18.19,0,27.56,0c2.36,19.08-0.91,35.98-17.61,47.97
		c-13.67,9.81-31.84,10.25-46.17,1.1C857.19,358.34,853.57,340.92,855.88,320.41z"/>
	<path d="M602.19,236.36c28.96,0,56.35,0,84.17,0c0,74.64,0,148.83,0,223.68c-102.5,0-205.02,0-308.05,0c0-36.92,0-73.89,0-111.3
		c27.65,0,55.04,0,83.39,0c0,27.56,0,55.16,0,83.3c9.83,0,18.68,0,28.21,0c0-46.43,0-92.55,0-139.3c28.23,0,55.84,0,84.4,0
		c0,46.33,0,92.66,0,139.39c9.62,0,18.28,0,27.91,0C602.19,367.12,602.19,302.06,602.19,236.36z M658.08,432.18
		c0-56.35,0-112,0-167.44c-9.48,0-18.35,0-27.04,0c0,56.14,0,111.6,0,167.44C640.12,432.18,648.78,432.18,658.08,432.18z
		 M518.82,320.62c0,37.67,0,74.59,0,111.28c9.51,0,18.38,0,27.02,0c0-37.44,0-74.17,0-111.28
		C536.73,320.62,528.07,320.62,518.82,320.62z M433.56,376.86c-9.65,0-18.28,0-27.2,0c0,18.66,0,36.87,0,55.13
		c9.39,0,18.24,0,27.2,0C433.56,413.38,433.56,395.4,433.56,376.86z"/>
	<path class="st4" d="M658.08,432.18c-9.29,0-17.96,0-27.04,0c0-55.86,0-111.3,0-167.44c8.69,0,17.56,0,27.04,0
		C658.08,320.2,658.08,375.85,658.08,432.18z"/>
	<path class="st4" d="M518.82,320.62c9.25,0,17.89,0,27.02,0c0,37.11,0,73.82,0,111.28c-8.64,0-17.51,0-27.02,0
		C518.82,395.21,518.82,358.29,518.82,320.62z"/>
	<path class="st4" d="M433.56,376.86c0,18.52,0,36.52,0,55.13c-8.97,0-17.84,0-27.2,0c0-18.26,0-36.48,0-55.13
		C415.27,376.86,423.94,376.86,433.56,376.86z"/>
</g>
</svg>
