<?xml version="1.0" encoding="utf-8"?>
<!-- Generator: Adobe Illustrator 23.0.0, SVG Export Plug-In . SVG Version: 6.00 Build 0)  -->
<svg width="100" height="80" version="1.1" id="Layer_1" xmlns="http://www.w3.org/2000/svg" xmlns:xlink="http://www.w3.org/1999/xlink" x="0px" y="0px"
	 viewBox="0 0 1000 1000" style="enable-background:new 0 0 1000 1000;" xml:space="preserve">
<style type="text/css">
	.st0{fill:#62BB9F;}
	.st1{fill:#CCF6FE;}
	.st2{fill:#FFDE55;}
</style>
<path class="st0" d="M99.24,814.21H779.1c36.62,0,66.3-29.68,66.3-66.3V131.58c0-36.62-29.68-66.3-66.3-66.3H99.24
	c-36.62,0-66.3,29.68-66.3,66.3v616.33C32.94,784.52,62.62,814.21,99.24,814.21z"/>
<path d="M32.94,117.95c4.39-13.33,9.34-26.25,20.21-36.06c13.97-12.61,30.59-16.79,48.86-16.79c141.47,0.05,282.95,0.03,424.42,0.03
	c83.54,0,167.09-0.04,250.63,0.02c30.48,0.02,53.5,14.47,63.23,39.35c4.81,12.31,6.59,37.08,3.73,53.56
	c-1.29,0.23-2.73,0.69-4.17,0.7c-8.19,0.07-16.39,0.03-25.99,0.03c0-9.02,0.05-17.42-0.01-25.83c-0.16-24.36-12.31-36.6-36.66-36.6
	c-225.63-0.03-451.25-0.04-676.88,0c-23.78,0-36.18,12.43-36.18,36.05c-0.03,205.2-0.03,410.4,0,615.6
	c0,23.08,12.49,35.5,35.63,35.72c8.49,0.08,16.98,0.01,26.09,0.01c0,10.51,0,20.35,0,30.9c-25.25,0.5-50.28,3.07-71.33-15.28
	c-11.57-10.09-17.08-23.29-21.58-37.27C32.94,547.38,32.94,332.67,32.94,117.95z"/>
<path d="M563.34,939.67c-113.13,0-226.26,0.05-339.39-0.03c-31.99-0.02-55.62-17.11-63.47-46.19c-1.96-7.24-2.64-15.03-2.64-22.57
	c-0.14-204-0.13-408-0.09-612c0.01-34.54,16.74-58.22,47.37-66.38c6.95-1.85,14.45-2.28,21.7-2.29
	c224.74-0.11,449.47-0.13,674.21-0.06c43.19,0.01,68.85,25.84,68.86,68.85c0.01,204,0.02,408,0,612.01
	c0,43.08-25.71,68.65-68.98,68.66C788.39,939.69,675.87,939.67,563.34,939.67z M563.34,908.5c112.51,0,225.02,0.01,337.52,0
	c26.31,0,37.85-11.56,37.85-37.92c0.01-203.67,0.01-407.35,0-611.02c0-26.54-11.34-38.08-37.65-38.08
	c-224.71-0.02-449.42-0.02-674.13,0c-26.48,0-37.95,11.47-37.95,37.89c-0.02,203.67-0.02,407.35,0,611.02
	c0,26.4,11.63,38.11,37.75,38.11C338.93,908.51,451.14,908.5,563.34,908.5z"/>
<path d="M95.86,128.04c10.25,0,19.86,0,30.04,0c0,10.06,0,19.66,0,30.03c-9.81,0-19.63,0-30.04,0
	C95.86,148.34,95.86,138.71,95.86,128.04z"/>
<path d="M188.24,158.29c-9.89,0-19.47,0-29.79,0c0-9.98,0-19.77,0-30.14c9.92,0,19.49,0,29.79,0
	C188.24,138.16,188.24,147.94,188.24,158.29z"/>
<path d="M220.81,128.1c10.36,0,19.92,0,30.09,0c0,10.09,0,19.66,0,29.99c-9.87,0-19.68,0-30.09,0
	C220.81,148.32,220.81,138.74,220.81,128.1z"/>
<path class="st1" d="M563.34,908.5c-112.2,0-224.41,0.01-336.61,0c-26.12,0-37.75-11.71-37.75-38.11
	c-0.02-203.67-0.02-407.35,0-611.02c0-26.42,11.47-37.89,37.95-37.89c224.71-0.02,449.42-0.02,674.13,0
	c26.32,0,37.65,11.54,37.65,38.08c0.01,203.67,0.01,407.35,0,611.02c0,26.36-11.54,37.92-37.85,37.92
	C788.36,908.51,675.85,908.5,563.34,908.5z M501.42,434.03c-8.14,3.39-16.16,6.3-23.76,10.07c-4.74,2.36-7.66,1.46-11.09-2.18
	c-7.1-7.55-14.48-14.85-21.96-22.03c-9.31-8.95-17.21-9.13-26.24-0.21c-20.83,20.57-41.53,41.29-62.1,62.12
	c-9.01,9.13-8.92,17.01-0.04,26.24c7.4,7.69,15.13,15.06,22.54,22.74c1.56,1.61,3.82,4.43,3.33,5.83
	c-3.14,8.88-6.75,17.62-10.78,26.14c-0.65,1.38-4.12,1.94-6.31,1.99c-10.06,0.21-20.13,0.02-30.19,0.11
	c-15.1,0.14-20.6,5.4-20.67,20.24c-0.13,28.06-0.11,56.12-0.01,84.18c0.06,15.58,5.18,20.5,21.1,20.66
	c10.06,0.1,20.31-1.16,30.15,0.33c13.22,2,8.98,16.76,15.14,24.35c1.31,1.62-0.09,5.74-0.81,8.57c-0.32,1.27-2.04,2.18-3.12,3.26
	c-6.9,6.9-13.93,13.68-20.67,20.74c-8.27,8.65-8.75,16.59-0.62,24.89c21.11,21.58,42.46,42.94,64.01,64.09
	c7.69,7.55,16.31,7.13,24.33-0.32c5.36-4.98,10.39-10.3,15.57-15.48c11.78-11.8,11.77-11.78,26.97-5.54
	c3.1,1.27,6.19,2.72,9.43,3.44c4.9,1.08,6,3.96,5.88,8.58c-0.28,10.97-0.28,21.96-0.02,32.93c0.26,11.08,6.01,17.35,16.91,17.46
	c30.19,0.29,60.39,0.27,90.58,0.03c11.12-0.09,16.83-6.04,17.15-17.09c0.29-10.06-0.17-20.14,0.23-30.19
	c0.14-3.57,0.83-9.19,3.01-10.24c8.86-4.27,18.37-7.24,27.77-10.3c0.85-0.28,2.65,2.24,3.94,3.53c6.91,6.89,13.77,13.84,20.71,20.69
	c10.65,10.51,18.45,10.63,28.93,0.23c17.53-17.4,34.96-34.91,52.43-52.38c20.59-20.59,20.57-22.53,0.01-43.16
	c-6.02-6.04-15.33-11.5-16.82-18.56c-1.47-6.94,5.35-15.48,8.01-23.5c1.61-4.84,4.21-6.6,9.31-6.44c10.66,0.34,21.36,0.36,32.02,0
	c12.16-0.42,17.97-6.02,18.09-18.22c0.3-29.58,0.32-59.17-0.02-88.75c-0.14-11.98-6.28-17.53-18.44-17.98
	c-7.01-0.26-14.03-0.06-21.04-0.06c-16.76,0-16.75,0-23.08-15.16c-1.06-2.53-1.93-5.21-3.43-7.46c-3.25-4.9-2.5-8.43,1.92-12.47
	c8.1-7.39,15.82-15.24,23.29-23.28c6.97-7.51,7.25-15.6,0.16-22.84c-21.55-22.01-43.33-43.79-65.34-65.34
	c-7.31-7.16-15.22-6.89-22.83-0.03c-5.66,5.1-10.87,10.69-16.27,16.08c-11.95,11.94-11.94,11.94-27.89,5.51
	c-2.54-1.02-5.04-2.31-7.68-2.88c-5.39-1.17-7.26-4.06-7.01-9.66c0.46-10.35,0.26-20.74,0.09-31.1
	c-0.21-12.84-5.69-18.41-18.47-18.47c-29.28-0.13-58.56-0.13-87.84,0c-12.61,0.06-18.26,5.89-18.42,18.65
	C501.3,408.87,501.42,421.36,501.42,434.03z M220.79,345.68c229.31,0,457.82,0,686.15,0c0-10.45,0-20.08,0-29.96
	c-228.93,0-457.25,0-686.15,0C220.79,325.78,220.79,335.4,220.79,345.68z M344.85,393.1c-40.61,0-80.15-0.05-119.69,0.17
	c-1.62,0.01-4.56,2.48-4.63,3.91c-0.44,8.72-0.22,17.48-0.22,26.59c42.09,0,83.04,0,124.54,0
	C344.85,413.6,344.85,404.02,344.85,393.1z M220.25,456.25c0,8.98-0.33,17.44,0.27,25.83c0.13,1.76,3.66,4.66,5.66,4.68
	c27.35,0.31,54.71,0.31,82.06,0c1.97-0.02,5.47-2.97,5.6-4.75c0.6-8.39,0.27-16.85,0.27-25.76
	C282.43,456.25,251.89,456.25,220.25,456.25z M907.3,846.71c-31.41,0-62.02,0-92.71,0c0,10.4,0,20.22,0,29.9c31.32,0,61.9,0,92.71,0
	C907.3,866.48,907.3,857.08,907.3,846.71z M220.85,253.23c0,10.64,0,20.19,0,29.96c10.4,0,20.14,0,30.04,0c0-10.37,0-19.92,0-29.96
	C240.7,253.23,231.12,253.23,220.85,253.23z M283.52,253.23c0,10.69,0,20.26,0,29.92c10.46,0,20.21,0,29.96,0c0-10.43,0-20,0-29.92
	C303.25,253.23,293.67,253.23,283.52,253.23z M375.88,283.41c0-10.39,0-20.17,0-30.1c-10.34,0-19.92,0-29.75,0
	c0,10.36,0,20.14,0,30.1C356.45,283.41,366.02,283.41,375.88,283.41z"/>
<path d="M501.42,434.03c0-12.67-0.12-25.16,0.03-37.65c0.15-12.76,5.8-18.59,18.42-18.65c29.28-0.14,58.56-0.13,87.84,0
	c12.77,0.06,18.25,5.63,18.47,18.47c0.17,10.37,0.37,20.75-0.09,31.1c-0.25,5.6,1.62,8.49,7.01,9.66c2.65,0.57,5.14,1.86,7.68,2.88
	c15.94,6.42,15.94,6.43,27.89-5.51c5.39-5.39,10.61-10.98,16.27-16.08c7.62-6.86,15.52-7.14,22.83,0.03
	c22,21.55,43.79,43.33,65.34,65.34c7.09,7.24,6.81,15.33-0.16,22.84c-7.46,8.04-15.19,15.89-23.29,23.28
	c-4.42,4.03-5.18,7.57-1.92,12.47c1.5,2.25,2.37,4.93,3.43,7.46c6.34,15.16,6.33,15.16,23.08,15.16c7.01,0,14.04-0.2,21.04,0.06
	c12.16,0.45,18.31,6,18.44,17.98c0.34,29.58,0.31,59.17,0.02,88.75c-0.12,12.2-5.93,17.81-18.09,18.22
	c-10.66,0.37-21.35,0.35-32.02,0c-5.1-0.16-7.7,1.6-9.31,6.44c-2.66,8.01-9.48,16.56-8.01,23.5c1.49,7.06,10.81,12.53,16.82,18.56
	c20.56,20.63,20.58,22.57-0.01,43.16c-17.47,17.47-34.9,34.98-52.43,52.38c-10.48,10.4-18.28,10.29-28.93-0.23
	c-6.94-6.86-13.8-13.81-20.71-20.69c-1.29-1.29-3.1-3.8-3.94-3.53c-9.4,3.06-18.9,6.03-27.77,10.3c-2.18,1.05-2.87,6.67-3.01,10.24
	c-0.4,10.05,0.05,20.13-0.23,30.19c-0.31,11.05-6.03,17-17.15,17.09c-30.19,0.25-60.39,0.27-90.58-0.03
	c-10.9-0.11-16.65-6.38-16.91-17.46c-0.26-10.97-0.26-21.96,0.02-32.93c0.12-4.62-0.98-7.5-5.88-8.58
	c-3.24-0.72-6.33-2.17-9.43-3.44c-15.2-6.24-15.19-6.26-26.97,5.54c-5.17,5.18-10.21,10.5-15.57,15.48
	c-8.02,7.45-16.64,7.87-24.33,0.32c-21.55-21.15-42.89-42.51-64.01-64.09c-8.13-8.31-7.65-16.24,0.62-24.89
	c6.74-7.05,13.77-13.84,20.67-20.74c1.08-1.08,2.8-1.99,3.12-3.26c0.72-2.83,2.12-6.95,0.81-8.57c-6.16-7.59-1.92-22.35-15.14-24.35
	c-9.84-1.49-20.09-0.23-30.15-0.33c-15.92-0.16-21.04-5.08-21.1-20.66c-0.1-28.06-0.12-56.12,0.01-84.18
	c0.07-14.84,5.56-20.1,20.67-20.24c10.06-0.1,20.13,0.09,30.19-0.11c2.19-0.04,5.66-0.61,6.31-1.99
	c4.02-8.52,7.64-17.26,10.78-26.14c0.5-1.4-1.77-4.22-3.33-5.83c-7.42-7.67-15.14-15.05-22.54-22.74
	c-8.88-9.22-8.97-17.11,0.04-26.24c20.57-20.83,41.27-41.55,62.1-62.12c9.03-8.92,16.93-8.74,26.24,0.21
	c7.47,7.18,14.86,14.48,21.96,22.03c3.42,3.64,6.34,4.54,11.09,2.18C485.25,440.33,493.28,437.42,501.42,434.03z M433.58,451.83
	c-15.76,15.65-30.16,29.95-44.71,44.4c-0.22-0.35,0.02,0.24,0.43,0.65c6.22,6.28,12.46,12.55,18.7,18.81
	c11.91,11.95,12.21,15.63,5.15,30.45c-5.22,10.95-9.86,22.24-13.91,33.67c-4.83,13.64-7.69,16.17-22.47,16.23
	c-10.24,0.04-20.47,0.01-30.85,0.01c0,21.44,0,41.44,0,62.56c11.69,0,22.88,0.03,34.06-0.01c9.43-0.04,15.11,4.49,18.45,13.33
	c5.14,13.63,10.84,27.06,16.63,40.43c4.45,10.27,3.85,15.87-4.18,23.86c-7.74,7.69-15.79,15.07-23.19,22.1
	c15.46,15.41,29.85,29.75,45.44,45.29c6.82-7.24,14.16-15.35,21.87-23.11c8.38-8.45,13.06-8.91,23.68-4.3
	c13.37,5.8,26.77,11.62,40.43,16.66c9.3,3.43,13.78,9.17,13.54,19.1c-0.27,11.16-0.06,22.32-0.06,33.47c21.45,0,41.68,0,62.37,0
	c0-11.36-0.08-22.01,0.02-32.66c0.11-11.56,3.35-15.73,13.79-19.87c13.55-5.37,27.14-10.71,40.35-16.87
	c9.04-4.21,16.34-3.27,23.1,3.88c7.71,8.16,15.49,16.24,22.38,23.45c15.43-15.37,29.83-29.71,45.59-45.41
	c-7.45-6.94-15.63-14.19-23.37-21.88c-8.32-8.25-8.69-13.09-4.01-23.79c5.59-12.8,10.99-25.69,15.99-38.73
	c4.51-11.73,8.2-14.8,20.91-14.96c10.6-0.13,21.21-0.03,32.18-0.03c0-21.31,0-41.52,0-62.55c-11.34,0-21.96,0.08-32.58-0.02
	c-12.42-0.11-15.92-2.91-20.31-14.27c-5.04-13.02-10.32-25.96-15.94-38.75c-4.94-11.24-4.66-16.04,4.04-24.52
	c7.79-7.59,16.08-14.67,23.64-21.51c-16.29-16.25-30.67-30.59-45.8-45.68c-7.13,7.42-14.6,15.46-22.36,23.19
	c-8.4,8.37-12.96,8.82-23.75,4.07c-12.51-5.5-25.06-10.95-37.82-15.82c-13.25-5.05-15.97-8.41-16.01-22.88
	c-0.03-10.21-0.01-20.43-0.01-30.52c-21.49,0-41.49,0-62.37,0c0,11.36-0.25,22.27,0.08,33.16c0.3,9.89-3.99,15.88-13.23,19.38
	c-13.91,5.27-27.74,10.83-41.26,17.02c-8.73,4-15.84,3-22.34-3.76C448.03,467.02,440.28,458.86,433.58,451.83z"/>
<path d="M220.79,345.68c0-10.28,0-19.9,0-29.96c228.89,0,457.22,0,686.15,0c0,9.88,0,19.51,0,29.96
	C678.61,345.68,450.09,345.68,220.79,345.68z"/>
<path d="M344.85,393.1c0,10.92,0,20.5,0,30.67c-41.5,0-82.45,0-124.54,0c0-9.11-0.22-17.87,0.22-26.59c0.07-1.43,3.01-3.9,4.63-3.91
	C264.69,393.05,304.23,393.1,344.85,393.1z"/>
<path d="M220.25,456.25c31.63,0,62.18,0,93.85,0c0,8.92,0.33,17.37-0.27,25.76c-0.13,1.78-3.63,4.72-5.6,4.75
	c-27.35,0.31-54.71,0.31-82.06,0c-1.99-0.02-5.53-2.93-5.66-4.68C219.92,473.68,220.25,465.22,220.25,456.25z"/>
<path d="M907.3,846.71c0,10.38,0,19.78,0,29.9c-30.81,0-61.4,0-92.71,0c0-9.68,0-19.51,0-29.9
	C845.28,846.71,875.89,846.71,907.3,846.71z"/>
<path d="M220.85,253.23c10.27,0,19.85,0,30.04,0c0,10.04,0,19.58,0,29.96c-9.9,0-19.64,0-30.04,0
	C220.85,273.42,220.85,263.88,220.85,253.23z"/>
<path d="M283.52,253.23c10.15,0,19.73,0,29.96,0c0,9.92,0,19.49,0,29.92c-9.75,0-19.51,0-29.96,0
	C283.52,273.49,283.52,263.92,283.52,253.23z"/>
<path d="M375.88,283.41c-9.86,0-19.43,0-29.75,0c0-9.96,0-19.74,0-30.1c9.82,0,19.41,0,29.75,0
	C375.88,263.24,375.88,273.02,375.88,283.41z"/>
<path class="st2" d="M433.58,451.83c6.71,7.03,14.46,15.2,22.25,23.31c6.5,6.76,13.61,7.76,22.34,3.76
	c13.52-6.19,27.35-11.75,41.26-17.02c9.24-3.5,13.53-9.49,13.23-19.38c-0.33-10.89-0.08-21.79-0.08-33.16c20.88,0,40.88,0,62.37,0
	c0,10.09-0.02,20.3,0.01,30.52c0.04,14.47,2.76,17.83,16.01,22.88c12.76,4.87,25.31,10.32,37.82,15.82
	c10.79,4.75,15.35,4.3,23.75-4.07c7.76-7.74,15.23-15.77,22.36-23.19c15.13,15.09,29.5,29.43,45.8,45.68
	c-7.56,6.84-15.85,13.92-23.64,21.51c-8.7,8.48-8.98,13.28-4.04,24.52c5.62,12.78,10.91,25.72,15.94,38.75
	c4.39,11.36,7.89,14.16,20.31,14.27c10.62,0.09,21.23,0.02,32.58,0.02c0,21.03,0,41.24,0,62.55c-10.97,0-21.58-0.11-32.18,0.03
	c-12.71,0.16-16.4,3.22-20.91,14.96c-5.01,13.03-10.4,25.93-15.99,38.73c-4.68,10.7-4.31,15.54,4.01,23.79
	c7.75,7.69,15.92,14.94,23.37,21.88c-15.76,15.69-30.16,30.04-45.59,45.41c-6.89-7.21-14.67-15.29-22.38-23.45
	c-6.75-7.15-14.06-8.09-23.1-3.88c-13.2,6.15-26.79,11.5-40.35,16.87c-10.44,4.13-13.67,8.31-13.79,19.87
	c-0.11,10.65-0.02,21.31-0.02,32.66c-20.7,0-40.92,0-62.37,0c0-11.15-0.21-22.32,0.06-33.47c0.24-9.93-4.24-15.67-13.54-19.1
	c-13.67-5.05-27.06-10.86-40.43-16.66c-10.62-4.61-15.3-4.14-23.68,4.3c-7.7,7.76-15.05,15.88-21.87,23.11
	c-15.59-15.54-29.97-29.87-45.44-45.29c7.41-7.04,15.46-14.41,23.19-22.1c8.04-7.99,8.63-13.59,4.18-23.86
	c-5.79-13.37-11.49-26.8-16.63-40.43c-3.34-8.84-9.02-13.37-18.45-13.33c-11.18,0.05-22.37,0.01-34.06,0.01c0-21.12,0-41.12,0-62.56
	c10.38,0,20.62,0.03,30.85-0.01c14.78-0.06,17.64-2.59,22.47-16.23c4.05-11.44,8.7-22.72,13.91-33.67
	c7.06-14.82,6.76-18.51-5.15-30.45c-6.24-6.26-12.48-12.52-18.7-18.81c-0.41-0.42-0.65-1-0.43-0.65
	C403.42,481.78,417.82,467.47,433.58,451.83z M563.3,518.32c-60.05,0.25-108.65,48.97-108.74,109
	c-0.09,60.28,49.03,109.33,109.43,109.25c60.37-0.08,109.49-49.28,109.27-109.45C673.04,566.88,623.71,518.07,563.3,518.32z"/>
<path d="M563.3,518.32c60.41-0.25,109.74,48.56,109.96,108.81c0.22,60.17-48.91,109.37-109.27,109.45
	c-60.39,0.08-109.52-48.97-109.43-109.25C454.65,567.29,503.26,518.57,563.3,518.32z M486.35,623.51
	c-3.24,41.54,29.21,77.96,72.7,81.61c42.73,3.59,80.71-30.16,82.56-75.63c1.67-40.99-28.95-75.71-70.16-79.4
	C526.16,546.05,489.92,577.65,486.35,623.51z"/>
<path class="st1" d="M486.35,623.51c3.57-45.87,39.81-77.47,85.11-73.42c41.21,3.69,71.83,38.4,70.16,79.4
	c-1.85,45.47-39.83,79.22-82.56,75.63C515.55,701.47,483.11,665.05,486.35,623.51z"/>
</svg>
