<?xml version="1.0" encoding="utf-8"?>
<!-- Generator: Adobe Illustrator 23.0.0, SVG Export Plug-In . SVG Version: 6.00 Build 0)  -->
<svg version="1.1" id="Layer_1" xmlns="http://www.w3.org/2000/svg" xmlns:xlink="http://www.w3.org/1999/xlink" x="0px" y="0px"
	 viewBox="0 0 1000 1000" style="enable-background:new 0 0 1000 1000;" xml:space="preserve">
<style type="text/css">
	.st0{fill:#73DAEE;}
	.st1{fill:#CCF6FE;}
	.st2{fill:#FFDE55;}
</style>
<g>
	<circle class="st0" cx="281.77" cy="498.32" r="245.28"/>
	<circle class="st1" cx="720.3" cy="498.32" r="245.28"/>
	<path d="M968.81,519.63c-3.07,15.47-5.16,31.21-9.4,46.36C927.29,681.06,814.32,757.8,695.89,744.74
		c-84.2-9.3-147.18-51.79-190.47-124.18c-1.1-1.83-2.15-3.65-3.27-5.46c-0.12-0.22-0.49-0.29-1.8-1.03
		c-20.66,37.86-48.73,69.24-85.15,92.73c-36.5,23.56-76.65,36.35-123.04,39.37c11.03,9.53,20.15,17.37,28.6,24.65
		c-14.49,14.47-27.11,27.04-39.1,39c-29.96-29.99-60.86-60.88-91.26-91.33c30.04-30.01,60.81-60.74,90.88-90.78
		c11.77,11.84,24.31,24.46,38.13,38.35c-7.36,6.53-16.13,14.3-26.34,23.34c69.46,6.24,152.12-61,173.42-138.38
		c24.75-89.91-17.76-183.85-101.54-224.37c-83.32-40.29-184.82-14.67-239.98,60.25c-55.5,75.41-53.87,192.4,45.1,271.26
		c-12.25,13.04-24.46,25.99-36.64,38.93C62.67,642.08,21.8,555.15,36,464.04c15.74-100.93,88.95-182.5,185.25-203.43
		c122.33-26.58,214.3,19.39,280.66,124.37c16.91-32.74,41.13-59.54,69.58-83.57c12.48,13.28,24.7,26.31,37.01,39.4
		c-95.11,72.58-98.11,193.05-46.41,267.24c51.36,73.68,145.91,102.76,229.79,69.71c83.4-32.84,133.22-118.82,119.99-207.06
		c-13.16-87.8-87.34-155.85-178.53-162.38c9.77,8.21,18.61,15.66,26.48,22.29c-15.33,15.35-27.9,27.97-42.2,42.3
		c-28.84-29.8-59.22-61.2-88.9-91.85c30.62-30.65,61.51-61.54,91.85-91.87c11.62,11.64,24.21,24.24,38.18,38.2
		c-8.11,7.53-16.93,15.71-26.17,24.26c17.9,3.29,34.82,5.24,51.09,9.53c99.94,26.38,170.98,108.48,183.5,211.18
		c0.29,2.36,1.07,4.68,1.61,6.99C968.81,492.83,968.81,506.23,968.81,519.63z"/>
	<path d="M390.31,468.2c-2.48,1.63-3.97,2.68-5.51,3.58c-22.85,13.35-22.95,13.35-21.54,39.66c0.12,2.07,2.43,4.6,4.39,5.85
		c7.14,4.53,14.57,8.6,22.71,13.32c-9.21,15.96-18.1,31.38-27.29,47.29c-7.01-3.97-13.62-7.7-20.19-11.45
		c-1.59-0.9-3.07-2.05-4.72-2.73c-4.9-2.02-28.89,13.86-28.94,19.15c-0.1,8.46-0.02,16.91-0.02,26.26c-9.55,0-18.3,0-27.04,0
		c-8.79,0-17.62,0-27.77,0c0-7.85-0.42-15.35,0.12-22.78c0.46-6.53-1.03-10.43-7.87-12.94c-6.43-2.36-12.06-6.92-18.74-10.94
		c-8.7,4.87-17.86,10.01-27.41,15.35c-9.11-15.79-17.9-31.01-27.26-47.16c7.62-4.44,15.2-8.28,22.02-13.13
		c2.46-1.75,4-5.82,4.56-9.06c0.7-4.12-0.98-8.72,0.05-12.69c2.51-9.67-2.1-14.35-10.11-17.98c-5.48-2.46-10.5-5.92-16.57-9.43
		c9.26-16.01,18.15-31.43,27.34-47.34c9.43,5.38,18.39,10.47,26.87,15.33c8.09-4.48,15.94-8.48,23.34-13.18
		c1.92-1.22,3.34-4.63,3.48-7.09c0.42-8.43,0.17-16.88,0.17-25.75c18.42,0,35.96,0,54.31,0c0,10.19,0,20.37,0,30.06
		c8.53,5.19,16.1,10.11,24.02,14.37c1.8,0.98,5.16,0.44,7.19-0.61c7.53-3.92,14.81-8.33,23.12-13.11
		C372.08,436.77,380.98,452.12,390.31,468.2z M281.55,526.92c14.77,0.12,27.34-12.18,27.58-26.95c0.24-14.77-11.94-27.43-26.73-27.8
		c-15.1-0.37-28.04,12.25-28.04,27.39C254.41,514.32,266.78,526.79,281.55,526.92z"/>
	<path d="M747.71,608.95c-18.66,0-35.99,0-54.82,0c0-8.67,0.24-17.37-0.17-26.02c-0.12-2.48-1.51-5.92-3.46-7.14
		c-7.41-4.68-15.28-8.62-23.39-13.08c-8.48,4.82-17.44,9.94-26.83,15.28c-9.11-15.76-17.93-30.99-27.21-47.04
		c5.07-3.09,9.91-6.07,14.79-8.97c2.61-1.56,5.36-2.9,7.94-4.51c5.51-3.41,5.68-32.4,0.12-35.74c-7.26-4.36-14.67-8.5-22.97-13.3
		c9.16-15.89,18.05-31.28,27.29-47.29c9.35,5.31,18.3,10.38,26.97,15.3c7.92-4.41,15.74-8.41,23.12-13.11
		c1.95-1.24,3.51-4.56,3.63-7.01c0.44-8.43,0.17-16.91,0.17-25.87c18.27,0,35.81,0,54.82,0c0,8.43-0.1,17.1,0.02,25.8
		c0.12,7.24,25,21.29,31.36,17.74c7.38-4.14,14.72-8.38,22.48-12.84c9.14,15.79,17.93,31.01,27.26,47.14
		c-5.12,3.07-9.99,5.99-14.86,8.89c-2.61,1.56-5.33,2.95-7.92,4.56c-5.53,3.46-5.68,32.25-0.12,35.62
		c7.26,4.39,14.64,8.55,22.93,13.35c-9.14,15.84-18.03,31.23-27.26,47.24c-5.63-3.17-10.87-6.09-16.1-9.04c-2.9-1.66-5.68-3.6-8.7-5
		c-4.95-2.24-29.04,13.42-29.09,18.86C747.64,591.16,747.71,599.64,747.71,608.95z M747.66,499.84
		c0.19-14.77-12.04-27.39-26.83-27.7c-14.74-0.32-27.51,11.84-27.92,26.58c-0.44,15.1,12.15,28.11,27.26,28.16
		C734.97,526.97,747.49,514.64,747.66,499.84z"/>
	<path class="st2" d="M281.55,526.92c-14.77-0.12-27.14-12.6-27.16-27.36c-0.02-15.13,12.91-27.77,28.04-27.39
		c14.79,0.37,26.97,13.06,26.73,27.8C308.89,514.73,296.32,527.02,281.55,526.92z"/>
	<path class="st2" d="M747.66,499.84c-0.19,14.79-12.72,27.09-27.48,27.04c-15.1-0.05-27.7-13.06-27.26-28.16
		c0.44-14.77,13.18-26.9,27.92-26.58C735.65,472.46,747.86,485.09,747.66,499.84z"/>
</g>
</svg>
