<?xml version="1.0" encoding="utf-8"?>
<!-- Generator: Adobe Illustrator 23.0.0, SVG Export Plug-In . SVG Version: 6.00 Build 0)  -->
<svg width="100" height="100" version="1.1" id="Layer_1" xmlns="http://www.w3.org/2000/svg" xmlns:xlink="http://www.w3.org/1999/xlink" x="0px" y="0px"
	 viewBox="0 0 1000 1000" style="enable-background:new 0 0 1000 1000;" xml:space="preserve">
<style type="text/css">
	.st0{fill:#73DAEE;}
	.st1{fill:#62BB9F;}
	.st2{fill:#FFFFFF;}
	.st3{fill:#FFDE55;}
</style>
<g>
	<path class="st0" d="M535.02,612.39c-9.04-10.04-18.08-20.07-27.11-30.11c-0.92-1.02-2.83-3.05-4.85-5.19
		c-1.62-1.72-3.39-3.6-4.68-4.99c2.81-3.59,5.96-6.99,9.02-10.3c1.52-1.65,3.05-3.29,4.54-4.97c11.93-13.4,24.26-27.25,36.82-40.88
		c1.28-1.39,2.5-2.85,3.68-4.26c2.32-2.78,4.54-5.44,7.2-7.59c6.2,6.94,13.47,14.95,20.52,22.72c7.64,8.42,15.54,17.13,22.05,24.43
		l25.84,29c-0.26-0.03-0.53-0.07-0.79-0.1c-0.96-0.13-1.95-0.26-2.95-0.33c-11.91-0.81-24.02-1.77-35.73-2.71
		c-4.31-0.34-8.63-0.69-12.94-1.02c-0.77-0.06-1.55-0.1-2.33-0.13c-1.54-0.07-3-0.13-4.35-0.41c-0.57-0.12-1.09-0.17-1.57-0.17
		c-1.54,0-4.19,0.63-4.61,4.88c-1.2,12.21-2.5,25.32-3.88,38.4c-0.55,5.24-1.15,10.4-1.79,15.87c-0.08,0.7-0.17,1.41-0.25,2.12
		L535.02,612.39z"/>
	<g>
		<path d="M559.44,507.62c5.83,6.5,12.45,13.8,18.89,20.9c7.63,8.41,15.51,17.1,22.01,24.39l18.61,20.88l2.99,3.36
			c-11.08-0.77-22.31-1.66-33.19-2.53c-4.31-0.34-8.61-0.69-12.92-1.02c-0.83-0.06-1.64-0.1-2.42-0.13
			c-1.44-0.06-2.8-0.12-3.96-0.36c-0.74-0.15-1.42-0.23-2.07-0.23c-1.5,0-6.45,0.51-7.1,7.14c-1.21,12.25-2.51,25.38-3.87,38.39
			c-0.43,4.14-0.9,8.23-1.4,12.47l-9.1-10.11l-9.99-11.1c-8.72-9.68-17.44-19.36-26.15-29.05c-0.94-1.04-2.85-3.08-4.88-5.23
			c-1.06-1.13-2.19-2.32-3.2-3.4c2.35-2.86,4.9-5.61,7.55-8.48c1.5-1.63,3.06-3.31,4.57-5.01c11.93-13.4,24.26-27.25,36.8-40.85
			c1.32-1.44,2.56-2.92,3.76-4.35C556.05,511.27,557.68,509.32,559.44,507.62 M559.99,500.73c-5.31,3.57-8.82,8.92-13.06,13.52
			c-12.44,13.5-24.65,27.21-36.85,40.92c-5.03,5.65-10.43,10.97-14.94,17.07c1.97,2.24,8.92,9.5,10.91,11.71
			c12.04,13.39,24.1,26.77,36.15,40.15c5.4,6,10.8,11.99,16.5,18.33c0.94-8.17,1.88-15.83,2.68-23.51
			c1.34-12.8,2.62-25.61,3.88-38.42c0.17-1.7,0.64-2.63,2.12-2.63c0.31,0,0.66,0.04,1.07,0.12c2.27,0.47,4.66,0.4,6.99,0.58
			c16.23,1.27,32.45,2.63,48.69,3.73c2.3,0.16,4.62,0.68,7.08,0.68c0.8,0,1.62-0.06,2.45-0.2c-10.04-11.27-19.82-22.24-29.6-33.21
			C591.05,534.96,573.02,515.34,559.99,500.73L559.99,500.73z"/>
	</g>
</g>
<g>
	<path class="st0" d="M441.67,508.92c-7.86-8.76-16.96-18.96-25.78-28.84c-10.56-11.83-21.47-24.06-30.6-34.21
		c-5.37-5.97-9.85-10.85-14.09-15.35c-0.66-0.7-0.74-1.1-0.69-1.78c0.76-9.66,1.45-19.28,2.22-29.95c0.2-2.74,0.4-5.49,0.6-8.23
		c0.67-9.11,1.36-18.54,1.87-27.83c0-0.05,0.01-0.09,0.01-0.13c0.15,0.01,0.3,0.02,0.46,0.04c21.58,1.83,41.05,3.49,60.75,5.11
		c1.7,0.14,2.72,0.63,3.75,1.8c9.07,10.25,18.34,20.62,27.31,30.65l10.6,11.86c6.15,6.88,12.3,13.77,18.45,20.66
		c0.52,0.59,4.61,5.41,6.73,7.93c-2.16,2.91-4.64,5.54-7.26,8.3c-1.34,1.41-2.72,2.88-4.05,4.37c-13.9,15.69-25.54,28.59-36.62,40.6
		c-1.7,1.85-3.38,3.76-5,5.61C447.56,502.7,444.71,505.95,441.67,508.92z"/>
	<path d="M377.56,365.3c20.84,1.77,39.74,3.37,58.64,4.94c1.13,0.09,1.53,0.33,2.09,0.96c9.06,10.25,18.33,20.61,27.29,30.62
		c2.89,3.23,5.77,6.45,8.66,9.68l2.83,3.17c5.87,6.56,11.73,13.13,17.59,19.7c0.43,0.48,3.23,3.78,5.38,6.33
		c-1.79,2.21-3.78,4.32-5.86,6.52c-1.35,1.43-2.75,2.91-4.1,4.43c-13.89,15.67-25.52,28.56-36.59,40.57
		c-1.72,1.87-3.41,3.79-5.03,5.65c-2.26,2.58-4.43,5.06-6.69,7.4c-7.45-8.31-15.86-17.74-24.03-26.9
		c-10.55-11.82-21.45-24.05-30.58-34.19c-5.38-5.97-9.86-10.86-14.13-15.4c0,0,0,0-0.01-0.01c0.75-9.61,1.45-19.2,2.21-29.84
		c0.2-2.74,0.4-5.47,0.6-8.21C376.44,382.42,377.07,373.83,377.56,365.3 M374.83,360.08c-1.24,0-2.01,0.41-2.13,2.51
		c-0.65,12.01-1.6,24.01-2.46,36.01c-0.72,9.98-1.44,19.96-2.22,29.94c-0.12,1.51,0.31,2.57,1.36,3.69
		c4.75,5.05,9.42,10.16,14.05,15.31c17.38,19.31,40.73,45.63,58.09,64.95c5.7-5.18,10.45-11.24,15.65-16.88
		c12.37-13.41,24.56-26.99,36.66-40.64c4.24-4.78,8.98-9.13,12.59-14.46c-0.67-0.82-7.31-8.67-8.02-9.46
		c-6.8-7.63-13.62-15.25-20.43-22.88c-11.99-13.42-24.01-26.8-35.93-40.29c-1.54-1.74-3.22-2.45-5.42-2.63
		c-20.25-1.67-40.49-3.39-60.74-5.11C375.5,360.11,375.15,360.08,374.83,360.08L374.83,360.08z"/>
</g>
<g>
	<path class="st1" d="M414.21,668.54c0.06-1.34,0.16-2.68,0.26-3.99c0.09-1.18,0.18-2.36,0.24-3.54c0.39-7.29,0.76-14.58,1.12-21.87
		c0.47-9.33,0.94-18.65,1.45-27.98c0.09-1.57-0.36-4.25-4.28-4.52l-0.22-0.02c-2.85-0.23-5.69-0.43-8.54-0.63
		c-2.47-0.18-4.94-0.35-7.4-0.54c-14.89-1.16-29.78-2.33-44.67-3.5l3.71-4.12c4.36-4.84,8.71-9.68,13.07-14.51l10.98-12.19
		c13.76-15.27,27.51-30.54,41.28-45.8c9.74-10.79,19.49-21.87,28.92-32.59c15.32-17.41,31.15-35.41,47.32-52.59
		c1.57-1.67,3.13-3.33,4.69-5.01c19.89-21.27,39.3-42.81,58.06-63.64l6.97-7.71c7.72-8.53,15.7-17.35,23.46-26.11
		c0.56-0.63,0.82-0.63,1.17-0.63c0.17,0,0.35,0.01,0.53,0.03l9.22,1.01c9.69,1.06,19.71,2.16,29.58,3.2
		c4.64,0.49,9.36,0.92,13.92,1.33c2.8,0.25,5.6,0.51,8.4,0.78c0.67,0.06,1.4,0.13,1.91,0.21c-0.02,0.49-0.07,1.16-0.11,1.62
		c-1.04,12.82-2.11,25.65-3.19,38.47l-1.18,14.13c-0.02,0.17-0.06,0.52,0.01,0.95c1.1,6.16-2.6,10.16-6.89,14.8
		c-22.15,23.96-44.03,48.89-65.19,72.99c-16.57,18.88-33.7,38.39-50.85,57.32c-6.98,7.71-14.27,15.38-21.31,22.8
		c-8.38,8.83-17.05,17.96-25.29,27.23c-7.58,8.28-15.2,16.8-22.58,25.05c-3.59,4.02-7.19,8.04-10.79,12.05
		C436.74,643.54,425.48,656.04,414.21,668.54z"/>
	<path d="M592.28,339.59l9.05,0.99c9.68,1.06,19.69,2.16,29.54,3.19c4.66,0.49,9.39,0.92,13.96,1.33c2.62,0.24,5.24,0.48,7.86,0.73
		c-1.02,12.51-2.08,25.22-3.11,37.51l-1.19,14.21c-0.04,0.39-0.08,0.97,0.04,1.67c0.84,4.69-1.7,7.71-6.27,12.65
		c-22.17,23.99-44.06,48.92-65.23,73.04c-16.56,18.87-33.69,38.38-50.83,57.29c-6.96,7.69-14.24,15.35-21.27,22.76
		c-8.39,8.84-17.07,17.98-25.33,27.27c-7.59,8.3-15.2,16.81-22.57,25.04c-3.6,4.03-7.2,8.06-10.82,12.07
		c-9.64,10.73-19.3,21.44-28.95,32.16c0.01-0.12,0.01-0.25,0.02-0.37c0.39-7.28,0.75-14.57,1.12-21.85
		c0.46-9.18,0.95-18.67,1.45-27.99c0.06-1.11,0.03-6.69-6.61-7.15l-0.2-0.01c-2.86-0.23-5.76-0.43-8.57-0.63
		c-2.46-0.18-4.92-0.35-7.38-0.54c-13.87-1.08-27.77-2.17-39.61-3.1c4.47-4.96,8.92-9.92,13.39-14.87l10.92-12.13
		c13.78-15.29,27.55-30.58,41.34-45.86c9.75-10.8,19.5-21.89,28.94-32.61c15.3-17.39,31.13-35.38,47.26-52.53
		c1.57-1.67,3.14-3.34,4.7-5.01c19.9-21.28,39.32-42.83,58.09-63.67c2.33-2.58,4.66-5.16,6.99-7.73
		C576.69,356.99,584.59,348.27,592.28,339.59 M591.8,334.55c-1.14,0-2.05,0.35-3.04,1.47c-10.05,11.35-20.26,22.55-30.42,33.8
		c-19.23,21.34-38.43,42.64-58.03,63.6c-1.56,1.67-3.12,3.34-4.69,5c-26.14,27.79-50.72,56.91-76.27,85.22
		c-17.43,19.32-34.85,38.66-52.27,57.99c-6.61,7.34-13.22,14.69-19.85,22.05c0.33,0.23,0.48,0.42,0.64,0.43
		c16.25,1.29,32.5,2.57,48.76,3.83c5.31,0.41,10.63,0.75,15.94,1.18c1.12,0.09,2.31,0.02,2.21,1.91c-0.9,16.62-1.7,33.24-2.58,49.85
		c-0.24,4.49-0.84,8.97-0.42,13.77c0.55-0.43,0.81-0.59,1.01-0.81c12.35-13.71,24.71-27.42,37.05-41.15
		c11.12-12.37,22.15-24.84,33.38-37.11c15.13-17.02,31.27-33.12,46.59-50.02c39.07-43.11,76.55-87.6,116.02-130.29
		c4.49-4.85,8.83-9.58,7.52-16.92c-0.02-0.1,0.01-0.21,0.01-0.32c1.46-17.53,2.94-35.06,4.37-52.6c0.33-4.08,0.24-4.11-4.05-4.52
		c-7.43-0.71-14.87-1.33-22.29-2.11c-12.93-1.35-25.86-2.79-38.79-4.21C592.32,334.56,592.06,334.55,591.8,334.55L591.8,334.55z"/>
</g>
<g>
	<path class="st1" d="M908.95,672.51c-0.16,0-0.33-0.01-0.5-0.03c-13.53-1.29-28.21-2.65-46.2-4.3l-1.15-0.11
		c-5.17-0.47-10.5-0.96-15.79-1.28c0.71-7.09,1.4-14.19,2.1-21.28c0.44-4.54,0.89-9.08,1.33-13.62c0.34-3.41,0.68-6.82,1.02-10.24
		c0.62-6.13,1.23-12.27,1.82-18.41c0.05-0.52,0.1-0.64,0.11-0.66c0,0,0.04-0.06,0.2-0.17c16.33-11.62,27.89-28.39,35.32-51.27
		c5.14-15.83,7.46-32.57,6.88-49.76c-0.58-17.25-4.5-34.01-11.66-49.82c-6.78-14.96-15.83-28.1-26.96-39.13l2.46,0.13
		c6.19,0.32,12.21,0.64,18.24,0.96c7.56,0.41,15.12,0.83,22.68,1.25c1.66,0.09,3.33,0.18,4.99,0.26c4.31,0.21,8.77,0.43,13.1,0.86
		c0.4,0.04,0.78,0.06,1.12,0.06c2.37,0,5.25-0.99,5.52-5.71c0.49-8.54,1.08-17.1,1.54-23.6c0.68-9.68,1.39-19.35,2.11-29.02
		l0.08-1.16c4.52,4.8,8.36,9.88,11.83,14.47c7.52,9.93,14.49,21.12,20.73,33.26c7.14,13.88,13.01,28.57,17.47,43.67
		c5.08,17.21,8.15,34.46,9.15,51.28c1.36,23,0.04,42.89-4.03,60.81c-7.55,33.2-23.54,63.39-47.51,89.72
		c-7.51,8.25-15.04,15.32-23.02,21.63C910.86,672.17,910,672.51,908.95,672.51z"/>
	<path d="M929.36,362.58c2.83,3.36,5.39,6.74,7.78,9.9c7.43,9.82,14.33,20.89,20.5,32.9c7.07,13.74,12.88,28.29,17.29,43.24
		c5.02,17.03,8.07,34.09,9.05,50.72c1.35,22.76,0.05,42.42-3.98,60.1c-7.45,32.78-23.24,62.58-46.92,88.59
		c-7.42,8.15-14.85,15.13-22.73,21.35c-0.82,0.64-1.17,0.64-1.43,0.64c-0.08,0-0.17,0-0.26-0.01c-13.44-1.28-28.12-2.64-46.21-4.3
		l-1.1-0.1c-4.36-0.4-8.84-0.81-13.32-1.12c0.63-6.32,1.25-12.7,1.86-18.89c0.44-4.48,0.87-8.96,1.32-13.43
		c0.34-3.42,0.68-6.85,1.03-10.27c0.59-5.86,1.2-11.92,1.77-17.9c16.43-11.92,28.07-28.95,35.56-52.04
		c5.23-16.11,7.59-33.14,7-50.62c-0.59-17.58-4.59-34.66-11.89-50.77c-5.98-13.21-13.72-25.03-23.06-35.27
		c4.85,0.25,9.61,0.51,14.38,0.76c7.56,0.41,15.12,0.82,22.67,1.25c1.67,0.09,3.33,0.18,5,0.26c4.28,0.21,8.71,0.43,12.98,0.85
		c0.48,0.05,0.94,0.07,1.37,0.07c1.77,0,7.58-0.58,8.02-8.06c0.49-8.53,1.08-17.08,1.54-23.57
		C928.17,378.78,928.77,370.59,929.36,362.58 M925.42,351.07c-0.18,0.92-0.33,1.42-0.37,1.92c-0.82,11.17-1.65,22.34-2.44,33.51
		c-0.55,7.88-1.09,15.75-1.54,23.64c-0.13,2.32-0.86,3.35-3.02,3.35c-0.27,0-0.56-0.02-0.87-0.05c-6.04-0.6-12.13-0.79-18.2-1.13
		c-7.56-0.43-15.12-0.84-22.69-1.25c-8.8-0.47-17.61-0.93-26.91-1.42c0.61,0.83,0.85,1.29,1.2,1.62
		c12.72,11.74,22.42,25.61,29.56,41.36c7.05,15.56,10.87,31.84,11.44,48.87c0.56,16.68-1.6,33.04-6.76,48.91
		c-6.5,20.03-16.85,37.53-34.39,50c-1.03,0.73-1.24,1.5-1.35,2.63c-0.91,9.55-1.89,19.09-2.84,28.64
		c-1.16,11.78-2.29,23.56-3.47,35.34c-0.16,1.63,0.28,2.18,2.03,2.28c5.74,0.34,11.48,0.87,17.21,1.4c15.4,1.41,30.8,2.83,46.19,4.3
		c0.25,0.02,0.5,0.04,0.74,0.04c1.71,0,3.11-0.6,4.52-1.72c8.41-6.64,16.12-13.99,23.32-21.91c23.82-26.17,40.22-56.22,48.1-90.85
		c4.62-20.31,5.31-40.88,4.09-61.51c-1.04-17.59-4.24-34.88-9.25-51.84c-4.51-15.28-10.38-29.98-17.64-44.11
		c-6.05-11.77-12.96-23.05-20.96-33.63C936.34,363.13,931.52,356.82,925.42,351.07L925.42,351.07z"/>
</g>
<g>
	<path class="st0" d="M254.42,729.73c-12.23,0-24.34-0.84-35.99-2.5c-17.49-2.49-34.18-6.49-49.6-11.91
		c-20.1-7.06-38.94-16.43-56-27.84c-13.21-8.84-24.44-17.82-34.33-27.44l0.71,0.05c4.58,0.33,8.92,0.64,13.25,0.93
		c10.31,0.71,20.61,1.41,30.92,2.11l6.7,0.45l1.32,0.1c1.26,0.09,2.57,0.19,3.89,0.22c0.62,0.02,1.17,0.03,1.64,0.03
		c5.24,0,5.49-2.97,5.81-6.73c1.22-14.48,2.44-28.96,3.67-43.56l0.94-11.22c2.26,1.82,4.41,3.55,6.64,5.28
		c15.11,11.71,31.45,20.63,48.56,26.51c12.25,4.21,25.28,6.75,38.73,7.55c2.91,0.17,5.86,0.26,8.77,0.26
		c18.94,0,38.3-3.76,57.54-11.17c7.38-2.84,15.96-6.46,23.65-11.74c0.91-0.63,1.91-0.91,3.23-0.91c0.9,0,1.85,0.12,2.86,0.26
		c0.73,0.1,1.5,0.2,2.27,0.25c14.63,1.01,29.5,2.22,43.88,3.39c4.13,0.34,8.26,0.67,12.4,1.01c0.91,0.07,1.91,0.15,2.48,0.25
		c0.03,0.58-0.02,1.55-0.05,2.37c-0.31,7.09-0.63,14.19-0.95,21.28c-0.54,11.97-1.08,23.95-1.58,35.92
		c-0.02,0.49-0.11,0.71-1.11,1.51c-14.78,11.76-31.68,21.28-51.66,29.09c-22.67,8.87-46.61,14.13-71.14,15.64
		C266.01,729.54,260.14,729.73,254.42,729.73z"/>
	<path d="M149.44,607.31c1,0.79,1.99,1.58,3.01,2.37c15.33,11.88,31.9,20.93,49.28,26.9c12.47,4.28,25.72,6.87,39.39,7.69
		c2.96,0.18,5.96,0.27,8.92,0.27c19.25,0,38.91-3.82,58.43-11.34c7.52-2.9,16.27-6.59,24.17-12.01c0.41-0.28,0.88-0.47,1.82-0.47
		c0.74,0,1.61,0.11,2.53,0.23c0.77,0.1,1.57,0.21,2.42,0.26c14.6,1.01,29.44,2.22,43.79,3.39c4.15,0.34,8.3,0.68,12.46,1.01
		c0.05,0,0.09,0.01,0.14,0.01c0,0,0,0.01,0,0.01c-0.31,7.1-0.63,14.2-0.95,21.3c-0.52,11.6-1.06,23.6-1.55,35.41
		c-0.05,0.04-0.11,0.09-0.19,0.15c-14.58,11.61-31.27,21-51.01,28.72c-22.43,8.77-46.11,13.98-70.38,15.48
		c-5.81,0.36-11.62,0.54-17.29,0.54c-12.11,0-24.1-0.83-35.64-2.47c-17.33-2.46-33.86-6.43-49.13-11.79
		c-19.9-6.99-38.56-16.26-55.44-27.56c-10.87-7.27-20.38-14.63-28.89-22.37c2.34,0.17,4.65,0.33,6.95,0.49
		c10.27,0.71,20.55,1.4,30.82,2.1l6.8,0.46c0.43,0.03,0.86,0.06,1.3,0.09c1.3,0.1,2.64,0.2,4.02,0.23c0.65,0.02,1.21,0.03,1.7,0.03
		c7.54,0,7.98-5.21,8.3-9.02c1.22-14.47,2.44-28.95,3.67-43.54L149.44,607.31 M145.25,597.52c-1.69,20.02-3.34,39.74-5.01,59.46
		c-0.33,3.91-0.39,4.44-3.32,4.44c-0.45,0-0.97-0.01-1.57-0.03c-1.7-0.04-3.4-0.2-5.1-0.31c-12.54-0.85-25.08-1.7-37.62-2.56
		c-6.46-0.44-12.91-0.91-20.21-1.43c1.82,2,2.96,3.39,4.25,4.64c10.68,10.41,22.37,19.52,34.77,27.82
		c17.66,11.82,36.56,21.1,56.56,28.12c16.26,5.71,32.98,9.6,50.08,12.03c12.09,1.72,24.21,2.52,36.34,2.52
		c5.86,0,11.73-0.19,17.6-0.55c24.73-1.53,48.74-6.75,71.9-15.81c18.85-7.37,36.45-16.84,52.31-29.47c1.1-0.88,1.98-1.71,2.05-3.36
		c0.79-19.07,1.69-38.13,2.52-57.19c0.21-4.81,0.16-4.83-4.73-5.23c-18.77-1.51-37.52-3.1-56.3-4.4c-1.73-0.12-3.52-0.51-5.3-0.51
		c-1.56,0-3.12,0.3-4.65,1.34c-7.15,4.91-15.1,8.37-23.14,11.47c-18.3,7.05-37.14,11.01-56.64,11.01c-2.86,0-5.73-0.09-8.62-0.26
		c-13.04-0.78-25.75-3.19-38.07-7.42c-17.41-5.98-33.3-14.85-47.84-26.12C152.1,603.08,148.76,600.33,145.25,597.52L145.25,597.52z"
		/>
</g>
<g>
	<path class="st0" d="M125.67,644.82c-7.57-0.6-15.02-1.14-23.27-1.74c-3.11-0.23-6.23-0.46-9.34-0.69
		c-9.47-0.71-19.26-1.44-28.91-1.96c-2.55-0.14-4.19-0.82-5.63-2.35c-8.29-8.77-15.64-19.03-21.84-30.47
		C25.47,586.92,18,563.84,14.48,539c-3.32-23.4-3.46-46.77-0.41-69.44c2.93-21.84,9.4-42.89,19.22-62.58
		c9.71-19.48,22.33-37.04,37.5-52.2c4.54-4.53,9.15-8.6,14.01-12.34c-0.08,1.55-0.22,3.11-0.37,4.71c-0.16,1.78-0.33,3.62-0.4,5.46
		c-0.28,7.47-0.75,15.07-1.21,22.42c-0.21,3.46-0.43,6.93-0.62,10.39c-0.1,1.69-0.17,3.38-0.25,5.07c-0.11,2.42-0.22,4.91-0.39,7.35
		c-0.12,1.67,0.24,2.95,1.1,3.93c1.16,1.32,2.84,1.57,4,1.64c19.21,1.17,38.74,2.43,57.62,3.64l2.78,0.18
		c-6.06,5.99-11.57,12.51-16.72,19.8c-15.02,21.24-23.25,42.59-25.18,65.27c-1.98,23.26,1.46,45.72,10.2,66.76
		c3.85,9.27,8.88,17.74,14.94,25.17c0.41,0.5,0.4,0.61,0.38,0.79c-1.38,16.34-2.74,32.67-4.07,49.01c-0.06,0.74-0.13,1.48-0.2,2.22
		c-0.25,2.79-0.52,5.67-0.42,8.57C125.89,644.83,125.78,644.83,125.67,644.82z"/>
	<path d="M81.84,348.03c-0.13,1.47-0.25,2.97-0.31,4.5c-0.28,7.44-0.75,15.03-1.2,22.36c-0.21,3.47-0.43,6.94-0.62,10.41
		c-0.1,1.7-0.17,3.4-0.25,5.1c-0.11,2.4-0.22,4.88-0.39,7.29c-0.16,2.33,0.41,4.27,1.71,5.75c1.98,2.26,4.8,2.43,5.73,2.49
		c18.31,1.12,36.92,2.31,54.97,3.47c-4.69,5-9.04,10.36-13.18,16.21c-15.28,21.61-23.66,43.37-25.63,66.51
		c-2.01,23.67,1.48,46.52,10.38,67.93c3.9,9.38,8.97,17.96,15.08,25.51c-1.46,17.36-2.78,33.17-4.02,48.3
		c-0.06,0.73-0.13,1.46-0.19,2.2c-0.18,1.98-0.37,4.02-0.43,6.09c-6.91-0.54-13.84-1.05-20.91-1.56c-3.12-0.23-6.25-0.46-9.37-0.69
		c-9.47-0.71-19.26-1.44-28.93-1.96c-2.17-0.12-3.09-0.66-3.95-1.57c-8.15-8.62-15.37-18.69-21.46-29.95
		C27.81,586,20.43,563.2,16.95,538.65c-3.29-23.18-3.42-46.31-0.41-68.75c2.89-21.56,9.28-42.35,18.98-61.8
		c9.59-19.23,22.05-36.58,37.03-51.55C75.6,353.52,78.68,350.69,81.84,348.03 M87.26,337.51c-6.7,4.79-12.67,9.94-18.24,15.51
		c-15.54,15.53-28.14,33.14-37.97,52.85c-10.02,20.09-16.49,41.24-19.46,63.36c-3.13,23.33-2.9,46.73,0.42,70.12
		c3.47,24.49,10.69,47.69,22.46,69.44c6.1,11.26,13.41,21.68,22.22,31c1.99,2.1,4.29,2.96,7.31,3.13
		c12.75,0.68,25.48,1.72,38.21,2.65c7.75,0.56,15.5,1.13,23.25,1.74c0.34,0.03,0.65,0.05,0.94,0.05c1.36,0,2.16-0.43,2.08-2.59
		c-0.12-3.49,0.32-7.01,0.61-10.51c1.34-16.34,2.7-32.67,4.07-49.01c0.09-1.05-0.28-1.78-0.94-2.58
		c-6.08-7.45-10.88-15.67-14.57-24.55c-8.74-21.04-11.93-43.02-10.01-65.59c2.01-23.64,11.11-44.78,24.73-64.04
		c5.84-8.26,12.41-15.92,20.35-23.18c-2.18-0.22-3.74-0.44-5.32-0.54c-20.2-1.3-40.4-2.6-60.6-3.83c-2.01-0.12-2.9-0.79-2.75-2.9
		c0.29-4.14,0.41-8.3,0.64-12.45c0.62-10.95,1.41-21.9,1.83-32.86C86.72,347.72,87.67,342.74,87.26,337.51L87.26,337.51z"/>
</g>
<g>
	<path class="st1" d="M741.28,729c-19.1,0-36.25-1.87-52.43-5.71c-13.82-3.28-27.74-8.18-41.37-14.56
		c-22.39-10.47-43.02-24.28-61.31-41.02c-4.01-3.67-7.91-7.56-11.61-11.56c-0.58-0.62-0.73-0.96-0.63-2.02
		c0.83-8.7,1.52-17.54,2.19-26.09c0.2-2.58,0.4-5.16,0.61-7.74l0.42-5.26c0.53-6.64,1.08-13.51,1.57-20.27c0-0.04,0-0.07,0.01-0.1
		c13.96,1.27,28.17,2.49,41.9,3.67l4.63,0.4c1.46,0.13,2.91,0.26,4.37,0.39c4.65,0.42,9.46,0.86,14.23,1.06
		c2.28,0.1,3.81,0.69,5.28,2.06c20.39,18.93,45.11,30.91,75.59,36.63c8.9,1.67,17.87,2.51,26.68,2.51c0,0,0,0,0,0
		c15.07,0,30.2-2.47,44.98-7.36c6.83-2.26,13.79-5.14,20.67-8.58c5.27-2.63,10.28-5.46,15.19-8.61l-0.45,5.12
		c-0.69,7.9-1.36,15.62-2.04,23.35c-0.47,5.31-0.95,10.61-1.43,15.92l-0.83,9.24c-0.04,0.44-0.07,0.87-0.1,1.31
		c-0.04,0.6-0.08,1.21-0.15,1.8l-0.14,1.15c-0.46,3.67-0.67,5.34,0.55,6.76c1.12,1.3,2.67,1.33,4.47,1.37
		c0.86,0.02,1.92,0.04,3.26,0.17c13.45,1.29,27.13,2.39,40.36,3.46c4.4,0.35,8.8,0.71,13.19,1.07c-3.04,2.07-6.17,3.93-9.22,5.75
		l-0.42,0.25c-17.89,10.65-37.74,19.07-58.99,25.01c-19.27,5.38-39.66,8.72-60.61,9.9C753.36,728.82,747.16,729,741.28,729z"/>
	<path d="M581.03,597.38c13.27,1.2,26.71,2.35,39.74,3.47l4.27,0.37c1.45,0.12,2.89,0.26,4.34,0.39c4.69,0.42,9.53,0.86,14.37,1.07
		c1.69,0.07,2.65,0.44,3.68,1.4c20.74,19.26,45.88,31.45,76.83,37.25c9.05,1.7,18.18,2.56,27.14,2.56c15.33,0,30.73-2.52,45.77-7.48
		c6.94-2.29,14.01-5.22,21-8.71c3.83-1.91,7.53-3.93,11.15-6.1l-0.02,0.26c-0.68,7.86-1.35,15.55-2.03,23.24
		c-0.47,5.3-0.95,10.61-1.43,15.91c-0.28,3.08-0.56,6.17-0.83,9.25c-0.04,0.46-0.07,0.92-0.1,1.38c-0.04,0.59-0.08,1.15-0.14,1.65
		l-0.14,1.15c-0.49,3.88-0.81,6.44,1.14,8.71c1.85,2.14,4.32,2.19,6.31,2.24c0.86,0.02,1.83,0.04,3.07,0.16
		c13.46,1.29,27.15,2.39,40.38,3.46c1.92,0.15,3.85,0.31,5.77,0.47c-0.95,0.57-1.9,1.14-2.87,1.71l-0.42,0.25
		c-17.7,10.54-37.35,18.87-58.38,24.75c-19.1,5.34-39.31,8.64-60.08,9.81c-6.3,0.36-12.45,0.54-18.28,0.54
		c-18.91,0-35.87-1.85-51.86-5.64c-13.66-3.24-27.41-8.09-40.89-14.39c-22.16-10.37-42.58-24.03-60.68-40.6
		c-3.95-3.61-7.8-7.45-11.45-11.4c0-0.03,0.01-0.07,0.01-0.11c0.83-8.73,1.52-17.6,2.19-26.17c0.2-2.57,0.4-5.13,0.61-7.7l0.42-5.24
		C580.11,609.4,580.6,603.37,581.03,597.38 M578.38,592.14c-1.57,0-2.04,0.76-2.16,2.44c-0.61,8.51-1.31,17.01-1.99,25.51
		c-0.9,11.27-1.72,22.54-2.79,33.8c-0.16,1.73,0.2,2.78,1.28,3.96c3.76,4.07,7.68,7.97,11.76,11.71
		c18.54,16.97,39.16,30.78,61.94,41.44c13.47,6.3,27.4,11.29,41.85,14.73c17.5,4.16,35.19,5.78,53.01,5.78
		c6.17,0,12.36-0.19,18.56-0.55c20.76-1.17,41.14-4.4,61.14-9.99c20.94-5.85,40.89-14.13,59.59-25.27
		c4.95-2.95,9.94-5.89,14.66-9.67c-0.78-0.3-1.17-0.56-1.58-0.6c-19.34-1.62-38.7-3.04-58.02-4.9c-7.01-0.67-6.89,1.39-5.89-6.66
		c0.13-1.06,0.16-2.13,0.26-3.2c0.75-8.39,1.52-16.77,2.26-25.16c0.97-11.04,1.93-22.09,2.93-33.63
		c-6.5,4.44-12.76,8.07-19.25,11.31c-6.59,3.29-13.37,6.14-20.34,8.44c-14.56,4.81-29.29,7.23-44.2,7.23
		c-8.68,0-17.42-0.82-26.22-2.47c-28.07-5.26-53.25-16.41-74.35-36c-1.98-1.84-4.13-2.61-6.88-2.73
		c-6.17-0.26-12.33-0.91-18.49-1.44c-15.51-1.33-31.02-2.66-46.53-4.07C578.74,592.15,578.55,592.14,578.38,592.14L578.38,592.14z"
		/>
</g>
<g>
	<path class="st0" d="M351.59,407.56c-1.51-1.4-2.97-2.75-4.49-4.05c-13.98-12.02-30.17-21.48-48.12-28.12
		c-15.76-5.83-31.67-8.79-47.28-8.79c-1.45,0-2.91,0.03-4.36,0.08c-15.07,0.52-30.88,3.84-48.32,10.15
		c-10.88,3.93-20.54,8.37-29.53,13.57c-1.1,0.64-2.26,0.92-3.76,0.92c-0.86,0-1.74-0.09-2.68-0.18c-0.69-0.07-1.38-0.13-2.07-0.17
		c-8.5-0.46-17.14-1.04-25.49-1.61c-4.25-0.29-8.5-0.58-12.75-0.85c-8.73-0.56-15.46-0.96-21.76-1.28c1.3-20.98,2.44-40,3.5-58.13
		c0.04-0.6,0.11-0.7,0.52-1c14.91-10.64,31.1-19.47,49.49-26.98c21.46-8.77,44.2-14.81,67.58-17.95c13.01-1.75,25.03-2.6,36.75-2.6
		c7.81,0,15.52,0.4,22.93,1.18c22,2.32,43.53,8.11,63.98,17.19c28.49,12.66,52.3,28.5,72.69,48.37l-1.62-0.13
		c-5.56-0.43-11.06-0.86-16.57-1.25c-5.22-0.38-10.44-0.74-15.66-1.1c-7.63-0.53-15.26-1.07-22.89-1.63
		c-0.18-0.01-0.36-0.02-0.52-0.02c-0.99,0-4.23,0.32-4.58,4.47c-0.96,11.38-1.9,22.77-2.85,34.15L351.59,407.56z"/>
	<path d="M258.83,283.05c7.72,0,15.35,0.39,22.67,1.16c21.74,2.3,43.01,8.01,63.22,16.99c25.86,11.49,47.83,25.62,66.85,43.04
		c-3.71-0.28-7.46-0.57-11.16-0.83c-5.21-0.38-10.43-0.74-15.64-1.1c-7.51-0.52-15.28-1.07-22.9-1.63
		c-0.25-0.02-0.48-0.03-0.71-0.03c-3.95,0-6.72,2.65-7.07,6.76c-0.97,11.58-1.94,23.17-2.9,34.75l-0.37,4.4
		c-0.43,5.2-0.86,10.4-1.3,15.74c-0.26-0.23-0.52-0.46-0.79-0.69c-14.21-12.21-30.66-21.82-48.88-28.57
		c-16.04-5.94-32.24-8.95-48.15-8.95c-1.47,0-2.97,0.03-4.44,0.08c-15.34,0.53-31.39,3.9-49.08,10.3
		c-11.02,3.98-20.81,8.48-29.93,13.75c-0.72,0.41-1.44,0.58-2.51,0.58c-0.73,0-1.56-0.08-2.44-0.17c-0.69-0.07-1.41-0.14-2.17-0.18
		c-8.49-0.46-17.13-1.04-25.49-1.61c-4.24-0.29-8.48-0.57-12.72-0.85c-7.58-0.49-13.65-0.85-19.27-1.15
		c1.22-19.72,2.3-37.77,3.31-55.07c14.62-10.37,30.49-19,48.49-26.35c21.26-8.69,43.79-14.67,66.96-17.79
		C235.31,283.9,247.22,283.05,258.83,283.05L258.83,283.05 M258.82,278.05c-12.38,0-24.74,0.96-37.08,2.63
		c-23.5,3.16-46.21,9.14-68.19,18.12c-17.71,7.23-34.43,16.15-50,27.26c-1.08,0.77-1.49,1.58-1.57,2.89
		c-1.13,19.46-2.31,38.92-3.51,58.38c-0.1,1.63,0.4,2.29,2.09,2.37c7.34,0.37,14.68,0.82,22.02,1.29
		c12.76,0.82,25.5,1.77,38.27,2.46c1.63,0.09,3.25,0.35,4.88,0.35c1.64,0,3.3-0.27,5.01-1.25c9.27-5.35,19.04-9.73,29.13-13.38
		c15.39-5.57,31.14-9.43,47.55-10c1.43-0.05,2.85-0.07,4.27-0.07c15.95,0,31.42,3.09,46.42,8.64c17.39,6.44,33.26,15.56,47.36,27.67
		c2.69,2.31,5.23,4.78,8.19,7.49c0.74-9.01,1.44-17.46,2.14-25.91c1.08-13.05,2.16-26.1,3.26-39.15c0.11-1.34,0.6-2.18,2.09-2.18
		c0.11,0,0.22,0,0.34,0.01c12.85,0.96,25.71,1.81,38.56,2.74c8.02,0.58,16.03,1.22,24.22,1.84c-0.35-1.47-1.34-2.02-2.06-2.74
		c-21.86-21.83-47.31-38.36-75.45-50.86c-20.65-9.18-42.26-15.02-64.73-17.39C274.28,278.43,266.55,278.05,258.82,278.05
		L258.82,278.05z"/>
</g>
<g>
	<path class="st1" d="M908.07,400.56c-17.65-1.47-36.29-2.55-56.98-3.29c-8.24-0.3-13.72-3.83-19.53-8.07
		c-13.48-9.84-29.37-16.35-48.57-19.93c-9.47-1.76-19.52-2.65-29.85-2.65c-2.21,0-4.47,0.04-6.73,0.12
		c-22.79,0.81-42.27,5.12-59.56,13.2c-7.62,3.56-13.7,7.19-18.84,11.28c0.07-1.1,0.14-2.19,0.21-3.28
		c0.39-6.21,0.79-12.63,1.24-18.89c0.55-7.55,1.16-15.23,1.75-22.66c0.26-3.29,0.52-6.57,0.78-9.86c0.02-0.22,0.02-0.46,0.02-0.69
		c0-0.1,0-0.2,0-0.3c0.65-1.73,0.6-3.22-0.14-4.42c-1.16-1.89-3.39-2.12-4.88-2.27c-4.82-0.49-9.65-0.95-14.47-1.41
		c-2.82-0.27-5.65-0.54-8.47-0.81c-11.54-1.12-23.08-2.25-34.62-3.39c2.87-1.84,5.83-3.72,8.83-5.36
		c19.93-10.87,40.6-19.32,61.45-25.13c19.18-5.34,38.79-8.82,58.29-10.33c7.84-0.61,15.69-0.92,23.34-0.92
		c13.23,0,26.37,0.92,39.08,2.74c23.69,3.39,44.75,9.79,64.38,19.59c15.93,7.95,29.4,17.19,41.16,28.25
		c1.62,1.52,3.19,3.2,4.72,4.82c0.55,0.59,1.1,1.17,1.66,1.76c0.41,0.43,0.43,0.64,0.41,0.94c-0.38,5.03-0.73,10.07-1.08,15.1
		c-0.29,4.11-0.57,8.22-0.88,12.33c-0.28,3.82-0.58,7.65-0.88,11.47c-0.55,7.11-1.12,14.47-1.58,21.72
		c-0.01,0.13-0.02,0.24-0.03,0.34C908.22,400.58,908.14,400.57,908.07,400.56z"/>
	<path d="M761.34,284.02c13.11,0,26.14,0.91,38.72,2.71c23.42,3.35,44.23,9.68,63.62,19.35c15.71,7.83,28.98,16.94,40.57,27.84
		c1.56,1.47,3.04,3.04,4.61,4.71c0.44,0.47,0.89,0.95,1.35,1.43c-0.36,4.85-0.71,9.77-1.04,14.52c-0.29,4.09-0.57,8.19-0.87,12.28
		c-0.28,3.8-0.57,7.59-0.87,11.39c-0.5,6.43-1.01,13.06-1.45,19.63c-17.01-1.38-34.96-2.4-54.78-3.11
		c-6.89-0.25-11.52-2.75-18.15-7.59c-13.79-10.06-30.01-16.72-49.58-20.36c-9.62-1.79-19.82-2.7-30.31-2.7
		c-2.24,0-4.53,0.04-6.82,0.12c-23.13,0.82-42.93,5.21-60.53,13.43c-5.75,2.69-10.65,5.42-14.95,8.36
		c0.36-5.73,0.71-11.22,1.11-16.81c0.55-7.56,1.16-15.25,1.75-22.69c0.26-3.27,0.52-6.55,0.78-9.82c0.02-0.24,0.03-0.49,0.03-0.74
		c0.93-2.87,0.26-4.92-0.5-6.16c-1.81-2.95-5.02-3.27-6.75-3.45c-4.83-0.49-9.74-0.96-14.48-1.41c-2.83-0.27-5.65-0.54-8.48-0.81
		c-9.09-0.88-18.19-1.78-27.29-2.67c0.82-0.48,1.63-0.95,2.45-1.39c19.76-10.77,40.26-19.16,60.92-24.91
		c19.03-5.3,38.48-8.75,57.81-10.25C745.96,284.33,753.75,284.02,761.34,284.02 M761.34,279.02c-7.84,0-15.68,0.31-23.54,0.92
		c-19.93,1.54-39.49,5.04-58.77,10.41c-21.67,6.04-42.27,14.59-61.98,25.34c-4.82,2.63-9.36,5.75-13.96,8.61
		c0.46,1.03,1.04,0.93,1.55,0.98c13.05,1.28,26.11,2.56,39.16,3.83c7.65,0.74,15.3,1.44,22.94,2.22c1.94,0.2,4.03,0.45,2.89,3.4
		c-0.18,0.48-0.11,1.06-0.15,1.59c-0.85,10.85-1.75,21.69-2.53,32.54c-0.66,9.11-1.19,18.23-1.79,27.55
		c0.56-0.28,1.09-0.43,1.46-0.76c6.33-5.68,13.6-9.86,21.27-13.45c18.57-8.68,38.29-12.25,58.59-12.97
		c2.22-0.08,4.43-0.12,6.64-0.12c9.85,0,19.65,0.8,29.4,2.61c17.23,3.2,33.39,9.15,47.55,19.49c6.45,4.7,12.25,8.24,20.92,8.55
		c18.95,0.68,37.93,1.71,56.86,3.29c0.26,0.02,0.49,0.03,0.7,0.03c1.7,0,2.12-0.71,2.25-2.69c0.7-11.06,1.64-22.11,2.46-33.17
		c0.67-9.14,1.27-18.29,1.96-27.43c0.09-1.2-0.34-2.07-1.09-2.85c-2.14-2.24-4.22-4.55-6.47-6.68
		c-12.44-11.7-26.47-21.04-41.76-28.67c-20.63-10.29-42.43-16.58-65.14-19.82C787.66,279.91,774.51,279.02,761.34,279.02
		L761.34,279.02z"/>
</g>
<path class="st2" d="M542.77,441.65c0.02-4.34,2.27-7.38,6.73-9.11c2.87-1.11,7.72,0.2,10.06,2.57c0.85,0.86,0.93,1.33,0.06,2.27
	c-2.73,2.99-5.22,6.2-8,9.15c-1.86,1.96-0.58,2.52,1.04,2.91c4.12,0.98,7.76-1.68,8.72-6.39c0.26-1.28,0.11-2.79,2.03-2.48
	c2.1,0.33,1.13,2.11,1.02,3.1c-0.6,5.16-6.14,9.89-10.86,9.5C547.63,452.66,542.74,447.44,542.77,441.65z"/>
<path class="st2" d="M487.52,506.46c0.1,0.01,0.89-0.09,1.59,0.11c1.96,0.56,4.06,1.27,5.23,2.9c1.88,2.61-1.46,3.2-2.41,4.61
	c-1.59,2.36-3.72,4.37-5.68,6.47c-1.22,1.31-1,2.04,0.64,2.75c3.72,1.62,8.25-1.32,8.99-6.03c0.2-1.29-0.05-2.7,1.97-2.43
	c2.11,0.29,1.34,1.86,1.22,2.98c-0.48,4.46-4.79,8.76-9.25,9.35c-4.37,0.58-9.72-2.57-11.38-6.69
	C475.53,513.27,479.64,506.45,487.52,506.46z"/>
<path class="st2" d="M524.1,464.21c1.58-0.14,3.08,0.55,4.3,1.57c3.18,2.68,6.21,5.53,9.34,8.27c0.62,0.54,1.16,0.97,0.49,1.78
	c-0.52,0.63-1.09,1.89-1.83,1.44c-2.41-1.47-1.69,0.52-1.94,1.53c-0.77,3.2-2.51,5.6-5.65,6.85c-2.5,1-4.72,0.74-6.79-1.17
	c-2.11-1.95-2.38-4.26-1.47-6.73c1.02-2.76,2.84-4.98,5.24-6.71c0.55-0.4,1.58-0.73,1.16-1.59c-0.28-0.57-1.1-1.04-1.77-1.23
	c-3.07-0.85-5.14,0.63-6.69,3.11c-0.62,0.99-1.11,2.07-1.71,3.08c-0.35,0.58-0.51,1.53-1.61,1c-0.78-0.39-1.51-0.72-1.46-1.83
	C513.92,469.81,520.06,464.14,524.1,464.21z"/>
<path class="st2" d="M510.68,501.59c-5.34-0.09-10.25-4.39-10.88-9.51c-0.63-5.1,2.19-9.51,6.88-10.86
	c1.27-0.37,2.57-0.46,3.81-0.22c2.53,0.5,5.4,1.23,6.51,3.56c0.87,1.84-1.82,2.95-2.93,4.34c-1.79,2.25-3.82,4.31-5.74,6.46
	c-1.25,1.4-0.78,2.18,0.89,2.67c4.15,1.22,8.17-1.42,9.12-6.18c0.26-1.32,0.2-2.81,2.05-2.5c2.06,0.35,1.06,2.03,0.89,3.09
	C520.35,498.08,516.11,501.69,510.68,501.59z"/>
<path class="st2" d="M528.63,456.75c0.01-3.61,4.06-8.16,7.7-8.8c1-0.18,1.26,0.1,1.52,0.97c0.29,0.95,0.31,1.57-0.69,2.09
	c-1.32,0.69-2.66,1.39-3.8,2.33c-1.43,1.17-2.11,2.77-1.03,4.53c1.17,1.91,2.73,0.57,3.96,0.11c1.57-0.6,2.96-1.65,4.46-2.46
	c2.6-1.4,5.15-1.52,7.29,0.79c1.76,1.91,1.75,5.82,0.05,8.09c-1.83,2.45-4.31,4.09-7.13,5.23c-1.03,0.42-1.7,0.39-2.21-0.89
	c-0.56-1.41-0.13-1.89,1.15-2.23c1.87-0.5,3.54-1.34,4.88-2.87c1.39-1.58,1.83-3.23,0.5-4.88c-1.26-1.56-2.74-0.42-4.02,0.21
	c-1.52,0.75-2.94,1.72-4.42,2.54C532.78,463.78,528.63,461.36,528.63,456.75z"/>
<path class="st2" d="M507.97,510.25c-0.49,0.34-1.17,0.85-1.89,1.32c-0.88,0.57-1.37-0.17-1.91-0.64
	c-5.22-4.58-10.43-9.16-15.65-13.74c-1.12-0.99-2.22-2-3.36-2.97c-0.98-0.84-1.2-1.59-0.22-2.67c1-1.1,1.67-0.82,2.63,0.04
	c5.98,5.32,12.01,10.59,18.03,15.87C506.39,508.14,507.44,508.55,507.97,510.25z"/>
<path class="st2" d="M470.18,526.51c-0.57-1.99-0.74-3.99,0.33-5.86c0.5-0.87,0.66-2.67,2.38-1.46c1.02,0.72,2.35,1.22,0.88,3.13
	c-1.97,2.56-1.3,6.47,1.19,9.08c1.9,1.99,4.02,3.79,6.12,5.58c1.18,1.01,1.13,1.77,0.07,2.84c-1,1.02-1.67,0.87-2.65-0.03
	c-4.02-3.65-8.1-7.23-12.17-10.83c-1.14-1.01-1.93-1.87-0.37-3.33c1.65-1.55,2.12-0.03,2.94,0.8
	C469.31,526.87,469.72,527.11,470.18,526.51z"/>
<path class="st2" d="M428.14,436.16c-4.34-0.57-7.35-2.5-8.83-6.37c-0.9-2.36-0.58-4.57,1.33-6.46c1.86-1.85,3.94-2.38,6.41-1.48
	c2.95,1.07,4.99,3.16,6.72,5.69c0.41,0.6,0.78,1.82,1.74,1.51c1.01-0.32,1.65-1.28,1.88-2.42c0.45-2.27-0.6-3.99-2.15-5.39
	c-1.17-1.06-2.52-1.95-3.88-2.77c-0.95-0.58-1.09-1.13-0.55-2.06c0.45-0.78,0.84-1.05,1.76-0.59c3.43,1.71,6.37,3.94,7.96,7.52
	c1.17,2.62,0.46,5.09-1.4,7.1c-2.61,2.81-5.37,5.49-8.14,8.15c-0.71,0.68-1.13,2.08-2.8,0.92
	C426.5,438.31,427.53,437.4,428.14,436.16z"/>
<path class="st2" d="M448.16,435.55c4.34-0.18,7.66,1.58,8.87,4.6c1.39,3.47,0.42,6.44-2.21,8.97c-2.61,2.52-5.24,5.02-7.82,7.57
	c-0.86,0.85-1.49,1.34-2.61,0.23c-1.15-1.15-0.89-1.91,0.15-2.88c2.5-2.33,4.99-4.66,7.37-7.11c2.61-2.69,2.72-4.92,0.58-7.29
	c-2.53-2.8-4.85-3.19-7.83-0.8c-2.57,2.06-4.74,4.61-7.25,6.74c-0.72,0.61-1.48,2.54-3.05,0.89c-1.37-1.44-0.49-2.28,0.64-3.35
	c3.57-3.37,6.97-6.91,10.54-10.28c0.8-0.75,1.29-2.75,3.24-1.17C450.71,433.21,449.12,434.14,448.16,435.55z"/>
<path class="st1" d="M545.91,441.49c-0.1-2.4,1.17-4.08,3.06-5.25c1.98-1.22,4.06-0.86,6.1,0.11c1.13,0.53,1.08,1.09,0.32,1.92
	c-2.09,2.27-4.21,4.5-6.18,6.87c-0.89,1.07-1.45,1.02-2.1-0.06C546.44,443.97,545.81,442.85,545.91,441.49z"/>
<path class="st1" d="M486.77,509.73c1.37-0.03,2.97,0.36,3.53,1.54c0.44,0.93-1.01,1.89-1.73,2.75c-1.57,1.87-3.21,3.67-4.83,5.49
	c-0.63,0.71-1.29,1.25-1.91,0.03c-1.06-2.13-1.98-4.35-0.62-6.65C482.41,510.88,484.17,509.6,486.77,509.73z"/>
<path class="st1" d="M532.4,476.8c-0.11,0.41-0.19,1.29-0.56,2.02c-1.05,2.09-2.62,3.62-5.07,3.85c-1.41,0.13-2.54-0.58-3.04-1.86
	c-0.92-2.38,0.12-4.33,1.68-6.07c0.42-0.47,0.89-0.95,1.43-1.24c1.11-0.59,1.82-2.5,3.41-1.52
	C531.77,472.91,532.39,474.55,532.4,476.8z"/>
<path class="st1" d="M502.85,490.26c-0.01-4.44,4.52-7.31,8.53-5.44c1.44,0.67,2.11,1.23,0.61,2.65c-1.53,1.45-2.74,3.24-4.25,4.71
	c-0.9,0.88-1.51,2.89-3,2.21C503.32,493.75,502.86,491.94,502.85,490.26z"/>
<path class="st1" d="M934.81,446.14c6.16-0.02,10.17,4,10.19,10.2c0.02,6.1-4.67,10.47-11.25,10.49
	c-5.63,0.02-10.37-4.47-10.48-9.94C923.16,451.05,928.4,446.16,934.81,446.14z"/>
<path class="st1" d="M938.27,494.46c-3.91-0.05-6.95-3.05-6.9-6.81c0.06-4,3.43-6.87,8.03-6.82c4.06,0.05,7.21,2.93,7.21,6.58
	C946.61,491.27,942.76,494.52,938.27,494.46z"/>
<path class="st1" d="M930.89,587.08c0.01,2.88-0.85,4.77-3.26,5.7c-1.75,0.68-3.8,1.14-5.07-0.29c-0.91-1.03,0.68-2.41,1.22-3.58
	c0.71-1.53,1.58-2.99,2.49-4.4c0.53-0.82,0.51-2.41,1.83-2.25c1.2,0.15,1.68,1.47,2.23,2.51
	C930.8,585.65,930.91,586.56,930.89,587.08z"/>
<path class="st1" d="M949.32,512.52c0.08,1.35-0.42,2.53-1.26,3.51c-1.06,1.23-2.48,2.43-4.07,2.03c-1.82-0.46-0.86-2.34-0.95-3.59
	c-0.16-2.22-0.08-4.45-0.11-6.68c-0.02-1.17,0.23-1.78,1.67-1.35C947.34,507.27,949.36,509.75,949.32,512.52z"/>
<path class="st0" d="M65.88,476.54c-4.57,0.01-8.12-3.14-8.15-7.22c-0.03-3.77,3.38-7.05,7.22-6.96c4.24,0.1,7.92,3.35,8.07,7.14
	C73.18,473.29,69.88,476.53,65.88,476.54z"/>
<path class="st0" d="M222.4,333.92c-4.2-0.03-7.38-3.26-7.43-7.55c-0.05-4.36,3.12-7.59,7.35-7.5c3.94,0.08,7.37,3.7,7.4,7.81
	C229.76,330.68,226.46,333.95,222.4,333.92z"/>
<path class="st1" d="M734.92,325.35c0.03,4.16-2.87,7.38-6.67,7.43c-3.94,0.06-6.96-3.37-6.96-7.89c0-4.34,2.7-7.19,6.76-7.15
	C732.08,317.79,734.89,320.89,734.92,325.35z"/>
<path class="st1" d="M753.7,315.29c1.59-0.06,2.92,0.58,3.95,1.72c1,1.11,2.11,2.56,1.65,3.94c-0.44,1.33-2.2,0.52-3.36,0.66
	c-2.19,0.27-4.43-0.23-6.64,0.33c-1.64,0.42-2.09-0.36-1.66-1.92C748.35,317.42,750.98,315.33,753.7,315.29z"/>
<path class="st3" d="M429.09,434c-3.14,0.08-5.87-1.96-6.76-4.84c-0.44-1.41-0.16-2.54,0.8-3.53c1.04-1.07,2.35-1.57,3.8-0.95
	c2.67,1.13,4.63,3.1,5.77,5.72C433.48,432.19,431.63,433.94,429.09,434z"/>
<g>
	
		<ellipse transform="matrix(0.7071 -0.7071 0.7071 0.7071 -200.0968 506.5463)" class="st3" cx="511.41" cy="494.81" rx="114.88" ry="114.88"/>
	<path d="M511.41,382.43c30.02,0,58.24,11.69,79.47,32.92c21.23,21.23,32.92,49.45,32.92,79.47s-11.69,58.24-32.92,79.47
		c-21.23,21.23-49.45,32.92-79.47,32.92c-30.02,0-58.24-11.69-79.47-32.92c-21.23-21.23-32.92-49.45-32.92-79.47
		s11.69-58.24,32.92-79.47C453.17,394.12,481.39,382.43,511.41,382.43 M511.41,377.43c-64.83,0-117.38,52.55-117.38,117.38
		s52.55,117.38,117.38,117.38s117.38-52.55,117.38-117.38S576.23,377.43,511.41,377.43L511.41,377.43z"/>
</g>
<g>
	<path d="M496.89,458.52h-27.15v-19.2h77.7v19.2h-27.6v81.9h-22.95V458.52z"/>
</g>
</svg>
