<?xml version="1.0" encoding="utf-8"?>
<!-- Generator: Adobe Illustrator 23.0.0, SVG Export Plug-In . SVG Version: 6.00 Build 0)  -->
<svg width="100" height="100" version="1.1" id="Layer_1" xmlns="http://www.w3.org/2000/svg" xmlns:xlink="http://www.w3.org/1999/xlink" x="0px" y="0px"
	 viewBox="0 0 2338.88 1000" style="enable-background:new 0 0 2338.88 1000;" xml:space="preserve">
<style type="text/css">
	.st0{fill:#73DAEE;}
	.st1{fill:#62BB9F;}
	.st2{fill:#FFFFFF;}
	.st3{fill:#FEFEFE;}
	.st4{fill:#FFDE55;}
</style>
<g>
	<g>
		<path class="st0" d="M1236.63,705.65c-17.2-19.1-34.4-38.18-51.58-57.28c-1.75-1.94-5.38-5.8-9.23-9.87
			c-3.08-3.27-6.45-6.85-8.9-9.49c5.35-6.83,11.34-13.3,17.16-19.6c2.89-3.14,5.8-6.26,8.64-9.46
			c22.7-25.49,46.15-51.84,70.05-77.77c2.44-2.64,4.76-5.42,7-8.1c4.41-5.29,8.64-10.35,13.7-14.44
			c11.8,13.2,25.63,28.44,39.04,43.22c14.54,16.02,29.56,32.59,41.95,46.48l49.16,55.17c-0.49-0.06-1.01-0.13-1.5-0.19
			c-1.83-0.25-3.71-0.49-5.61-0.63c-22.66-1.54-45.7-3.37-67.98-5.16c-8.2-0.65-16.42-1.31-24.62-1.94
			c-1.46-0.11-2.95-0.19-4.43-0.25c-2.93-0.13-5.71-0.25-8.28-0.78c-1.08-0.23-2.07-0.32-2.99-0.32c-2.93,0-7.97,1.2-8.77,9.28
			c-2.28,23.23-4.76,48.17-7.38,73.06c-1.05,9.97-2.19,19.79-3.41,30.19c-0.15,1.33-0.32,2.68-0.48,4.03L1236.63,705.65z"/>
		<g>
			<path d="M1283.09,506.33c11.09,12.37,23.69,26.25,35.94,39.76c14.52,16,29.51,32.53,41.87,46.4l35.41,39.72l5.69,6.39
				c-21.08-1.46-42.44-3.16-63.14-4.81c-8.2-0.65-16.38-1.31-24.58-1.94c-1.58-0.11-3.12-0.19-4.6-0.25
				c-2.74-0.11-5.33-0.23-7.53-0.68c-1.41-0.29-2.7-0.44-3.94-0.44c-2.85,0-12.27,0.97-13.51,13.58
				c-2.3,23.31-4.78,48.29-7.36,73.04c-0.82,7.88-1.71,15.66-2.66,23.72l-17.31-19.23l-19.01-21.12
				c-16.59-18.42-33.18-36.83-49.75-55.27c-1.79-1.98-5.42-5.86-9.28-9.95c-2.02-2.15-4.17-4.41-6.09-6.47
				c4.47-5.44,9.32-10.67,14.36-16.13c2.85-3.1,5.82-6.3,8.69-9.53c22.7-25.49,46.15-51.84,70.01-77.72
				c2.51-2.74,4.87-5.56,7.15-8.28C1276.64,513.27,1279.74,509.56,1283.09,506.33 M1284.14,493.22
				c-10.1,6.79-16.78,16.97-24.85,25.72c-23.67,25.68-46.9,51.77-70.11,77.85c-9.57,10.75-19.84,20.87-28.42,32.48
				c3.75,4.26,16.97,18.07,20.76,22.28c22.91,25.47,45.85,50.93,68.78,76.39c10.27,11.41,20.55,22.81,31.39,34.87
				c1.79-15.54,3.58-30.12,5.1-44.73c2.55-24.35,4.98-48.72,7.38-73.09c0.32-3.23,1.22-5,4.03-5c0.59,0,1.26,0.08,2.04,0.23
				c4.32,0.89,8.87,0.76,13.3,1.1c30.88,2.42,61.74,5,92.63,7.1c4.38,0.3,8.79,1.29,13.47,1.29c1.52,0,3.08-0.11,4.66-0.38
				c-19.1-21.44-37.71-42.31-56.31-63.18C1343.23,558.34,1308.93,521.01,1284.14,493.22L1284.14,493.22z"/>
		</g>
	</g>
	<g>
		<path class="st0" d="M1059.04,508.8c-14.95-16.67-32.27-36.07-49.05-54.87c-20.09-22.51-40.85-45.77-58.22-65.08
			c-10.22-11.36-18.74-20.64-26.81-29.2c-1.26-1.33-1.41-2.09-1.31-3.39c1.45-18.38,2.76-36.68,4.22-56.98
			c0.38-5.21,0.76-10.44,1.14-15.66c1.27-17.33,2.59-35.27,3.56-52.95c0-0.1,0.02-0.17,0.02-0.25c0.29,0.02,0.57,0.04,0.88,0.08
			c41.06,3.48,78.1,6.64,115.58,9.72c3.23,0.27,5.17,1.2,7.13,3.42c17.26,19.5,34.89,39.23,51.96,58.31l20.17,22.56
			c11.7,13.09,23.4,26.2,35.1,39.31c0.99,1.12,8.77,10.29,12.8,15.09c-4.11,5.54-8.83,10.54-13.81,15.79
			c-2.55,2.68-5.17,5.48-7.71,8.31c-26.44,29.85-48.59,54.39-69.67,77.24c-3.23,3.52-6.43,7.15-9.51,10.67
			C1070.24,496.97,1064.82,503.15,1059.04,508.8z"/>
		<path d="M937.07,235.57c39.65,3.37,75.6,6.41,111.56,9.4c2.15,0.17,2.91,0.63,3.98,1.83c17.24,19.5,34.87,39.21,51.92,58.25
			c5.5,6.15,10.98,12.27,16.48,18.42l5.38,6.03c11.17,12.48,22.32,24.98,33.46,37.48c0.82,0.91,6.15,7.19,10.24,12.04
			c-3.41,4.2-7.19,8.22-11.15,12.4c-2.57,2.72-5.23,5.54-7.8,8.43c-26.43,29.81-48.55,54.34-69.61,77.18
			c-3.27,3.56-6.49,7.21-9.57,10.75c-4.3,4.91-8.43,9.63-12.73,14.08c-14.17-15.81-30.17-33.75-45.72-51.18
			c-20.07-22.49-40.81-45.75-58.18-65.05c-10.24-11.36-18.76-20.66-26.88-29.3c0,0,0,0-0.02-0.02c1.43-18.28,2.76-36.53,4.2-56.77
			c0.38-5.21,0.76-10.41,1.14-15.62C934.94,268.14,936.14,251.79,937.07,235.57 M931.87,225.63c-2.36,0-3.82,0.78-4.05,4.78
			c-1.24,22.85-3.04,45.68-4.68,68.51c-1.37,18.99-2.74,37.97-4.22,56.96c-0.23,2.87,0.59,4.89,2.59,7.02
			c9.04,9.61,17.92,19.33,26.73,29.13c33.07,36.74,77.49,86.81,110.52,123.57c10.84-9.85,19.88-21.38,29.77-32.11
			c23.53-25.51,46.73-51.35,69.75-77.32c8.07-9.09,17.08-17.37,23.95-27.51c-1.27-1.56-13.91-16.49-15.26-18
			c-12.94-14.52-25.91-29.01-38.87-43.53c-22.81-25.53-45.68-50.99-68.36-76.65c-2.93-3.31-6.13-4.66-10.31-5
			c-38.53-3.18-77.03-6.45-115.56-9.72C933.15,225.69,932.48,225.63,931.87,225.63L931.87,225.63z"/>
	</g>
	<g>
		<path class="st1" d="M1006.79,812.48c0.11-2.55,0.3-5.1,0.49-7.59c0.17-2.24,0.34-4.49,0.46-6.73
			c0.74-13.87,1.45-27.74,2.13-41.61c0.89-17.75,1.79-35.48,2.76-53.23c0.17-2.99-0.68-8.09-8.14-8.6l-0.42-0.04
			c-5.42-0.44-10.83-0.82-16.25-1.2c-4.7-0.34-9.4-0.67-14.08-1.03c-28.33-2.21-56.66-4.43-84.98-6.66l7.06-7.84
			c8.29-9.21,16.57-18.42,24.87-27.61l20.89-23.19c26.18-29.05,52.34-58.1,78.53-87.13c18.53-20.53,37.08-41.61,55.02-62
			c29.15-33.12,59.26-67.37,90.03-100.05c2.99-3.18,5.95-6.34,8.92-9.53c37.84-40.47,74.77-81.45,110.46-121.07l13.26-14.67
			c14.69-16.23,29.87-33.01,44.63-49.67c1.07-1.2,1.56-1.2,2.23-1.2c0.32,0,0.67,0.02,1.01,0.06l17.54,1.92
			c18.44,2.02,37.5,4.11,56.28,6.09c8.83,0.93,17.81,1.75,26.48,2.53c5.33,0.48,10.65,0.97,15.98,1.48c1.27,0.11,2.66,0.25,3.63,0.4
			c-0.04,0.93-0.13,2.21-0.21,3.08c-1.98,24.39-4.01,48.8-6.07,73.19l-2.24,26.88c-0.04,0.32-0.11,0.99,0.02,1.81
			c2.09,11.72-4.95,19.33-13.11,28.16c-42.14,45.58-83.77,93.01-124.02,138.86c-31.52,35.92-64.11,73.04-96.74,109.05
			c-13.28,14.67-27.15,29.26-40.54,43.38c-15.94,16.8-32.44,34.17-48.11,51.8c-14.42,15.75-28.92,31.96-42.96,47.66
			c-6.83,7.65-13.68,15.3-20.53,22.92C1049.66,764.91,1028.24,788.7,1006.79,812.48z"/>
		<path d="M1345.57,186.65l17.22,1.88c18.42,2.02,37.46,4.11,56.2,6.07c8.87,0.93,17.86,1.75,26.56,2.53
			c4.98,0.46,9.97,0.91,14.95,1.39c-1.94,23.8-3.96,47.98-5.92,71.36l-2.26,27.03c-0.08,0.74-0.15,1.85,0.08,3.18
			c1.6,8.92-3.23,14.67-11.93,24.07c-42.18,45.64-83.82,93.07-124.1,138.96c-31.51,35.9-64.09,73.02-96.7,108.99
			c-13.24,14.63-27.09,29.2-40.47,43.3c-15.96,16.82-32.48,34.21-48.19,51.88c-14.44,15.79-28.92,31.98-42.94,47.64
			c-6.85,7.67-13.7,15.33-20.58,22.96c-18.34,20.41-36.72,40.79-55.08,61.18c0.02-0.23,0.02-0.48,0.04-0.7
			c0.74-13.85,1.43-27.72,2.13-41.57c0.88-17.46,1.81-35.52,2.76-53.25c0.11-2.11,0.06-12.73-12.58-13.6l-0.38-0.02
			c-5.44-0.44-10.96-0.82-16.3-1.2c-4.68-0.34-9.36-0.67-14.04-1.03c-26.39-2.05-52.83-4.13-75.36-5.9
			c8.5-9.44,16.97-18.87,25.47-28.29l20.78-23.08c26.22-29.09,52.41-58.18,78.65-87.25c18.55-20.55,37.1-41.65,55.06-62.04
			c29.11-33.08,59.22-67.31,89.91-99.94c2.99-3.18,5.97-6.35,8.94-9.53c37.86-40.48,74.81-81.48,110.52-121.13
			c4.43-4.91,8.87-9.82,13.3-14.71C1315.91,219.76,1330.94,203.17,1345.57,186.65 M1344.66,177.06c-2.17,0-3.9,0.67-5.78,2.8
			c-19.12,21.59-38.54,42.9-57.87,64.3c-36.58,40.6-73.11,81.12-110.4,121c-2.97,3.18-5.94,6.35-8.92,9.51
			c-49.73,52.87-96.49,108.27-145.1,162.13c-33.16,36.76-66.3,73.55-99.44,110.33c-12.58,13.96-25.15,27.95-37.76,41.95
			c0.63,0.44,0.91,0.8,1.22,0.82c30.92,2.45,61.83,4.89,92.77,7.29c10.1,0.78,20.22,1.43,30.33,2.24c2.13,0.17,4.39,0.04,4.2,3.63
			c-1.71,31.62-3.23,63.24-4.91,94.84c-0.46,8.54-1.6,17.07-0.8,26.2c1.05-0.82,1.54-1.12,1.92-1.54
			c23.5-26.08,47.01-52.17,70.49-78.29c21.16-23.53,42.14-47.26,63.51-70.6c28.78-32.38,59.49-63.01,88.64-95.16
			c74.33-82.02,145.64-166.66,220.73-247.88c8.54-9.23,16.8-18.23,14.31-32.19c-0.04-0.19,0.02-0.4,0.02-0.61
			c2.78-33.35,5.59-66.7,8.31-100.07c0.63-7.76,0.46-7.82-7.7-8.6c-14.14-1.35-28.29-2.53-42.41-4.01
			c-24.6-2.57-49.2-5.31-73.8-8.01C1345.65,177.08,1345.15,177.06,1344.66,177.06L1344.66,177.06z"/>
	</g>
	<g>
		<path class="st1" d="M1948.03,820.03c-0.3,0-0.63-0.02-0.95-0.06c-25.74-2.45-53.67-5.04-87.9-8.18l-2.19-0.21
			c-9.84-0.89-19.98-1.83-30.04-2.44c1.35-13.49,2.66-27,4-40.49c0.84-8.64,1.69-17.27,2.53-25.91c0.65-6.49,1.29-12.98,1.94-19.48
			c1.18-11.66,2.34-23.34,3.46-35.02c0.1-0.99,0.19-1.22,0.21-1.26c0,0,0.08-0.11,0.38-0.32c31.07-22.11,53.06-54.01,67.2-97.54
			c9.78-30.12,14.19-61.96,13.09-94.67c-1.1-32.82-8.56-64.7-22.18-94.78c-12.9-28.46-30.12-53.46-51.29-74.44l4.68,0.25
			c11.78,0.61,23.23,1.22,34.7,1.83c14.38,0.78,28.77,1.58,43.15,2.38c3.16,0.17,6.34,0.34,9.49,0.49c8.2,0.4,16.68,0.82,24.92,1.64
			c0.76,0.08,1.48,0.11,2.13,0.11c4.51,0,9.99-1.88,10.5-10.86c0.93-16.25,2.05-32.53,2.93-44.9c1.29-18.42,2.64-36.81,4.01-55.21
			l0.15-2.21c8.6,9.13,15.9,18.8,22.51,27.53c14.31,18.89,27.57,40.18,39.44,63.28c13.58,26.41,24.75,54.35,33.24,83.08
			c9.66,32.74,15.51,65.56,17.41,97.56c2.59,43.76,0.08,81.6-7.67,115.69c-14.36,63.16-44.78,120.6-90.39,170.69
			c-14.29,15.7-28.61,29.15-43.8,41.15C1951.67,819.38,1950.03,820.03,1948.03,820.03z"/>
		<path d="M1986.86,230.39c5.38,6.39,10.25,12.82,14.8,18.83c14.14,18.68,27.26,39.74,39,62.59c13.45,26.14,24.5,53.82,32.89,82.26
			c9.55,32.4,15.35,64.86,17.22,96.49c2.57,43.3,0.1,80.7-7.57,114.34c-14.17,62.36-44.21,119.06-89.26,168.54
			c-14.12,15.51-28.25,28.78-43.24,40.62c-1.56,1.22-2.23,1.22-2.72,1.22c-0.15,0-0.32,0-0.49-0.02
			c-25.57-2.44-53.5-5.02-87.91-8.18l-2.09-0.19c-8.29-0.76-16.82-1.54-25.34-2.13c1.2-12.02,2.38-24.16,3.54-35.94
			c0.84-8.52,1.66-17.05,2.51-25.55c0.65-6.51,1.29-13.03,1.96-19.54c1.12-11.15,2.28-22.68,3.37-34.05
			c31.26-22.68,53.4-55.08,67.65-99.01c9.95-30.65,14.44-63.05,13.32-96.3c-1.12-33.45-8.73-65.94-22.62-96.59
			c-11.38-25.13-26.1-47.62-43.87-67.1c9.23,0.48,18.28,0.97,27.36,1.45c14.38,0.78,28.77,1.56,43.13,2.38
			c3.18,0.17,6.34,0.34,9.51,0.49c8.14,0.4,16.57,0.82,24.69,1.62c0.91,0.1,1.79,0.13,2.61,0.13c3.37,0,14.42-1.1,15.26-15.33
			c0.93-16.23,2.05-32.49,2.93-44.84C1984.6,261.21,1985.74,245.63,1986.86,230.39 M1979.37,208.49c-0.34,1.75-0.63,2.7-0.7,3.65
			c-1.56,21.25-3.14,42.5-4.64,63.75c-1.05,14.99-2.07,29.96-2.93,44.97c-0.25,4.41-1.64,6.37-5.75,6.37c-0.51,0-1.07-0.04-1.66-0.1
			c-11.49-1.14-23.08-1.5-34.63-2.15c-14.38-0.82-28.77-1.6-43.17-2.38c-16.74-0.89-33.5-1.77-51.2-2.7
			c1.16,1.58,1.62,2.45,2.28,3.08c24.2,22.34,42.65,48.72,56.24,78.69c13.41,29.6,20.68,60.58,21.76,92.97
			c1.07,31.73-3.04,62.86-12.86,93.05c-12.37,38.11-32.06,71.4-65.43,95.12c-1.96,1.39-2.36,2.85-2.57,5
			c-1.73,18.17-3.6,36.32-5.4,54.49c-2.21,22.41-4.36,44.82-6.6,67.23c-0.3,3.1,0.53,4.15,3.86,4.34
			c10.92,0.65,21.84,1.66,32.74,2.66c29.3,2.68,58.6,5.38,87.88,8.18c0.48,0.04,0.95,0.08,1.41,0.08c3.25,0,5.92-1.14,8.6-3.27
			c16-12.63,30.67-26.62,44.37-41.68c45.32-49.79,76.52-106.96,91.51-172.84c8.79-38.64,10.1-77.77,7.78-117.02
			c-1.98-33.46-8.07-66.36-17.6-98.63c-8.58-29.07-19.75-57.04-33.56-83.92c-11.51-22.39-24.66-43.85-39.88-63.98
			C2000.14,231.44,1990.97,219.43,1979.37,208.49L1979.37,208.49z"/>
	</g>
	<g>
		<path class="st0" d="M702.8,928.89c-23.27,0-46.31-1.6-68.47-4.76c-33.27-4.74-65.03-12.35-94.36-22.66
			c-38.24-13.43-74.08-31.26-106.54-52.97c-25.13-16.82-46.5-33.9-65.31-52.2l1.35,0.1c8.71,0.63,16.97,1.22,25.21,1.77
			c19.61,1.35,39.21,2.68,58.82,4.01l12.75,0.86l2.51,0.19c2.4,0.17,4.89,0.36,7.4,0.42c1.18,0.04,2.23,0.06,3.12,0.06
			c9.97,0,10.44-5.65,11.05-12.8c2.32-27.55,4.64-55.1,6.98-82.87l1.79-21.35c4.3,3.46,8.39,6.75,12.63,10.05
			c28.75,22.28,59.83,39.25,92.38,50.43c23.31,8.01,48.09,12.84,73.68,14.36c5.54,0.32,11.15,0.49,16.68,0.49
			c36.03,0,72.87-7.15,109.47-21.25c14.04-5.4,30.36-12.29,44.99-22.34c1.73-1.2,3.63-1.73,6.15-1.73c1.71,0,3.52,0.23,5.44,0.49
			c1.39,0.19,2.85,0.38,4.32,0.48c27.83,1.92,56.12,4.22,83.48,6.45c7.86,0.65,15.71,1.27,23.59,1.92c1.73,0.13,3.63,0.29,4.72,0.48
			c0.06,1.1-0.04,2.95-0.1,4.51c-0.59,13.49-1.2,27-1.81,40.49c-1.03,22.77-2.05,45.56-3.01,68.34c-0.04,0.93-0.21,1.35-2.11,2.87
			c-28.12,22.37-60.27,40.49-98.28,55.34c-43.13,16.88-88.68,26.88-135.34,29.75C724.85,928.53,713.68,928.89,702.8,928.89z"/>
		<path d="M503.07,695.99c1.9,1.5,3.79,3.01,5.73,4.51c29.17,22.6,60.69,39.82,93.75,51.18c23.72,8.14,48.93,13.07,74.94,14.63
			c5.63,0.34,11.34,0.51,16.97,0.51c36.62,0,74.03-7.27,111.16-21.57c14.31-5.52,30.95-12.54,45.98-22.85
			c0.78-0.53,1.67-0.89,3.46-0.89c1.41,0,3.06,0.21,4.81,0.44c1.46,0.19,2.99,0.4,4.6,0.49c27.78,1.92,56.01,4.22,83.31,6.45
			c7.9,0.65,15.79,1.29,23.7,1.92c0.1,0,0.17,0.02,0.27,0.02v0.02c-0.59,13.51-1.2,27.02-1.81,40.52
			c-0.99,22.07-2.02,44.9-2.95,67.37c-0.1,0.08-0.21,0.17-0.36,0.29c-27.74,22.09-59.49,39.95-97.05,54.64
			c-42.67,16.68-87.72,26.6-133.9,29.45c-11.05,0.68-22.11,1.03-32.89,1.03c-23.04,0-45.85-1.58-67.8-4.7
			c-32.97-4.68-64.42-12.23-93.47-22.43c-37.86-13.3-73.36-30.93-105.47-52.43c-20.68-13.83-38.77-27.83-54.96-42.56
			c4.45,0.32,8.85,0.63,13.22,0.93c19.54,1.35,39.1,2.66,58.63,4l12.94,0.88c0.82,0.06,1.64,0.11,2.47,0.17
			c2.47,0.19,5.02,0.38,7.65,0.44c1.24,0.04,2.3,0.06,3.23,0.06c14.34,0,15.18-9.91,15.79-17.16c2.32-27.53,4.64-55.08,6.98-82.83
			L503.07,695.99 M495.1,677.36c-3.22,38.09-6.35,75.6-9.53,113.12c-0.63,7.44-0.74,8.45-6.32,8.45c-0.86,0-1.85-0.02-2.99-0.06
			c-3.23-0.08-6.47-0.38-9.7-0.59c-23.86-1.62-47.71-3.23-71.57-4.87c-12.29-0.84-24.56-1.73-38.45-2.72
			c3.46,3.8,5.63,6.45,8.09,8.83c20.32,19.8,42.56,37.14,66.15,52.93c33.6,22.49,69.55,40.14,107.6,53.5
			c30.93,10.86,62.74,18.26,95.28,22.89c23,3.27,46.06,4.79,69.14,4.79c11.15,0,22.32-0.36,33.48-1.05
			c47.05-2.91,92.73-12.84,136.79-30.08c35.86-14.02,69.35-32.04,99.52-56.07c2.09-1.67,3.77-3.25,3.9-6.39
			c1.5-36.28,3.22-72.54,4.79-108.8c0.4-9.15,0.3-9.19-9-9.95c-35.71-2.87-71.38-5.9-107.11-8.37c-3.29-0.23-6.7-0.97-10.08-0.97
			c-2.97,0-5.94,0.57-8.85,2.55c-13.6,9.34-28.73,15.92-44.02,21.82c-34.82,13.41-70.66,20.95-107.76,20.95
			c-5.44,0-10.9-0.17-16.4-0.49c-24.81-1.48-48.99-6.07-72.43-14.12c-33.12-11.38-63.35-28.25-91.02-49.69
			C508.13,687.94,501.78,682.71,495.1,677.36L495.1,677.36z"/>
	</g>
	<g>
		<path class="st0" d="M457.85,767.35c-14.4-1.14-28.58-2.17-44.27-3.31c-5.92-0.44-11.85-0.88-17.77-1.31
			c-18.02-1.35-36.64-2.74-55-3.73c-4.85-0.27-7.97-1.56-10.71-4.47c-15.77-16.68-29.75-36.2-41.55-57.97
			c-21.33-39.36-35.54-83.27-42.24-130.53c-6.32-44.52-6.58-88.98-0.78-132.11c5.57-41.55,17.88-81.6,36.57-119.06
			c18.47-37.06,42.48-70.47,71.34-99.31c8.64-8.62,17.41-16.36,26.65-23.48c-0.15,2.95-0.42,5.92-0.7,8.96
			c-0.3,3.39-0.63,6.89-0.76,10.39c-0.53,14.21-1.43,28.67-2.3,42.65c-0.4,6.58-0.82,13.18-1.18,19.77
			c-0.19,3.22-0.32,6.43-0.48,9.65c-0.21,4.6-0.42,9.34-0.74,13.98c-0.23,3.18,0.46,5.61,2.09,7.48c2.21,2.51,5.4,2.99,7.61,3.12
			c36.55,2.23,73.7,4.62,109.62,6.93l5.29,0.34c-11.53,11.4-22.01,23.8-31.81,37.67c-28.58,40.41-44.23,81.03-47.9,124.18
			c-3.77,44.25,2.78,86.98,19.41,127.01c7.32,17.64,16.89,33.75,28.42,47.89c0.78,0.95,0.76,1.16,0.72,1.5
			c-2.63,31.09-5.21,62.15-7.74,93.24c-0.11,1.41-0.25,2.82-0.38,4.22c-0.48,5.31-0.99,10.79-0.8,16.3
			C458.27,767.37,458.06,767.37,457.85,767.35z"/>
		<path d="M374.46,202.71c-0.25,2.8-0.48,5.65-0.59,8.56c-0.53,14.15-1.43,28.59-2.28,42.54c-0.4,6.6-0.82,13.2-1.18,19.8
			c-0.19,3.23-0.32,6.47-0.48,9.7c-0.21,4.57-0.42,9.28-0.74,13.87c-0.3,4.43,0.78,8.12,3.25,10.94c3.77,4.3,9.13,4.62,10.9,4.74
			c34.83,2.13,70.24,4.39,104.58,6.6c-8.92,9.51-17.2,19.71-25.07,30.84c-29.07,41.11-45.01,82.51-48.76,126.53
			c-3.82,45.03,2.82,88.5,19.75,129.24c7.42,17.85,17.07,34.17,28.69,48.53c-2.78,33.03-5.29,63.11-7.65,91.89
			c-0.11,1.39-0.25,2.78-0.36,4.19c-0.34,3.77-0.7,7.65-0.82,11.59c-13.15-1.03-26.33-2-39.78-2.97
			c-5.94-0.44-11.89-0.88-17.83-1.31c-18.02-1.35-36.64-2.74-55.04-3.73c-4.13-0.23-5.88-1.26-7.51-2.99
			c-15.51-16.4-29.24-35.56-40.83-56.98c-21.04-38.85-35.08-82.23-41.7-128.93c-6.26-44.1-6.51-88.1-0.78-130.8
			c5.5-41.02,17.66-80.57,36.11-117.57c18.24-36.58,41.95-69.59,70.45-98.07C362.59,213.15,368.45,207.77,374.46,202.71
			 M384.78,182.7c-12.75,9.11-24.1,18.91-34.7,29.51c-29.56,29.55-53.54,63.05-72.24,100.55c-19.06,38.22-31.37,78.46-37.02,120.54
			c-5.95,44.39-5.52,88.9,0.8,133.4c6.6,46.59,20.34,90.73,42.73,132.11c11.61,21.42,25.51,41.25,42.27,58.98
			c3.79,4,8.16,5.63,13.91,5.95c24.26,1.29,48.48,3.27,72.69,5.04c14.74,1.07,29.49,2.15,44.23,3.31c0.65,0.06,1.24,0.1,1.79,0.1
			c2.59,0,4.11-0.82,3.96-4.93c-0.23-6.64,0.61-13.34,1.16-20c2.55-31.09,5.14-62.15,7.74-93.24c0.17-2-0.53-3.39-1.79-4.91
			c-11.57-14.17-20.7-29.81-27.72-46.71c-16.63-40.03-22.7-81.85-19.04-124.78c3.82-44.97,21.14-85.19,47.05-121.84
			c11.11-15.71,23.61-30.29,38.72-44.1c-4.15-0.42-7.12-0.84-10.12-1.03c-38.43-2.47-76.86-4.95-115.29-7.29
			c-3.82-0.23-5.52-1.5-5.23-5.52c0.55-7.88,0.78-15.79,1.22-23.69c1.18-20.83,2.68-41.66,3.48-62.52
			C383.75,202.12,385.56,192.65,384.78,182.7L384.78,182.7z"/>
	</g>
	<g>
		<path class="st1" d="M1629.04,927.5c-36.34,0-68.97-3.56-99.75-10.86c-26.29-6.24-52.78-15.56-78.71-27.7
			c-42.6-19.92-81.85-46.19-116.64-78.04c-7.63-6.98-15.05-14.38-22.09-21.99c-1.1-1.18-1.39-1.83-1.2-3.84
			c1.58-16.55,2.89-33.37,4.17-49.64c0.38-4.91,0.76-9.82,1.16-14.73l0.8-10.01c1.01-12.63,2.05-25.7,2.99-38.56
			c0-0.08,0-0.13,0.02-0.19c26.56,2.42,53.59,4.74,79.71,6.98l8.81,0.76c2.78,0.25,5.54,0.49,8.31,0.74c8.85,0.8,18,1.64,27.07,2.02
			c4.34,0.19,7.25,1.31,10.05,3.92c38.79,36.01,85.82,58.81,143.81,69.69c16.93,3.18,34,4.78,50.76,4.78l0,0
			c28.67,0,57.46-4.7,85.57-14c12.99-4.3,26.24-9.78,39.32-16.32c10.03-5,19.56-10.39,28.9-16.38l-0.86,9.74
			c-1.31,15.03-2.59,29.72-3.88,44.42c-0.89,10.1-1.81,20.19-2.72,30.29l-1.58,17.58c-0.08,0.84-0.13,1.66-0.19,2.49
			c-0.08,1.14-0.15,2.3-0.29,3.42l-0.27,2.19c-0.88,6.98-1.27,10.16,1.05,12.86c2.13,2.47,5.08,2.53,8.5,2.61
			c1.64,0.04,3.65,0.08,6.2,0.32c25.59,2.45,51.61,4.55,76.78,6.58c8.37,0.67,16.74,1.35,25.09,2.04
			c-5.78,3.94-11.74,7.48-17.54,10.94l-0.8,0.48c-34.04,20.26-71.8,36.28-112.23,47.58c-36.66,10.24-75.45,16.59-115.31,18.83
			C1652.02,927.16,1640.23,927.5,1629.04,927.5z"/>
		<path d="M1324.17,677.1c25.25,2.28,50.82,4.47,75.6,6.6l8.12,0.7c2.76,0.23,5.5,0.49,8.26,0.74c8.92,0.8,18.13,1.64,27.34,2.04
			c3.22,0.13,5.04,0.84,7,2.66c39.46,36.64,87.29,59.83,146.17,70.87c17.22,3.23,34.59,4.87,51.63,4.87
			c29.17,0,58.46-4.79,87.08-14.23c13.2-4.36,26.65-9.93,39.95-16.57c7.29-3.63,14.33-7.48,21.21-11.61l-0.04,0.49
			c-1.29,14.95-2.57,29.58-3.86,44.21c-0.89,10.08-1.81,20.19-2.72,30.27c-0.53,5.86-1.07,11.74-1.58,17.6
			c-0.08,0.88-0.13,1.75-0.19,2.63c-0.08,1.12-0.15,2.19-0.27,3.14l-0.27,2.19c-0.93,7.38-1.54,12.25,2.17,16.57
			c3.52,4.07,8.22,4.17,12,4.26c1.64,0.04,3.48,0.08,5.84,0.3c25.61,2.45,51.65,4.55,76.82,6.58c3.65,0.29,7.32,0.59,10.98,0.89
			c-1.81,1.08-3.61,2.17-5.46,3.25l-0.8,0.48c-33.67,20.05-71.06,35.9-111.07,47.09c-36.34,10.16-74.79,16.44-114.3,18.66
			c-11.99,0.68-23.69,1.03-34.78,1.03c-35.98,0-68.24-3.52-98.66-10.73c-25.99-6.16-52.15-15.39-77.79-27.38
			c-42.16-19.73-81.01-45.72-115.44-77.24c-7.51-6.87-14.84-14.17-21.78-21.69c0-0.06,0.02-0.13,0.02-0.21
			c1.58-16.61,2.89-33.48,4.17-49.79c0.38-4.89,0.76-9.76,1.16-14.65l0.8-9.97C1322.42,699.96,1323.35,688.49,1324.17,677.1
			 M1319.13,667.13c-2.99,0-3.88,1.45-4.11,4.64c-1.16,16.19-2.49,32.36-3.79,48.53c-1.71,21.44-3.27,42.88-5.31,64.3
			c-0.3,3.29,0.38,5.29,2.44,7.53c7.15,7.74,14.61,15.16,22.37,22.28c35.27,32.29,74.5,58.56,117.84,78.84
			c25.63,11.99,52.13,21.48,79.62,28.02c33.29,7.91,66.95,11,100.85,11c11.74,0,23.51-0.36,35.31-1.05
			c39.5-2.23,78.27-8.37,116.32-19.01c39.84-11.13,77.79-26.88,113.37-48.08c9.42-5.61,18.91-11.21,27.89-18.4
			c-1.48-0.57-2.23-1.07-3.01-1.14c-36.79-3.08-73.63-5.78-110.38-9.32c-13.34-1.27-13.11,2.64-11.21-12.67
			c0.25-2.02,0.3-4.05,0.49-6.09c1.43-15.96,2.89-31.9,4.3-47.87c1.85-21,3.67-42.03,5.57-63.98
			c-12.37,8.45-24.28,15.35-36.62,21.52c-12.54,6.26-25.44,11.68-38.7,16.06c-27.7,9.15-55.72,13.75-84.09,13.75
			c-16.51,0-33.14-1.56-49.88-4.7c-53.4-10.01-101.31-31.22-141.45-68.49c-3.77-3.5-7.86-4.97-13.09-5.19
			c-11.74-0.49-23.46-1.73-35.18-2.74c-29.51-2.53-59.02-5.06-88.52-7.74C1319.81,667.15,1319.45,667.13,1319.13,667.13
			L1319.13,667.13z"/>
	</g>
	<g>
		<path class="st0" d="M887.66,315.96c-2.87-2.66-5.65-5.23-8.54-7.71c-26.6-22.87-57.4-40.87-91.55-53.5
			c-29.98-11.09-60.25-16.72-89.95-16.72c-2.76,0-5.54,0.06-8.29,0.15c-28.67,0.99-58.75,7.31-91.93,19.31
			c-20.7,7.48-39.08,15.92-56.18,25.82c-2.09,1.22-4.3,1.75-7.15,1.75c-1.64,0-3.31-0.17-5.1-0.34c-1.31-0.13-2.63-0.25-3.94-0.32
			c-16.17-0.88-32.61-1.98-48.49-3.06c-8.09-0.55-16.17-1.1-24.26-1.62c-16.61-1.07-29.41-1.83-41.4-2.44
			c2.47-39.91,4.64-76.1,6.66-110.59c0.08-1.14,0.21-1.33,0.99-1.9c28.37-20.24,59.17-37.04,94.15-51.33
			c40.83-16.68,84.09-28.18,128.57-34.15c24.75-3.33,47.62-4.95,69.92-4.95c14.86,0,29.53,0.76,43.62,2.24
			c41.85,4.41,82.82,15.43,121.72,32.7c54.2,24.09,99.5,54.22,138.29,92.02l-3.08-0.25c-10.58-0.82-21.04-1.64-31.52-2.38
			c-9.93-0.72-19.86-1.41-29.79-2.09c-14.52-1.01-29.03-2.04-43.55-3.1c-0.34-0.02-0.68-0.04-0.99-0.04c-1.88,0-8.05,0.61-8.71,8.5
			c-1.83,21.65-3.61,43.32-5.42,64.97L887.66,315.96z"/>
		<path d="M711.19,79.09c14.69,0,29.2,0.74,43.13,2.21c41.36,4.38,81.83,15.24,120.28,32.32c49.2,21.86,91,48.74,127.18,81.88
			c-7.06-0.53-14.19-1.08-21.23-1.58c-9.91-0.72-19.84-1.41-29.76-2.09c-14.29-0.99-29.07-2.04-43.57-3.1
			c-0.48-0.04-0.91-0.06-1.35-0.06c-7.51,0-12.78,5.04-13.45,12.86c-1.85,22.03-3.69,44.08-5.52,66.11l-0.7,8.37
			c-0.82,9.89-1.64,19.79-2.47,29.95c-0.49-0.44-0.99-0.88-1.5-1.31c-27.03-23.23-58.33-41.51-92.99-54.35
			c-30.52-11.3-61.34-17.03-91.6-17.03c-2.8,0-5.65,0.06-8.45,0.15c-29.18,1.01-59.72,7.42-93.37,19.6
			c-20.97,7.57-39.59,16.13-56.94,26.16c-1.37,0.78-2.74,1.1-4.78,1.1c-1.39,0-2.97-0.15-4.64-0.32c-1.31-0.13-2.68-0.27-4.13-0.34
			c-16.15-0.88-32.59-1.98-48.49-3.06c-8.07-0.55-16.13-1.08-24.2-1.62c-14.42-0.93-25.97-1.62-36.66-2.19
			c2.32-37.52,4.38-71.86,6.3-104.77c27.81-19.73,58.01-36.15,92.25-50.13c40.45-16.53,83.31-27.91,127.39-33.85
			C666.44,80.7,689.1,79.09,711.19,79.09L711.19,79.09 M711.17,69.57c-23.55,0-47.07,1.83-70.54,5
			c-44.71,6.01-87.91,17.39-129.73,34.47c-33.69,13.76-65.5,30.73-95.12,51.86c-2.05,1.46-2.83,3.01-2.99,5.5
			c-2.15,37.02-4.39,74.04-6.68,111.07c-0.19,3.1,0.76,4.36,3.98,4.51c13.96,0.7,27.93,1.56,41.89,2.45
			c24.28,1.56,48.51,3.37,72.81,4.68c3.1,0.17,6.18,0.67,9.28,0.67c3.12,0,6.28-0.51,9.53-2.38c17.64-10.18,36.22-18.51,55.42-25.46
			c29.28-10.6,59.24-17.94,90.46-19.02c2.72-0.1,5.42-0.13,8.12-0.13c30.34,0,59.78,5.88,88.31,16.44
			c33.08,12.25,63.28,29.6,90.1,52.64c5.12,4.39,9.95,9.09,15.58,14.25c1.41-17.14,2.74-33.22,4.07-49.29
			c2.05-24.83,4.11-49.65,6.2-74.48c0.21-2.55,1.14-4.15,3.98-4.15c0.21,0,0.42,0,0.65,0.02c24.45,1.83,48.91,3.44,73.36,5.21
			c15.26,1.1,30.5,2.32,46.08,3.5c-0.67-2.8-2.55-3.84-3.92-5.21c-41.59-41.53-90.01-72.98-143.54-96.76
			c-39.29-17.46-80.4-28.58-123.15-33.08C740.58,70.3,725.87,69.57,711.17,69.57L711.17,69.57z"/>
	</g>
	<g>
		<path class="st1" d="M1946.36,302.65c-33.58-2.8-69.04-4.85-108.4-6.26c-15.68-0.57-26.1-7.29-37.16-15.35
			c-25.65-18.72-55.88-31.11-92.4-37.92c-18.02-3.35-37.14-5.04-56.79-5.04c-4.2,0-8.5,0.08-12.8,0.23
			c-43.36,1.54-80.42,9.74-113.31,25.11c-14.5,6.77-26.06,13.68-35.84,21.46c0.13-2.09,0.27-4.17,0.4-6.24
			c0.74-11.81,1.5-24.03,2.36-35.94c1.05-14.36,2.21-28.97,3.33-43.11c0.49-6.26,0.99-12.5,1.48-18.76
			c0.04-0.42,0.04-0.88,0.04-1.31c0-0.19,0-0.38,0-0.57c1.24-3.29,1.14-6.13-0.27-8.41c-2.21-3.6-6.45-4.03-9.28-4.32
			c-9.17-0.93-18.36-1.81-27.53-2.68c-5.36-0.51-10.75-1.03-16.11-1.54c-21.95-2.13-43.91-4.28-65.86-6.45
			c5.46-3.5,11.09-7.08,16.8-10.2c37.92-20.68,77.24-36.76,116.91-47.81c36.49-10.16,73.8-16.78,110.9-19.65
			c14.92-1.16,29.85-1.75,44.4-1.75c25.17,0,50.17,1.75,74.35,5.21c45.07,6.45,85.14,18.63,122.48,37.27
			c30.31,15.12,55.93,32.7,78.31,53.75c3.08,2.89,6.07,6.09,8.98,9.17c1.05,1.12,2.09,2.23,3.16,3.35c0.78,0.82,0.82,1.22,0.78,1.79
			c-0.72,9.57-1.39,19.16-2.05,28.73c-0.55,7.82-1.08,15.64-1.67,23.46c-0.53,7.27-1.1,14.55-1.67,21.82
			c-1.05,13.53-2.13,27.53-3.01,41.32c-0.02,0.25-0.04,0.46-0.06,0.65C1946.64,302.69,1946.49,302.67,1946.36,302.65z"/>
		<path d="M1667.21,80.93c24.94,0,49.73,1.73,73.66,5.16c44.56,6.37,84.15,18.42,121.04,36.81c29.89,14.9,55.13,32.23,77.18,52.97
			c2.97,2.8,5.78,5.78,8.77,8.96c0.84,0.89,1.69,1.81,2.57,2.72c-0.68,9.23-1.35,18.59-1.98,27.62c-0.55,7.78-1.08,15.58-1.66,23.36
			c-0.53,7.23-1.08,14.44-1.66,21.67c-0.95,12.23-1.92,24.85-2.76,37.35c-32.36-2.63-66.51-4.57-104.22-5.92
			c-13.11-0.48-21.92-5.23-34.53-14.44c-26.24-19.14-57.09-31.81-94.33-38.73c-18.3-3.41-37.71-5.14-57.66-5.14
			c-4.26,0-8.62,0.08-12.98,0.23c-44,1.56-81.67,9.91-115.16,25.55c-10.94,5.12-20.26,10.31-28.44,15.9
			c0.68-10.9,1.35-21.35,2.11-31.98c1.05-14.38,2.21-29.01,3.33-43.17c0.49-6.22,0.99-12.46,1.48-18.68
			c0.04-0.46,0.06-0.93,0.06-1.41c1.77-5.46,0.49-9.36-0.95-11.72c-3.44-5.61-9.55-6.22-12.84-6.56
			c-9.19-0.93-18.53-1.83-27.55-2.68c-5.38-0.51-10.75-1.03-16.13-1.54c-17.29-1.67-34.61-3.39-51.92-5.08
			c1.56-0.91,3.1-1.81,4.66-2.64c37.59-20.49,76.59-36.45,115.9-47.39c36.2-10.08,73.21-16.65,109.98-19.5
			C1637.95,81.52,1652.77,80.93,1667.21,80.93 M1667.21,71.42c-14.92,0-29.83,0.59-44.78,1.75c-37.92,2.93-75.13,9.59-111.81,19.8
			c-41.23,11.49-80.42,27.76-117.92,48.21c-9.17,5-17.81,10.94-26.56,16.38c0.88,1.96,1.98,1.77,2.95,1.86
			c24.83,2.44,49.67,4.87,74.5,7.29c14.55,1.41,29.11,2.74,43.64,4.22c3.69,0.38,7.67,0.86,5.5,6.47c-0.34,0.91-0.21,2.02-0.29,3.02
			c-1.62,20.64-3.33,41.27-4.81,61.91c-1.26,17.33-2.26,34.68-3.41,52.41c1.07-0.53,2.07-0.82,2.78-1.45
			c12.04-10.81,25.87-18.76,40.47-25.59c35.33-16.51,72.85-23.31,111.47-24.68c4.22-0.15,8.43-0.23,12.63-0.23
			c18.74,0,37.38,1.52,55.93,4.97c32.78,6.09,63.52,17.41,90.46,37.08c12.27,8.94,23.31,15.68,39.8,16.27
			c36.05,1.29,72.16,3.25,108.18,6.26c0.49,0.04,0.93,0.06,1.33,0.06c3.23,0,4.03-1.35,4.28-5.12c1.33-21.04,3.12-42.06,4.68-63.11
			c1.27-17.39,2.42-34.8,3.73-52.19c0.17-2.28-0.65-3.94-2.07-5.42c-4.07-4.26-8.03-8.66-12.31-12.71
			c-23.67-22.26-50.36-40.03-79.45-54.54c-39.25-19.58-80.72-31.54-123.93-37.71C1717.28,73.11,1692.26,71.42,1667.21,71.42
			L1667.21,71.42z"/>
	</g>
	<path class="st0" d="M1460.31,496.43c0-35.9,27.36-61.72,65.37-61.72c35.31,0.02,63.01,26.94,63.01,61.24
		c0,35.22-28.18,62.21-64.91,62.19C1487.55,558.15,1460.31,531.65,1460.31,496.43z"/>
	<path class="st1" d="M547.67,496.38c0-17.73,0.21-35.44-0.13-53.16c-0.1-5.25,1.62-6.39,6.53-6.3c16.1,0.3,32.23-0.65,48.27,0.29
		c24.52,1.43,44.48,11.99,53.46,35.8c8.56,22.73,5.92,45.15-11.22,63.71c-12.18,13.18-28.33,18.66-46.02,19.08
		c-15.28,0.36-30.55-0.06-45.83,0.17c-4.13,0.06-5.16-1.29-5.12-5.21C547.76,532.64,547.67,514.51,547.67,496.38z"/>
	<path class="st0" d="M1635.8,476.4c8.26-7.55,15.75-12.86,26.06-13.09c18.36-0.4,31.37,7.86,38.34,24.33
		c8.01,18.93,7.06,37.94-5.19,54.98c-13.49,18.78-41.7,20.97-56.9,4.55c-0.36-0.4-0.89-0.65-2.3-1.64c0,11.28-0.32,21.75,0.13,32.17
		c0.23,5.27-1.46,6.56-6.45,6.22c-6.7-0.44-13.43-0.25-20.15-0.06c-3.06,0.1-4.26-0.67-4.24-4.01c0.11-37.27,0.1-74.54,0-111.81
		c0-3.2,0.93-4.22,4.15-4.13c6.93,0.21,13.87,0.44,20.76-0.06c5.08-0.36,6.47,1.56,5.82,6.15
		C1635.61,471.63,1635.8,473.26,1635.8,476.4z"/>
	<path class="st1" d="M734.95,519.21c-8.75,0-17.5,0.1-26.25-0.04c-4.74-0.08-4.59,2.11-2.8,5.27c5.75,10.18,20.93,13.26,31.6,6.45
		c8.31-5.31,8.31-5.31,15.64,1.24c0.61,0.53,1.22,1.08,1.85,1.58c8.2,6.49,8.29,7.06,0.13,13.64
		c-21.14,17.01-58.79,14.82-74.63-11.02c-13.37-21.8-7.1-51.61,13.72-65.48c21.21-14.14,50.51-9.04,64.19,11.68
		c6.6,9.99,8.37,21.38,7.93,33.2c-0.13,3.73-2.59,3.48-5.08,3.46C752.47,519.21,743.7,519.21,734.95,519.21z"/>
	<path class="st0" d="M1756.87,463.41c11.43-0.72,22.13,3.27,32.63,8.33c2.64,1.27,3.31,2.64,1.62,5.04
		c-0.23,0.32-0.4,0.7-0.59,1.07c-2.55,4.81-3.98,11.09-7.91,14.04c-4.43,3.31-8.98-3.29-14.04-4.05c-5.12-0.76-9.99-3.12-15.37-2.38
		c-2.59,0.36-4.81,1.18-5.5,3.98c-0.84,3.33,1.96,3.96,4.01,5.12c7.29,4.13,15.66,5.14,23.34,8.29
		c14.57,6.01,20.22,13.3,19.65,27.62c-0.49,12.27-8.43,21.5-21.63,25.34c-19.69,5.71-37.59,0.86-54.7-9.04
		c-2.89-1.67-3.46-3.58-1.39-6.24c0.25-0.3,0.32-0.74,0.55-1.08c3.04-4.51,5.29-11.4,9.4-12.78c3.61-1.24,9.25,3.82,14.1,5.86
		c6.07,2.55,12.52,3.25,19.04,2.95c2.83-0.13,5.97-0.76,6.34-4.39c0.38-3.56-2.55-4.91-5.19-5.76c-7.5-2.47-15.16-4.43-22.64-6.98
		c-21.54-7.36-22.98-26.41-15.31-40.03c5.56-9.89,15.56-13.58,26.43-14.82C1751.87,463.2,1754.13,463.41,1756.87,463.41z"/>
	<path class="st1" d="M821.89,517.4c5.37-16.04,10.88-32.02,16.02-48.11c1.24-3.86,2.74-5.54,7.06-5.33c8.71,0.4,17.46,0.11,27,0.11
		c-3.84,10.03-7.46,19.58-11.17,29.07c-7.69,19.6-15.56,39.12-23.08,58.79c-1.45,3.79-3.08,5.44-7.34,5.16
		c-6.49-0.44-13.01-0.25-19.52-0.06c-2.93,0.1-4.39-1.05-5.44-3.67c-10.98-27.87-22.01-55.74-33.1-83.58
		c-1.62-4.03-1.81-6.2,3.8-5.82c7.29,0.48,14.65,0.44,21.95,0c4.38-0.27,5.95,1.46,7.15,5.33c4.68,15.07,9.68,30.02,14.55,45.03
		C820.14,515.4,820.05,516.79,821.89,517.4z"/>
	<path class="st2" d="M1251.38,380.82c0.04-8.26,4.32-14.04,12.8-17.33c5.46-2.11,14.69,0.38,19.14,4.89
		c1.62,1.64,1.77,2.53,0.11,4.32c-5.19,5.69-9.93,11.8-15.22,17.41c-3.54,3.73-1.1,4.79,1.98,5.54c7.84,1.86,14.76-3.2,16.59-12.16
		c0.49-2.44,0.21-5.31,3.86-4.72c4,0.63,2.15,4.01,1.94,5.9c-1.14,9.82-11.68,18.82-20.66,18.07
		C1260.62,401.77,1251.32,391.84,1251.38,380.82z"/>
	<path class="st2" d="M1146.27,504.12c0.19,0.02,1.69-0.17,3.02,0.21c3.73,1.07,7.72,2.42,9.95,5.52c3.58,4.97-2.78,6.09-4.59,8.77
		c-3.02,4.49-7.08,8.31-10.81,12.31c-2.32,2.49-1.9,3.88,1.22,5.23c7.08,3.08,15.7-2.51,17.1-11.47c0.38-2.45-0.1-5.14,3.75-4.62
		c4.01,0.55,2.55,3.54,2.32,5.67c-0.91,8.49-9.11,16.67-17.6,17.79c-8.31,1.1-18.49-4.89-21.65-12.73
		C1123.45,517.08,1131.27,504.1,1146.27,504.12z"/>
	<path class="st2" d="M1215.86,423.74c3.01-0.27,5.86,1.05,8.18,2.99c6.05,5.1,11.81,10.52,17.77,15.73
		c1.18,1.03,2.21,1.85,0.93,3.39c-0.99,1.2-2.07,3.6-3.48,2.74c-4.58-2.8-3.22,0.99-3.69,2.91c-1.46,6.09-4.78,10.65-10.75,13.03
		c-4.76,1.9-8.98,1.41-12.92-2.23c-4.01-3.71-4.53-8.1-2.8-12.8c1.94-5.25,5.4-9.47,9.97-12.77c1.05-0.76,3.01-1.39,2.21-3.02
		c-0.53-1.08-2.09-1.98-3.37-2.34c-5.84-1.62-9.78,1.2-12.73,5.92c-1.18,1.88-2.11,3.94-3.25,5.86c-0.67,1.1-0.97,2.91-3.06,1.9
		c-1.48-0.74-2.87-1.37-2.78-3.48C1196.49,434.39,1208.17,423.61,1215.86,423.74z"/>
	<path class="st2" d="M1190.33,494.86c-10.16-0.17-19.5-8.35-20.7-18.09c-1.2-9.7,4.17-18.09,13.09-20.66
		c2.42-0.7,4.89-0.88,7.25-0.42c4.81,0.95,10.27,2.34,12.39,6.77c1.66,3.5-3.46,5.61-5.57,8.26c-3.41,4.28-7.27,8.2-10.92,12.29
		c-2.38,2.66-1.48,4.15,1.69,5.08c7.9,2.32,15.54-2.7,17.35-11.76c0.49-2.51,0.38-5.35,3.9-4.76c3.92,0.67,2.02,3.86,1.69,5.88
		C1208.72,488.18,1200.66,495.05,1190.33,494.86z"/>
	<path class="st2" d="M1224.48,409.55c0.02-6.87,7.72-15.52,14.65-16.74c1.9-0.34,2.4,0.19,2.89,1.85c0.55,1.81,0.59,2.99-1.31,3.98
		c-2.51,1.31-5.06,2.64-7.23,4.43c-2.72,2.23-4.01,5.27-1.96,8.62c2.23,3.63,5.19,1.08,7.53,0.21c2.99-1.14,5.63-3.14,8.49-4.68
		c4.95-2.66,9.8-2.89,13.87,1.5c3.35,3.63,3.33,11.07,0.1,15.39c-3.48,4.66-8.2,7.78-13.56,9.95c-1.96,0.8-3.23,0.74-4.2-1.69
		c-1.07-2.68-0.25-3.6,2.19-4.24c3.56-0.95,6.73-2.55,9.28-5.46c2.64-3.01,3.48-6.15,0.95-9.28c-2.4-2.97-5.21-0.8-7.65,0.4
		c-2.89,1.43-5.59,3.27-8.41,4.83C1232.37,422.92,1224.48,418.32,1224.48,409.55z"/>
	<path class="st2" d="M1185.17,511.33c-0.93,0.65-2.23,1.62-3.6,2.51c-1.67,1.08-2.61-0.32-3.63-1.22
		c-9.93-8.71-19.84-17.43-29.77-26.14c-2.13-1.88-4.22-3.8-6.39-5.65c-1.86-1.6-2.28-3.02-0.42-5.08c1.9-2.09,3.18-1.56,5,0.08
		c11.38,10.12,22.85,20.15,34.3,30.19C1182.17,507.32,1184.16,508.1,1185.17,511.33z"/>
	<path class="st2" d="M1113.28,542.27c-1.08-3.79-1.41-7.59,0.63-11.15c0.95-1.66,1.26-5.08,4.53-2.78
		c1.94,1.37,4.47,2.32,1.67,5.95c-3.75,4.87-2.47,12.31,2.26,17.27c3.61,3.79,7.65,7.21,11.64,10.62c2.24,1.92,2.15,3.37,0.13,5.4
		c-1.9,1.94-3.18,1.66-5.04-0.06c-7.65-6.94-15.41-13.75-23.15-20.6c-2.17-1.92-3.67-3.56-0.7-6.34c3.14-2.95,4.03-0.06,5.59,1.52
		C1111.62,542.95,1112.4,543.41,1113.28,542.27z"/>
	<path class="st2" d="M1033.3,370.38c-8.26-1.08-13.98-4.76-16.8-12.12c-1.71-4.49-1.1-8.69,2.53-12.29
		c3.54-3.52,7.5-4.53,12.19-2.82c5.61,2.04,9.49,6.01,12.78,10.83c0.78,1.14,1.48,3.46,3.31,2.87c1.92-0.61,3.14-2.44,3.58-4.6
		c0.86-4.32-1.14-7.59-4.09-10.25c-2.23-2.02-4.79-3.71-7.38-5.27c-1.81-1.1-2.07-2.15-1.05-3.92c0.86-1.48,1.6-2,3.35-1.12
		c6.53,3.25,12.12,7.5,15.14,14.31c2.23,4.98,0.88,9.68-2.66,13.51c-4.97,5.35-10.22,10.44-15.49,15.51
		c-1.35,1.29-2.15,3.96-5.33,1.75C1030.18,374.47,1032.14,372.73,1033.3,370.38z"/>
	<path class="st2" d="M1071.38,369.22c8.26-0.34,14.57,3.01,16.88,8.75c2.64,6.6,0.8,12.25-4.2,17.07
		c-4.97,4.79-9.97,9.55-14.88,14.4c-1.64,1.62-2.83,2.55-4.97,0.44c-2.19-2.19-1.69-3.63,0.29-5.48c4.76-4.43,9.49-8.87,14.02-13.53
		c4.97-5.12,5.17-9.36,1.1-13.87c-4.81-5.33-9.23-6.07-14.9-1.52c-4.89,3.92-9.02,8.77-13.79,12.82c-1.37,1.16-2.82,4.83-5.8,1.69
		c-2.61-2.74-0.93-4.34,1.22-6.37c6.79-6.41,13.26-13.15,20.05-19.56c1.52-1.43,2.45-5.23,6.16-2.23
		C1076.24,364.76,1073.21,366.53,1071.38,369.22z"/>
	<path class="st3" d="M1492.8,495.79c0.04-18.42,13.58-32.32,31.45-32.29c17.92,0.04,31.47,14.29,31.45,33.1
		c-0.02,18.51-13.58,32.8-31.18,32.8C1506.6,529.39,1492.77,514.72,1492.8,495.79z"/>
	<path class="st2" d="M579.13,495.96c0-8.94-0.04-17.88,0.02-26.83c0.02-1.67-0.7-4.07,2.19-4.11c10.71-0.11,21.69-1.37,31.51,4.36
		c12.08,7.04,17.37,21.65,13.68,36.55c-2.89,11.62-14,20.53-27.26,21.56c-5.25,0.4-10.56,0.13-15.81,0.49
		c-3.61,0.25-4.43-1.29-4.36-4.58C579.25,514.26,579.11,505.11,579.13,495.96z"/>
	<path class="st3" d="M1674.26,510.82c-0.08,11.89-8.24,20.97-18.91,21.02c-11.47,0.06-19.6-8.88-19.54-21.56
		c0.04-11.83,8.26-21.06,18.82-21.14C1665.74,489.07,1674.34,498.57,1674.26,510.82z"/>
	<path class="st2" d="M720.22,503.02c-3.86,0-7.76-0.29-11.59,0.08c-5.29,0.49-5.1-2-3.75-5.71c2.51-6.94,9.17-11.28,16.57-10.63
		c7.84,0.68,12.88,5.38,14.63,13.11c0.59,2.59,0.06,3.25-2.44,3.2C729.18,502.94,724.71,503.02,720.22,503.02z"/>
	<path class="st1" d="M1257.35,380.52c-0.19-4.57,2.23-7.76,5.82-9.99c3.77-2.32,7.72-1.64,11.61,0.21
		c2.15,1.01,2.05,2.07,0.61,3.65c-3.98,4.32-8.01,8.56-11.76,13.07c-1.69,2.04-2.76,1.94-4-0.11
		C1258.36,385.23,1257.16,383.1,1257.35,380.52z"/>
	<path class="st1" d="M1144.84,510.34c2.61-0.06,5.65,0.68,6.72,2.93c0.84,1.77-1.92,3.6-3.29,5.23c-2.99,3.56-6.11,6.98-9.19,10.44
		c-1.2,1.35-2.45,2.38-3.63,0.06c-2.02-4.05-3.77-8.28-1.18-12.65C1136.54,512.53,1139.89,510.09,1144.84,510.34z"/>
	<path class="st1" d="M1231.65,447.69c-0.21,0.78-0.36,2.45-1.07,3.84c-2,3.98-4.98,6.89-9.65,7.32c-2.68,0.25-4.83-1.1-5.78-3.54
		c-1.75-4.53,0.23-8.24,3.2-11.55c0.8-0.89,1.69-1.81,2.72-2.36c2.11-1.12,3.46-4.76,6.49-2.89
		C1230.45,440.29,1231.63,443.41,1231.65,447.69z"/>
	<path class="st1" d="M1175.43,473.3c-0.02-8.45,8.6-13.91,16.23-10.35c2.74,1.27,4.01,2.34,1.16,5.04
		c-2.91,2.76-5.21,6.16-8.09,8.96c-1.71,1.67-2.87,5.5-5.71,4.2C1176.33,479.94,1175.45,476.5,1175.43,473.3z"/>
	<path class="st4" d="M1035.1,366.27c-5.97,0.15-11.17-3.73-12.86-9.21c-0.84-2.68-0.3-4.83,1.52-6.72
		c1.98-2.04,4.47-2.99,7.23-1.81c5.08,2.15,8.81,5.9,10.98,10.88C1043.46,362.82,1039.94,366.15,1035.1,366.27z"/>
	<g>
		
			<ellipse transform="matrix(0.7071 -0.7071 0.7071 0.7071 8.248 983.8199)" class="st4" cx="1191.7" cy="481.95" rx="218.56" ry="218.56"/>
		<path d="M1191.72,268.15c57.11,0,110.8,22.24,151.19,62.63c40.39,40.39,62.63,94.08,62.63,151.19s-22.24,110.8-62.63,151.19
			c-40.39,40.39-94.08,62.63-151.19,62.63c-57.11,0-110.8-22.24-151.19-62.63c-40.39-40.39-62.63-94.08-62.63-151.19
			s22.24-110.8,62.63-151.19C1080.92,290.4,1134.6,268.15,1191.72,268.15 M1191.72,258.64c-123.34,0-223.31,99.98-223.31,223.31
			s99.98,223.31,223.31,223.31s223.31-99.98,223.31-223.31S1315.04,258.64,1191.72,258.64L1191.72,258.64z"/>
	</g>
	<g>
		<path d="M1226.4,570.63l-17.41-34.82c-7.13-13.41-11.7-23.4-17.12-34.53h-0.57c-4,11.13-8.85,21.12-14.84,34.53l-15.98,34.82
			h-49.65l55.65-97.31l-53.65-95.03h49.94l16.84,35.1c5.71,11.7,9.99,21.12,14.55,31.96h0.57c4.57-12.27,8.28-20.83,13.13-31.96
			l16.27-35.1h49.65l-54.22,93.89l57.07,98.45H1226.4z"/>
	</g>
</g>
</svg>
