<?xml version="1.0" encoding="utf-8"?>
<!-- Generator: Adobe Illustrator 23.0.0, SVG Export Plug-In . SVG Version: 6.00 Build 0)  -->
<svg width="100" height="100" version="1.1" id="Layer_1" xmlns="http://www.w3.org/2000/svg" xmlns:xlink="http://www.w3.org/1999/xlink" x="0px" y="0px"
	 viewBox="0 0 1000 1000" style="enable-background:new 0 0 1000 1000;" xml:space="preserve">
<style type="text/css">
	.st0{fill:#73DAEE;}
	.st1{fill:#62BB9F;}
	.st2{fill:#FFFFFF;}
	.st3{fill:#FFDE55;}
</style>
<g>
	<path class="st0" d="M535.23,604.4c-8.59-9.54-17.18-19.07-25.76-28.61c-0.87-0.97-2.69-2.9-4.61-4.93
		c-1.54-1.63-3.22-3.42-4.45-4.74c2.67-3.41,5.66-6.64,8.57-9.79c1.44-1.57,2.9-3.13,4.31-4.72c11.34-12.73,23.05-25.89,34.99-38.84
		c1.22-1.32,2.38-2.71,3.5-4.05c2.2-2.64,4.31-5.17,6.84-7.21c5.89,6.59,12.8,14.21,19.5,21.59c7.26,8,14.77,16.28,20.95,23.21
		l24.55,27.56c-0.25-0.03-0.5-0.07-0.75-0.1c-0.91-0.12-1.85-0.25-2.8-0.31c-11.32-0.77-22.82-1.68-33.95-2.58
		c-4.1-0.32-8.2-0.66-12.3-0.97c-0.73-0.06-1.47-0.09-2.21-0.12c-1.46-0.07-2.85-0.12-4.13-0.39c-0.54-0.11-1.04-0.16-1.49-0.16
		c-1.46,0-3.98,0.6-4.38,4.64c-1.14,11.6-2.38,24.06-3.69,36.49c-0.52,4.98-1.09,9.88-1.7,15.08c-0.08,0.67-0.16,1.34-0.24,2.01
		L535.23,604.4z"/>
	<g>
		<path d="M558.43,504.85c5.54,6.18,11.83,13.11,17.95,19.86c7.25,7.99,14.74,16.25,20.91,23.17l17.68,19.84l2.84,3.19
			c-10.53-0.73-21.2-1.58-31.54-2.4c-4.1-0.32-8.18-0.66-12.28-0.97c-0.79-0.06-1.56-0.09-2.3-0.12c-1.37-0.06-2.66-0.11-3.76-0.34
			c-0.7-0.14-1.35-0.22-1.97-0.22c-1.43,0-6.13,0.48-6.75,6.78c-1.15,11.64-2.38,24.12-3.68,36.48c-0.41,3.93-0.86,7.82-1.33,11.85
			l-8.65-9.61l-9.49-10.55c-8.29-9.2-16.57-18.4-24.85-27.6c-0.89-0.99-2.71-2.93-4.64-4.97c-1.01-1.07-2.08-2.2-3.04-3.23
			c2.23-2.72,4.66-5.33,7.17-8.06c1.43-1.55,2.91-3.15,4.34-4.76c11.34-12.73,23.05-25.89,34.97-38.82
			c1.25-1.37,2.43-2.77,3.57-4.13C555.21,508.32,556.76,506.46,558.43,504.85 M558.95,498.3c-5.05,3.39-8.38,8.48-12.41,12.85
			c-11.82,12.83-23.42,25.85-35.01,38.88c-4.78,5.37-9.91,10.42-14.2,16.22c1.87,2.13,8.48,9.03,10.37,11.13
			c11.44,12.72,22.9,25.44,34.35,38.15c5.13,5.7,10.26,11.39,15.68,17.42c0.89-7.76,1.79-15.04,2.55-22.34
			c1.27-12.16,2.49-24.33,3.69-36.51c0.16-1.62,0.61-2.5,2.01-2.5c0.29,0,0.63,0.04,1.02,0.11c2.16,0.45,4.43,0.38,6.64,0.55
			c15.42,1.21,30.83,2.5,46.26,3.54c2.19,0.15,4.39,0.65,6.73,0.65c0.76,0,1.54-0.06,2.33-0.19c-9.54-10.71-18.83-21.13-28.13-31.56
			C588.47,530.83,571.34,512.18,558.95,498.3L558.95,498.3z"/>
	</g>
</g>
<g>
	<path class="st0" d="M446.53,506.08c-7.47-8.32-16.12-18.02-24.5-27.4c-10.03-11.24-20.4-22.86-29.08-32.51
		c-5.1-5.67-9.36-10.31-13.39-14.59c-0.63-0.67-0.7-1.05-0.66-1.69c0.72-9.18,1.38-18.32,2.11-28.46c0.19-2.6,0.38-5.22,0.57-7.82
		c0.64-8.66,1.29-17.62,1.78-26.44c0-0.05,0.01-0.09,0.01-0.12c0.14,0.01,0.29,0.02,0.44,0.04c20.5,1.74,39.01,3.32,57.72,4.86
		c1.62,0.13,2.58,0.6,3.56,1.71c8.62,9.74,17.43,19.59,25.95,29.12l10.07,11.27c5.84,6.54,11.69,13.08,17.53,19.63
		c0.49,0.56,4.38,5.14,6.39,7.53c-2.05,2.77-4.41,5.26-6.9,7.89c-1.27,1.34-2.58,2.74-3.85,4.15
		c-13.21,14.91-24.27,27.17-34.8,38.58c-1.62,1.76-3.21,3.57-4.75,5.33C452.13,500.17,449.42,503.26,446.53,506.08z"/>
	<path d="M385.61,369.62c19.8,1.68,37.76,3.2,55.72,4.69c1.07,0.09,1.45,0.31,1.99,0.91c8.61,9.74,17.42,19.58,25.93,29.09
		c2.75,3.07,5.48,6.13,8.23,9.2l2.69,3.01c5.58,6.23,11.15,12.48,16.71,18.72c0.41,0.46,3.07,3.59,5.11,6.01
		c-1.7,2.1-3.59,4.1-5.57,6.2c-1.28,1.36-2.61,2.77-3.9,4.21c-13.2,14.89-24.25,27.14-34.77,38.55c-1.63,1.78-3.24,3.6-4.78,5.37
		c-2.15,2.45-4.21,4.81-6.36,7.03c-7.08-7.9-15.07-16.86-22.83-25.56c-10.02-11.23-20.38-22.85-29.06-32.49
		c-5.11-5.67-9.37-10.32-13.43-14.63c0,0,0,0-0.01-0.01c0.71-9.13,1.38-18.24,2.1-28.35c0.19-2.6,0.38-5.2,0.57-7.8
		C384.55,385.88,385.15,377.72,385.61,369.62 M383.02,364.66c-1.18,0-1.91,0.39-2.02,2.38c-0.62,11.41-1.52,22.81-2.34,34.22
		c-0.68,9.48-1.37,18.97-2.11,28.45c-0.11,1.43,0.29,2.44,1.29,3.51c4.51,4.8,8.95,9.65,13.35,14.55
		c16.51,18.35,38.7,43.36,55.2,61.71c5.42-4.92,9.93-10.68,14.87-16.04c11.75-12.74,23.34-25.65,34.83-38.62
		c4.03-4.54,8.53-8.68,11.96-13.74c-0.64-0.78-6.95-8.24-7.62-8.99c-6.46-7.25-12.94-14.49-19.41-21.74
		c-11.39-12.75-22.81-25.46-34.14-38.28c-1.46-1.65-3.06-2.33-5.15-2.5c-19.24-1.59-38.47-3.22-57.71-4.86
		C383.66,364.69,383.32,364.66,383.02,364.66L383.02,364.66z"/>
</g>
<g>
	<path class="st1" d="M420.44,657.75c0.06-1.27,0.15-2.55,0.25-3.79c0.09-1.12,0.17-2.24,0.23-3.36c0.37-6.93,0.72-13.85,1.06-20.78
		c0.45-8.87,0.89-17.72,1.38-26.59c0.09-1.49-0.34-4.04-4.07-4.29l-0.21-0.02c-2.71-0.22-5.41-0.41-8.11-0.6
		c-2.35-0.17-4.69-0.33-7.03-0.51c-14.15-1.1-28.3-2.21-42.44-3.33l3.53-3.91c4.14-4.6,8.28-9.2,12.42-13.79l10.43-11.58
		c13.07-14.51,26.14-29.02,39.22-43.52c9.25-10.25,18.52-20.78,27.48-30.97c14.56-16.54,29.6-33.65,44.96-49.97
		c1.49-1.59,2.97-3.16,4.46-4.76c18.9-20.21,37.34-40.68,55.17-60.47l6.62-7.33c7.34-8.11,14.92-16.49,22.29-24.81
		c0.53-0.6,0.78-0.6,1.11-0.6c0.16,0,0.33,0.01,0.5,0.03l8.76,0.96c9.21,1.01,18.73,2.05,28.11,3.04c4.41,0.47,8.89,0.87,13.23,1.26
		c2.66,0.24,5.32,0.48,7.98,0.74c0.64,0.06,1.33,0.12,1.81,0.2c-0.02,0.47-0.07,1.1-0.1,1.54c-0.99,12.18-2,24.37-3.03,36.55
		l-1.12,13.43c-0.02,0.16-0.06,0.49,0.01,0.9c1.05,5.85-2.47,9.65-6.55,14.06c-21.05,22.77-41.84,46.45-61.94,69.35
		c-15.74,17.94-32.02,36.48-48.32,54.46c-6.63,7.33-13.56,14.61-20.25,21.66c-7.96,8.39-16.2,17.07-24.03,25.87
		c-7.2,7.87-14.44,15.96-21.46,23.8c-3.41,3.82-6.83,7.64-10.25,11.45C441.84,634,431.15,645.87,420.44,657.75z"/>
	<path d="M589.64,345.19l8.6,0.94c9.2,1.01,18.71,2.05,28.07,3.03c4.43,0.47,8.92,0.87,13.26,1.26c2.49,0.23,4.98,0.46,7.47,0.69
		c-0.97,11.89-1.98,23.96-2.96,35.64l-1.13,13.5c-0.04,0.37-0.08,0.92,0.04,1.59c0.8,4.46-1.62,7.33-5.96,12.02
		c-21.07,22.79-41.87,46.48-61.98,69.4c-15.73,17.93-32.01,36.47-48.3,54.44c-6.61,7.31-13.53,14.59-20.21,21.63
		c-7.97,8.4-16.22,17.08-24.07,25.91c-7.21,7.89-14.44,15.97-21.45,23.79c-3.42,3.83-6.84,7.66-10.28,11.47
		c-9.16,10.2-18.34,20.37-27.51,30.56c0.01-0.11,0.01-0.24,0.02-0.35c0.37-6.92,0.71-13.84,1.06-20.76
		c0.44-8.72,0.9-17.74,1.38-26.6c0.06-1.05,0.03-6.36-6.28-6.79l-0.19-0.01c-2.72-0.22-5.47-0.41-8.14-0.6
		c-2.34-0.17-4.67-0.33-7.01-0.51c-13.18-1.03-26.39-2.06-37.64-2.95c4.25-4.71,8.48-9.43,12.72-14.13l10.38-11.53
		c13.09-14.53,26.18-29.06,39.28-43.58c9.26-10.26,18.53-20.8,27.5-30.99c14.54-16.52,29.58-33.62,44.91-49.91
		c1.49-1.59,2.98-3.17,4.47-4.76c18.91-20.22,37.36-40.7,55.2-60.5c2.21-2.45,4.43-4.9,6.64-7.34
		C574.82,361.72,582.33,353.44,589.64,345.19 M589.18,340.4c-1.08,0-1.95,0.33-2.89,1.4c-9.55,10.78-19.25,21.43-28.9,32.12
		c-18.27,20.28-36.52,40.52-55.14,60.43c-1.48,1.59-2.96,3.17-4.46,4.75c-24.84,26.41-48.19,54.07-72.47,80.97
		c-16.56,18.36-33.11,36.73-49.67,55.1c-6.28,6.97-12.56,13.96-18.86,20.95c0.31,0.22,0.46,0.4,0.61,0.41
		c15.44,1.23,30.88,2.44,46.33,3.64c5.05,0.39,10.1,0.71,15.15,1.12c1.06,0.09,2.19,0.02,2.1,1.81
		c-0.86,15.79-1.62,31.58-2.45,47.37c-0.23,4.27-0.8,8.52-0.4,13.08c0.52-0.41,0.77-0.56,0.96-0.77
		c11.73-13.03,23.48-26.05,35.2-39.1c10.57-11.75,21.05-23.6,31.72-35.26c14.38-16.17,29.71-31.47,44.27-47.53
		c37.12-40.96,72.74-83.24,110.24-123.8c4.27-4.61,8.39-9.1,7.15-16.08c-0.02-0.1,0.01-0.2,0.01-0.3
		c1.39-16.66,2.79-33.31,4.15-49.98c0.31-3.88,0.23-3.91-3.85-4.29c-7.06-0.67-14.13-1.26-21.18-2c-12.29-1.28-24.57-2.65-36.86-4
		C589.67,340.41,589.43,340.4,589.18,340.4L589.18,340.4z"/>
</g>
<g>
	<path class="st1" d="M890.53,661.52c-0.15,0-0.31-0.01-0.48-0.03c-12.86-1.23-26.8-2.52-43.9-4.09l-1.09-0.1
		c-4.91-0.45-9.98-0.91-15-1.22c0.67-6.74,1.33-13.48,2-20.22c0.42-4.31,0.85-8.63,1.26-12.94c0.32-3.24,0.65-6.48,0.97-9.73
		c0.59-5.82,1.17-11.66,1.73-17.49c0.05-0.49,0.09-0.61,0.1-0.63c0,0,0.04-0.06,0.19-0.16c15.52-11.04,26.5-26.98,33.56-48.72
		c4.88-15.04,7.09-30.95,6.54-47.28c-0.55-16.39-4.28-32.32-11.08-47.34c-6.44-14.21-15.04-26.7-25.62-37.18l2.34,0.12
		c5.88,0.3,11.6,0.61,17.33,0.91c7.18,0.39,14.37,0.79,21.55,1.19c1.58,0.09,3.16,0.17,4.74,0.25c4.1,0.2,8.33,0.41,12.45,0.82
		c0.38,0.04,0.74,0.06,1.06,0.06c2.25,0,4.99-0.94,5.25-5.43c0.47-8.11,1.03-16.25,1.46-22.42c0.65-9.2,1.32-18.39,2-27.57l0.08-1.1
		c4.29,4.56,7.94,9.39,11.24,13.75c7.15,9.44,13.77,20.07,19.7,31.6c6.78,13.19,12.36,27.15,16.6,41.49
		c4.83,16.35,7.74,32.74,8.69,48.73c1.29,21.85,0.04,40.75-3.83,57.78c-7.17,31.55-22.37,60.23-45.14,85.25
		c-7.14,7.84-14.29,14.56-21.87,20.55C892.35,661.2,891.53,661.52,890.53,661.52z"/>
	<path d="M909.92,367.03c2.69,3.19,5.12,6.4,7.39,9.41c7.06,9.33,13.62,19.85,19.48,31.26c6.72,13.06,12.24,26.88,16.43,41.09
		c4.77,16.18,7.67,32.39,8.6,48.19c1.28,21.63,0.05,40.31-3.78,57.11c-7.08,31.15-22.08,59.46-44.58,84.18
		c-7.05,7.74-14.11,14.38-21.6,20.29c-0.78,0.61-1.11,0.61-1.36,0.61c-0.08,0-0.16,0-0.25-0.01c-12.77-1.22-26.72-2.51-43.91-4.09
		l-1.05-0.1c-4.14-0.38-8.4-0.77-12.66-1.06c0.6-6.01,1.19-12.07,1.77-17.95c0.42-4.26,0.83-8.51,1.25-12.76
		c0.32-3.25,0.65-6.51,0.98-9.76c0.56-5.57,1.14-11.33,1.68-17.01c15.61-11.33,26.67-27.51,33.79-49.45
		c4.97-15.31,7.21-31.49,6.65-48.1c-0.56-16.7-4.36-32.93-11.3-48.24c-5.68-12.55-13.04-23.78-21.91-33.51
		c4.61,0.24,9.13,0.48,13.66,0.72c7.18,0.39,14.37,0.78,21.54,1.19c1.59,0.09,3.16,0.17,4.75,0.25c4.07,0.2,8.28,0.41,12.33,0.81
		c0.46,0.05,0.89,0.07,1.3,0.07c1.68,0,7.2-0.55,7.62-7.66c0.47-8.11,1.03-16.23,1.46-22.4
		C908.79,382.43,909.36,374.64,909.92,367.03 M906.18,356.1c-0.17,0.87-0.31,1.35-0.35,1.82c-0.78,10.61-1.57,21.23-2.32,31.84
		c-0.52,7.49-1.04,14.97-1.46,22.46c-0.12,2.2-0.82,3.18-2.87,3.18c-0.26,0-0.53-0.02-0.83-0.05c-5.74-0.57-11.53-0.75-17.29-1.07
		c-7.18-0.41-14.37-0.8-21.56-1.19c-8.36-0.45-16.73-0.88-25.57-1.35c0.58,0.79,0.81,1.23,1.14,1.54
		c12.09,11.16,21.3,24.33,28.09,39.3c6.7,14.78,10.33,30.25,10.87,46.44c0.53,15.85-1.52,31.39-6.42,46.47
		c-6.18,19.03-16.01,35.66-32.68,47.51c-0.98,0.69-1.18,1.43-1.28,2.5c-0.86,9.07-1.8,18.14-2.7,27.21
		c-1.1,11.19-2.18,22.39-3.3,33.58c-0.15,1.55,0.27,2.07,1.93,2.17c5.45,0.32,10.91,0.83,16.35,1.33
		c14.63,1.34,29.27,2.69,43.89,4.09c0.24,0.02,0.48,0.04,0.7,0.04c1.62,0,2.96-0.57,4.29-1.63c7.99-6.31,15.32-13.29,22.16-20.82
		c22.63-24.87,38.22-53.42,45.7-86.32c4.39-19.3,5.05-38.84,3.89-58.45c-0.99-16.71-4.03-33.14-8.79-49.26
		c-4.29-14.52-9.86-28.49-16.76-41.91c-5.75-11.18-12.31-21.9-19.92-31.95C916.56,367.56,911.98,361.56,906.18,356.1L906.18,356.1z"
		/>
</g>
<g>
	<path class="st0" d="M268.61,715.89c-11.62,0-23.13-0.8-34.2-2.38c-16.62-2.37-32.48-6.17-47.13-11.32
		c-19.1-6.71-37-15.61-53.21-26.45c-12.55-8.4-23.22-16.93-32.62-26.07l0.67,0.05c4.35,0.31,8.48,0.61,12.59,0.88
		c9.8,0.67,19.58,1.34,29.38,2l6.37,0.43l1.25,0.1c1.2,0.09,2.44,0.18,3.7,0.21c0.59,0.02,1.11,0.03,1.56,0.03
		c4.98,0,5.22-2.82,5.52-6.39c1.16-13.76,2.32-27.52,3.49-41.39l0.89-10.66c2.15,1.73,4.19,3.37,6.31,5.02
		c14.36,11.13,29.88,19.6,46.14,25.19c11.64,4,24.02,6.41,36.8,7.17c2.77,0.16,5.57,0.25,8.33,0.25c18,0,36.39-3.57,54.67-10.61
		c7.01-2.7,15.16-6.14,22.47-11.16c0.86-0.6,1.81-0.86,3.07-0.86c0.86,0,1.76,0.11,2.72,0.25c0.69,0.09,1.43,0.19,2.16,0.24
		c13.9,0.96,28.03,2.11,41.69,3.22c3.92,0.32,7.85,0.64,11.78,0.96c0.86,0.07,1.81,0.14,2.36,0.24c0.03,0.55-0.02,1.47-0.05,2.25
		c-0.29,6.74-0.6,13.48-0.9,20.22c-0.51,11.37-1.03,22.76-1.5,34.13c-0.02,0.47-0.1,0.67-1.05,1.43
		c-14.04,11.17-30.1,20.22-49.09,27.64c-21.54,8.43-44.29,13.43-67.6,14.86C279.62,715.71,274.04,715.89,268.61,715.89z"/>
	<path d="M168.86,599.57c0.95,0.75,1.89,1.5,2.86,2.25c14.57,11.29,30.31,19.89,46.83,25.56c11.85,4.07,24.44,6.53,37.43,7.31
		c2.81,0.17,5.66,0.26,8.48,0.26c18.29,0,36.97-3.63,55.52-10.78c7.15-2.76,15.46-6.26,22.97-11.41c0.39-0.27,0.84-0.45,1.73-0.45
		c0.7,0,1.53,0.1,2.4,0.22c0.73,0.09,1.49,0.2,2.3,0.25c13.87,0.96,27.97,2.11,41.61,3.22c3.94,0.32,7.89,0.65,11.84,0.96
		c0.05,0,0.09,0.01,0.13,0.01v0.01c-0.29,6.75-0.6,13.49-0.9,20.24c-0.49,11.02-1.01,22.42-1.47,33.65
		c-0.05,0.04-0.1,0.09-0.18,0.14c-13.85,11.03-29.71,19.95-48.47,27.29c-21.31,8.33-43.81,13.28-66.87,14.71
		c-5.52,0.34-11.04,0.51-16.43,0.51c-11.51,0-22.9-0.79-33.86-2.35c-16.47-2.34-32.17-6.11-46.68-11.2
		c-18.91-6.64-36.64-15.45-52.68-26.19c-10.33-6.91-19.36-13.9-27.45-21.26c2.22,0.16,4.42,0.31,6.6,0.47
		c9.76,0.67,19.53,1.33,29.28,2l6.46,0.44c0.41,0.03,0.82,0.06,1.24,0.09c1.24,0.09,2.51,0.19,3.82,0.22
		c0.62,0.02,1.15,0.03,1.62,0.03c7.16,0,7.58-4.95,7.89-8.57c1.16-13.75,2.32-27.51,3.49-41.37L168.86,599.57 M164.88,590.27
		c-1.61,19.02-3.17,37.76-4.76,56.5c-0.31,3.72-0.37,4.22-3.15,4.22c-0.43,0-0.92-0.01-1.49-0.03c-1.62-0.04-3.23-0.19-4.85-0.29
		c-11.92-0.81-23.83-1.62-35.75-2.43c-6.14-0.42-12.27-0.86-19.2-1.36c1.73,1.9,2.81,3.22,4.04,4.41
		c10.15,9.89,21.26,18.55,33.04,26.43c16.78,11.23,34.74,20.05,53.74,26.72c15.45,5.43,31.34,9.12,47.59,11.43
		c11.49,1.63,23,2.39,34.53,2.39c5.57,0,11.15-0.18,16.72-0.52c23.5-1.45,46.31-6.41,68.32-15.02c17.91-7,34.63-16,49.7-28
		c1.05-0.84,1.88-1.62,1.95-3.19c0.75-18.12,1.61-36.23,2.39-54.34c0.2-4.57,0.15-4.59-4.49-4.97c-17.83-1.43-35.65-2.95-53.5-4.18
		c-1.64-0.11-3.34-0.48-5.04-0.48c-1.48,0-2.96,0.29-4.42,1.27c-6.79,4.67-14.35,7.95-21.99,10.9
		c-17.39,6.7-35.29,10.46-53.82,10.46c-2.72,0-5.44-0.09-8.19-0.25c-12.39-0.74-24.47-3.03-36.17-7.05
		c-16.54-5.68-31.64-14.11-45.46-24.82C171.38,595.55,168.21,592.94,164.88,590.27L164.88,590.27z"/>
</g>
<g>
	<path class="st0" d="M146.27,635.21c-7.19-0.57-14.27-1.08-22.11-1.65c-2.96-0.22-5.92-0.44-8.87-0.66
		c-9-0.67-18.3-1.37-27.47-1.86c-2.42-0.13-3.98-0.78-5.35-2.23c-7.88-8.33-14.86-18.08-20.75-28.95
		c-10.65-19.66-17.75-41.59-21.09-65.19c-3.15-22.23-3.29-44.44-0.39-65.98c2.78-20.75,8.93-40.75,18.26-59.46
		c9.23-18.51,21.22-35.19,35.63-49.6c4.31-4.3,8.69-8.17,13.31-11.73c-0.08,1.47-0.21,2.96-0.35,4.48
		c-0.15,1.69-0.31,3.44-0.38,5.19c-0.27,7.1-0.71,14.32-1.15,21.3c-0.2,3.29-0.41,6.58-0.59,9.87c-0.1,1.61-0.16,3.21-0.24,4.82
		c-0.1,2.3-0.21,4.67-0.37,6.98c-0.11,1.59,0.23,2.8,1.05,3.73c1.1,1.25,2.7,1.49,3.8,1.56c18.25,1.11,36.81,2.31,54.75,3.46
		l2.64,0.17c-5.76,5.69-10.99,11.89-15.89,18.81c-14.27,20.18-22.09,40.47-23.93,62.02c-1.88,22.1,1.39,43.44,9.69,63.43
		c3.66,8.81,8.44,16.86,14.2,23.92c0.39,0.48,0.38,0.58,0.36,0.75c-1.31,15.53-2.6,31.04-3.87,46.57c-0.06,0.7-0.12,1.41-0.19,2.11
		c-0.24,2.65-0.49,5.39-0.4,8.14C146.48,635.22,146.38,635.22,146.27,635.21z"/>
	<path d="M104.62,353.21c-0.12,1.4-0.24,2.82-0.29,4.28c-0.27,7.07-0.71,14.28-1.14,21.25c-0.2,3.3-0.41,6.59-0.59,9.89
		c-0.1,1.62-0.16,3.23-0.24,4.85c-0.1,2.28-0.21,4.64-0.37,6.93c-0.15,2.21,0.39,4.06,1.62,5.46c1.88,2.15,4.56,2.31,5.44,2.37
		c17.4,1.06,35.08,2.19,52.23,3.3c-4.46,4.75-8.59,9.84-12.52,15.4c-14.52,20.53-22.48,41.21-24.35,63.2
		c-1.91,22.49,1.41,44.2,9.86,64.55c3.71,8.91,8.52,17.07,14.33,24.24c-1.39,16.5-2.64,31.52-3.82,45.89
		c-0.06,0.69-0.12,1.39-0.18,2.09c-0.17,1.88-0.35,3.82-0.41,5.79c-6.57-0.51-13.15-1-19.87-1.48c-2.96-0.22-5.94-0.44-8.9-0.66
		c-9-0.67-18.3-1.37-27.49-1.86c-2.06-0.11-2.94-0.63-3.75-1.49c-7.74-8.19-14.6-17.76-20.39-28.46
		c-10.51-19.4-17.52-41.07-20.83-64.39c-3.13-22.03-3.25-44-0.39-65.33c2.75-20.49,8.82-40.24,18.03-58.72
		c9.11-18.27,20.95-34.76,35.19-48.98C98.7,358.42,101.62,355.73,104.62,353.21 M109.77,343.21c-6.37,4.55-12.04,9.44-17.33,14.74
		c-14.77,14.76-26.74,31.49-36.08,50.22c-9.52,19.09-15.67,39.19-18.49,60.2c-2.97,22.17-2.76,44.4,0.4,66.63
		c3.3,23.27,10.16,45.31,21.34,65.98c5.8,10.7,12.74,20.6,21.11,29.46c1.89,2,4.08,2.81,6.95,2.97c12.11,0.65,24.21,1.63,36.31,2.52
		c7.36,0.53,14.73,1.07,22.09,1.65c0.32,0.03,0.62,0.05,0.89,0.05c1.29,0,2.05-0.41,1.98-2.46c-0.11-3.32,0.3-6.66,0.58-9.99
		c1.27-15.53,2.57-31.04,3.87-46.57c0.09-1-0.27-1.69-0.89-2.45c-5.78-7.08-10.34-14.89-13.84-23.33
		c-8.3-19.99-11.34-40.88-9.51-62.32c1.91-22.46,10.56-42.55,23.5-60.85c5.55-7.85,11.79-15.13,19.34-22.03
		c-2.07-0.21-3.55-0.42-5.05-0.51c-19.19-1.24-38.39-2.47-57.58-3.64c-1.91-0.11-2.76-0.75-2.61-2.76
		c0.28-3.93,0.39-7.89,0.61-11.83c0.59-10.4,1.34-20.81,1.74-31.22C109.26,352.91,110.16,348.18,109.77,343.21L109.77,343.21z"/>
</g>
<g>
	<path class="st1" d="M731.21,715.2c-18.15,0-34.44-1.78-49.82-5.43c-13.13-3.12-26.36-7.77-39.31-13.83
		c-21.27-9.95-40.88-23.07-58.26-38.98c-3.81-3.49-7.52-7.18-11.03-10.98c-0.55-0.59-0.69-0.91-0.6-1.92
		c0.79-8.27,1.44-16.67,2.08-24.79c0.19-2.45,0.38-4.9,0.58-7.35l0.4-5c0.5-6.31,1.03-12.84,1.49-19.26c0-0.04,0-0.07,0.01-0.1
		c13.26,1.21,26.77,2.37,39.81,3.49l4.4,0.38c1.39,0.12,2.76,0.25,4.15,0.37c4.42,0.4,8.99,0.82,13.52,1.01
		c2.17,0.09,3.62,0.66,5.02,1.96c19.37,17.99,42.86,29.37,71.82,34.81c8.46,1.59,16.98,2.39,25.35,2.39l0,0
		c14.32,0,28.7-2.35,42.74-6.99c6.49-2.15,13.1-4.88,19.64-8.15c5.01-2.5,9.77-5.19,14.43-8.18l-0.43,4.86
		c-0.66,7.51-1.29,14.84-1.94,22.19c-0.45,5.05-0.9,10.08-1.36,15.13l-0.79,8.78c-0.04,0.42-0.07,0.83-0.09,1.24
		c-0.04,0.57-0.08,1.15-0.14,1.71l-0.13,1.09c-0.44,3.49-0.64,5.07,0.52,6.42c1.06,1.24,2.54,1.26,4.25,1.3
		c0.82,0.02,1.82,0.04,3.1,0.16c12.78,1.23,25.78,2.27,38.35,3.29c4.18,0.33,8.36,0.67,12.53,1.02c-2.89,1.97-5.86,3.73-8.76,5.46
		l-0.4,0.24c-17,10.12-35.86,18.12-56.05,23.76c-18.31,5.11-37.68,8.29-57.59,9.41C742.69,715.03,736.8,715.2,731.21,715.2z"/>
	<path d="M578.95,590.14c12.61,1.14,25.38,2.23,37.76,3.3l4.06,0.35c1.38,0.11,2.75,0.25,4.12,0.37c4.46,0.4,9.06,0.82,13.65,1.02
		c1.61,0.07,2.52,0.42,3.5,1.33c19.71,18.3,43.59,29.88,73,35.39c8.6,1.62,17.27,2.43,25.79,2.43c14.57,0,29.2-2.39,43.49-7.11
		c6.59-2.18,13.31-4.96,19.95-8.28c3.64-1.81,7.15-3.73,10.59-5.8l-0.02,0.25c-0.65,7.47-1.28,14.78-1.93,22.08
		c-0.45,5.04-0.9,10.08-1.36,15.12c-0.27,2.93-0.53,5.86-0.79,8.79c-0.04,0.44-0.07,0.87-0.1,1.31c-0.04,0.56-0.08,1.09-0.13,1.57
		l-0.13,1.09c-0.47,3.69-0.77,6.12,1.08,8.28c1.76,2.03,4.1,2.08,6,2.13c0.82,0.02,1.74,0.04,2.92,0.15
		c12.79,1.23,25.8,2.27,38.37,3.29c1.82,0.14,3.66,0.29,5.48,0.45c-0.9,0.54-1.81,1.08-2.73,1.62l-0.4,0.24
		c-16.82,10.01-35.49,17.93-55.47,23.52c-18.15,5.07-37.35,8.21-57.09,9.32c-5.99,0.34-11.83,0.51-17.37,0.51
		c-17.97,0-34.08-1.76-49.28-5.36c-12.98-3.08-26.04-7.69-38.85-13.67c-21.06-9.85-40.46-22.83-57.66-38.58
		c-3.75-3.43-7.41-7.08-10.88-10.83c0-0.03,0.01-0.07,0.01-0.1c0.79-8.3,1.44-16.72,2.08-24.87c0.19-2.44,0.38-4.87,0.58-7.32
		l0.4-4.98C578.07,601.56,578.54,595.83,578.95,590.14 M576.43,585.16c-1.49,0-1.94,0.72-2.05,2.32
		c-0.58,8.09-1.24,16.16-1.89,24.24c-0.86,10.71-1.63,21.42-2.65,32.12c-0.15,1.64,0.19,2.64,1.22,3.76
		c3.57,3.87,7.3,7.57,11.17,11.13c17.62,16.12,37.21,29.25,58.85,39.38c12.8,5.99,26.04,10.73,39.77,14
		c16.63,3.95,33.44,5.49,50.37,5.49c5.86,0,11.74-0.18,17.64-0.52c19.73-1.11,39.09-4.18,58.09-9.49
		c19.9-5.56,38.85-13.43,56.62-24.01c4.7-2.8,9.44-5.6,13.93-9.19c-0.74-0.29-1.11-0.53-1.5-0.57c-18.38-1.54-36.77-2.89-55.13-4.66
		c-6.66-0.64-6.55,1.32-5.6-6.33c0.12-1.01,0.15-2.02,0.25-3.04c0.71-7.97,1.44-15.93,2.15-23.91c0.92-10.49,1.83-20.99,2.78-31.95
		c-6.18,4.22-12.12,7.67-18.29,10.75c-6.26,3.13-12.7,5.83-19.33,8.02c-13.83,4.57-27.83,6.87-42,6.87
		c-8.25,0-16.55-0.78-24.91-2.35c-26.67-5-50.6-15.59-70.65-34.21c-1.88-1.75-3.92-2.48-6.54-2.59c-5.86-0.25-11.72-0.86-17.57-1.37
		c-14.74-1.26-29.47-2.53-44.21-3.87C576.77,585.17,576.59,585.16,576.43,585.16L576.43,585.16z"/>
</g>
<g>
	<path class="st0" d="M360.94,409.77c-1.43-1.33-2.82-2.61-4.27-3.85c-13.28-11.42-28.67-20.41-45.72-26.72
		c-14.97-5.54-30.09-8.35-44.92-8.35c-1.38,0-2.77,0.03-4.14,0.08c-14.32,0.49-29.34,3.65-45.91,9.64
		c-10.34,3.73-19.52,7.95-28.06,12.89c-1.05,0.61-2.15,0.87-3.57,0.87c-0.82,0-1.65-0.09-2.55-0.17c-0.66-0.07-1.31-0.12-1.97-0.16
		c-8.08-0.44-16.29-0.99-24.22-1.53c-4.04-0.28-8.08-0.55-12.11-0.81c-8.3-0.53-14.69-0.91-20.68-1.22
		c1.24-19.93,2.32-38.01,3.33-55.23c0.04-0.57,0.1-0.67,0.49-0.95c14.17-10.11,29.55-18.5,47.02-25.64
		c20.39-8.33,42-14.07,64.21-17.06c12.36-1.66,23.78-2.47,34.92-2.47c7.42,0,14.75,0.38,21.79,1.12c20.9,2.2,41.36,7.71,60.79,16.33
		c27.07,12.03,49.69,27.08,69.07,45.96l-1.54-0.12c-5.28-0.41-10.51-0.82-15.74-1.19c-4.96-0.36-9.92-0.7-14.88-1.05
		c-7.25-0.5-14.5-1.02-21.75-1.55c-0.17-0.01-0.34-0.02-0.49-0.02c-0.94,0-4.02,0.3-4.35,4.25c-0.91,10.81-1.81,21.64-2.71,32.45
		L360.94,409.77z"/>
	<path d="M272.8,291.46c7.34,0,14.59,0.37,21.54,1.1c20.66,2.19,40.87,7.61,60.07,16.14c24.57,10.92,45.45,24.34,63.52,40.9
		c-3.53-0.27-7.09-0.54-10.6-0.79c-4.95-0.36-9.91-0.7-14.86-1.05c-7.14-0.49-14.52-1.02-21.76-1.55c-0.24-0.02-0.46-0.03-0.67-0.03
		c-3.75,0-6.39,2.52-6.72,6.42c-0.92,11-1.84,22.02-2.76,33.02l-0.35,4.18c-0.41,4.94-0.82,9.88-1.24,14.96
		c-0.25-0.22-0.49-0.44-0.75-0.66c-13.5-11.6-29.13-20.73-46.44-27.15c-15.24-5.64-30.63-8.5-45.75-8.5c-1.4,0-2.82,0.03-4.22,0.08
		c-14.58,0.5-29.83,3.71-46.63,9.79c-10.47,3.78-19.77,8.06-28.44,13.07c-0.68,0.39-1.37,0.55-2.38,0.55
		c-0.69,0-1.48-0.08-2.32-0.16c-0.66-0.07-1.34-0.13-2.06-0.17c-8.07-0.44-16.28-0.99-24.22-1.53c-4.03-0.28-8.06-0.54-12.09-0.81
		c-7.2-0.47-12.97-0.81-18.31-1.09c1.16-18.74,2.19-35.89,3.15-52.33c13.89-9.85,28.97-18.05,46.07-25.04
		c20.2-8.26,41.61-13.94,63.62-16.9C250.45,292.27,261.77,291.46,272.8,291.46L272.8,291.46 M272.79,286.71
		c-11.76,0-23.51,0.91-35.23,2.5c-22.33,3-43.91,8.68-64.79,17.22c-16.83,6.87-32.71,15.35-47.51,25.9
		c-1.03,0.73-1.42,1.5-1.49,2.75c-1.07,18.49-2.19,36.98-3.34,55.47c-0.1,1.55,0.38,2.18,1.99,2.25c6.97,0.35,13.95,0.78,20.92,1.23
		c12.12,0.78,24.23,1.68,36.36,2.34c1.55,0.09,3.09,0.33,4.64,0.33c1.56,0,3.14-0.26,4.76-1.19c8.81-5.08,18.09-9.25,27.68-12.71
		c14.62-5.29,29.59-8.96,45.18-9.5c1.36-0.05,2.71-0.07,4.06-0.07c15.16,0,29.85,2.94,44.11,8.21c16.52,6.12,31.6,14.78,45,26.29
		c2.56,2.19,4.97,4.54,7.78,7.12c0.7-8.56,1.37-16.59,2.03-24.62c1.03-12.4,2.05-24.8,3.1-37.2c0.1-1.27,0.57-2.07,1.99-2.07
		c0.1,0,0.21,0,0.32,0.01c12.21,0.91,24.43,1.72,36.64,2.6c7.62,0.55,15.23,1.16,23.01,1.75c-0.33-1.4-1.27-1.92-1.96-2.6
		c-20.77-20.74-44.95-36.45-71.69-48.33c-19.62-8.72-40.15-14.27-61.51-16.52C287.48,287.07,280.13,286.71,272.79,286.71
		L272.79,286.71z"/>
</g>
<g>
	<path class="st1" d="M889.69,403.12c-16.77-1.4-34.48-2.42-54.14-3.13c-7.83-0.29-13.04-3.64-18.56-7.67
		c-12.81-9.35-27.91-15.54-46.15-18.94c-9-1.67-18.55-2.52-28.36-2.52c-2.1,0-4.25,0.04-6.39,0.11
		c-21.65,0.77-40.16,4.86-56.59,12.54c-7.24,3.38-13.02,6.83-17.9,10.72c0.07-1.05,0.13-2.08,0.2-3.12c0.37-5.9,0.75-12,1.18-17.95
		c0.52-7.17,1.1-14.47,1.66-21.53c0.25-3.13,0.49-6.24,0.74-9.37c0.02-0.21,0.02-0.44,0.02-0.66c0-0.1,0-0.19,0-0.29
		c0.62-1.64,0.57-3.06-0.13-4.2c-1.1-1.8-3.22-2.01-4.64-2.16c-4.58-0.47-9.17-0.9-13.75-1.34c-2.68-0.26-5.37-0.51-8.05-0.77
		c-10.97-1.06-21.93-2.14-32.9-3.22c2.73-1.75,5.54-3.53,8.39-5.09c18.94-10.33,38.58-18.36,58.39-23.88
		c18.22-5.07,36.86-8.38,55.39-9.82c7.45-0.58,14.91-0.87,22.18-0.87c12.57,0,25.06,0.87,37.13,2.6
		c22.51,3.22,42.52,9.3,61.17,18.61c15.14,7.55,27.94,16.33,39.11,26.84c1.54,1.44,3.03,3.04,4.48,4.58
		c0.52,0.56,1.05,1.11,1.58,1.67c0.39,0.41,0.41,0.61,0.39,0.89c-0.36,4.78-0.69,9.57-1.03,14.35c-0.28,3.91-0.54,7.81-0.84,11.72
		c-0.27,3.63-0.55,7.27-0.84,10.9c-0.52,6.76-1.06,13.75-1.5,20.64c-0.01,0.12-0.02,0.23-0.03,0.32
		C889.84,403.14,889.76,403.13,889.69,403.12z"/>
	<path d="M750.27,292.39c12.46,0,24.84,0.86,36.79,2.57c22.25,3.18,42.03,9.2,60.45,18.39c14.93,7.44,27.54,16.1,38.55,26.45
		c1.48,1.4,2.89,2.89,4.38,4.48c0.42,0.45,0.85,0.9,1.28,1.36c-0.34,4.61-0.67,9.28-0.99,13.8c-0.28,3.89-0.54,7.78-0.83,11.67
		c-0.27,3.61-0.54,7.21-0.83,10.82c-0.48,6.11-0.96,12.41-1.38,18.65c-16.16-1.31-33.22-2.28-52.05-2.96
		c-6.55-0.24-10.95-2.61-17.25-7.21c-13.1-9.56-28.52-15.89-47.11-19.35c-9.14-1.7-18.83-2.57-28.8-2.57c-2.13,0-4.3,0.04-6.48,0.11
		c-21.98,0.78-40.79,4.95-57.51,12.76c-5.46,2.56-10.12,5.15-14.21,7.94c0.34-5.44,0.67-10.66,1.05-15.97
		c0.52-7.18,1.1-14.49,1.66-21.56c0.25-3.11,0.49-6.22,0.74-9.33c0.02-0.23,0.03-0.47,0.03-0.7c0.88-2.73,0.25-4.67-0.48-5.85
		c-1.72-2.8-4.77-3.11-6.41-3.28c-4.59-0.47-9.25-0.91-13.76-1.34c-2.69-0.26-5.37-0.51-8.06-0.77c-8.64-0.84-17.28-1.69-25.93-2.54
		c0.78-0.46,1.55-0.9,2.33-1.32c18.78-10.23,38.25-18.21,57.89-23.67c18.08-5.04,36.56-8.31,54.93-9.74
		C735.66,292.68,743.06,292.39,750.27,292.39 M750.27,287.64c-7.45,0-14.9,0.29-22.37,0.87c-18.94,1.46-37.52,4.79-55.84,9.89
		c-20.59,5.74-40.16,13.86-58.89,24.08c-4.58,2.5-8.89,5.46-13.26,8.18c0.44,0.98,0.99,0.88,1.47,0.93
		c12.4,1.22,24.81,2.43,37.21,3.64c7.27,0.7,14.54,1.37,21.8,2.11c1.84,0.19,3.83,0.43,2.75,3.23c-0.17,0.46-0.1,1.01-0.14,1.51
		c-0.81,10.31-1.66,20.61-2.4,30.92c-0.63,8.66-1.13,17.32-1.7,26.18c0.53-0.27,1.04-0.41,1.39-0.72
		c6.01-5.4,12.92-9.37,20.21-12.78c17.64-8.25,36.38-11.64,55.67-12.32c2.11-0.08,4.21-0.11,6.31-0.11c9.36,0,18.67,0.76,27.94,2.48
		c16.37,3.04,31.73,8.69,45.18,18.52c6.13,4.47,11.64,7.83,19.88,8.12c18.01,0.65,36.04,1.62,54.03,3.13
		c0.25,0.02,0.47,0.03,0.67,0.03c1.62,0,2.01-0.67,2.14-2.56c0.67-10.51,1.56-21.01,2.34-31.52c0.64-8.68,1.21-17.38,1.86-26.06
		c0.09-1.14-0.32-1.97-1.04-2.71c-2.03-2.13-4.01-4.32-6.15-6.35c-11.82-11.12-25.15-19.99-39.68-27.24
		c-19.6-9.78-40.32-15.75-61.9-18.83C775.28,288.48,762.79,287.64,750.27,287.64L750.27,287.64z"/>
</g>
<path class="st2" d="M542.59,442.16c0.02-4.12,2.16-7.01,6.39-8.66c2.73-1.05,7.34,0.19,9.56,2.44c0.81,0.82,0.88,1.26,0.06,2.16
	c-2.59,2.84-4.96,5.89-7.6,8.69c-1.77,1.86-0.55,2.39,0.99,2.77c3.91,0.93,7.37-1.6,8.29-6.07c0.25-1.22,0.1-2.65,1.93-2.36
	c2,0.31,1.07,2,0.97,2.95c-0.57,4.9-5.83,9.4-10.32,9.03C547.21,452.63,542.56,447.67,542.59,442.16z"/>
<path class="st2" d="M490.1,503.74c0.1,0.01,0.85-0.09,1.51,0.1c1.86,0.53,3.86,1.21,4.97,2.76c1.79,2.48-1.39,3.04-2.29,4.38
	c-1.51,2.24-3.53,4.15-5.4,6.15c-1.16,1.24-0.95,1.94,0.61,2.61c3.53,1.54,7.84-1.25,8.54-5.73c0.19-1.23-0.05-2.57,1.87-2.31
	c2,0.28,1.27,1.77,1.16,2.83c-0.46,4.24-4.55,8.32-8.79,8.88c-4.15,0.55-9.24-2.44-10.81-6.36
	C478.7,510.22,482.61,503.74,490.1,503.74z"/>
<path class="st2" d="M524.85,463.6c1.5-0.13,2.93,0.52,4.09,1.49c3.02,2.55,5.9,5.25,8.87,7.86c0.59,0.51,1.1,0.92,0.47,1.69
	c-0.49,0.6-1.04,1.8-1.74,1.37c-2.29-1.4-1.61,0.49-1.84,1.45c-0.73,3.04-2.38,5.32-5.37,6.51c-2.38,0.95-4.48,0.7-6.45-1.11
	c-2-1.85-2.26-4.05-1.4-6.39c0.97-2.62,2.7-4.73,4.98-6.38c0.52-0.38,1.5-0.69,1.1-1.51c-0.27-0.54-1.05-0.99-1.68-1.17
	c-2.92-0.81-4.88,0.6-6.36,2.96c-0.59,0.94-1.05,1.97-1.62,2.93c-0.33,0.55-0.48,1.45-1.53,0.95c-0.74-0.37-1.43-0.68-1.39-1.74
	C515.18,468.92,521.01,463.53,524.85,463.6z"/>
<path class="st2" d="M512.1,499.12c-5.07-0.09-9.74-4.17-10.34-9.04c-0.6-4.85,2.08-9.04,6.54-10.32c1.21-0.35,2.44-0.44,3.62-0.21
	c2.4,0.48,5.13,1.17,6.19,3.38c0.83,1.75-1.73,2.8-2.78,4.12c-1.7,2.14-3.63,4.1-5.45,6.14c-1.19,1.33-0.74,2.07,0.85,2.54
	c3.94,1.16,7.76-1.35,8.67-5.87c0.25-1.25,0.19-2.67,1.95-2.38c1.96,0.33,1.01,1.93,0.85,2.94
	C521.29,495.78,517.26,499.21,512.1,499.12z"/>
<path class="st2" d="M529.16,456.51c0.01-3.43,3.86-7.75,7.32-8.36c0.95-0.17,1.2,0.1,1.44,0.92c0.28,0.9,0.29,1.49-0.66,1.99
	c-1.25,0.66-2.53,1.32-3.61,2.21c-1.36,1.11-2,2.63-0.98,4.3c1.11,1.81,2.59,0.54,3.76,0.1c1.49-0.57,2.81-1.57,4.24-2.34
	c2.47-1.33,4.89-1.44,6.93,0.75c1.67,1.81,1.66,5.53,0.05,7.69c-1.74,2.33-4.1,3.89-6.77,4.97c-0.98,0.4-1.62,0.37-2.1-0.85
	c-0.53-1.34-0.12-1.8,1.09-2.12c1.78-0.48,3.36-1.27,4.64-2.73c1.32-1.5,1.74-3.07,0.48-4.64c-1.2-1.48-2.6-0.4-3.82,0.2
	c-1.44,0.71-2.79,1.63-4.2,2.41C533.1,463.19,529.16,460.89,529.16,456.51z"/>
<path class="st2" d="M509.53,507.35c-0.47,0.32-1.11,0.81-1.8,1.25c-0.84,0.54-1.3-0.16-1.81-0.61c-4.96-4.35-9.91-8.7-14.87-13.06
	c-1.06-0.94-2.11-1.9-3.19-2.82c-0.93-0.8-1.14-1.51-0.21-2.54c0.95-1.05,1.59-0.78,2.5,0.04c5.68,5.05,11.41,10.06,17.13,15.08
	C508.03,505.34,509.02,505.73,509.53,507.35z"/>
<path class="st2" d="M473.62,522.8c-0.54-1.89-0.7-3.79,0.31-5.57c0.48-0.83,0.63-2.54,2.26-1.39c0.97,0.68,2.23,1.16,0.84,2.97
	c-1.87,2.43-1.24,6.15,1.13,8.63c1.81,1.89,3.82,3.6,5.82,5.3c1.12,0.96,1.07,1.68,0.07,2.7c-0.95,0.97-1.59,0.83-2.52-0.03
	c-3.82-3.47-7.7-6.87-11.56-10.29c-1.08-0.96-1.83-1.78-0.35-3.16c1.57-1.47,2.01-0.03,2.79,0.76
	C472.79,523.14,473.18,523.37,473.62,522.8z"/>
<path class="st2" d="M433.67,436.95c-4.12-0.54-6.98-2.38-8.39-6.05c-0.86-2.24-0.55-4.34,1.26-6.14c1.77-1.76,3.74-2.26,6.09-1.41
	c2.8,1.02,4.74,3,6.39,5.41c0.39,0.57,0.74,1.73,1.65,1.43c0.96-0.3,1.57-1.22,1.79-2.3c0.43-2.16-0.57-3.79-2.04-5.12
	c-1.11-1.01-2.39-1.85-3.69-2.63c-0.9-0.55-1.04-1.07-0.52-1.96c0.43-0.74,0.8-1,1.67-0.56c3.26,1.62,6.05,3.74,7.56,7.15
	c1.11,2.49,0.44,4.84-1.33,6.75c-2.48,2.67-5.1,5.22-7.73,7.74c-0.67,0.65-1.07,1.98-2.66,0.87
	C432.11,438.99,433.09,438.13,433.67,436.95z"/>
<path class="st2" d="M452.7,436.37c4.12-0.17,7.28,1.5,8.43,4.37c1.32,3.3,0.4,6.12-2.1,8.52c-2.48,2.39-4.98,4.77-7.43,7.19
	c-0.82,0.81-1.42,1.27-2.48,0.22c-1.09-1.09-0.85-1.81,0.14-2.74c2.38-2.21,4.74-4.43,7-6.76c2.48-2.56,2.58-4.67,0.55-6.93
	c-2.4-2.66-4.61-3.03-7.44-0.76c-2.44,1.96-4.5,4.38-6.89,6.4c-0.68,0.58-1.41,2.41-2.9,0.85c-1.3-1.37-0.47-2.17,0.61-3.18
	c3.39-3.2,6.62-6.57,10.01-9.77c0.76-0.71,1.23-2.61,3.08-1.11C455.12,434.14,453.61,435.03,452.7,436.37z"/>
<path class="st1" d="M545.58,442.01c-0.1-2.28,1.11-3.88,2.91-4.99c1.88-1.16,3.86-0.82,5.8,0.1c1.07,0.5,1.03,1.04,0.3,1.82
	c-1.99,2.16-4,4.28-5.87,6.53c-0.85,1.02-1.38,0.97-2-0.06C546.08,444.37,545.48,443.3,545.58,442.01z"/>
<path class="st1" d="M489.38,506.85c1.3-0.03,2.82,0.34,3.35,1.46c0.42,0.88-0.96,1.8-1.64,2.61c-1.49,1.78-3.05,3.49-4.59,5.22
	c-0.6,0.67-1.23,1.19-1.81,0.03c-1.01-2.02-1.88-4.13-0.59-6.32C485.24,507.94,486.91,506.73,489.38,506.85z"/>
<path class="st1" d="M532.74,475.56c-0.1,0.39-0.18,1.23-0.53,1.92c-1,1.99-2.49,3.44-4.82,3.66c-1.34,0.12-2.41-0.55-2.89-1.77
	c-0.87-2.26,0.11-4.11,1.6-5.77c0.4-0.45,0.85-0.9,1.36-1.18c1.05-0.56,1.73-2.38,3.24-1.44
	C532.14,471.87,532.73,473.42,532.74,475.56z"/>
<path class="st1" d="M504.66,488.35c-0.01-4.22,4.29-6.95,8.11-5.17c1.37,0.64,2,1.17,0.58,2.52c-1.45,1.38-2.6,3.08-4.04,4.48
	c-0.86,0.84-1.43,2.75-2.85,2.1C505.11,491.67,504.67,489.95,504.66,488.35z"/>
<path class="st1" d="M915.1,446.43c5.85-0.02,9.66,3.8,9.68,9.69c0.02,5.8-4.44,9.95-10.69,9.97c-5.35,0.02-9.85-4.25-9.96-9.44
	C904.03,451.1,909.01,446.45,915.1,446.43z"/>
<path class="st1" d="M918.39,492.34c-3.72-0.05-6.6-2.9-6.56-6.47c0.06-3.8,3.26-6.53,7.63-6.48c3.86,0.05,6.85,2.78,6.85,6.25
	C926.31,489.31,922.66,492.4,918.39,492.34z"/>
<path class="st1" d="M911.38,580.35c0.01,2.74-0.81,4.53-3.1,5.42c-1.66,0.65-3.61,1.08-4.82-0.28c-0.86-0.98,0.65-2.29,1.16-3.4
	c0.67-1.45,1.5-2.84,2.37-4.18c0.5-0.78,0.48-2.29,1.74-2.14c1.14,0.14,1.6,1.4,2.12,2.38C911.29,578.99,911.4,579.85,911.38,580.35
	z"/>
<path class="st1" d="M928.89,509.5c0.08,1.28-0.4,2.4-1.2,3.34c-1.01,1.17-2.36,2.31-3.87,1.93c-1.73-0.44-0.82-2.22-0.9-3.41
	c-0.15-2.11-0.08-4.23-0.1-6.35c-0.02-1.11,0.22-1.69,1.59-1.28C927.01,504.51,928.93,506.87,928.89,509.5z"/>
<path class="st0" d="M89.46,475.32c-4.34,0.01-7.72-2.98-7.74-6.86c-0.03-3.58,3.21-6.7,6.86-6.61c4.03,0.1,7.53,3.18,7.67,6.78
	C96.4,472.23,93.26,475.31,89.46,475.32z"/>
<path class="st0" d="M238.18,339.8c-3.99-0.03-7.01-3.1-7.06-7.17c-0.05-4.14,2.96-7.21,6.98-7.13c3.74,0.08,7,3.52,7.03,7.42
	C245.18,336.72,242.04,339.83,238.18,339.8z"/>
<path class="st1" d="M725.17,331.66c0.03,3.95-2.73,7.01-6.34,7.06c-3.74,0.06-6.61-3.2-6.61-7.5c0-4.12,2.57-6.83,6.42-6.79
	C722.47,324.47,725.14,327.42,725.17,331.66z"/>
<path class="st1" d="M743.02,322.1c1.51-0.06,2.77,0.55,3.75,1.63c0.95,1.05,2,2.43,1.57,3.74c-0.42,1.26-2.09,0.49-3.19,0.63
	c-2.08,0.26-4.21-0.22-6.31,0.31c-1.56,0.4-1.99-0.34-1.58-1.82C737.93,324.12,740.43,322.14,743.02,322.1z"/>
<path class="st3" d="M434.58,434.89c-2.98,0.08-5.58-1.86-6.42-4.6c-0.42-1.34-0.15-2.41,0.76-3.35c0.99-1.02,2.23-1.49,3.61-0.9
	c2.54,1.07,4.4,2.95,5.48,5.44C438.75,433.17,436.99,434.84,434.58,434.89z"/>
<g>
	
		<ellipse transform="matrix(0.7071 -0.7071 0.7071 0.7071 -198.1812 506.8958)" class="st3" cx="512.79" cy="492.67" rx="109.16" ry="109.16"/>
	<path d="M512.8,385.89c28.52,0,55.34,11.11,75.51,31.28c20.17,20.17,31.28,46.99,31.28,75.51c0,28.52-11.11,55.34-31.28,75.51
		c-20.17,20.17-46.99,31.28-75.51,31.28c-28.52,0-55.34-11.11-75.51-31.28C417.11,548.02,406,521.21,406,492.68
		c0-28.52,11.11-55.34,31.28-75.51C457.46,397,484.27,385.89,512.8,385.89 M512.8,381.14c-61.6,0-111.53,49.93-111.53,111.53
		s49.93,111.53,111.53,111.53s111.53-49.93,111.53-111.53S574.39,381.14,512.8,381.14L512.8,381.14z"/>
</g>
<g>
	<path d="M531.07,536.01l-8.69-17.39c-3.56-6.7-5.84-11.69-8.55-17.25h-0.29c-2,5.56-4.42,10.55-7.41,17.25l-7.98,17.39h-24.8
		l27.79-48.6l-26.8-47.46h24.94l8.41,17.53c2.85,5.84,4.99,10.55,7.27,15.96h0.29c2.28-6.13,4.13-10.4,6.56-15.96l8.12-17.53h24.8
		l-27.08,46.89l28.51,49.17H531.07z"/>
</g>
</svg>
