<?xml version="1.0" encoding="utf-8"?>
<!-- Generator: Adobe Illustrator 23.0.0, SVG Export Plug-In . SVG Version: 6.00 Build 0)  -->
<svg width="100" height="100" version="1.1" id="Layer_1" xmlns="http://www.w3.org/2000/svg" xmlns:xlink="http://www.w3.org/1999/xlink" x="0px" y="0px"
	 viewBox="0 0 1454.72 1000" style="enable-background:new 0 0 1454.72 1000;" xml:space="preserve">
<style type="text/css">
	.st0{fill:#CCF6FE;}
	.st1{fill:#FFFFFF;}
	.st2{fill:#62BB9F;}
	.st3{fill:#FFDE55;}
	.st4{fill:#73DAEE;}
</style>
<g>
	<path d="M716.2,488.15c-5.55,63.96-14,77.61-66.87,107.76c2.16,12.99,4.07,26.32,6.7,39.5c1.43,7.21,7.07,10.03,14.15,11.14
		c58.18,9.05,104.94,37.31,140.38,84.26c4.75,6.27,8.91,13.02,13.04,19.13c26.04-103.41,88.94-159.9,198.81-146.04
		c74.14,9.35,129.31,70.49,138.85,142.18c9.89,74.3-28.81,145.19-96.15,177.03c-63.75,30.15-155.09,19.57-211.88-57.83
		c1.41,25.26,2.7,48.97,4.07,73.2c-188.73,0-376.53,0-565.29,0c0.82-15.04,1.41-29.61,2.47-44.15c1.86-25.45,1.79-51.3,6.46-76.25
		c16.97-90.63,85.25-155.95,177.1-171.32c9.47-1.57,14.76-5.71,16.07-15.44c1.6-11.87,3.88-23.64,5.83-35.2
		c-54.84-33.3-62.36-45.42-66.76-107.64c-3.74-0.68-7.68-1.29-11.58-2.16c-35.51-7.82-54.14-45.96-39.03-79.05
		c1.86-4.07,2.4-9.49,1.57-13.93c-5.64-30.43-10.53-60.81-3.45-91.66c12.62-54.94,62.55-95.24,119.09-95.68
		c8.04-0.07,14.08-1.83,20.21-7.64c13.65-12.95,30.69-20.04,49.39-20.3c28.69-0.4,57.59-3.1,85.95,3.95
		c75.73,18.77,124.33,89.27,115.89,168.5c-1.64,15.44-4.72,30.71-6.96,46.08c-0.35,2.44-0.38,5.29,0.56,7.47
		C782.86,446.51,762.32,482.41,716.2,488.15z M715.73,798.41c9.99,0,18.68,0,28.34,0c0,37.6,0,74.7,0,111.76
		c28.17,0,55.36,0,83.42,0c-1.36-22.21-2.44-43.87-4.02-65.46c-6.46-88.02-70.45-157.2-157.27-170.22
		c-21.88-3.29-35.29-16.59-38.82-38.3c-1.9-11.77-4.02-23.52-6.11-35.62c-30.12,0-59.47,0-88.82,0.02c-1.41,0-2.82,0.26-4.63,0.45
		c-2.02,11.87-4.09,23.36-5.94,34.89c-3.62,22.28-16.92,35.34-39.43,38.65c-25,3.69-48.52,11.75-69.74,25.47
		c-52.45,33.88-82.05,81.8-86.89,144.39c-1.69,21.81-2.7,43.68-4.04,65.84c28.5,0,55.67,0,83.82,0c0-37.55,0-74.65,0-111.66
		c9.89,0,18.8,0,28.34,0c0,37.57,0,74.46,0,111.52c94.16,0,187.65,0,281.79,0C715.73,872.64,715.73,835.75,715.73,798.41z
		 M461.83,431.35c0,23.19-0.14,46.38,0.02,69.58c0.31,40.58,30.88,71.08,71.57,71.36c27.3,0.19,54.61,0.16,81.91,0
		c41.22-0.23,71.83-30.66,72.02-71.81c0.21-45.21,0.07-90.44,0.02-135.65c-0.02-13.23-4.82-18.05-18.02-18.07
		c-30.83-0.05-61.66-0.05-92.49,0c-23.69,0.05-44.15-7.82-61.42-24.18c-2.26-2.14-5.97-3.76-9.07-3.85
		c-25.19-0.87-44.29,17.67-44.5,43.02C461.69,384.94,461.83,408.16,461.83,431.35z M941.75,808.82
		c-44.53-38.75-38.23-93.57-11.23-123.46c30.34-33.58,80.71-38.07,116.01-9.66c16.89,13.61,27.21,31.25,30.5,52.85
		c4.93,32.38-7.14,58.37-31.44,80.27c24.18,11.02,43.09,26.76,57.52,47.89c39.78-44.67,47.35-129.45-10.13-186.78
		c-56.04-55.9-146.79-54.75-201.38,2.66c-56.72,59.66-44.43,143.99-7.4,184.06C898.68,835.56,917.57,819.75,941.75,808.82z
		 M739.34,379.28c1.32-10.67,2.82-21.03,3.85-31.44c6.32-64.69-30.52-120.75-90.7-137.41c-28.76-7.97-58.23-4.58-87.48-3.69
		c-2.58,0.07-5.17,1.03-7.66,1.86c-25.87,8.39-42.53,34.68-38.68,60.93c4.11,27.92,26.9,48.59,54.87,48.92
		c33.16,0.38,66.31-0.05,99.49,0.19c24.13,0.19,42.08,18.3,42.58,42.41c0.09,4.56,0.02,9.12,0.02,12.92
		C723.79,375.8,730.65,377.33,739.34,379.28z M1083.02,877.74c-22.21-34.64-53.2-53.08-94.23-51.3
		c-37.15,1.62-65.09,19.93-84.47,51.53C951.92,921.07,1036.66,921.12,1083.02,877.74z M937.45,741.17
		c-0.12,31.37,24.88,56.68,56.07,56.72c30.99,0.05,56.68-25.57,56.61-56.49c-0.07-30.59-25.35-56.04-55.92-56.25
		C962.9,684.92,937.57,709.94,937.45,741.17z M494.45,234.86c-28.76,2.16-53.93,16.42-70.23,38.54
		c-16.64,22.53-20.84,48.03-18.09,75.15c1.03,10.34,2.61,20.63,3.9,30.69c8.69-1.93,15.79-3.48,23.5-5.19
		c-2.23-43.73,16.64-72.84,61.31-83.79C488.45,271.97,488.69,253.8,494.45,234.86z M433,459.1c0-19.01,0-37.31,0-55.64
		c-16.73,1.5-27.63,12.85-27.54,28.06C405.55,446.65,416.93,458.16,433,459.1z M716.12,403.51c0,18.92,0,37.27,0,55.64
		c16.35-1.15,27.61-12.64,27.66-27.75C743.81,416.34,732.64,404.82,716.12,403.51z"/>
	<path d="M857.02,317.93c0-46.93,0-93.22,0-139.93c27.92,0,55.41,0,83.86,0c0,37.1,0,74.21,0,111.83c9.87,0,18.75,0,28.31,0
		c0-56.02,0-111.71,0-168.03c28.34,0,56.04,0,84.71,0c0,55.92,0,111.83,0,168.13c9.66,0,18.35,0,28.01,0c0-74.75,0-149.42,0-224.64
		c28.43,0,55.92,0,84.15,0c0,83.82,0,167.92,0,252.62C1063.42,317.93,960.55,317.93,857.02,317.93z M1137.96,289.97
		c0-65.98,0-131.24,0-196.25c-9.54,0-18.45,0-27.12,0c0,65.77,0,130.81,0,196.25C1119.98,289.97,1128.65,289.97,1137.96,289.97z
		 M998.19,149.8c0,47.14,0,93.59,0,139.86c9.52,0,18.42,0,27.16,0c0-46.95,0-93.22,0-139.86
		C1016.21,149.8,1007.52,149.8,998.19,149.8z M912.43,289.92c0-28.24,0-55.92,0-83.49c-9.47,0-18.38,0-27.21,0
		c0,28.13,0,55.6,0,83.49C894.28,289.92,902.98,289.92,912.43,289.92z"/>
	<path d="M856.99,430.74c0-9.31,0-18,0-27.14c103.04,0,205.68,0,309.04,0c0,8.69,0,17.6,0,27.14
		C1063.42,430.74,960.57,430.74,856.99,430.74z"/>
	<path d="M1109.97,460.16c0,9.31,0,18,0,27.14c-84.24,0-168.1,0-252.65,0c0-8.69,0-17.6,0-27.14
		C941.14,460.16,1025.19,460.16,1109.97,460.16z"/>
	<path d="M321.48,149.8c37.55,0,74.44,0,111.73,0c0,9.12,0,17.81,0,27.47c-27.7,0-55.41,0-84.07,0c0,28.64,0,56.35,0,84.47
		c-9.63,0-18.33,0-27.66,0C321.48,224.62,321.48,187.54,321.48,149.8z"/>
	<path d="M800.53,177.39c-29.07,0-56.56,0-84.47,0c0-9.33,0-18.02,0-27.37c37.08,0,74.16,0,111.8,0c0,37.08,0,74.16,0,111.71
		c-8.95,0-17.65,0-27.33,0C800.53,234.06,800.53,206.36,800.53,177.39z"/>
	<path d="M348.67,600.37c28.76,0,56.25,0,84.36,0c0,9.54,0,18.45,0,27.87c-36.94,0-73.83,0-111.45,0c0-36.84,0-73.92,0-111.66
		c8.62,0,17.53,0,27.09,0C348.67,544.09,348.67,571.59,348.67,600.37z"/>
	<path d="M800.41,600.84c0-29.07,0-56.56,0-84.47c9.33,0,18.02,0,27.35,0c0,37.1,0,74.21,0,111.83c-37.1,0-74.21,0-111.73,0
		c0-9,0-17.69,0-27.35C743.73,600.84,771.44,600.84,800.41,600.84z"/>
	<path d="M968.98,347.37c0,9.28,0,17.95,0,27.12c-37.24,0-74.09,0-111.68,0c0-8.67,0-17.58,0-27.12
		C894.12,347.37,931.18,347.37,968.98,347.37z"/>
	<path d="M1109.64,374.65c-37.24,0-74.09,0-111.5,0c0-9.16,0-18.07,0-27.42c37.08,0,73.92,0,111.5,0
		C1109.64,355.9,1109.64,364.81,1109.64,374.65z"/>
	<path d="M857.16,516.13c9.26,0,17.72,0,26.9,0c0,8.93,0,17.83,0,27.37c-8.58,0-17.46,0-26.9,0
		C857.16,534.69,857.16,525.81,857.16,516.13z"/>
	<path d="M913.65,516.3c9.21,0,17.88,0,27.05,0c0,9.23,0,18.12,0,27.42c-9.02,0-17.72,0-27.05,0
		C913.65,534.88,913.65,526,913.65,516.3z"/>
	<path d="M997.39,516.67c0,9.19,0,17.67,0,26.79c-9.05,0-17.93,0-27.42,0c0-8.74,0-17.6,0-26.79
		C979.16,516.67,988.25,516.67,997.39,516.67z"/>
	<path class="st0" d="M715.73,798.41c0,37.31,0,74.21,0,111.68c-94.16,0-187.63,0-281.79,0c0-37.06,0-73.95,0-111.52
		c-9.54,0-18.45,0-28.34,0c0,36.99,0,74.11,0,111.66c-28.13,0-55.31,0-83.82,0c1.34-22.16,2.35-44.03,4.04-65.84
		c4.84-62.6,34.45-110.51,86.89-144.39c21.22-13.72,44.74-21.78,69.74-25.47c22.53-3.31,35.81-16.38,39.43-38.65
		c1.88-11.54,3.92-23.03,5.94-34.89c1.81-0.19,3.22-0.45,4.63-0.45c29.35-0.02,58.67-0.02,88.82-0.02
		c2.09,12.1,4.21,23.85,6.11,35.62c3.5,21.71,16.94,35.04,38.82,38.3c86.82,13.02,150.81,82.2,157.27,170.22
		c1.57,21.62,2.68,43.26,4.02,65.46c-28.06,0-55.27,0-83.42,0c0-37.06,0-74.16,0-111.76C734.41,798.41,725.71,798.41,715.73,798.41z
		"/>
	<path class="st0" d="M461.83,431.35c0-23.19-0.14-46.38,0.05-69.58c0.21-25.35,19.32-43.89,44.5-43.02
		c3.1,0.12,6.81,1.72,9.07,3.85c17.27,16.35,37.74,24.23,61.42,24.18c30.83-0.05,61.66-0.05,92.49,0
		c13.21,0.02,18.02,4.84,18.02,18.07c0.05,45.21,0.16,90.44-0.02,135.65c-0.19,41.14-30.78,71.57-72.02,71.81
		c-27.3,0.16-54.61,0.19-81.91,0c-40.7-0.28-71.25-30.78-71.57-71.36C461.69,477.74,461.83,454.54,461.83,431.35z M518.41,543.79
		c26.18,0,51.74,1.48,77.05-0.4c28.48-2.11,50.07-27.77,49.11-55.2c-8.98,0-17.95,0-26.9,0c-5.19,21.05-13.72,27.73-35.27,27.75
		c-15.56,0-31.09,0-46.64,0c-5.73,0-11.44,0-17.32,0C518.41,525.77,518.41,534.25,518.41,543.79z M588.16,459.36
		c0-19.08,0-37.36,0-55.55c-9.47,0-18.38,0-26.9,0c0,18.94,0,37.22,0,55.55C570.44,459.36,578.92,459.36,588.16,459.36z
		 M518.16,388.7c-0.19-7.64-6.74-13.89-14.38-13.68c-7.66,0.19-13.86,6.7-13.68,14.36c0.19,7.66,6.72,13.89,14.36,13.7
		C512.09,402.9,518.34,396.32,518.16,388.7z M630.76,403.08c7.61,0.14,14.15-6.16,14.26-13.79c0.14-7.64-6.13-14.12-13.79-14.26
		c-7.66-0.14-14.12,6.11-14.26,13.77C616.85,396.43,623.12,402.94,630.76,403.08z"/>
	<path class="st1" d="M941.75,808.82c-24.18,10.93-43.07,26.74-57.52,47.79c-37.03-40.04-49.32-124.4,7.4-184.06
		c54.59-57.41,145.33-58.56,201.38-2.66c57.45,57.31,49.91,142.11,10.13,186.78c-14.4-21.12-33.32-36.87-57.52-47.89
		c24.3-21.9,36.37-47.89,31.44-80.27c-3.29-21.59-13.61-39.24-30.5-52.85c-35.32-28.41-85.7-23.92-116.01,9.66
		C903.52,715.25,897.22,770.05,941.75,808.82z"/>
	<path class="st2" d="M739.34,379.28c-8.69-1.95-15.53-3.48-23.73-5.31c0-3.81,0.07-8.37-0.02-12.92
		c-0.49-24.11-18.45-42.25-42.58-42.41c-33.16-0.23-66.33,0.21-99.49-0.19c-27.99-0.33-50.76-21.01-54.87-48.92
		c-3.88-26.25,12.81-52.56,38.68-60.93c2.49-0.8,5.1-1.76,7.66-1.86c29.25-0.89,58.72-4.25,87.48,3.69
		c60.18,16.66,97.02,72.73,90.7,137.41C742.16,358.25,740.66,368.61,739.34,379.28z"/>
	<path class="st3" d="M1083.02,877.74c-46.36,43.38-131.09,43.33-178.68,0.23c19.36-31.6,47.3-49.91,84.47-51.53
		C1029.82,824.66,1060.81,843.1,1083.02,877.74z"/>
	<path class="st3" d="M937.45,741.17c0.12-31.23,25.47-56.25,56.75-56.02c30.57,0.23,55.85,25.66,55.92,56.25
		c0.07,30.9-25.64,56.54-56.61,56.49C962.33,797.85,937.33,772.54,937.45,741.17z"/>
	<path class="st2" d="M494.45,234.86c-5.76,18.92-5.99,37.1,0.38,55.38c-44.67,10.95-63.54,40.04-61.31,83.79
		c-7.73,1.72-14.83,3.27-23.5,5.19c-1.29-10.06-2.84-20.35-3.9-30.69c-2.75-27.12,1.48-52.61,18.09-75.15
		C440.54,251.29,465.69,237.03,494.45,234.86z"/>
	<path class="st4" d="M433,459.1c-16.07-0.96-27.45-12.48-27.54-27.61c-0.09-15.2,10.81-26.53,27.54-28.06
		C433,421.81,433,440.12,433,459.1z"/>
	<path class="st4" d="M716.12,403.51c16.52,1.32,27.68,12.83,27.66,27.89c-0.02,15.11-11.28,26.6-27.66,27.75
		C716.12,440.77,716.12,422.42,716.12,403.51z"/>
	<path class="st4" d="M1137.96,289.97c-9.31,0-17.98,0-27.12,0c0-65.44,0-130.48,0-196.25c8.69,0,17.6,0,27.12,0
		C1137.96,158.73,1137.96,223.98,1137.96,289.97z"/>
	<path class="st4" d="M998.19,149.8c9.33,0,18.02,0,27.16,0c0,46.67,0,92.91,0,139.86c-8.74,0-17.65,0-27.16,0
		C998.19,243.39,998.19,196.94,998.19,149.8z"/>
	<path class="st4" d="M912.43,289.92c-9.45,0-18.12,0-27.21,0c0-27.89,0-55.36,0-83.49c8.84,0,17.74,0,27.21,0
		C912.43,233.99,912.43,261.67,912.43,289.92z"/>
	<path d="M518.41,543.79c0-9.54,0-18.02,0-27.84c5.87,0,11.61,0,17.32,0c15.56,0,31.09,0,46.64,0c21.55,0,30.08-6.7,35.27-27.75
		c8.95,0,17.95,0,26.9,0c0.96,27.42-20.63,53.1-49.11,55.2C570.16,545.27,544.59,543.79,518.41,543.79z"/>
	<path d="M588.16,459.36c-9.23,0-17.69,0-26.9,0c0-18.33,0-36.61,0-55.55c8.53,0,17.44,0,26.9,0
		C588.16,422,588.16,440.26,588.16,459.36z"/>
	<path d="M518.16,388.7c0.19,7.61-6.06,14.19-13.7,14.38c-7.64,0.19-14.17-6.04-14.36-13.7c-0.19-7.66,6.02-14.17,13.68-14.36
		C511.41,374.84,517.94,381.07,518.16,388.7z"/>
	<path d="M630.76,403.08c-7.64-0.14-13.91-6.65-13.77-14.29c0.14-7.66,6.6-13.91,14.26-13.77c7.66,0.14,13.93,6.63,13.79,14.26
		C644.9,396.93,638.37,403.22,630.76,403.08z"/>
</g>
</svg>
