<?xml version="1.0" encoding="utf-8"?>
<!-- Generator: Adobe Illustrator 23.0.0, SVG Export Plug-In . SVG Version: 6.00 Build 0)  -->
<svg version="1.1" id="Layer_1" xmlns="http://www.w3.org/2000/svg" xmlns:xlink="http://www.w3.org/1999/xlink" x="0px" y="0px"
	 viewBox="0 0 1000 1000" style="enable-background:new 0 0 1000 1000;" xml:space="preserve">
<style type="text/css">
	.st0{fill:#F9F9F9;}
	.st1{fill:#CCF6FE;}
	.st2{fill:#73DAEE;}
	.st3{fill:#62BB9F;}
	.st4{fill:#FFDE55;}
</style>
<g>
	<path d="M80.17,715.62c6.7-15.77,18.85-20.59,35.55-20.54c112.42,0.44,224.87,0.22,337.31,0.24c23.47,0,33.25,9.81,33.27,33.35
		c0,23.39-0.03,46.77,0.03,70.17c0.02,5.11-0.2,10.17-2.28,14.92c-0.69,1.57-1.3,3.01-0.91,4.82c6.82,31.76,2.1,63.91,2.78,95.86
		c0.27,12.64-9.44,19.44-19.9,24.55c-121.83,0-243.67,0-365.5,0c-11.42-2.12-18.19-8.88-20.31-20.31c0-31.02,0-62.05,0-93.07
		c2.15-5.63,2.15-11.29,0-16.92C80.17,777.67,80.17,746.64,80.17,715.62z"/>
	<path d="M560.73,938.98c-15.77-6.7-21.17-18.82-20.53-35.55c0.86-22.23,0.24-44.52,0.19-66.77c-0.02-5.67,0.08-11.25,2.44-16.58
		c0.54-1.22,1.17-2.91,0.73-3.96c-5.89-14.16-2.52-28.99-3.01-43.49c-0.56-16.33-0.27-32.69-0.08-49.02
		c0.2-16.75,11.44-28.21,28.14-28.22c116.66-0.1,233.33-0.03,349.98-0.07c14.33,0,22.25,8.56,27.94,20.32c0,31.02,0,62.05,0,93.07
		c-2.15,5.63-2.15,11.29,0,16.92c0,31.02,0,62.05,0,93.07c-2.12,11.42-8.88,18.19-20.31,20.31
		C804.4,938.98,682.56,938.98,560.73,938.98z"/>
	<path d="M364.73,411.07c-0.71,13.5-0.71,13.5-14.64,13.5c-23.67,0-47.33,0.32-71-0.07c-37.97-0.63-66.11-17.29-82.76-52.05
		c-21.42-44.72,2.91-102.86,50-118.11c7.82-2.52,9.81-5.92,10.32-13.71c4.15-65.11,66.33-111.51,130.34-97.64
		c4.04,0.88,7.07,1.46,9.83-3.18c21.3-35.99,52.95-57.31,93.85-65.25c1.47-0.29,3.55,0.42,4.06-1.96c11.84,0,23.69,0,35.53,0
		c0.37,1.93,1.95,1.51,3.25,1.73c41.1,6.95,73.15,27.63,94.98,63.37c3.06,5.03,5.92,6.55,12.05,5.16
		c63.76-14.35,126.94,34.54,129.67,100.29c0.25,5.96,1.93,8.61,7.73,10.46c36.99,11.76,61.95,47.5,60.16,85.38
		c-1.96,41.24-28.75,73.59-67.97,82.96c-10.32,2.47-20.59,2.62-30.98,2.61c-22.25-0.02-44.52-0.47-66.75,0.22
		c-8.51,0.27-11.76-1.96-10.17-10.39c0.2-1.07-0.15-2.23-0.24-3.35c-4.35-11.76-1.78-15.75,10.51-15.82
		c25.36-0.12,50.75,0.15,76.11-0.1c30.26-0.3,53.29-19.31,58.95-48.24c5.77-29.41-13.32-59.36-42.51-66.7
		c-1.64-0.41-3.32-0.68-4.96-1.05c-15.74-3.49-19.44-8.58-19.1-24.64c0.68-31.49-11.42-56.5-38.56-73.29
		c-18.43-11.4-38.39-13.84-59.38-8.75c-3.28,0.8-6.51,1.81-9.8,2.66c-11.32,2.91-17.51,0.27-22.89-10.17
		c-8.24-15.96-18.48-30.04-32.88-41.29c-45.65-35.64-116.08-25.52-149.53,21.85c-3.91,5.55-7.43,11.27-10.54,17.31
		c-6.84,13.27-12.44,15.75-26.7,11.47c-25.55-7.68-49.63-5.45-71.64,10.37c-23.37,16.79-33.89,40.15-33.3,68.5
		c0.39,17.99-2.4,22.35-19.98,26.16c-23.66,5.13-39.44,19.19-45.6,42.54c-9.88,37.51,17.6,72.58,57.08,73.25
		c25.65,0.44,51.31,0,76.96,0.14C366.51,395.3,369.06,399.31,364.73,411.07z"/>
	<path class="st0" d="M80.17,918.68c4.11,9.43,10.88,16.19,20.31,20.31c-6.77,0-16.18,2.64-19.56-0.74
		C77.53,934.86,80.17,925.45,80.17,918.68z"/>
	<path class="st0" d="M926.23,938.98c9.43-4.11,16.19-10.88,20.31-20.31c0,6.77,2.64,16.18-0.74,19.56
		C942.41,941.62,933,938.98,926.23,938.98z"/>
	<path class="st1" d="M364.73,411.07c-0.71-13.57-0.71-13.57-14.62-13.57c-24.25,0-48.5,0.05-72.74-0.02
		c-30.97-0.1-55.96-21.27-60.87-51.46c-4.82-29.63,12.22-57.4,41.41-67.23c3.98-1.34,8.19-1.98,12.3-2.86
		c11.07-2.37,14.54-7.01,13.67-18.43c-2.28-30.02,7.77-54.89,31.78-73.25c20.95-16.02,44.59-20.47,70.19-13.6
		c2.17,0.58,4.31,1.24,6.48,1.86c12.79,3.74,17.12,2.13,22.91-9.98c10.56-22.1,26.58-38.68,48.04-50.46
		c50.31-27.62,118.72-6.85,144.95,44.23c0.39,0.74,0.85,1.47,1.22,2.22c8.9,17.53,10.71,18.29,29.49,12.57
		c53.71-16.36,108.35,26.99,104.27,82.73c-1.17,16.06,1.83,20.03,17.43,23.1c26.79,5.26,45.15,23.71,49.53,49.77
		c4.26,25.38-7.36,49.7-30.14,62.81c-9.48,5.45-19.78,7.95-30.66,7.97c-25.65,0.05-51.32,0.44-76.96-0.22
		c-8.61-0.22-11.71,2.1-10.17,10.46c0.2,1.07-0.15,2.23-0.24,3.35c-8.85,0-17.68,0-26.53,0c-3.67-3.35-2.59-7.83-2.61-11.91
		c-0.1-38.58-0.36-77.16,0.14-115.74c0.14-10.83-3.82-16.96-13.5-21.63c-31.2-15.03-62.15-30.61-92.97-46.42
		c-9.17-4.7-17.14-4.7-26.31,0c-31.07,15.94-62.29,31.61-93.71,46.82c-9.07,4.4-12.83,10.25-12.72,20.37
		c0.39,38.85,0.2,77.72,0.1,116.59c-0.02,4.08,1.07,8.56-2.61,11.91C382.41,411.07,373.57,411.07,364.73,411.07z"/>
	<path d="M391.26,411.07c0.08-43.15,0.44-86.28,0.07-129.43c-0.08-10.53,3.81-16.53,13.13-21.05c32.64-15.84,65.06-32.1,97.38-48.58
		c8.05-4.11,15.03-4.11,23.06-0.02c32.56,16.63,65.25,33,98.09,49.04c8.7,4.25,12.4,9.95,12.35,19.76
		c-0.29,43.42,0.02,86.84,0.1,130.28c-0.86,6.8-4.96,10.75-10.96,13.72c-33.67,16.67-67.26,33.49-100.77,50.48
		c-7.14,3.62-13.57,3.62-20.71,0c-33.5-17.01-67.09-33.81-100.77-50.48C396.21,421.82,392.13,417.88,391.26,411.07z"/>
	<path d="M378.03,587.02c30.17,0,60.32-0.08,90.49,0.1c4.7,0.03,7.51-0.95,9.63-5.67c3.28-7.38,9.04-13.06,16.46-16.3
		c4.45-1.93,5.38-4.59,5.3-9c-0.25-14.94,0.07-29.88-0.2-44.82c-0.08-4.4,1.13-5.57,5.58-5.65c21.59-0.46,21.59-0.61,21.59,20.83
		c0,9.87,0.2,19.75-0.08,29.6c-0.14,4.4,0.76,7.14,5.26,9.02c7.23,3.03,12.94,8.51,16.09,15.53c2.4,5.38,5.47,6.48,10.85,6.46
		c59.48-0.19,118.96-0.12,178.43-0.12c15.45,0,19.56,4.11,19.58,19.46c0.02,18.61-0.15,37.21,0.12,55.81
		c0.07,4.77-1.27,6.01-6.04,6.06c-21.15,0.24-21.15,0.41-21.15-20.44c0-9.58-0.2-19.17,0.08-28.75c0.12-4.08-1.13-5.18-5.18-5.16
		c-56.09,0.14-112.19,0.12-168.3,0.02c-3.47,0-5.43,0.83-7.11,4.15c-7.48,14.91-19.83,22.96-36.5,22.81
		c-16.3-0.15-28.38-8.17-35.69-22.78c-1.66-3.32-3.59-4.2-7.09-4.18c-55.82,0.1-111.63,0.14-167.45-0.03
		c-4.72-0.02-6.19,1.15-6.09,5.99c0.32,14.1-0.08,28.19,0.22,42.29c0.1,4.72-1.17,6.06-5.99,6.11
		c-21.17,0.27-21.17,0.46-21.17-20.37c0-14.65-0.07-29.32,0.02-43.98c0.08-12.05,4.91-16.9,16.99-16.94
		C317.13,586.97,347.57,587.02,378.03,587.02z"/>
	<path class="st1" d="M283.22,722.39c56.09,0,112.2,0.12,168.3-0.15c6.28-0.03,7.97,1.4,7.85,7.78
		c-0.44,22.27-0.37,44.54-0.03,66.81c0.08,5.58-1.51,6.9-6.97,6.9c-112.76-0.17-225.53-0.17-338.31,0c-5.48,0-7.06-1.34-6.97-6.9
		c0.34-22.27,0.41-44.55-0.03-66.81c-0.14-6.4,1.57-7.82,7.85-7.78C171.02,722.51,227.13,722.39,283.22,722.39z"/>
	<path class="st2" d="M282.73,911.91c-55.81,0-111.61-0.12-167.42,0.17c-6.67,0.03-8.36-1.73-8.24-8.29
		c0.42-21.98,0.29-43.96,0.07-65.94c-0.05-4.99,0.54-7.31,6.62-7.29c113.02,0.2,226.03,0.19,339.05,0.03c5.28,0,6.58,1.39,6.51,6.57
		c-0.29,22.54-0.37,45.1,0.03,67.63c0.1,6.11-1.78,7.31-7.53,7.28C395.46,911.83,339.1,911.91,282.73,911.91z"/>
	<path class="st2" d="M743.48,911.91c-56.09,0-112.17-0.1-168.27,0.15c-6.24,0.03-8.02-1.37-7.89-7.8
		c0.44-22.25,0.37-44.54,0.03-66.79c-0.08-5.62,1.57-6.92,7.02-6.9c112.73,0.15,225.48,0.15,338.21,0c5.45,0,7.09,1.3,7.01,6.92
		c-0.34,22.27-0.41,44.54,0.03,66.79c0.14,6.43-1.66,7.82-7.9,7.78C855.65,911.81,799.56,911.91,743.48,911.91z"/>
	<path class="st1" d="M743.53,722.39c56.09,0,112.2,0.12,168.3-0.17c6.38-0.03,7.9,1.56,7.78,7.85
		c-0.42,22.27-0.37,44.54-0.02,66.81c0.08,5.67-1.64,6.85-7.02,6.85c-112.76-0.15-225.53-0.15-338.31,0.02
		c-5.57,0.02-6.99-1.47-6.9-6.95c0.3-22.56,0.34-45.11-0.02-67.65c-0.08-5.67,1.64-6.87,7.02-6.85
		C630.77,722.46,687.15,722.39,743.53,722.39z"/>
	<path class="st3" d="M418.59,297.58c26.89,13.45,52.24,26.19,77.63,38.8c2.66,1.32,3.62,3.06,3.6,5.94
		c-0.05,33.18-0.02,66.35-0.02,100.92c-9.39-4.7-17.85-8.93-26.31-13.16c-16.35-8.16-32.73-16.3-49.05-24.47
		c-2.96-1.49-5.94-2.54-5.92-7.09C418.68,365.35,418.59,332.19,418.59,297.58z"/>
	<path class="st3" d="M526.89,443.26c0-34.5,0.02-67.43-0.02-100.34c0-2.66,0.25-4.87,3.08-6.28
		c25.64-12.74,51.22-25.57,76.84-38.38c2.17,2.71,1.27,5.3,1.27,7.65c0.07,29.56-0.08,59.11,0.17,88.67
		c0.05,5.69-1.3,8.99-6.89,11.68C576.81,418.03,552.58,430.42,526.89,443.26z"/>
	<path class="st3" d="M435.45,275.67c26.4-13.18,50.76-25.35,75.1-37.57c1.95-0.98,3.59-1.03,5.55-0.05
		c24.33,12.22,48.72,24.37,73.03,36.52c-0.85,3.69-3.74,3.96-5.82,5.01c-21.35,10.76-42.74,21.46-64.17,32.1
		c-2.64,1.32-5.01,3.38-8.56,1.57C486.24,300.98,461.86,288.87,435.45,275.67z"/>
	<path class="st4" d="M526.79,600.66c-0.07,7.07-6.46,13.4-13.54,13.33c-7.09-0.07-13.38-6.46-13.33-13.54
		c0.07-7.07,6.46-13.38,13.54-13.33C520.53,587.19,526.84,593.59,526.79,600.66z"/>
	<path d="M174.91,749.47c11.83,0,23.66,0.15,35.48-0.08c4.01-0.08,5.09,1.1,5.26,5.16c0.91,22.01,1.05,22-20.44,22
		c-18.31,0-36.62-0.15-54.91,0.1c-4.74,0.07-6.06-1.22-6.11-6.02c-0.29-21.15-0.46-21.15,20.46-21.15
		C161.39,749.47,168.16,749.47,174.91,749.47z"/>
	<path d="M391.5,749.47c11.83,0,23.66,0.15,35.48-0.08c4.01-0.08,5.09,1.08,5.26,5.16c0.91,22.01,1.05,22-20.44,22
		c-18.31,0-36.62-0.15-54.91,0.1c-4.72,0.07-6.06-1.22-6.13-6.02c-0.29-21.15-0.46-21.15,20.46-21.15
		C377.98,749.47,384.75,749.47,391.5,749.47z"/>
	<path d="M310.97,776.54c-14.21,0-14.21,0-14.21-14.55c0-12.52,0-12.52,12.86-12.52c14.21,0,14.21,0,14.21,14.55
		C323.83,776.54,323.83,776.54,310.97,776.54z"/>
	<path d="M242.61,762.28c0-12.81,0-12.81,12.57-12.81c14.5,0,14.5,0,14.5,14.25c0,12.83,0,12.83-12.57,12.83
		C242.61,776.54,242.61,776.54,242.61,762.28z"/>
	<path d="M174.93,857.76c11.81,0,23.64,0.15,35.43-0.08c3.99-0.08,5.11,1.12,5.28,5.18c0.98,21.98,1.12,21.98-20.47,21.98
		c-18.29,0-36.57-0.15-54.84,0.1c-4.72,0.07-6.07-1.24-6.14-6.04c-0.34-21.13-0.51-21.13,20.49-21.13
		C161.42,857.76,168.17,857.76,174.93,857.76z"/>
	<path d="M391.04,884.84c-11.54,0-23.06-0.2-34.6,0.1c-4.48,0.12-5.55-1.3-5.65-5.67c-0.54-21.51-0.69-21.51,20.95-21.51
		c18,0,36.01,0.22,54.01-0.14c5.26-0.1,6.5,1.39,6.51,6.55c0.05,20.66,0.25,20.66-20.14,20.66
		C405.11,884.84,398.07,884.84,391.04,884.84z"/>
	<path d="M269.69,871.64c0,13.2,0,13.2-13.05,13.2c-14.03,0-14.03,0-14.03-13.88c0-13.2,0-13.2,13.05-13.2
		C269.69,857.76,269.69,857.76,269.69,871.64z"/>
	<path d="M323.83,871.79c0,13.05,0,13.05-13.2,13.05c-13.88,0-13.88,0-13.88-14.03c0-13.05,0-13.05,13.2-13.05
		C323.83,857.76,323.83,857.76,323.83,871.79z"/>
	<path d="M852.03,857.76c11.54,0,23.06,0.15,34.6-0.08c4.13-0.08,5.75,0.71,5.91,5.41c0.68,21.74,0.86,21.73-20.75,21.73
		c-18,0-36.01-0.15-54.01,0.1c-4.84,0.07-6.75-0.73-6.77-6.29c-0.1-20.86-0.36-20.86,20.76-20.86
		C838.53,857.76,845.28,857.76,852.03,857.76z"/>
	<path d="M634.71,884.84c-11.54,0-23.06-0.2-34.6,0.1c-4.48,0.12-5.55-1.29-5.67-5.67c-0.54-21.51-0.68-21.51,20.97-21.51
		c18,0,36.01,0.22,54.01-0.14c5.26-0.1,6.51,1.37,6.53,6.55c0.07,20.66,0.25,20.66-20.14,20.66
		C648.77,884.84,641.75,884.84,634.71,884.84z"/>
	<path d="M729.94,871.33c0,13.5,0,13.5-13.57,13.5c-13.5,0-13.5,0-13.5-13.57c0-13.5,0-13.5,13.57-13.5
		C729.94,857.76,729.94,857.76,729.94,871.33z"/>
	<path d="M770.62,857.76c13.47,0,13.47,0,13.47,13.6c0,13.47,0,13.47-13.6,13.47c-13.47,0-13.47,0-13.47-13.6
		C757.02,857.76,757.02,857.76,770.62,857.76z"/>
	<path d="M636.05,749.47c11.54,0,23.1,0.17,34.64-0.08c4.06-0.08,5.06,1.17,5.23,5.19c0.9,21.96,1.02,21.96-20.47,21.96
		c-18.31,0-36.62-0.17-54.91,0.1c-4.77,0.07-6.02-1.29-6.09-6.06c-0.27-21.12-0.44-21.12,20.49-21.12
		C621.97,749.47,629.01,749.47,636.05,749.47z"/>
	<path d="M852.62,749.47c11.54,0,23.1,0.15,34.64-0.08c4.03-0.08,5.09,1.12,5.26,5.16c0.91,22,1.03,22-20.44,22
		c-18.31,0-36.62-0.15-54.91,0.1c-4.74,0.07-6.04-1.24-6.11-6.02c-0.29-21.15-0.46-21.15,20.46-21.15
		C838.53,749.47,845.57,749.47,852.62,749.47z"/>
	<path d="M771.27,749.47c12.83,0,12.83,0,12.83,12.57c0,14.5,0,14.5-14.25,14.5c-12.83,0-12.83,0-12.83-12.57
		C757.02,749.47,757.02,749.47,771.27,749.47z"/>
	<path d="M717.22,749.47c12.72,0,12.72,0,12.72,12.67c0,14.4,0,14.4-14.35,14.4c-12.72,0-12.72,0-12.72-12.67
		C702.87,749.47,702.87,749.47,717.22,749.47z"/>
</g>
</svg>
