<?xml version="1.0" encoding="utf-8"?>
<!-- Generator: Adobe Illustrator 23.0.0, SVG Export Plug-In . SVG Version: 6.00 Build 0)  -->
<svg version="1.1" id="Layer_1" xmlns="http://www.w3.org/2000/svg" xmlns:xlink="http://www.w3.org/1999/xlink" x="0px" y="0px"
	 viewBox="0 0 1454.72 1000" style="enable-background:new 0 0 1454.72 1000;" xml:space="preserve">
<style type="text/css">
	.st0{fill:#FFDE55;}
	.st1{fill:#62BB9F;stroke:#000000;stroke-width:22.0155;stroke-miterlimit:10;}
	.st2{fill:#73DAEE;stroke:#000000;stroke-width:22.0155;stroke-miterlimit:10;}
	.st3{fill:#CCF6FE;stroke:#000000;stroke-width:22.0155;stroke-miterlimit:10;}
</style>
<g>
	<path d="M693.68,96.09c0-6.63-0.07-13.15,0.02-19.68c0.08-6.67,3.04-9.72,9.63-9.75c15.31-0.08,30.61-0.07,45.92,0
		c6.68,0.03,9.54,2.94,9.65,9.65c0.09,5.42,0.2,10.85-0.04,16.26c-0.13,2.93,0.85,4.44,3.67,5.05c1.39,0.3,2.69,0.97,4.02,1.51
		c8.33,3.36,8.33,3.36,14.57-2.88c2.82-2.82,5.55-5.74,8.51-8.4c3.98-3.59,8.11-3.73,11.93,0.01c11.5,11.27,22.9,22.65,34.16,34.16
		c3.71,3.79,3.57,8.01-0.08,11.94c-3.91,4.2-7.94,8.31-12.17,12.17c-2.31,2.1-2.71,3.96-1,6.52c0.78,1.18,1.24,2.58,1.79,3.9
		c3.31,7.93,3.3,7.93,12.06,7.93c3.67,0,7.34-0.1,11,0.03c6.36,0.23,9.58,3.14,9.64,9.4c0.18,15.47,0.17,30.93,0.01,46.4
		c-0.07,6.38-3.1,9.31-9.46,9.53c-5.57,0.19-11.16,0.18-16.74,0c-2.66-0.09-4.03,0.84-4.87,3.37c-1.39,4.19-4.95,8.65-4.18,12.28
		c0.78,3.69,5.65,6.55,8.8,9.71c10.74,10.79,10.75,11.8-0.01,22.57c-9.14,9.14-18.24,18.28-27.41,27.39
		c-5.48,5.44-9.55,5.38-15.12-0.12c-3.63-3.59-7.21-7.22-10.83-10.82c-0.67-0.67-1.62-1.99-2.06-1.85
		c-4.91,1.6-9.88,3.15-14.52,5.38c-1.14,0.55-1.5,3.49-1.57,5.35c-0.21,5.25,0.03,10.52-0.12,15.79c-0.17,5.78-3.15,8.88-8.96,8.94
		c-15.79,0.13-31.57,0.14-47.36-0.01c-5.7-0.06-8.71-3.34-8.84-9.13c-0.13-5.74-0.13-11.48,0.01-17.22
		c0.07-2.42-0.51-3.92-3.07-4.49c-1.7-0.37-3.31-1.13-4.93-1.79c-7.95-3.27-7.94-3.27-14.1,2.9c-2.71,2.71-5.34,5.49-8.13,8.09
		c-4.19,3.9-8.7,4.12-12.71,0.17c-11.27-11.05-22.42-22.22-33.46-33.51c-4.25-4.34-4-8.49,0.32-13.01
		c3.52-3.69,7.2-7.23,10.81-10.84c0.56-0.56,1.46-1.03,1.63-1.71c0.37-1.48,1.11-3.63,0.42-4.48c-3.23-3.96-1-11.69-7.91-12.74
		c-5.14-0.78-10.5-0.12-15.76-0.18c-8.32-0.08-11-2.65-11.03-10.8c-0.05-14.67-0.07-29.34,0-44.01c0.03-7.76,2.91-10.51,10.81-10.58
		c5.26-0.06,10.52,0.04,15.79-0.06c1.14-0.02,2.96-0.32,3.3-1.03c2.1-4.46,4-9.03,5.64-13.66c0.26-0.74-0.92-2.2-1.74-3.05
		c-3.87-4.01-7.91-7.87-11.79-11.89c-4.65-4.82-4.69-8.95,0.02-13.72c10.75-10.89,21.58-21.72,32.46-32.47
		c4.72-4.67,8.85-4.57,13.72,0.11c3.91,3.75,7.77,7.57,11.48,11.51c1.78,1.9,3.31,2.38,5.8,1.14
		C685.24,99.38,689.43,97.86,693.68,96.09z M658.21,105.39c-8.23,8.18-15.76,15.65-23.37,23.22c-0.11-0.18,0.01,0.12,0.23,0.34
		c3.25,3.28,6.52,6.56,9.77,9.83c6.23,6.24,6.38,8.18,2.7,15.92c-2.73,5.72-5.15,11.62-7.28,17.6c-2.52,7.13-4.02,8.45-11.75,8.49
		c-5.35,0.02-10.7,0-16.13,0c0,11.21,0,21.66,0,32.7c6.11,0,11.97,0.02,17.81-0.01c4.93-0.02,7.9,2.34,9.64,6.97
		c2.69,7.12,5.67,14.14,8.7,21.13c2.32,5.37,2.01,8.3-2.19,12.47c-4.04,4.02-8.26,7.88-12.13,11.56
		c8.08,8.06,15.61,15.55,23.75,23.68c3.57-3.79,7.41-8.02,11.44-12.09c4.38-4.41,6.82-4.66,12.38-2.25
		c6.99,3.04,13.99,6.08,21.13,8.71c4.87,1.79,7.21,4.8,7.08,9.98c-0.14,5.83-0.03,11.67-0.03,17.5c11.22,0,21.78,0,32.6,0
		c0-5.93-0.04-11.5,0.01-17.07c0.05-6.04,1.75-8.22,7.21-10.39c7.09-2.81,14.19-5.6,21.09-8.82c4.72-2.2,8.54-1.71,12.08,2.03
		c4.03,4.26,8.1,8.49,11.7,12.26c8.07-8.04,15.6-15.53,23.83-23.74c-3.9-3.63-8.17-7.42-12.22-11.44c-4.35-4.32-4.55-6.85-2.1-12.44
		c2.93-6.69,5.75-13.43,8.37-20.24c2.36-6.13,4.28-7.74,10.93-7.82c5.55-0.07,11.08-0.01,16.82-0.01c0-11.14,0-21.71,0-32.7
		c-5.93,0-11.48,0.04-17.03-0.01c-6.49-0.06-8.32-1.52-10.62-7.46c-2.63-6.81-5.39-13.57-8.33-20.25
		c-2.59-5.88-2.43-8.39,2.11-12.82c4.07-3.97,8.41-7.67,12.36-11.25c-8.52-8.5-16.04-15.99-23.94-23.89
		c-3.73,3.87-7.63,8.08-11.69,12.13c-4.39,4.38-6.78,4.61-12.42,2.12c-6.54-2.87-13.1-5.72-19.77-8.27
		c-6.92-2.64-8.35-4.39-8.38-11.97c-0.01-5.34,0-10.68,0-15.95c-11.23,0-21.7,0-32.6,0c0,5.94-0.13,11.65,0.04,17.34
		c0.15,5.17-2.08,8.3-6.91,10.13c-7.28,2.75-14.5,5.67-21.58,8.89c-4.57,2.09-8.28,1.56-11.68-1.97
		C665.78,113.34,661.72,109.07,658.21,105.39z"/>
	<path class="st0" d="M658.21,105.39c3.51,3.68,7.56,7.95,11.64,12.19c3.4,3.53,7.11,4.06,11.68,1.97
		c7.07-3.24,14.3-6.14,21.58-8.89c4.83-1.83,7.08-4.96,6.91-10.13c-0.18-5.69-0.04-11.39-0.04-17.34c10.92,0,21.38,0,32.6,0
		c0,5.27-0.01,10.61,0,15.95c0.02,7.56,1.44,9.32,8.38,11.97c6.67,2.54,13.23,5.39,19.77,8.27c5.65,2.48,8.02,2.25,12.42-2.12
		c4.06-4.04,7.96-8.24,11.69-12.13c7.9,7.89,15.42,15.39,23.94,23.89c-3.95,3.58-8.29,7.28-12.36,11.25
		c-4.55,4.44-4.7,6.95-2.11,12.82c2.94,6.68,5.7,13.45,8.33,20.25c2.3,5.93,4.13,7.41,10.62,7.46c5.55,0.04,11.1,0.01,17.03,0.01
		c0,11,0,21.55,0,32.7c-5.74,0-11.28-0.06-16.82,0.01c-6.65,0.09-8.58,1.68-10.93,7.82c-2.62,6.81-5.44,13.56-8.37,20.24
		c-2.44,5.59-2.26,8.12,2.1,12.44c4.05,4.02,8.32,7.8,12.22,11.44c-8.23,8.2-15.76,15.71-23.83,23.74
		c-3.6-3.76-7.67-7.99-11.7-12.26c-3.53-3.73-7.35-4.23-12.08-2.03c-6.9,3.21-14.01,6.01-21.09,8.82
		c-5.46,2.16-7.14,4.35-7.21,10.39c-0.06,5.57-0.01,11.14-0.01,17.07c-10.82,0-21.39,0-32.6,0c0-5.83-0.11-11.67,0.03-17.5
		c0.13-5.2-2.21-8.19-7.08-9.98c-7.14-2.64-14.14-5.68-21.13-8.71c-5.56-2.41-8-2.17-12.38,2.25c-4.03,4.06-7.87,8.3-11.44,12.09
		c-8.15-8.12-15.66-15.62-23.75-23.68c3.87-3.68,8.08-7.53,12.13-11.56c4.21-4.18,4.51-7.11,2.19-12.47
		c-3.03-6.99-6.01-14.01-8.7-21.13c-1.75-4.62-4.72-6.99-9.64-6.97c-5.85,0.02-11.69,0.01-17.81,0.01c0-11.04,0-21.5,0-32.7
		c5.43,0,10.78,0.02,16.13,0c7.73-0.03,9.22-1.35,11.75-8.49c2.11-5.98,4.55-11.88,7.28-17.6c3.69-7.75,3.53-9.68-2.7-15.92
		c-3.26-3.27-6.53-6.55-9.77-9.83c-0.22-0.22-0.34-0.52-0.23-0.34C642.45,121.04,649.98,113.57,658.21,105.39z M726.03,140.15
		c-31.39,0.13-56.8,25.6-56.86,56.99c-0.04,31.52,25.64,57.16,57.21,57.12c31.56-0.04,57.24-25.77,57.13-57.22
		C783.4,165.54,757.61,140.02,726.03,140.15z"/>
	<path d="M726.03,140.15c31.58-0.13,57.37,25.38,57.48,56.89c0.11,31.46-25.57,57.19-57.13,57.22
		c-31.57,0.04-57.26-25.6-57.21-57.12C669.23,165.76,694.65,140.28,726.03,140.15z M685.8,195.15
		c-1.7,21.72,15.27,40.76,38.01,42.67c22.35,1.87,42.19-15.77,43.16-39.54c0.87-21.43-15.14-39.58-36.68-41.51
		C706.61,154.65,687.67,171.17,685.8,195.15z"/>
	<path class="st1" d="M726.42,716.17L491.17,821.65c-1.59,0.7-1.59,2.95,0,3.67l234.36,105.09c0.56,0.25,1.21,0.25,1.77,0
		l235.63-105.67c1.08-0.48,1.08-2.03,0-2.51L726.42,716.17z"/>
	<path class="st2" d="M726.17,652.57L500.87,753.61c-0.46,0.21-0.46,0.86,0,1.06l225.25,101.01c0.19,0.09,0.41,0.09,0.59,0
		l225.25-101.01c0.46-0.21,0.46-0.86,0-1.06L726.66,652.57C726.51,652.51,726.33,652.51,726.17,652.57z"/>
	<path class="st3" d="M726.23,595.62L528.27,684.4c-0.36,0.17-0.36,0.67,0,0.83l198.01,88.8c0.09,0.04,0.19,0.04,0.29,0l198.01-88.8
		c0.36-0.17,0.36-0.67,0-0.83L726.6,595.62C726.48,595.57,726.35,595.57,726.23,595.62z"/>
	<rect x="714.92" y="411.31" width="22.98" height="137.51"/>
	<rect x="791.95" y="378.28" width="22.98" height="137.51"/>
	<rect x="637.96" y="378.09" width="22.98" height="137.51"/>
</g>
</svg>
