<?xml version="1.0" encoding="utf-8"?>
<!-- Generator: Adobe Illustrator 23.0.0, SVG Export Plug-In . SVG Version: 6.00 Build 0)  -->
<svg width="100" height="100" version="1.1" id="Layer_1" xmlns="http://www.w3.org/2000/svg" xmlns:xlink="http://www.w3.org/1999/xlink" x="0px" y="0px"
	 viewBox="0 0 1000 1000" style="enable-background:new 0 0 1000 1000;" xml:space="preserve">
<style type="text/css">
	.st0{fill:#CCF6FE;}
	.st1{fill:#5C5C5C;}
	.st2{fill:#62BB9F;}
	.st3{fill:#010101;}
	.st4{fill:#FFDE55;}
	.st5{fill:#73DAEE;}
</style>
<g>
	<rect x="663.47" y="85.03" class="st0" width="71.42" height="51.01"/>
	<path class="st0" d="M682.3,917.32H230.47c-22.6,0-40.92-18.32-40.92-40.92V131.82c0-22.6,18.32-40.92,40.92-40.92H682.3
		c22.6,0,40.92,18.32,40.92,40.92V876.4C723.22,899,704.89,917.32,682.3,917.32z"/>
	<path d="M173.74,936.96c-11.19-4.26-23.2-5.99-33.9-11.84c-36.43-19.91-56.35-50.47-59.37-91.79
		c-1.12-15.42,5.56-22.12,20.85-22.18c20.4-0.08,40.81-0.34,61.2,0.15c7.37,0.18,9.76-1.32,9.74-9.37
		c-0.31-115.6-0.21-231.2-0.21-346.8c0-2.83-0.15-5.69,0.15-8.49c1-9.38,7.96-16.11,16.6-16.27c8.91-0.17,16.21,6.84,17.13,16.62
		c0.26,2.81,0.11,5.66,0.11,8.49c0,115.6,0.1,231.2-0.2,346.8c-0.02,7.67,2.03,9.03,9.24,9.01c106.82-0.25,213.63-0.17,320.45-0.17
		c18.44,0,23.14,4.35,24.33,22.47c3.66,55.68,59.87,86.54,107.93,58.76c21.27-12.29,33.15-31.81,34.21-56.28
		c1.14-26.27,0.26-52.63,0.26-79.46c-25.67,7.24-51.3,8.71-77.43,3.96c-86.04-15.64-145.49-99.97-130.94-186.25
		c13.05-77.4,78.01-134.61,155.7-137.13c15.91-0.51,22.35,5.64,22.37,21.6c0.04,39.1,0.16,78.2-0.14,117.3
		c-0.05,6.07,1.6,7.36,7.46,7.32c38.53-0.28,77.07-0.15,115.6-0.14c18.39,0.01,24.28,6.52,22.95,25.05
		c-3.97,55.31-28.9,98.46-75.14,129.08c-4.56,3.02-6.31,6.01-6.24,11.52c0.32,27.2,0.31,54.4,0.11,81.6
		c-0.37,50.86-33.06,91.8-82.42,103.95c-3.68,0.91-7.91-0.63-11.07,2.46C486.62,936.96,330.18,936.96,173.74,936.96z"/>
	<path d="M913.44,175.16c-3.94,10.54-11.84,13.78-22.64,13.72c-48.74-0.27-97.48,0.04-146.22-0.3c-6.85-0.05-8.21,1.95-8.14,8.37
		c0.34,30.32,0.2,60.64,0.13,90.96c-0.03,11.55-5.3,18.68-14.34,19.91c-11.72,1.6-19.58-6.1-19.61-19.71
		c-0.08-39.39-0.01-78.78,0.01-118.17c0-7.39,1.21-14.62,2.76-21.83c1.91-8.92,5.22-17.3,9.35-25.36
		c3.95-7.72,9.11-14.68,15.69-22.42c-3.91,0-6.34,0-8.77,0c-145.37,0-290.74-0.01-436.11,0.01c-32.22,0-56.71,13.3-71.76,42.35
		c-5.85,11.3-7.69,23.58-7.73,36.15c-0.07,20.97,0.01,41.94-0.05,62.91c-0.02,7.39-3.08,13.26-9.83,16.57
		c-5.78,2.83-11.51,2.19-16.85-1.58c-4.5-3.17-7.14-7.66-7.08-12.91c0.32-28.3-2.41-56.72,1.39-84.88
		c6.86-50.95,50.8-90.39,102.05-92.45c3.4-0.14,6.8-0.17,10.2-0.17c167.19-0.01,334.38,0.03,501.57-0.05
		c23.28-0.01,46.4-0.13,67.78,11.37c31.44,16.91,50.76,42.45,56.66,77.85c0.19,1.13,0.23,2.23,1.54,2.65
		C913.44,163.82,913.44,169.49,913.44,175.16z"/>
	<path d="M913.44,547.56c-5.21,9.47-13.3,12.16-23.87,12.1c-56.96-0.35-113.93-0.16-170.89-0.17c-17.34,0-22.89-5.57-22.89-22.95
		c-0.01-57.25-0.01-114.5,0-171.74c0-17.64,6.12-23.47,23.77-22.74c93.32,3.86,170.96,69.52,189.95,160.59
		c1.35,6.46,0.6,13.35,3.93,19.4c0,2.27,0,4.53,0,6.8c-1.07,1.13-1.07,2.27,0,3.4C913.44,537.35,913.44,542.46,913.44,547.56z"/>
	<path class="st1" d="M913.44,532.25c-1.9-1.13-2.24-2.27,0-3.4C913.44,529.99,913.44,531.12,913.44,532.25z"/>
	<path class="st2" d="M600.45,218.65c-3.45,3.3-5.68,5.35-7.82,7.49C529.31,289.42,466,352.72,402.69,416.01
		c-13.49,13.49-20.75,13.5-34.21,0.06c-34.07-34.04-68.21-68-102.09-102.23c-4.53-4.57-6.92-5.04-11.76-0.16
		c-43.06,43.47-86.43,86.64-129.71,129.9c-11.5,11.5-21.25,13.04-29.24,4.64c-7.73-8.12-6.07-17.44,5.13-28.64
		c47.67-47.68,95.34-95.36,143.02-143.02c12.61-12.6,20.55-12.66,33.01-0.22c34.68,34.63,69.36,69.25,103.94,103.99
		c3.21,3.22,4.97,4.73,9.13,0.55c61.54-61.86,123.3-123.49,185-185.19c0.71-0.71,1.33-1.51,3.08-3.51c-21.48,0-41.46,0-61.43,0
		c-15.97,0-24.44-6.06-24.2-17.3c0.23-11.03,8.35-16.7,23.93-16.7c32.01,0,64.02-0.03,96.03,0.01c15.99,0.02,22.09,6.09,22.11,22.1
		c0.05,32.86,0.05,65.72,0,98.58c-0.02,11.47-4.45,18.45-12.71,20.45c-11.66,2.83-21.04-4.67-21.2-17.6
		C600.25,261.32,600.45,240.94,600.45,218.65z"/>
	<path d="M328.54,617.29c23.48-0.01,46.97-0.14,70.45,0.04c14.2,0.11,22.72,10.8,18.32,22.59c-2.79,7.48-8.62,11.24-16.32,11.27
		c-48.38,0.14-96.76,0.2-145.14-0.04c-10.3-0.05-17.57-7.9-17.38-17.14c0.18-9.26,7.5-16.51,17.93-16.62
		C280.44,617.11,304.49,617.3,328.54,617.29z"/>
	<path d="M328.24,732.9c-23.48,0.01-46.97,0.15-70.45-0.05c-14.14-0.12-22.62-11-18.09-22.75c2.87-7.44,8.75-11.09,16.45-11.11
		c48.1-0.13,96.2-0.17,144.29,0.01c10.46,0.04,17.79,7.25,18.06,16.51c0.27,9.52-7.29,17.19-18.11,17.31
		C376.34,733.08,352.29,732.89,328.24,732.9z"/>
	<path d="M285.25,535.66c8.78,0,17.56-0.15,26.34,0.04c11.84,0.25,19.05,6.9,18.94,17.18c-0.11,9.91-7.17,16.59-18.51,16.73
		c-18.41,0.23-36.82,0.25-55.23-0.01c-10.92-0.16-18.48-7.58-18.33-17.13c0.14-9.56,7.71-16.49,18.75-16.75
		C266.55,535.48,275.91,535.66,285.25,535.66z"/>
	<path class="st3" d="M485.45,715.56c0.17,9.14-7.29,17.02-16.34,17.25c-8.95,0.23-16.85-7.46-17.02-16.57
		c-0.17-9.14,7.29-17.02,16.34-17.25C477.38,698.76,485.28,706.45,485.45,715.56z"/>
	<path class="st3" d="M59.89,467.74c8.79,0.06,16.87,8.21,16.81,16.98c-0.06,8.79-8.21,16.87-16.98,16.81
		c-8.8-0.06-16.87-8.21-16.81-16.98C42.97,475.76,51.12,467.69,59.89,467.74z"/>
	<path class="st4" d="M637.97,538.2c0,19.26-0.05,38.53,0.02,57.79c0.05,15.06,6.19,21.27,21.14,21.3
		c38.53,0.06,77.06,0.16,115.58-0.11c6.54-0.05,8.63,0.93,7.12,8.17c-12.66,60.89-65.65,104.45-127.25,104.17
		c-61.71-0.28-114.58-44.16-126.54-105c-13.67-69.54,33.7-138.75,103.42-151.35c5.22-0.94,6.75-0.07,6.65,5.55
		C637.74,498.53,637.97,518.37,637.97,538.2z"/>
	<path class="st5" d="M553.73,902.95c-3.63,0-5.54,0-7.46,0c-117.79,0-235.58,0.01-353.38-0.01c-32.38-0.01-56.39-14.03-71.35-42.97
		c-2.33-4.5-3.99-9.28-4.71-14.84c3.05,0,5.85,0,8.66,0c130.82,0,261.63,0.05,392.45-0.15c6.31-0.01,9.43,0.96,10.55,7.98
		C531.45,871.54,540.55,887.38,553.73,902.95z"/>
	<path class="st5" d="M876.55,154.43c-46.1,0-91.54,0-137.04,0c6.14-30.6,35.97-54.02,68.47-54.05
		C840.44,100.36,870.13,123.61,876.55,154.43z"/>
	<path class="st4" d="M803.83,525.48c-22.64,0-45.29-0.12-67.93,0.1c-4.59,0.04-6.24-0.89-6.22-5.91
		c0.2-45.57,0.32-91.14-0.08-136.71c-0.07-7.62,3.94-5.86,7.82-5.18c58.41,10.26,100.77,41.95,126.69,95.36
		c6.83,14.07,10.82,29.04,13.48,44.43c0.99,5.71,0.57,8.33-6.69,8.14C848.56,525.1,826.19,525.48,803.83,525.48z"/>
</g>
</svg>
