<?xml version="1.0" encoding="utf-8"?>
<!-- Generator: Adobe Illustrator 23.0.0, SVG Export Plug-In . SVG Version: 6.00 Build 0)  -->
<svg width="100" height="100" version="1.1" id="Layer_1" xmlns="http://www.w3.org/2000/svg" xmlns:xlink="http://www.w3.org/1999/xlink" x="0px" y="0px"
	 viewBox="0 0 1000 1000" style="enable-background:new 0 0 1000 1000;" xml:space="preserve">
<style type="text/css">
	.st0{fill:#CCF6FE;stroke:#000000;stroke-width:32.3064;stroke-miterlimit:10;}
	.st1{fill:#FFFFFF;}
	.st2{fill:#CCF6FE;}
	.st3{fill:#73DAEE;}
	.st4{fill:#FFDE55;}
</style>
<g>
	<path class="st0" d="M502.37,695.82c-98.06,0-196.15,0.2-294.21-0.08c-74.8-0.2-135.09-48.39-151.35-120.3
		c-18.54-81.96,37.03-166.43,119.64-181.83c25.97-4.85,33.1-13.67,32.16-39.76c-3.18-87.97,63.42-159.32,151.14-160.46
		c42.59-0.57,79.53,14.96,109.86,45.32c2.33,2.33,4.53,4.85,6.86,7.21c13.22,13.44,27.06,15.16,42.74,4.38
		c21.55-14.81,44.78-25.23,70.51-30.52c97.67-20.05,195.23,44.18,214.64,142.27c3.78,19.06,13.47,29.2,32.36,33.68
		c69.81,16.55,118.16,82.56,114.88,155.5c-3.23,71.5-58.17,132.26-129.3,142.62c-9.76,1.42-19.78,1.91-29.67,1.94
		C695.86,695.87,599.11,695.82,502.37,695.82z"/>
	<path d="M707.57,628.15c0,15.21,0,30.42,0,45.65c-2.24,5.59-3.9,11.53-6.86,16.72c-2.48,4.38-6.46,7.93-9.1,11.03
		c4.15,5.99,8.57,11.73,12.2,17.95c1.94,3.3,2.54,7.43,3.73,11.18c0,15.21,0,30.42,0,45.65c-0.27,0.85-0.62,1.67-0.85,2.54
		c-3.78,15.98-13.49,26.64-28.88,32.21c-2.33,0.85-4.74,1.42-7.13,2.09c-112.1,0-224.23,0-336.34,0c-0.32-0.23-0.62-0.57-0.97-0.62
		c-19.75-2.83-36.78-21.55-35.94-44.36c0.38-10.26-0.15-20.55,0.15-30.82c0.13-4.6,0.87-9.29,2.04-13.76
		c2.33-8.8,7.93-15.56,14.96-21.4c-0.59-0.62-0.99-1.14-1.49-1.57c-10.66-9.02-15.71-20.55-15.63-34.47
		c0.08-10.54-0.02-21.08,0.02-31.64c0.05-13.15,4.97-24.11,14.84-32.81c0.77-0.67,1.76-1.07,2.98-1.76
		c-14.22-11.11-18.69-25.1-17.92-41.4c0.38-7.58,0.3-15.21,0-22.82c-0.45-11.21,2.78-21.17,8.72-30.61
		c16.53-26.29,32.96-52.66,49.2-79.15c9.49-15.48,22.94-22.94,41.13-22.91c70.58,0.15,141.18,0.17,211.76,0
		c18.34-0.05,31.96,7.33,41.5,22.96c13.61,22.29,27.56,44.41,41.32,66.6c6.51,10.48,13.79,20.6,16.43,33.02c0,15.21,0,30.42,0,45.65
		c-2.24,5.59-3.9,11.53-6.86,16.72c-2.48,4.38-6.46,7.93-9.1,11.03c4.15,5.99,8.57,11.73,12.2,17.95
		C705.77,620.27,706.35,624.39,707.57,628.15z M502.54,505.63c-52.96,0-105.94,0-158.9,0c-1.86,0-3.75-0.02-5.59,0.17
		c-12.38,1.22-22.17,10.36-22.91,22.76c-0.74,12.5-0.53,25.05-0.3,37.57c0.08,3.48,1.07,7.18,2.58,10.33
		c5.17,10.73,14.41,14.61,25.87,14.61c106.22-0.02,212.4-0.02,318.62-0.02c0.67,0,1.34,0.02,2.01,0
		c13.79-0.53,25.15-9.25,25.95-21.4c0.87-13.42,0.35-26.91,0.38-40.36c0-1.57-0.32-3.18-0.74-4.72
		c-3.3-11.93-13.07-18.96-26.39-18.96C609.52,505.61,556.03,505.63,502.54,505.63z M502.6,608.12c-52.96,0-105.94,0-158.9,0
		c-2.14,0-4.28,0-6.39,0.25c-12,1.46-21.47,10.54-22.19,22.61c-0.74,12.5-0.53,25.05-0.3,37.57c0.05,3.48,1.04,7.21,2.56,10.33
		c5.25,10.88,14.64,14.69,26.22,14.69c105.94-0.05,211.88-0.02,317.82-0.02c0.95,0,1.86,0.02,2.81-0.02
		c13.64-0.67,24.83-9.32,25.59-21.32c0.87-13.42,0.38-26.91,0.4-40.36c0-1.57-0.32-3.18-0.74-4.72
		c-3.28-11.93-13.07-19.01-26.37-19.03C609.6,608.12,556.1,608.12,502.6,608.12z M502.92,710.63c-53.11,0-106.22,0-159.29,0
		c-1.86,0-3.75-0.02-5.59,0.17c-12.38,1.22-22.17,10.36-22.91,22.79c-0.74,12.5-0.53,25.05-0.3,37.57
		c0.08,3.48,1.07,7.18,2.58,10.33c5.17,10.73,14.41,14.61,25.87,14.61c106.22-0.02,212.4-0.02,318.62-0.02c0.67,0,1.34,0.02,2.01,0
		c13.79-0.53,25.15-9.25,25.92-21.42c0.85-13.42,0.35-26.91,0.38-40.36c0-1.57-0.32-3.18-0.74-4.72
		c-3.3-11.93-13.07-18.96-26.42-18.96C609.67,710.61,556.3,710.63,502.92,710.63z M336.74,488.46c110.81,0,221.02,0,331.74,0
		c-12.3-19.63-24.13-38.95-36.43-57.93c-4.95-7.63-12.92-10.39-21.82-10.41c-71.8,0-143.56,0-215.36,0
		c-10.44,0-18.44,4.35-23.93,13.34c-5.42,8.87-10.99,17.67-16.47,26.49C348.64,469.35,342.8,478.72,336.74,488.46z"/>
	<path class="st1" d="M670.71,813.14c2.39-0.7,4.8-1.27,7.13-2.09c15.39-5.54,25.1-16.23,28.88-32.21c0.2-0.87,0.55-1.69,0.85-2.54
		c0,12.28,0,24.55,0,36.83C695.29,813.14,683.01,813.14,670.71,813.14z"/>
	<path class="st2" d="M502.54,505.63c53.51,0,107.01-0.02,160.52,0c13.34,0,23.09,7.06,26.39,18.96c0.42,1.52,0.74,3.13,0.74,4.72
		c-0.02,13.47,0.5,26.97-0.38,40.36c-0.77,12.15-12.15,20.9-25.95,21.4c-0.67,0.02-1.34,0-2.01,0c-106.22,0-212.4,0-318.62,0.02
		c-11.45,0-20.68-3.9-25.87-14.61c-1.52-3.16-2.54-6.86-2.58-10.33c-0.23-12.53-0.47-25.1,0.3-37.57
		c0.74-12.43,10.54-21.57,22.91-22.76c1.86-0.17,3.73-0.17,5.59-0.17C396.61,505.63,449.56,505.63,502.54,505.63z M579.38,522.63
		c-21.59,0-43.19,0-64.79,0c-7.83,0-12,3.03-11.98,8.68c0.02,5.61,4.17,8.55,12.08,8.57c43.19,0,86.38,0,129.59,0
		c7.83,0,12.03-3.03,11.98-8.65c-0.05-5.61-4.17-8.57-12.05-8.57C622.58,522.61,600.98,522.63,579.38,522.63z M579.23,573.88
		c21.89,0,43.76,0,65.66,0c7.26,0,11.28-3.01,11.36-8.38c0.08-5.52-4.08-8.6-11.58-8.62c-0.8,0-1.59,0-2.41,0
		c-26.29,0-52.56,0-78.85,0c-17.07,0-34.17-0.05-51.25,0.02c-5.76,0.02-9.61,3.66-9.54,8.6c0.08,4.8,3.81,8.13,9.37,8.35
		c1.07,0.05,2.14,0.02,3.2,0.02C536.54,573.88,557.89,573.88,579.23,573.88z M357.39,573.82c14.01-0.02,25.42-11.36,25.57-25.35
		c0.15-13.94-11.68-25.82-25.65-25.8c-14.04,0.02-25.62,11.78-25.47,25.87C331.97,562.62,343.32,573.85,357.39,573.82z"/>
	<path class="st2" d="M502.6,608.12c53.51,0,107.01-0.02,160.51,0c13.29,0,23.09,7.11,26.37,19.03c0.42,1.52,0.74,3.13,0.74,4.72
		c-0.02,13.47,0.47,26.97-0.4,40.36c-0.77,12-11.96,20.65-25.59,21.32c-0.95,0.05-1.86,0.02-2.81,0.02
		c-105.94,0-211.88-0.02-317.82,0.02c-11.58,0-20.98-3.78-26.22-14.69c-1.52-3.16-2.51-6.86-2.56-10.33
		c-0.23-12.53-0.42-25.1,0.3-37.57c0.72-12.08,10.19-21.15,22.19-22.61c2.11-0.25,4.25-0.25,6.39-0.25
		C396.65,608.12,449.64,608.12,502.6,608.12z M579.29,642.36c21.72,0,43.46,0,65.18,0c7.6,0,11.66-2.93,11.78-8.45
		c0.13-5.64-4.1-8.77-11.85-8.77c-43.34,0-86.66,0-129.99,0c-7.58,0-11.63,2.93-11.78,8.45c-0.15,5.61,4.1,8.77,11.85,8.77
		C536.07,642.36,557.69,642.36,579.29,642.36z M579.78,676.38c21.62,0,43.24,0,64.84-0.02c1.86,0,3.78,0,5.57-0.42
		c3.78-0.92,6.46-5.1,5.99-8.85c-0.53-4.3-3.75-7.45-8.42-7.6c-6.39-0.23-12.8-0.08-19.21-0.08c-38.29,0-76.59,0-114.88,0
		c-6.88,0-10.88,3.05-11.03,8.35c-0.15,5.37,4,8.6,11.11,8.65c0.8,0,1.59,0,2.41,0C537.34,676.38,558.56,676.38,579.78,676.38z
		 M357.51,676.31c13.99-0.1,25.45-11.56,25.45-25.47c0-14.01-11.9-25.85-25.77-25.67c-14.16,0.2-25.55,11.88-25.32,25.99
		C332.07,665.25,343.45,676.44,357.51,676.31z"/>
	<path class="st2" d="M502.92,710.63c53.38,0,106.73-0.02,160.12,0c13.34,0,23.09,7.03,26.42,18.96c0.42,1.52,0.74,3.13,0.74,4.72
		c-0.02,13.47,0.5,26.97-0.38,40.36c-0.77,12.15-12.15,20.9-25.92,21.42c-0.67,0.02-1.34,0-2.01,0c-106.22,0-212.4,0-318.62,0.02
		c-11.43,0-20.7-3.9-25.87-14.61c-1.52-3.16-2.54-6.86-2.58-10.33c-0.23-12.53-0.47-25.1,0.3-37.57
		c0.74-12.43,10.54-21.57,22.91-22.79c1.86-0.17,3.73-0.17,5.59-0.17C396.73,710.63,449.83,710.63,502.92,710.63z M579.21,744.85
		c21.72,0,43.46,0,65.18,0c7.75,0,12-3.18,11.83-8.8c-0.15-5.52-4.2-8.42-11.81-8.42c-43.34,0-86.66,0-129.99,0
		c-7.75,0-11.98,3.16-11.83,8.8c0.15,5.52,4.2,8.42,11.81,8.42C536.02,744.85,557.62,744.85,579.21,744.85z M579.08,778.87
		c16.15,0,32.28,0,48.43,0c6.66,0,13.34,0.1,20-0.08c4.77-0.13,7.98-3.03,8.6-7.36c0.8-5.44-3.45-9.54-10.12-9.54
		c-44.43-0.02-88.87-0.02-133.3,0c-1.31,0-2.69,0.15-3.95,0.5c-3.78,1.07-6.33,4.65-6.16,8.35c0.2,3.98,3.2,7.33,7.21,7.9
		c1.57,0.23,3.18,0.2,4.8,0.2C536.11,778.87,557.62,778.87,579.08,778.87z M357.24,778.82c14.14,0.05,25.87-11.63,25.7-25.59
		c-0.17-13.96-11.58-25.4-25.5-25.53c-13.97-0.15-25.67,11.6-25.62,25.72C331.89,767.46,343.2,778.79,357.24,778.82z"/>
	<path class="st3" d="M336.74,488.46c6.06-9.74,11.88-19.14,17.72-28.51c5.49-8.82,11.06-17.62,16.47-26.49
		c5.49-9,13.49-13.34,23.93-13.34c71.8,0,143.56,0,215.36,0c8.92,0,16.9,2.78,21.82,10.41c12.3,19.01,24.13,38.32,36.43,57.93
		C557.76,488.46,447.55,488.46,336.74,488.46z"/>
	<path d="M579.23,573.88c-21.35,0-42.7,0-64.04,0c-1.07,0-2.14,0.02-3.2-0.02c-5.57-0.23-9.29-3.55-9.37-8.35
		c-0.08-4.95,3.78-8.57,9.54-8.6c17.07-0.08,34.17-0.02,51.25-0.02c26.29,0,52.56,0,78.85,0c0.8,0,1.59,0,2.41,0
		c7.51,0,11.63,3.11,11.58,8.62c-0.08,5.37-4.1,8.38-11.36,8.38C623.02,573.88,601.13,573.88,579.23,573.88z"/>
	<path d="M579.23,539.73c-21.35,0-42.7,0-64.04,0c-1.07,0-2.14,0.02-3.2-0.02c-5.57-0.23-9.29-3.55-9.37-8.35
		c-0.08-4.95,3.78-8.57,9.54-8.6c17.07-0.08,34.17-0.02,51.25-0.02c26.29,0,52.56,0,78.85,0c0.8,0,1.59,0,2.41,0
		c7.51,0,11.63,3.11,11.58,8.62c-0.08,5.37-4.1,8.38-11.36,8.38C623.02,539.76,601.13,539.73,579.23,539.73z"/>
	<path d="M357.39,573.82c-14.04,0.02-25.42-11.21-25.55-25.27c-0.15-14.09,11.43-25.85,25.47-25.87
		c13.97-0.02,25.8,11.85,25.65,25.8C382.81,562.47,371.4,573.77,357.39,573.82z M357.34,539.95c-4.57,0-8.42,3.75-8.47,8.3
		c-0.05,4.42,3.83,8.45,8.28,8.57c4.62,0.15,8.62-3.85,8.57-8.57C365.69,543.58,362.01,539.95,357.34,539.95z"/>
	<path d="M579.29,642.36c-21.59,0-43.19,0-64.79,0c-7.75,0-12-3.16-11.85-8.77c0.15-5.52,4.17-8.45,11.78-8.45
		c43.34,0,86.66,0,129.99,0c7.75,0,11.98,3.13,11.85,8.77c-0.13,5.52-4.17,8.45-11.78,8.45
		C622.75,642.36,601.01,642.36,579.29,642.36z"/>
	<path d="M579.78,676.38c-21.23,0-42.42,0-63.65,0c-0.8,0-1.59,0-2.41,0c-7.11-0.05-11.26-3.26-11.11-8.65
		c0.15-5.29,4.15-8.35,11.03-8.35c38.29,0,76.59,0,114.88,0c6.41,0,12.83-0.13,19.21,0.08c4.7,0.17,7.9,3.3,8.42,7.6
		c0.47,3.78-2.21,7.93-5.99,8.85c-1.79,0.45-3.7,0.42-5.57,0.42C623,676.38,601.37,676.38,579.78,676.38z"/>
	<path d="M357.51,676.31c-14.07,0.1-25.47-11.06-25.67-25.13c-0.23-14.12,11.18-25.8,25.32-25.99c13.89-0.2,25.77,11.63,25.77,25.67
		C382.96,664.75,371.53,676.21,357.51,676.31z M365.74,650.74c-0.05-4.65-3.73-8.28-8.38-8.3c-4.57,0-8.42,3.75-8.47,8.3
		c-0.08,4.57,4.13,8.72,8.68,8.57C362.09,659.16,365.77,655.31,365.74,650.74z"/>
	<path d="M579.21,744.85c-21.59,0-43.19,0-64.79,0c-7.6,0-11.66-2.9-11.81-8.42c-0.15-5.64,4.08-8.8,11.83-8.8
		c43.34,0,86.66,0,129.99,0c7.6,0,11.63,2.9,11.81,8.42c0.15,5.61-4.08,8.8-11.83,8.8C622.67,744.85,600.95,744.85,579.21,744.85z"
		/>
	<path d="M579.08,778.87c-21.47,0-42.97,0-64.44,0c-1.59,0-3.2,0.02-4.8-0.2c-4.02-0.57-7.01-3.93-7.21-7.9
		c-0.2-3.73,2.39-7.3,6.16-8.35c1.27-0.35,2.63-0.5,3.95-0.5c44.43-0.02,88.87-0.02,133.3,0c6.66,0,10.91,4.1,10.12,9.54
		c-0.65,4.32-3.83,7.24-8.6,7.36c-6.66,0.17-13.34,0.08-20,0.08C611.37,778.87,595.24,778.87,579.08,778.87z"/>
	<path d="M357.24,778.82c-14.04-0.05-25.35-11.36-25.42-25.4c-0.05-14.12,11.66-25.87,25.62-25.72
		c13.94,0.15,25.35,11.56,25.5,25.53C383.11,767.19,371.4,778.87,357.24,778.82z M357.22,744.95c-4.55,0.05-8.38,3.93-8.35,8.42
		c0.02,4.42,4,8.42,8.42,8.45c4.65,0.05,8.55-3.98,8.45-8.72C365.62,748.45,361.89,744.88,357.22,744.95z"/>
	<path class="st4" d="M357.34,539.95c4.65,0,8.35,3.66,8.38,8.28c0.05,4.72-3.95,8.72-8.57,8.57c-4.45-0.13-8.35-4.17-8.28-8.57
		C348.94,543.7,352.79,539.95,357.34,539.95z"/>
	<path class="st4" d="M365.74,650.74c0.05,4.57-3.66,8.45-8.2,8.57c-4.55,0.13-8.75-4-8.68-8.57c0.05-4.53,3.93-8.3,8.47-8.3
		C362.01,642.44,365.69,646.09,365.74,650.74z"/>
	<path class="st4" d="M357.22,744.95c4.67-0.05,8.4,3.53,8.5,8.15c0.1,4.74-3.81,8.77-8.45,8.72c-4.42-0.05-8.4-4.02-8.42-8.45
		C348.84,748.88,352.67,745,357.22,744.95z"/>
	<g>
		<path class="st4" d="M291.16,830.99c-3.55,0-6.69-1.61-9.02-4.7c-2.01-2.63-2.86-5.57-2.46-8.55c0.53-3.83,3.03-7.45,7.48-10.84
			c0,0,408.7-309.65,420.21-318.37c3.9-2.96,7.58-4.45,10.96-4.45c3.55,0,6.66,1.61,9.04,4.7c2.01,2.61,2.88,5.57,2.48,8.53
			c-0.53,3.83-3.03,7.48-7.48,10.86c-34.42,26.1-385.79,292.3-420.21,318.37C298.24,829.49,294.54,830.99,291.16,830.99z"/>
		<path class="st1" d="M718.33,487.84c2.39,0,4.42,1.07,6.09,3.23c3.43,4.45,1.94,9.4-4.3,14.12
			c-34.42,26.1-385.79,292.3-420.21,318.37c-3.26,2.46-6.18,3.7-8.72,3.7c-2.39,0-4.42-1.07-6.06-3.23
			c-3.43-4.47-1.94-9.42,4.3-14.14c17.22-13.04,34.42-26.1,51.64-39.14c17.22-13.04,351.35-266.21,368.56-279.25
			C712.86,489.06,715.79,487.84,718.33,487.84 M718.33,480.38L718.33,480.38c-4.2,0-8.65,1.74-13.22,5.19
			c-16.28,12.32-315.49,239.05-362.95,274.98l-5.61,4.28l-14.46,10.96c-12.4,9.4-24.8,18.79-37.17,28.18
			c-5.27,4-8.28,8.47-8.92,13.29c-0.55,3.98,0.57,7.88,3.2,11.31c3.03,3.98,7.3,6.14,11.98,6.14c4.23,0,8.68-1.74,13.22-5.19
			c34.44-26.1,385.79-292.3,420.21-318.37c5.29-4,8.3-8.5,8.95-13.34c0.53-3.98-0.59-7.88-3.23-11.28
			C727.25,482.54,723,480.38,718.33,480.38L718.33,480.38z"/>
	</g>
</g>
</svg>
