<svg xmlns="http://www.w3.org/2000/svg" width="388.422" height="388.423" viewBox="0 0 388.422 388.423"><g transform="translate(142.355 0.683) rotate(30)" opacity="0.23"><path d="M141.672,0A141.672,141.672,0,1,0,283.345,141.672,141.663,141.663,0,0,0,141.672,0ZM195.6,195.459a76.347,76.347,0,1,1,0-107.971A76.34,76.34,0,0,1,195.6,195.459Z" transform="translate(0 0)" fill="#fff" stroke="#707070" stroke-width="1"/><path d="M64.158,11.56a141.476,141.476,0,0,0-64,109.683V265.265a4.6,4.6,0,0,0,4.6,4.6H20.464A44.04,44.04,0,0,0,59.7,245.836a43.727,43.727,0,0,0,4.817-20.026V11.56Z" transform="translate(0.159 11.451)" fill="#fff" stroke="#707070" stroke-width="1"/><path d="M169.169.27h0a59.454,59.454,0,0,0-50.442,28.187l-.657,1.015a60.663,60.663,0,0,0-8.58,31.253v199.62c0,.119.02.239.02.378a141.511,141.511,0,0,0,65.352-119.338V6.063A5.727,5.727,0,0,0,169.169.27Z" transform="translate(108.463 0.267)" fill="#fff" stroke="#707070" stroke-width="1"/></g></svg>