<svg xmlns="http://www.w3.org/2000/svg" width="1313.222" height="1313.222" viewBox="0 0 1313.222 1313.222">
  <g id="Group_277" data-name="Group 277" transform="translate(-1607.317 -1714.817)">
    <g id="shunyeka" transform="translate(2088.172 1715.5) rotate(30)" opacity="0.23">
      <path id="Path_317" data-name="Path 317" d="M480.172,0C214.954,0,0,214.954,0,480.172S214.954,960.345,480.172,960.345,960.345,745.391,960.345,480.172,745.391,0,480.172,0ZM662.944,662.472C561.877,763.54,398.063,763.54,297,662.472s-101.068-264.881,0-365.949,264.881-101.068,365.948,0S764.012,561.4,662.944,662.472Z" fill="#fff" stroke="#707070" stroke-width="1"/>
      <path id="Path_318" data-name="Path 318" d="M217.071,11.56C93.806,92.05,9.875,227.594.16,383.311V871.445A15.592,15.592,0,0,0,15.745,887.03H68.978A149.267,149.267,0,0,0,201.958,805.6a148.206,148.206,0,0,0,16.327-67.873V11.56Z" transform="translate(0.919 66.433)" fill="#fff" stroke="#707070" stroke-width="1"/>
      <path id="Path_319" data-name="Path 319" d="M311.76.27h0C239.771.27,176.621,38.457,140.8,95.805l-2.226,3.441A205.606,205.606,0,0,0,109.49,205.171V881.744c0,.4.067.809.067,1.282,133.183-85.348,221.5-234.52,221.5-404.473V19.9A19.41,19.41,0,0,0,311.76.27Z" transform="translate(629.221 1.552)" fill="#fff" stroke="#707070" stroke-width="1"/>
    </g>
  </g>
</svg>
