<svg xmlns="http://www.w3.org/2000/svg" width="122.622" height="116.691" viewBox="0 0 122.622 116.691"><g transform="translate(0.501 0.27)"><path d="M124.9,62.1h.06A23.766,23.766,0,0,1,101.2,85.86H99.307v-.005a33.325,33.325,0,1,0-66.65,0v.005H30.764A23.764,23.764,0,0,1,7,62.1H7c0-.216,0-.243,0-.243v-.01A29.9,29.9,0,0,1,33.347,32.153,34.289,34.289,0,0,1,100.624,41.5c0,.146,0,.29,0,.436a19.93,19.93,0,0,1,3.911-.295A20.367,20.367,0,0,1,124.9,62.1Zm0,0" transform="translate(-5.172 -5.163)" fill="#ccf6fe"/><path d="M171.842,213.96a33.325,33.325,0,1,1-66.65,0v-.005a33.325,33.325,0,1,1,66.65,0Zm-17.907,15.32V214.19a5.225,5.225,0,0,0-5.226-5.226h-.151v-5.407a10.182,10.182,0,0,0-2.95-7.17,9.957,9.957,0,0,0-7.092-2.983,10.1,10.1,0,0,0-10.041,10.154v5.407h-.152a5.226,5.226,0,0,0-5.226,5.226v15.09a5.228,5.228,0,0,0,5.226,5.226H148.71A5.227,5.227,0,0,0,153.936,229.28Zm0,0" transform="translate(-77.707 -133.262)" fill="#62bb9f"/><path d="M188.876,304.423a1.74,1.74,0,0,0,.206.01,2.455,2.455,0,1,0-.206-.01Zm15.68-10.127v15.09a5.227,5.227,0,0,1-5.226,5.226H178.944a5.228,5.228,0,0,1-5.226-5.226V294.3a5.226,5.226,0,0,1,5.226-5.226H199.33A5.225,5.225,0,0,1,204.556,294.3Zm0,0" transform="translate(-128.328 -213.368)" fill="#fedb41"/><path d="M214.383,244.8v.28H194.3v-5.407a10.1,10.1,0,0,1,10.041-10.154,9.957,9.957,0,0,1,7.092,2.983,10.182,10.182,0,0,1,2.95,7.17Zm0,0" transform="translate(-143.531 -169.378)" fill="#62bb9f"/><path d="M225.534,334.2a2.419,2.419,0,1,1,.206.01A1.74,1.74,0,0,1,225.534,334.2Zm0,0" transform="translate(-164.985 -243.141)" fill="#fedb41"/><g transform="translate(-0.001 0.23)"><path d="M195.734,238.283V234.5a11.9,11.9,0,0,0-3.423-8.455A11.53,11.53,0,0,0,184,222.52,11.869,11.869,0,0,0,172.216,234.5v3.781a7.107,7.107,0,0,0-5.486,6.852v15.09a6.984,6.984,0,0,0,7.052,6.963h20.386a6.984,6.984,0,0,0,7.053-6.963v-15.09A7.106,7.106,0,0,0,195.734,238.283Zm-11.7-12.105a7.907,7.907,0,0,1,5.707,2.44,8.242,8.242,0,0,1,2.337,5.884v3.682h-16.2V234.5a8.231,8.231,0,0,1,8.156-8.325Zm13.531,34.216a3.4,3.4,0,0,1-3.4,3.4H173.785a3.4,3.4,0,0,1-3.4-3.4V245.239a3.4,3.4,0,0,1,3.4-3.4h20.381a3.4,3.4,0,0,1,3.4,3.4Zm0,0" transform="translate(-123.164 -164.437)" stroke="#000" stroke-width="1"/><path d="M220.462,322.219a4.259,4.259,0,0,0-2.035,8v2.514a1.829,1.829,0,1,0,3.658,0v-2.309a4.265,4.265,0,0,0-1.623-8.208Zm0,3.658a.609.609,0,0,1,.239,1.168,1.819,1.819,0,0,0-.445-.057c-.041,0-.079,0-.119.006a.6.6,0,0,1,.326-1.117Zm0,0" transform="translate(-159.705 -238.085)" stroke="#000" stroke-width="1"/><path d="M25.593,82.6h.11a35.155,35.155,0,0,0,70.213,0h.111a25.658,25.658,0,0,0,25.594-25.649,1.891,1.891,0,0,0-.065-.5A22.2,22.2,0,0,0,99.361,34.648c-.685,0-1.394.009-2.116.056A36.158,36.158,0,0,0,61.165.23,35.768,35.768,0,0,0,39.2,7.682,36.463,36.463,0,0,0,26.763,25.337,31.694,31.694,0,0,0,0,56.69s0,.019,0,.164c0,.027,0,.089,0,.115A25.654,25.654,0,0,0,25.592,82.6ZM60.81,112.226a31.578,31.578,0,0,1-31.5-31.455H27.626V80.7l1.688-.005a31.5,31.5,0,1,1,31.5,31.534ZM28.387,28.808a1.828,1.828,0,0,0,1.546-1.318,32.461,32.461,0,0,1,63.689,8.845c0,.136,0,.268,0,.4a1.829,1.829,0,0,0,2.188,1.825A18.644,18.644,0,0,1,117.9,56.934a1.855,1.855,0,0,0,.055.45,22,22,0,0,1-21.93,21.558h-.11a35.154,35.154,0,0,0-70.214,0h-.11A21.992,21.992,0,0,1,3.657,57.067c0-.04,0-.1,0-.139l0-.239a28.037,28.037,0,0,1,24.73-27.881Zm0,0" transform="translate(0.001 -0.23)" stroke="#000" stroke-width="1"/></g></g></svg>