<svg xmlns="http://www.w3.org/2000/svg" width="120.289" height="116.391" viewBox="0 0 120.289 116.391"><g transform="translate(0.001 0)"><path d="M125.584,49.691a24.114,24.114,0,0,0-31.527-22.1A32.337,32.337,0,0,0,34.09,33.8,20.7,20.7,0,0,0,10.939,60.277,12.093,12.093,0,0,0,22.507,68.8H41.29l-.686-.686a4.91,4.91,0,0,1,0-6.944L44.871,56.9a3.654,3.654,0,0,1,5.168,0L54.9,61.762a26.742,26.742,0,0,1,5.862-2.431V53.714a4.909,4.909,0,0,1,4.909-4.91h4.781a4.91,4.91,0,0,1,4.91,4.91v5.617a26.734,26.734,0,0,1,5.862,2.431L85.2,57.787a4.91,4.91,0,0,1,6.943,0l3.38,3.381a4.909,4.909,0,0,1,0,6.943l-.686.686h16.916a12.1,12.1,0,0,0,10.369-5.772,24,24,0,0,0,3.462-13.334Zm0,0" transform="translate(-7.661 -7.65)" fill="#ccf6fe"/><path d="M165.884,187.533l-3.38-3.381a4.91,4.91,0,0,0-6.944,0l-3.975,3.975a26.781,26.781,0,0,0-5.861-2.431v-5.617a4.91,4.91,0,0,0-4.91-4.91h-4.781a4.909,4.909,0,0,0-4.909,4.91V185.7a26.786,26.786,0,0,0-5.862,2.431l-4.862-4.862a3.654,3.654,0,0,0-5.168,0l-4.268,4.268a4.91,4.91,0,0,0,0,6.944l3.975,3.975a26.78,26.78,0,0,0-2.431,5.861H106.89a4.91,4.91,0,0,0-4.91,4.91V214a4.909,4.909,0,0,0,4.91,4.909h5.617a26.76,26.76,0,0,0,2.431,5.861l-4.862,4.863a3.654,3.654,0,0,0,0,5.168l4.268,4.268a4.909,4.909,0,0,0,6.943,0l3.976-3.975a26.717,26.717,0,0,0,5.862,2.431v5.618a4.909,4.909,0,0,0,4.91,4.909h4.78a4.91,4.91,0,0,0,4.91-4.91v-5.617a26.779,26.779,0,0,0,5.861-2.431l3.975,3.974a4.909,4.909,0,0,0,6.943,0l3.381-3.38a4.91,4.91,0,0,0,0-6.944l-3.976-3.975a26.737,26.737,0,0,0,2.432-5.861h5.617a4.91,4.91,0,0,0,4.91-4.91v-4.78a4.91,4.91,0,0,0-4.91-4.91h-5.617a26.743,26.743,0,0,0-2.432-5.862l3.289-3.288.686-.686a4.91,4.91,0,0,0,0-6.943Zm-13.235,24.888a14.232,14.232,0,1,1-14.691-14.69,14.284,14.284,0,0,1,14.691,14.69Zm0,0" transform="translate(-78.022 -134.014)" fill="#62bb9f"/><path d="M202.566,261.181a16.582,16.582,0,1,0,17.114,17.114A16.6,16.6,0,0,0,202.566,261.181Zm.931,28.45a11.883,11.883,0,1,1,8.012-20.279A11.874,11.874,0,0,1,203.5,289.63Zm0,0" transform="translate(-142.705 -199.813)"/><path d="M297.387,117.387a2.349,2.349,0,0,0,0,4.7h.006a2.349,2.349,0,1,0-.006-4.7Zm0,0" transform="translate(-225.724 -89.808)"/><path d="M120.272,41.96A26.444,26.444,0,0,0,87.556,17.171a34.687,34.687,0,0,0-62.8,6.408A23.069,23.069,0,0,0,1.031,53.316,14.364,14.364,0,0,0,14.845,63.5H32.655l1.382,1.382a29.233,29.233,0,0,0-1.273,3.071h-3.9a7.267,7.267,0,0,0-7.258,7.258v4.78a7.267,7.267,0,0,0,7.258,7.259h3.9a29.22,29.22,0,0,0,1.273,3.07l-3.643,3.644a6,6,0,0,0,0,8.49l4.268,4.268a7.268,7.268,0,0,0,10.265,0l2.756-2.757a29.047,29.047,0,0,0,3.071,1.274v3.9a7.267,7.267,0,0,0,7.258,7.258h4.781a7.267,7.267,0,0,0,7.258-7.258v-3.9a29.032,29.032,0,0,0,3.07-1.274l2.757,2.757a7.268,7.268,0,0,0,10.265,0l3.381-3.381a7.256,7.256,0,0,0,0-10.266l-2.757-2.756a29.033,29.033,0,0,0,1.274-3.07h3.9A7.267,7.267,0,0,0,99.2,79.989V75.208a7.267,7.267,0,0,0-7.258-7.258h-3.9a29.244,29.244,0,0,0-1.274-3.071L88.15,63.5h15.943a14.522,14.522,0,0,0,12.378-6.9,26.388,26.388,0,0,0,3.8-14.633ZM91.937,72.646a2.564,2.564,0,0,1,2.56,2.561v4.78a2.563,2.563,0,0,1-2.56,2.56H86.319a2.35,2.35,0,0,0-2.261,1.713,24.418,24.418,0,0,1-2.218,5.348,2.35,2.35,0,0,0,.387,2.811L86.2,96.4a2.559,2.559,0,0,1,0,3.621L82.82,103.4a2.562,2.562,0,0,1-3.62,0l-3.975-3.975a2.346,2.346,0,0,0-2.811-.387,24.482,24.482,0,0,1-5.348,2.218,2.349,2.349,0,0,0-1.713,2.261v5.617a2.563,2.563,0,0,1-2.56,2.56H58.012a2.563,2.563,0,0,1-2.56-2.56v-5.617a2.349,2.349,0,0,0-1.713-2.261,24.456,24.456,0,0,1-5.347-2.218,2.35,2.35,0,0,0-2.812.387L41.6,103.4a2.564,2.564,0,0,1-3.62,0l-4.268-4.268a1.306,1.306,0,0,1,0-1.846l4.862-4.862a2.351,2.351,0,0,0,.387-2.812,24.4,24.4,0,0,1-2.218-5.348,2.349,2.349,0,0,0-2.261-1.713H28.867a2.563,2.563,0,0,1-2.56-2.56v-4.78a2.563,2.563,0,0,1,2.56-2.56h5.618a2.35,2.35,0,0,0,2.261-1.713,24.4,24.4,0,0,1,2.218-5.348,2.35,2.35,0,0,0-.387-2.811L34.6,58.8a2.563,2.563,0,0,1,0-3.621l4.268-4.268a1.3,1.3,0,0,1,1.846,0l4.862,4.862a2.35,2.35,0,0,0,2.812.387,24.4,24.4,0,0,1,5.347-2.218,2.349,2.349,0,0,0,1.713-2.261c.018-5.895-.04-5.683.052-6.133A2.565,2.565,0,0,1,58.012,43.5h4.781A2.564,2.564,0,0,1,65.3,45.548c.093.449.035.226.052,6.133a2.35,2.35,0,0,0,1.713,2.261,24.531,24.531,0,0,1,5.348,2.218,2.348,2.348,0,0,0,2.811-.387c4.442-4.434,3.966-3.986,4.192-4.167a2.567,2.567,0,0,1,3.4.193l3.38,3.381a2.56,2.56,0,0,1,0,3.621l-3.974,3.975a2.349,2.349,0,0,0-.387,2.811,24.445,24.445,0,0,1,2.218,5.348,2.349,2.349,0,0,0,2.261,1.713h5.617Zm20.517-18.489a9.8,9.8,0,0,1-8.361,4.642H91.423a7.26,7.26,0,0,0-1.136-6.042c-.6-.83-.919-1.015-4.144-4.279a7.266,7.266,0,0,0-10.265,0l-2.757,2.756a29.146,29.146,0,0,0-3.07-1.274c-.038-3.586.095-4.177-.148-5.357a7.271,7.271,0,0,0-7.111-5.8H58.012a7.267,7.267,0,0,0-7.258,7.258v3.9a29.322,29.322,0,0,0-3.071,1.274l-3.643-3.644a6,6,0,0,0-8.49,0l-3.2,3.2c-1.124,1.221-4.125,3.48-2.962,8.009H14.846a9.689,9.689,0,0,1-9.324-6.862,18.344,18.344,0,0,1-.8-5.388c0-15.772,18.609-23.968,29.737-13.937A2.349,2.349,0,0,0,37.6,29.122a21.848,21.848,0,0,0-8.179-4.643c8.447-23.351,40.3-26.949,53.6-5.728a26.189,26.189,0,0,0-6.442,4.155,2.349,2.349,0,1,0,3.093,3.537c13.5-11.809,35.267-2.777,35.909,15.678a21.7,21.7,0,0,1-3.122,12.035Zm0,0" transform="translate(0 0)"/></g></svg>