<svg id="data-protection" xmlns="http://www.w3.org/2000/svg" width="88.541" height="84.802" viewBox="0 0 88.541 84.802">
  <path id="Path_395" data-name="Path 395" d="M60.365,29.931l-2.405.69a62.222,62.222,0,0,1-14.885,2.371,62.272,62.272,0,0,1-14.809-1.234,62.271,62.271,0,0,1-14.1-4.708A62.214,62.214,0,0,1,1.416,18.991,3.675,3.675,0,0,1,.328,14.763a3.642,3.642,0,0,1,.9-1.3l.074-.069a5.068,5.068,0,0,1,6.075-.624l7.929,4.794a31.687,31.687,0,0,0,6.3,2.921,31.717,31.717,0,0,0,6.705,1.47,31.706,31.706,0,0,0,6.863-.007,31.664,31.664,0,0,0,6.776-1.511,4.688,4.688,0,0,0,2.175-1.516,4.769,4.769,0,0,0,.677-4.747,4.674,4.674,0,0,0-1.666-2.061L34.9,6.344A3.49,3.49,0,0,1,37.662.081L60.4,5.055,64.146,9.09l-.032,17.093Z" transform="translate(1.484 49.187)" fill="#ffddce"/>
  <path id="Path_396" data-name="Path 396" d="M1.686.389,9.928,6.16a4.739,4.739,0,0,1,1.342,1.42,4.626,4.626,0,0,1,.621,1.715,4.8,4.8,0,0,1-.068,1.79,4.743,4.743,0,0,1-.726,1.647,4.62,4.62,0,0,0-.269-.4,4.667,4.667,0,0,0-.317-.381,4.778,4.778,0,0,0-.365-.354,4.971,4.971,0,0,0-.415-.324L1.492,5.5A3.479,3.479,0,0,1,.588.715q.068-.1.142-.2T.885.333Q.965.243,1.051.16T1.226,0q.053.052.108.1t.112.1q.057.049.117.1T1.686.389Z" transform="translate(34.894 50.027)" fill="#ffcbbe"/>
  <path id="Path_397" data-name="Path 397" d="M1.141,0l.094.1q.048.05.1.1t.1.1q.052.047.108.092A62.237,62.237,0,0,0,14.3,8.453a62.278,62.278,0,0,0,14.1,4.713A62.274,62.274,0,0,0,43.22,14.4a62.22,62.22,0,0,0,14.892-2.373l2.407-.69,3.554-3.554-.009,4.9-3.75,3.748-2.405.69a62.219,62.219,0,0,1-14.885,2.371,62.272,62.272,0,0,1-14.809-1.234,62.271,62.271,0,0,1-14.1-4.708A62.217,62.217,0,0,1,1.364,5.492,3.658,3.658,0,0,1,1.141,0Z" transform="translate(1.536 62.686)" fill="#ffcbbe"/>
  <path id="Path_398" data-name="Path 398" d="M23.923,33.2H2.056A2.052,2.052,0,0,1,.163,31.953a2.025,2.025,0,0,1-.16-.8l.045-29.1A2.048,2.048,0,0,1,.654.6,2.061,2.061,0,0,1,2.112,0H24.044A1.341,1.341,0,0,1,25.39,1.347l-.114,30.516a1.331,1.331,0,0,1-.108.521,1.353,1.353,0,0,1-1.244.818Z" transform="translate(61.842 50.318)" fill="#62bb9f"/>
  <path id="Path_399" data-name="Path 399" d="M0,31.158l.045-29.1A2.048,2.048,0,0,1,.654.6,2.062,2.062,0,0,1,2.112,0H4.418l-.05,26.227a2.03,2.03,0,0,0,.6,1.446,2.052,2.052,0,0,0,1.453.6H25.289l-.013,3.59a1.331,1.331,0,0,1-.108.521,1.353,1.353,0,0,1-1.244.818H2.056A2.052,2.052,0,0,1,.163,31.954,2.025,2.025,0,0,1,0,31.158Z" transform="translate(61.842 50.317)" fill="#53aa8e"/>
  <g id="Group_211" data-name="Group 211" transform="translate(1.644 1.301)">
    <path id="Path_400" data-name="Path 400" d="M25.214,0A12.868,12.868,0,0,0,13.758,7.044a1.718,1.718,0,0,1-.672.711,1.7,1.7,0,0,1-.952.225,11.308,11.308,0,0,0-4.625.691,11.478,11.478,0,0,0-6.464,6.076,11.33,11.33,0,0,0-.974,4.6A11.124,11.124,0,0,0,1,23.806a11.6,11.6,0,0,0,2.516,3.648,11.828,11.828,0,0,0,3.7,2.464,11.552,11.552,0,0,0,4.48.9H37.89a10.207,10.207,0,0,0,7.141-2.906,10.034,10.034,0,0,0,2.191-3.166,9.822,9.822,0,0,0,.818-3.893,10.02,10.02,0,0,0-8.918-10,1.673,1.673,0,0,1-.5-.136,1.7,1.7,0,0,1-.426-.274,1.731,1.731,0,0,1-.328-.387,1.753,1.753,0,0,1-.206-.477,12.82,12.82,0,0,0-1.722-3.82A12.949,12.949,0,0,0,29.469.723,12.811,12.811,0,0,0,25.214,0Z" transform="translate(0)" fill="#9bdcff"/>
    <g id="Group_210" data-name="Group 210">
      <path id="Path_401" data-name="Path 401" d="M13.279,8.106A12.836,12.836,0,0,1,33.623,3.139a13.009,13.009,0,0,1,2.015,2.195,12.851,12.851,0,0,0-3.507-1.8,12.754,12.754,0,0,0-1.961-.48A12.862,12.862,0,0,0,17.052,9.2a3.373,3.373,0,0,1-1.2,1.192,3.311,3.311,0,0,1-.777.331,3.253,3.253,0,0,1-.847.122,11.294,11.294,0,0,0-4.364.926A11.477,11.477,0,0,0,3.85,17.843a11.384,11.384,0,0,0,.313,9.489,11.5,11.5,0,0,0,.865,1.454,11.569,11.569,0,0,1-3.589-4.007A11.4,11.4,0,0,1,13.279,8.106Z" fill="#90d8f9"/>
    </g>
  </g>
  <g id="Group_214" data-name="Group 214" transform="translate(1.448 38.806)">
    <g id="Group_212" data-name="Group 212" transform="translate(0 0.806)">
      <path id="Path_402" data-name="Path 402" d="M3.147,5.019.272,3.056a.6.6,0,0,1-.2-.765.592.592,0,0,1,.194-.221L3.13.105a.6.6,0,0,1,.679,0l3.6,2.457L3.825,5.019a.6.6,0,0,1-.678,0Z" transform="translate(0 0)" fill="#e278b1"/>
      <path id="Path_403" data-name="Path 403" d="M4.267,5.019,7.136,3.056a.6.6,0,0,0,0-.986L4.268.105a.6.6,0,0,0-.679,0L0,2.562,3.589,5.019a.6.6,0,0,0,.678,0Z" transform="translate(41.168 0)" fill="#e278b1"/>
    </g>
    <g id="Group_213" data-name="Group 213" transform="translate(21.712)">
      <path id="Path_404" data-name="Path 404" d="M5.038,4.258,3.075,7.118a.593.593,0,0,1-.221.195.606.606,0,0,1-.546,0,.6.6,0,0,1-.222-.195L.113,4.258a.6.6,0,0,1,0-.677L2.569,0,5.037,3.581a.6.6,0,0,1,0,.677Z" fill="#e278b1"/>
    </g>
  </g>
  <g id="Group_215" data-name="Group 215" transform="translate(0 0)">
    <path id="Path_405" data-name="Path 405" d="M1.647,13.809l.075-.07A6.31,6.31,0,0,1,3.448,12.6a6.437,6.437,0,0,1,3.98-.407,6.3,6.3,0,0,1,1.92.765l7.929,4.8a30.529,30.529,0,0,0,6.05,2.809,30.28,30.28,0,0,0,6.424,1.411,30.266,30.266,0,0,0,6.576-.01,30.5,30.5,0,0,0,6.507-1.455,3.554,3.554,0,0,0,.86-.429,3.326,3.326,0,0,0,1.173-1.413,3.574,3.574,0,0,0,.268-1.879,3.317,3.317,0,0,0-.732-1.683,3.545,3.545,0,0,0-.706-.65L35.459,8.691a4.832,4.832,0,0,1-1.3-1.352A4.725,4.725,0,0,1,33.5,3.864a4.864,4.864,0,0,1,1.7-2.8A4.749,4.749,0,0,1,37.788.017a4.86,4.86,0,0,1,1.45.1L60.411,4.744V4.478a3.319,3.319,0,0,1,.266-1.3,3.363,3.363,0,0,1,3.095-2.044H74.384a1.29,1.29,0,0,1-.007,2.58H63.768A.767.767,0,0,0,63,4.478l-.048,29.1a.752.752,0,0,0,.06.3.765.765,0,0,0,.7.465h21.87a.058.058,0,0,0,.04-.017.057.057,0,0,0,.012-.018.056.056,0,0,0,0-.022L85.754,3.77a.057.057,0,0,0-.035-.052.058.058,0,0,0-.022,0H79.55a1.29,1.29,0,0,1,.008-2.58h6.148A2.627,2.627,0,0,1,88.341,3.77l-.118,30.516a2.6,2.6,0,0,1-.212,1.02,2.651,2.651,0,0,1-2.436,1.6H63.711a3.345,3.345,0,0,1-3.079-2.032,3.289,3.289,0,0,1-.262-1.294v-.652c-.158.034-.737.219-1.677.476s-2.24.587-3.839.913-3.5.647-5.632.887a63.256,63.256,0,0,1-7.056.4q-.829,0-1.66-.022t-1.663-.065q-.832-.043-1.665-.108t-1.666-.152q-3.082-.321-6.092-.93t-5.934-1.5q-2.924-.894-5.756-2.071t-5.559-2.632a1.287,1.287,0,0,1-.678-1.251,1.283,1.283,0,0,1,.473-.881,1.295,1.295,0,0,1,1.421-.131q2.615,1.4,5.332,2.525t5.522,1.987q2.805.858,5.693,1.442t5.845.893a61.645,61.645,0,0,0,9.51.252,60.652,60.652,0,0,0,7.558-.86c2.146-.383,3.894-.817,5.173-1.168s2.087-.62,2.353-.672l.032-22.874L38.684,2.634a2.23,2.23,0,0,0-.667-.045,2.183,2.183,0,0,0-1.193.48,2.241,2.241,0,0,0-.781,1.29,2.174,2.174,0,0,0,.3,1.6,2.225,2.225,0,0,0,.6.623l8.239,5.767a6.064,6.064,0,0,1,1.223,1.135,5.964,5.964,0,0,1,1.28,4.624,6.022,6.022,0,0,1-.459,1.6,5.965,5.965,0,0,1-2.063,2.484,6.083,6.083,0,0,1-1.491.75,33.109,33.109,0,0,1-7.061,1.579,32.856,32.856,0,0,1-7.136.011A32.86,32.86,0,0,1,22.505,23a33.126,33.126,0,0,1-6.566-3.048L8.011,15.159a3.727,3.727,0,0,0-1.138-.453,3.819,3.819,0,0,0-2.361.244,3.753,3.753,0,0,0-1.024.676l-.075.07a2.383,2.383,0,0,0-.241,3.23,2.406,2.406,0,0,0,.36.365q.644.526,1.3,1.037t1.335,1q.675.492,1.361.965t1.382.925a1.286,1.286,0,0,1,.568,1.3,1.283,1.283,0,0,1-.547.837,1.3,1.3,0,0,1-1.428.009q-.725-.471-1.441-.964T4.65,23.4q-.7-.513-1.392-1.045T1.9,21.276A4.967,4.967,0,0,1,.07,17.593a4.933,4.933,0,0,1,1.577-3.784Z" transform="translate(0.185 47.895)"/>
    <path id="Path_406" data-name="Path 406" d="M0,4.073.009,1.286A1.281,1.281,0,0,1,.389.377a1.294,1.294,0,0,1,1.827,0,1.275,1.275,0,0,1,.376.909L2.586,4.073a1.277,1.277,0,0,1-.1.5,1.295,1.295,0,0,1-2.1.408A1.274,1.274,0,0,1,0,4.073Z" transform="translate(69.701 69.31)"/>
    <path id="Path_407" data-name="Path 407" d="M8.586,0a1.3,1.3,0,1,1,0,2.593H1.3A1.3,1.3,0,1,1,1.3,0Z" transform="translate(20.759 21.056)"/>
    <path id="Path_408" data-name="Path 408" d="M42.215,40.883l3.258-2.231a1.875,1.875,0,0,1,.515-.247,1.924,1.924,0,0,1,1.114,0,1.875,1.875,0,0,1,.516.247l2.868,1.965a1.888,1.888,0,0,1,0,3.117L47.616,45.7h0a1.875,1.875,0,0,1-.515.247,1.923,1.923,0,0,1-1.113,0,1.886,1.886,0,0,1-.265-.1,1.865,1.865,0,0,1-.25-.144l-3.257-2.229h-4.1a1.292,1.292,0,0,1-1.3-1.292l-.006-8.758h-9.8l.008,4.989,2.241,3.251a1.869,1.869,0,0,1,.248.514,1.91,1.91,0,0,1,0,1.11,1.863,1.863,0,0,1-.247.514h0L27.3,46.655a1.9,1.9,0,0,1-3.123,0l-1.973-2.86a1.869,1.869,0,0,1-.248-.514,1.91,1.91,0,0,1,0-1.11,1.863,1.863,0,0,1,.246-.514l2.23-3.251-.009-4.989h-9.8l.023,8.758a1.289,1.289,0,0,1-1.291,1.292h-4.1L6.01,45.7a1.859,1.859,0,0,1-.249.144,1.882,1.882,0,0,1-.265.1,1.916,1.916,0,0,1-.556.082,1.921,1.921,0,0,1-.557-.082,1.884,1.884,0,0,1-.516-.247h0L.991,43.733a1.895,1.895,0,0,1-.828-1.558A1.88,1.88,0,0,1,.98,40.616l2.862-1.965a1.867,1.867,0,0,1,.515-.247,1.923,1.923,0,0,1,1.114,0,1.882,1.882,0,0,1,.516.247l3.265,2.231h2.807l-.021-7.532a12.852,12.852,0,0,1-6.15-2.306,13.324,13.324,0,0,1-1.722-1.454,13.1,13.1,0,0,1-1.606-1.947,12.636,12.636,0,0,1-1.175-2.177,12.435,12.435,0,0,1-.965-4.825A12.7,12.7,0,0,1,14.121,8q.294-.607.646-1.186T15.524,5.7q.405-.543.861-1.047t.957-.961a1.3,1.3,0,0,1,2.1.531A1.306,1.306,0,0,1,19.4,5.2a1.292,1.292,0,0,1-.3.416,11.6,11.6,0,0,0-.92.94,11.7,11.7,0,0,0-1.492,2.153,11.369,11.369,0,0,0-.552,1.183,1.3,1.3,0,0,1-1.407.8,10.107,10.107,0,0,0-11.71,9.966,9.841,9.841,0,0,0,.768,3.829,10.058,10.058,0,0,0,.936,1.73A10.474,10.474,0,0,0,6,27.764a10.663,10.663,0,0,0,1.593,1.313,10.337,10.337,0,0,0,1.784.961,10.222,10.222,0,0,0,1.93.59,10.334,10.334,0,0,0,2.032.2H39.512a9.033,9.033,0,0,0,1.694-.16,8.947,8.947,0,0,0,5.571-3.552,8.593,8.593,0,0,0,.838-1.441,8.517,8.517,0,0,0,.766-3.234,8.807,8.807,0,0,0-.111-1.768,8.591,8.591,0,0,0-1.246-3.239,8.908,8.908,0,0,0-2.449-2.527,8.618,8.618,0,0,0-3.181-1.341,8.937,8.937,0,0,0-1.76-.174h-.067a1.3,1.3,0,0,1-1.282-1.09,11.436,11.436,0,0,0-.5-1.957A11.584,11.584,0,0,0,26.86,2.6q-.48,0-.956.039t-.946.118q-.47.079-.932.2t-.915.273a1.294,1.294,0,0,1-.992-.061,1.3,1.3,0,0,1-.3-2.138A1.291,1.291,0,0,1,22.26.768q.555-.191,1.122-.335t1.143-.24Q25.1.1,25.684.048T26.856,0A14.171,14.171,0,0,1,36.08,3.422a14.248,14.248,0,0,1,3.868,5.324,14.084,14.084,0,0,1,.687,2.1,11.394,11.394,0,0,1,2,.351A11.167,11.167,0,0,1,46.238,12.9a11.455,11.455,0,0,1,1.543,1.332,11.277,11.277,0,0,1,1.419,1.8,11.42,11.42,0,0,1,1.623,4.223,11.186,11.186,0,0,1-.145,4.445,11.1,11.1,0,0,1-1.79,3.917,11.459,11.459,0,0,1-1.452,1.656,11.6,11.6,0,0,1-1.73,1.345,11.482,11.482,0,0,1-4.01,1.589,11.644,11.644,0,0,1-2.184.206H39.4l0,7.466h2.807Zm4.33,2.414,1.64-1.122-1.639-1.123L44.9,42.175ZM25.739,44.361l1.122-1.635L25.733,41.09l-1.122,1.636ZM4.922,41.052,3.286,42.175,4.93,43.3l1.635-1.122Z" transform="translate(0 0)"/>
  </g>
</svg>
