<?xml version="1.0" encoding="UTF-8" standalone="no"?>
<svg
   width="271"
   height="48"
   viewBox="0 0 271 48"
   version="1.1"
   id="svg33"
   sodipodi:docname="flogo.svg"
   inkscape:version="1.1.1 (c3084ef, 2021-09-22)"
   xmlns:inkscape="http://www.inkscape.org/namespaces/inkscape"
   xmlns:sodipodi="http://sodipodi.sourceforge.net/DTD/sodipodi-0.dtd"
   xmlns="http://www.w3.org/2000/svg"
   xmlns:svg="http://www.w3.org/2000/svg">
  <sodipodi:namedview
     id="namedview35"
     pagecolor="#ffffff"
     bordercolor="#666666"
     borderopacity="1.0"
     inkscape:pageshadow="2"
     inkscape:pageopacity="0.0"
     inkscape:pagecheckerboard="0"
     showgrid="false"
     inkscape:zoom="4.1586716"
     inkscape:cx="135.5"
     inkscape:cy="24.04614"
     inkscape:window-width="1296"
     inkscape:window-height="788"
     inkscape:window-x="0"
     inkscape:window-y="25"
     inkscape:window-maximized="0"
     inkscape:current-layer="svg33" />
  <defs
     id="defs5">
    <clipPath
       id="a">
      <rect
         width="271"
         height="48"
         transform="translate(0 6.129)"
         fill="#fff"
         stroke="#707070"
         stroke-width="1"
         id="rect2" />
    </clipPath>
  </defs>
  <path
     d="M 19.19,4.302 A 19.19,19.19 0 1 0 38.38,23.492 19.2,19.2 0 0 0 19.19,4.302 Z m 7.3,26.467 a 10.329,10.329 0 1 1 0,-14.608 10.313,10.313 0 0 1 0.004,14.608 z"
     fill="#1138a5"
     id="path7" />
  <path
     d="M 38.619461,4.9480016 V 23.276002 a 19.215,19.215 0 0 1 -8.84,16.171 v -27.087 a 8.294,8.294 0 0 1 1.159,-4.2310004 c 0.027,-0.054 0.054,-0.081 0.081,-0.135 a 8.062,8.062 0 0 1 6.819,-3.827 v 0 a 0.782,0.782 0 0 1 0.781,0.781 z"
     fill="#62ba9e"
     id="path9" />
  <g
     transform="translate(47.374,7.266)"
     id="g27">
    <path
       d="m 197.38,41.45 c 0.7,-1.59 1.4,-3.18 2.156,-4.744 a 1.665,1.665 0 0 0 0,-1.59 q -4.609,-10.43 -9.191,-20.915 c -0.108,-0.27 -0.243,-0.566 -0.377,-0.836 -0.27,-0.512 -0.216,-0.755 0.458,-0.755 2.264,0.027 4.5,0.027 6.765,0 a 1.091,1.091 0 0 1 1.186,0.809 q 2.507,6.428 5.067,12.856 c 0.108,0.3 0.27,0.593 0.458,1.024 1.725,-4.663 3.4,-9.164 5.013,-13.691 a 1.248,1.248 0 0 1 1.428,-1.024 c 2.156,0.081 4.312,0.054 6.468,0 0.755,-0.027 0.755,0.189 0.485,0.782 l -8.086,19 -3.638,8.571 a 2.564,2.564 0 0 0 -0.108,0.485 c -2.72,0.028 -5.388,0.028 -8.084,0.028 z"
       transform="translate(-73.368,-4.687)"
       fill="#1c44b2"
       id="path11" />
    <path
       d="m 94.9,15.294 a 9.084,9.084 0 0 1 7.088,-4.151 8.746,8.746 0 0 1 9.837,7.816 20.768,20.768 0 0 1 0.216,2.884 c 0,4.258 -0.027,8.49 0.027,12.748 0,0.862 -0.243,1.051 -1.078,1.024 q -2.83,-0.081 -5.66,0 c -0.7,0.027 -0.836,-0.216 -0.809,-0.862 q 0.04,-6.064 0,-12.128 a 6.123,6.123 0 0 0 -0.647,-3.1 4.755,4.755 0 0 0 -5.2,-2.183 4.51,4.51 0 0 0 -3.558,3.665 11.986,11.986 0 0 0 -0.216,2.587 c 0,3.665 -0.027,7.358 0.027,11.023 0,0.809 -0.243,1 -1,0.97 -1.914,-0.054 -3.827,-0.027 -5.741,0 -0.566,0 -0.755,-0.135 -0.755,-0.728 0.027,-10.242 0.027,-20.456 0,-30.7 0,-0.485 0.081,-0.728 0.647,-0.728 2.048,0.027 4.1,0.054 6.145,0 0.782,-0.027 0.674,0.431 0.674,0.889 z"
       transform="translate(-59.349,-3.434)"
       fill="#1c44b2"
       id="path13" />
    <path
       d="m 73.414,13.713 c -1.078,0 -2.156,-0.027 -3.234,0 -0.62,0.027 -0.862,-0.162 -1.024,-0.782 a 3.359,3.359 0 0 0 -4.231,-2.426 2.41,2.41 0 0 0 -1.941,1.941 2.8,2.8 0 0 0 1.024,2.854 15.141,15.141 0 0 0 4.555,2.075 c 1.321,0.485 2.641,0.97 3.935,1.536 A 8.383,8.383 0 0 1 78,27.4 8.5,8.5 0 0 1 71.8,35.324 15.062,15.062 0 0 1 59.618,34.138 8.858,8.858 0 0 1 55.06,27.3 c -0.081,-0.647 0.027,-0.889 0.755,-0.862 2.129,0.054 4.231,0.027 6.361,0 a 0.8,0.8 0 0 1 0.943,0.728 3.685,3.685 0 0 0 4.339,2.965 2.527,2.527 0 0 0 2.342,-1.756 2.794,2.794 0 0 0 -0.674,-3.046 8.858,8.858 0 0 0 -3.234,-1.779 c -1.887,-0.7 -3.8,-1.321 -5.633,-2.129 -3.638,-1.617 -5.5,-4.366 -5.363,-8.355 0.108,-3.612 2.183,-6.441 6.037,-7.681 4.42,-1.428 8.84,-1.294 12.829,1.455 a 8.777,8.777 0 0 1 3.638,6.226 c 0.081,0.512 -0.081,0.647 -0.539,0.647 -1.161,-0.027 -2.288,0 -3.447,0 z"
       transform="translate(-54.891,-3.578)"
       fill="#1c44b2"
       id="path15" />
    <path
       d="m 277.508,35.6 c -2.749,0 -5.471,-0.027 -8.193,0.027 -0.647,0 -0.862,-0.4 -1.159,-0.809 -2.1,-2.938 -4.178,-5.9 -6.28,-8.84 a 4.2,4.2 0 0 0 -0.4,-0.431 v 9.244 c 0,0.458 0.027,0.836 -0.647,0.836 -2.048,-0.027 -4.1,-0.027 -6.172,0 -0.862,0.027 -0.647,-0.566 -0.647,-1.024 V 10.828 c 0,-2.129 0.027,-4.285 -0.027,-6.415 0,-0.674 0.162,-0.943 0.889,-0.916 q 2.83,0.081 5.66,0 c 0.755,-0.027 0.97,0.189 0.97,0.943 -0.027,5.121 -0.027,10.242 -0.027,15.336 v 1.24 c 1.4,-1.833 2.641,-3.477 3.881,-5.121 1,-1.321 1.967,-2.614 2.965,-3.935 0.189,-0.27 0.377,-0.566 0.782,-0.566 h 8.463 c -1.321,1.644 -2.507,3.126 -3.692,4.582 -1.86,2.318 -3.719,4.663 -5.633,6.954 a 0.735,0.735 0 0 0 0,1.159 c 2.965,3.5 5.875,7.061 8.813,10.592 0.158,0.242 0.535,0.431 0.454,0.919 z"
       transform="translate(-82.155,-3.442)"
       fill="#62ba9e"
       id="path17" />
    <path
       d="m 225.776,20.507 c 0,-4.77 0.027,-9.568 -0.027,-14.338 0,-0.836 0.243,-1.078 1.078,-1.078 5.741,0.027 11.508,0.027 17.249,0 0.809,0 1.024,0.243 1,1.024 -0.054,1.375 -0.054,2.749 0,4.1 0.027,0.728 -0.243,0.889 -0.916,0.889 -3.288,-0.027 -6.6,0 -9.891,-0.027 -0.755,0 -1.078,0.135 -1.051,0.97 0.081,1.455 0.054,2.938 0,4.42 -0.027,0.782 0.243,0.943 1,0.943 2.857,-0.027 5.714,0 8.571,-0.027 0.7,0 0.943,0.189 0.916,0.889 -0.054,1.348 -0.054,2.668 0,4.016 0.027,0.7 -0.243,0.836 -0.862,0.836 -2.857,-0.027 -5.714,0.027 -8.571,-0.027 -0.782,0 -1.051,0.189 -1.024,1 0.054,1.59 0.054,3.207 0,4.824 -0.027,0.7 0.189,0.916 0.916,0.916 3.342,-0.027 6.657,0 10,-0.027 0.755,0 1,0.216 0.97,0.97 -0.054,1.428 -0.027,2.884 0,4.312 0,0.539 -0.135,0.755 -0.728,0.755 q -8.935,-0.04 -17.869,0 c -0.835,0 -0.728,-0.485 -0.728,-0.97 -0.033,-4.803 -0.033,-9.577 -0.033,-14.37 z"
       transform="translate(-78.289,-3.661)"
       fill="#62ba9e"
       id="path19" />
    <path
       d="m 165.114,16.6 c 0.4,-0.162 0.458,-0.485 0.647,-0.7 2.237,-3.019 5.336,-3.908 8.921,-3.423 3.638,0.485 5.9,2.668 7.007,6.091 a 14.163,14.163 0 0 1 0.62,4.258 c 0,4.366 -0.027,8.759 0.027,13.126 0,0.7 -0.162,0.916 -0.889,0.889 q -2.83,-0.081 -5.66,0 c -0.782,0.027 -1.024,-0.162 -1,-0.97 0.054,-4.07 0.027,-8.166 0.027,-12.236 0,-2.56 -1.186,-4.447 -3.288,-4.932 -3.423,-0.809 -6.2,0.889 -6.307,4.824 -0.135,4.1 -0.054,8.22 -0.027,12.317 0,0.809 -0.243,1 -1,0.97 -1.914,-0.054 -3.827,-0.027 -5.741,0 -0.566,0 -0.755,-0.135 -0.755,-0.728 0.027,-7.573 0.027,-15.174 0,-22.747 0,-0.566 0.189,-0.755 0.755,-0.755 q 3.032,0.04 6.064,0 c 0.512,0 0.7,0.162 0.7,0.674 a 27.526,27.526 0 0 0 -0.101,3.342 z"
       transform="translate(-68.971,-4.654)"
       fill="#1c44b2"
       id="path21" />
    <path
       d="m 139.205,32.951 c -2.4,3.45 -5.66,4.528 -9.568,4.016 -4.1,-0.539 -7.088,-3.935 -7.385,-8.436 -0.27,-4.231 -0.081,-8.49 -0.081,-12.721 0,-1.024 -0.458,-2.345 0.216,-2.992 0.62,-0.593 1.914,-0.135 2.938,-0.162 1.051,-0.027 2.1,0.054 3.126,-0.027 0.889,-0.054 1.213,0.189 1.186,1.132 -0.054,3.773 -0.027,7.546 -0.027,11.347 a 8.8,8.8 0 0 0 0.323,2.776 4.166,4.166 0 0 0 4.258,3.046 c 2.372,0.027 3.989,-0.97 4.636,-2.938 a 8.116,8.116 0 0 0 0.4,-2.668 c 0,-3.908 0.027,-7.816 -0.027,-11.724 0,-0.755 0.189,-0.97 0.943,-0.943 1.941,0.054 3.908,0.027 5.849,0 0.566,0 0.755,0.162 0.755,0.728 -0.027,7.6 -0.027,15.174 0,22.774 0,0.593 -0.216,0.728 -0.755,0.7 -2.021,-0.027 -4.043,-0.054 -6.064,0 -0.674,0.027 -0.782,-0.243 -0.755,-0.809 0.059,-1.05 0.032,-2.075 0.032,-3.099 z"
       transform="translate(-64.084,-4.677)"
       fill="#1c44b2"
       id="path23" />
    <path
       d="m 309.883,27.314 c 0,-4.582 -0.027,-9.164 0.027,-13.745 0,-0.809 -0.243,-1.024 -1.024,-1 -1.887,0.054 -3.773,0.027 -5.66,0 -0.62,0 -0.836,0.189 -0.836,0.809 0.027,0.97 0,1.967 0,3.18 a 12.877,12.877 0 0 0 -2.075,-2.453 9.983,9.983 0 0 0 -12.371,0.7 12.069,12.069 0 0 0 -3.692,7.816 c -0.4,3.962 0.135,7.735 2.722,11 a 9.9,9.9 0 0 0 13.26,1.725 15.211,15.211 0 0 0 2.156,-2.453 c 0,1.159 0.054,2.048 -0.027,2.938 -0.081,0.836 0.27,1 1.024,0.97 1.806,-0.054 3.638,-0.054 5.444,0 0.782,0.027 1.051,-0.162 1.024,-0.97 10e-4,-2.831 0.028,-5.687 0.028,-8.517 z m -8.49,1.105 a 5.275,5.275 0 0 1 -5.795,1.967 5.087,5.087 0 0 1 -3.719,-4.609 c -0.027,-0.377 0,-0.728 0,-1.105 -0.027,-2.938 1.186,-4.851 3.477,-5.579 a 5.256,5.256 0 0 1 7.034,4.824 6.474,6.474 0 0 1 -0.997,4.502 z"
       transform="translate(-86.284,-4.646)"
       fill="#62ba9e"
       id="path25" />
  </g>
</svg>
