<svg xmlns="http://www.w3.org/2000/svg" width="36" height="35" viewBox="0 0 36 35"><g transform="translate(-1494 -8002.67)"><g transform="translate(1494 8002.67)" fill="#fff" stroke="#000" stroke-width="1"><ellipse cx="18" cy="17.5" rx="18" ry="17.5" stroke="none"/><ellipse cx="18" cy="17.5" rx="17.5" ry="17" fill="none"/></g><path d="M7.664,5.973A3.931,3.931,0,1,0,11.594,9.9,3.924,3.924,0,0,0,7.664,5.973Zm0,6.486A2.555,2.555,0,1,1,10.219,9.9,2.56,2.56,0,0,1,7.664,12.459Zm5.008-6.647a.917.917,0,1,1-.917-.917A.915.915,0,0,1,12.672,5.812Zm2.6.931A4.537,4.537,0,0,0,14.037,3.53a4.567,4.567,0,0,0-3.212-1.238c-1.266-.072-5.06-.072-6.325,0A4.56,4.56,0,0,0,1.287,3.527,4.552,4.552,0,0,0,.049,6.739C-.023,8-.023,11.8.049,13.064a4.537,4.537,0,0,0,1.238,3.212A4.573,4.573,0,0,0,4.5,17.515c1.266.072,5.06.072,6.325,0a4.537,4.537,0,0,0,3.212-1.238,4.567,4.567,0,0,0,1.238-3.212c.072-1.266.072-5.056,0-6.322Zm-1.635,7.68a2.587,2.587,0,0,1-1.457,1.457,16.9,16.9,0,0,1-4.519.308,17.028,17.028,0,0,1-4.519-.308,2.587,2.587,0,0,1-1.457-1.457A16.9,16.9,0,0,1,1.379,9.9a17.028,17.028,0,0,1,.308-4.519A2.587,2.587,0,0,1,3.145,3.927a16.9,16.9,0,0,1,4.519-.308,17.028,17.028,0,0,1,4.519.308A2.587,2.587,0,0,1,13.64,5.384,16.9,16.9,0,0,1,13.948,9.9,16.886,16.886,0,0,1,13.64,14.422Z" transform="translate(1503.713 8010.502)"/></g></svg>