<svg xmlns="http://www.w3.org/2000/svg" width="91.992" height="88.399" viewBox="0 0 91.992 88.399"><g transform="translate(0.001)"><path d="M43.575,272.628a10.456,10.456,0,0,1,2.614.331,8.291,8.291,0,0,1,9.445-3.148,13.833,13.833,0,0,1,5.665-8.342,8.286,8.286,0,0,0-8.533-2.047,13.817,13.817,0,0,0-23.57-6.377l-2.139,3.007a13.711,13.711,0,0,0-1.35,3.89A12.405,12.405,0,0,0,13.183,280.2H33.57a10.4,10.4,0,0,1,10-7.568Zm0,0" transform="translate(-8.204 -203.983)" fill="#57a4ff"/><path d="M91.576,52.661V26.083H96L86.07,10,76.136,26.083h4.426V61.6" transform="translate(-62.457 -8.204)" fill="#62bb9f"/><path d="M204.231,329.5a12.414,12.414,0,0,0-15.7-11.737,13.709,13.709,0,0,0-1.35-3.89l-2.14-3.008a13.817,13.817,0,0,0-23.57,6.378,8.29,8.29,0,0,0-9.445,3.149,10.4,10.4,0,0,0-13.008,10.062,11.324,11.324,0,0,0,2.975,7.564h59.061a12.359,12.359,0,0,0,3.18-8.518Zm0,0" transform="translate(-114.039 -251.418)" fill="#9bdcff"/><path d="M375.867,438.528a1.732,1.732,0,0,1-.35-.034,1.809,1.809,0,0,1-.647-.267,1.825,1.825,0,0,1-.5-.5,1.716,1.716,0,0,1-.164-.31,1.776,1.776,0,0,1-.1-.335,1.826,1.826,0,0,1-.036-.352,1.788,1.788,0,0,1,.036-.35,1.707,1.707,0,0,1,.1-.336,1.683,1.683,0,0,1,.164-.311,1.886,1.886,0,0,1,.225-.273,1.737,1.737,0,0,1,.273-.222,1.8,1.8,0,0,1,.31-.166,1.855,1.855,0,0,1,.338-.1,1.787,1.787,0,0,1,1.037.1,1.736,1.736,0,0,1,.311.166,1.7,1.7,0,0,1,.273.222,1.747,1.747,0,0,1,.223.273,1.782,1.782,0,0,1,.165.311,1.8,1.8,0,0,1,.1.336,1.784,1.784,0,0,1,.036.35,1.822,1.822,0,0,1-.036.352,1.882,1.882,0,0,1-.1.335,1.821,1.821,0,0,1-.165.31,1.746,1.746,0,0,1-.223.273,1.838,1.838,0,0,1-.273.225,1.836,1.836,0,0,1-.647.267A1.723,1.723,0,0,1,375.867,438.528Zm0,0" transform="translate(-306.861 -356.79)"/><path d="M272.654,33.036A23.036,23.036,0,1,1,249.618,10,23.036,23.036,0,0,1,272.654,33.036Zm0,0" transform="translate(-185.872 -8.203)" fill="#ffde55"/><path d="M241.415,49.666a24.833,24.833,0,1,1,24.833-24.833A24.861,24.861,0,0,1,241.415,49.666Zm0-46.073a21.24,21.24,0,1,0,21.239,21.239A21.263,21.263,0,0,0,241.415,3.593Zm0,0" transform="translate(-177.669 0)"/><path d="M285.7,84.252A15.134,15.134,0,1,1,300.83,69.118,15.151,15.151,0,0,1,285.7,84.252Zm0,0" transform="translate(-221.951 -44.285)" fill="#ffde55"/><path d="M277.493,77.844a16.93,16.93,0,1,1,16.931-16.931A16.949,16.949,0,0,1,277.493,77.844Zm0-30.267A13.337,13.337,0,1,0,290.83,60.914,13.351,13.351,0,0,0,277.493,47.577Zm0,0" transform="translate(-213.747 -36.081)"/><path d="M334.3,107.788c-2.372-.079-4.309-1.3-4.309-2.569,0-.672.593-1.66,1.344-1.66.83,0,1.5,1.166,2.965,1.423v-3.2c-1.818-.692-3.953-1.542-3.953-4.071,0-2.51,1.858-3.716,3.953-4.012v-.553c0-.277.316-.534.751-.534.375,0,.751.257.751.534v.494c1.225.039,3.537.356,3.537,1.72,0,.533-.355,1.621-1.225,1.621-.653,0-1.028-.632-2.313-.731v2.885c1.8.672,3.893,1.6,3.893,4.269a4.2,4.2,0,0,1-3.893,4.309v.573c0,.277-.375.534-.751.534-.435,0-.751-.258-.751-.534Zm.2-9.131V96.305c-.889.178-1.265.632-1.265,1.107C333.234,97.986,333.747,98.341,334.5,98.657Zm1.107,3.657v2.648c.672-.158,1.206-.533,1.206-1.245C336.811,103.065,336.317,102.65,335.605,102.314Zm0,0" transform="translate(-270.703 -75.97)"/><path d="M91.989,78.053a14.255,14.255,0,0,0-14.2-13.947H77.74a14.194,14.194,0,0,0-1.924.137,15.5,15.5,0,0,0-1.087-2.622,1.791,1.791,0,0,0-.126-.2l-2.14-3.008a1.754,1.754,0,0,0-.152-.186,15.61,15.61,0,0,0-19.129-2.908,9.529,9.529,0,0,0-5.994-2.1,10.1,10.1,0,0,0-1.375.094A15.615,15.615,0,0,0,31.088,42.881h-.172V19.677h2.629a1.8,1.8,0,0,0,1.529-2.741L25.14.853a1.8,1.8,0,0,0-3.057,0L12.15,16.936a1.8,1.8,0,0,0,1.529,2.741h2.629V53.394c0,.016,0,.032,0,.048q-.069.205-.134.411a14.408,14.408,0,0,0-1.924-.137H14.2a14.2,14.2,0,0,0-10.556,23.7,1.8,1.8,0,0,0,1.336.594H23.223q-.042.51-.043,1.03a13.2,13.2,0,0,0,3.444,8.774,1.8,1.8,0,0,0,1.328.586h59.06a1.8,1.8,0,0,0,1.336-.594,14.157,14.157,0,0,0,3.642-9.751ZM21.9,19.677a1.8,1.8,0,1,0,0-3.593h-5L23.612,5.216l6.711,10.867h-1.2a1.8,1.8,0,0,0-1.8,1.8V43.345A15.68,15.68,0,0,0,19.9,47.6V19.676ZM5.817,74.415A10.607,10.607,0,0,1,14.2,57.31h.039a10.622,10.622,0,0,1,2.786.38,1.8,1.8,0,0,0,2.244-1.4,11.924,11.924,0,0,1,1.119-3.278l2-2.805a12.02,12.02,0,0,1,20.425,5.631,1.8,1.8,0,0,0,2.321,1.308,6.5,6.5,0,0,1,2.059-.335,5.872,5.872,0,0,1,2.948.772,15.725,15.725,0,0,0-3.96,6.118,10.085,10.085,0,0,0-8.917,3.3,12.341,12.341,0,0,0-1.89-.146,12.211,12.211,0,0,0-11.28,7.567Zm80.358,10.39H28.787a9.735,9.735,0,0,1-1.6-3.066H61.28a1.8,1.8,0,0,0,0-3.593H26.82a8.606,8.606,0,0,1,10.715-7.43A1.8,1.8,0,0,0,39.461,70a6.492,6.492,0,0,1,7.4-2.468,1.8,1.8,0,0,0,2.321-1.308,12.02,12.02,0,0,1,20.426-5.631l2,2.805a11.924,11.924,0,0,1,1.119,3.278,1.8,1.8,0,0,0,2.244,1.4,10.647,10.647,0,0,1,2.786-.38h.038a10.607,10.607,0,0,1,8.384,17.106Zm0,0" transform="translate(0 0)"/></g></svg>