<svg xmlns="http://www.w3.org/2000/svg" width="117.333" height="117.333" viewBox="0 0 117.333 117.333"><g transform="translate(-8.667 -8.667)"><g transform="translate(8.667 8.667)"><rect width="78.123" height="23.347" rx="2" transform="translate(2.095 33.524)" fill="#caf5fd"/><path d="M48.733,22.911V38.556a3.923,3.923,0,0,1-3.911,3.911H37a3.923,3.923,0,0,0,3.911-3.911V22.911A3.923,3.923,0,0,0,37,19h7.822a3.923,3.923,0,0,1,3.911,3.911Z" transform="translate(31.445 14.244)" fill="#2488ff"/><path d="M33,31H44.733v7.822H33Z" transform="translate(27.622 25.711)" fill="#acabb1"/><path d="M33,15H44.733v7.822H33Z" transform="translate(27.622 10.422)" fill="#acabb1"/><path d="M36,15h5.867v7.822H36Z" transform="translate(30.489 10.422)" fill="#898890"/><path d="M36,31h5.867v7.822H36Z" transform="translate(30.489 25.711)" fill="#898890"/><rect width="78.123" height="23.347" rx="2" transform="translate(2.095 64.952)" fill="#caf5fd"/><path d="M48.733,38.911V54.556a3.923,3.923,0,0,1-3.911,3.911H37a3.923,3.923,0,0,0,3.911-3.911V38.911A3.923,3.923,0,0,0,37,35h7.822A3.923,3.923,0,0,1,48.733,38.911Z" transform="translate(31.445 29.533)" fill="#2488ff"/><path d="M15,39h7.822v7.822H15Z" transform="translate(10.422 33.356)" fill="#00b6bd"/><path d="M15,23h7.822v7.822H15Z" transform="translate(10.422 18.067)" fill="#00b6bd"/><rect width="78.123" height="23.347" rx="2" transform="translate(2.095 2.095)" fill="#caf5fd"/><path d="M48.733,6.911V22.556a3.923,3.923,0,0,1-3.911,3.911H37a3.923,3.923,0,0,0,3.911-3.911V6.911A3.923,3.923,0,0,0,37,3h7.822a3.923,3.923,0,0,1,3.911,3.911Z" transform="translate(31.445 -1.044)" fill="#8dccd8"/><path d="M15,7h7.822v7.822H15Z" transform="translate(10.422 2.778)" fill="#00b6bd"/><path d="M7,31H18.733v7.822H7Z" transform="translate(2.778 25.711)" fill="#acabb1"/><path d="M7,15H18.733v7.822H7Z" transform="translate(2.778 10.422)" fill="#acabb1"/><path d="M10,15h5.867v7.822H10Z" transform="translate(5.644 10.422)" fill="#898890"/><path d="M10,31h5.867v7.822H10Z" transform="translate(5.644 25.711)" fill="#898890"/><path d="M7,39h7.822v7.822H7Z" transform="translate(2.778 33.356)" fill="#ff7956"/><path d="M7,23h7.822v7.822H7Z" transform="translate(2.778 18.067)" fill="#ff7956"/><path d="M7,7h7.822v7.822H7Z" transform="translate(2.778 2.778)" fill="#ff7956"/><path d="M95.4,46V65.556c0,5.4-15.762,9.778-35.2,9.778S25,70.953,25,65.556V46c0,5.4,15.762,9.778,35.2,9.778S95.4,51.4,95.4,46Z" transform="translate(19.978 40.045)" fill="#ffde55"/><path d="M95.4,36V55.556c0,5.4-15.762,9.778-35.2,9.778S25,60.953,25,55.556V36c0,5.4,15.762,9.778,35.2,9.778S95.4,41.4,95.4,36Z" transform="translate(19.978 30.489)" fill="#ffde55"/><path d="M95.4,26V45.556c0,5.4-15.762,9.778-35.2,9.778S25,50.953,25,45.556V26c0,5.4,15.762,9.778,35.2,9.778S95.4,31.4,95.4,26Z" transform="translate(19.978 20.933)" fill="#ffde55"/><g transform="translate(45.197 37.116)"><ellipse cx="35.02" cy="9.878" rx="35.02" ry="9.878" transform="translate(0 0)" fill="#ffcd00"/><path d="M80.111,46V65.556c0,5.4-15.762,9.778-35.2,9.778-1.33,0-2.62-.02-3.911-.078,17.6-.528,31.289-4.674,31.289-9.7V52.14C77.178,50.459,80.111,48.327,80.111,46Z" transform="translate(-9.931 2.929)" fill="#ffcd00"/><path d="M80.111,36V55.556c0,2.327-2.933,4.459-7.822,6.14a90.169,90.169,0,0,1-27.378,3.637c-1.33,0-2.62-.02-3.911-.078,17.6-.528,31.289-4.674,31.289-9.7V42.14C77.178,40.459,80.111,38.327,80.111,36Z" transform="translate(-9.931 -6.627)" fill="#ffcd00"/><path d="M80.111,26V45.556c0,2.327-2.933,4.459-7.822,6.14a90.169,90.169,0,0,1-27.378,3.637c-1.33,0-2.62-.02-3.911-.078,17.6-.528,31.289-4.674,31.289-9.7V32.14C77.178,30.459,80.111,28.327,80.111,26Z" transform="translate(-9.931 -16.182)" fill="#ffcd00"/></g><path d="M80.111,30.778c0,2.327-2.933,4.459-7.822,6.14a90.169,90.169,0,0,1-27.378,3.637c-1.33,0-2.62-.02-3.911-.078,17.6-.528,31.289-4.674,31.289-9.7S58.6,21.606,41,21.078C42.291,21.02,43.581,21,44.911,21,64.349,21,80.111,25.38,80.111,30.778Z" transform="translate(35.267 16.156)" fill="#ebbf00"/><path d="M72.289,46v6.14a90.169,90.169,0,0,1-27.378,3.637c-1.33,0-2.62-.02-3.911-.078C58.6,55.172,72.289,51.026,72.289,46Z" transform="translate(35.267 40.045)" fill="#ffde55"/><path d="M72.289,36v6.14a90.169,90.169,0,0,1-27.378,3.637c-1.33,0-2.62-.02-3.911-.078C58.6,45.172,72.289,41.026,72.289,36Z" transform="translate(35.267 30.489)" fill="#ffde55"/><path d="M83.781,37.22a5.839,5.839,0,0,0-5.515-3.931H76.311V29.378h1.956a5.884,5.884,0,0,0,5.867-5.867V7.867A5.884,5.884,0,0,0,78.267,2H7.867A5.884,5.884,0,0,0,2,7.867V23.511a5.884,5.884,0,0,0,5.867,5.867H9.822v3.911H7.867A5.884,5.884,0,0,0,2,39.156V54.8a5.884,5.884,0,0,0,5.867,5.867H9.822v3.911H7.867A5.884,5.884,0,0,0,2,70.445V86.089a5.884,5.884,0,0,0,5.867,5.867H45.022V107.6c0,7.7,18.7,11.733,37.156,11.733s37.156-4.028,37.156-11.733V48.933C119.333,41.444,101.714,37.454,83.781,37.22ZM7.867,25.467a1.956,1.956,0,0,1-1.956-1.956V7.867A1.956,1.956,0,0,1,7.867,5.911h70.4a1.956,1.956,0,0,1,1.956,1.956V23.511a1.956,1.956,0,0,1-1.956,1.956ZM72.4,29.378v3.911H64.578V29.378Zm-11.733,0v3.911h-35.2V29.378Zm-39.111,0v3.911H13.733V29.378ZM45.022,88.045H7.867a1.956,1.956,0,0,1-1.956-1.956V70.445a1.956,1.956,0,0,1,1.956-1.956H45.022ZM13.733,64.578V60.667h7.822v3.911Zm31.289,0H25.467V60.667H45.022Zm0-15.644v7.822H7.867A1.956,1.956,0,0,1,5.911,54.8V39.156A1.956,1.956,0,0,1,7.867,37.2h70.4a1.369,1.369,0,0,1,.274.059C61.332,37.748,45.022,41.737,45.022,48.933Zm70.4,58.667c0,2.66-11.733,7.822-33.244,7.822S48.933,110.26,48.933,107.6V93.559c6.434,4.087,19.868,6.219,33.244,6.219s26.811-2.132,33.244-6.219Zm0-19.556c0,2.66-11.733,7.822-33.244,7.822S48.933,90.7,48.933,88.045V74c6.434,4.087,19.868,6.219,33.244,6.219S108.989,78.091,115.422,74Zm0-19.556c0,2.66-11.733,7.822-33.244,7.822s-33.244-5.163-33.244-7.822V54.448c6.434,4.087,19.868,6.219,33.244,6.219s26.811-2.132,33.244-6.219ZM82.178,56.756c-21.511,0-33.244-5.163-33.244-7.822s11.733-7.822,33.244-7.822,33.244,5.163,33.244,7.822S103.689,56.756,82.178,56.756Z" transform="translate(-2 -2)"/><path d="M42,35h3.911v3.911H42Z" transform="translate(36.222 29.533)"/><path d="M42,46h3.911v3.911H42Z" transform="translate(36.222 40.045)"/><path d="M42,55h3.911v3.911H42Z" transform="translate(36.222 48.645)"/><path d="M15.778,22H7.956A1.956,1.956,0,0,0,6,23.956v7.822a1.956,1.956,0,0,0,1.956,1.956h7.822a1.956,1.956,0,0,0,1.956-1.956V23.956A1.956,1.956,0,0,0,15.778,22Zm-1.956,7.822H9.911V25.911h3.911Z" transform="translate(1.822 17.111)"/><path d="M23.778,22H15.956A1.956,1.956,0,0,0,14,23.956v7.822a1.956,1.956,0,0,0,1.956,1.956h7.822a1.956,1.956,0,0,0,1.956-1.956V23.956A1.956,1.956,0,0,0,23.778,22Zm-1.956,7.822H17.911V25.911h3.911Z" transform="translate(9.467 17.111)"/><path d="M15.778,6H7.956A1.956,1.956,0,0,0,6,7.956v7.822a1.956,1.956,0,0,0,1.956,1.956h7.822a1.956,1.956,0,0,0,1.956-1.956V7.956A1.956,1.956,0,0,0,15.778,6Zm-1.956,7.822H9.911V9.911h3.911Z" transform="translate(1.822 1.822)"/><path d="M23.778,6H15.956A1.956,1.956,0,0,0,14,7.956v7.822a1.956,1.956,0,0,0,1.956,1.956h7.822a1.956,1.956,0,0,0,1.956-1.956V7.956A1.956,1.956,0,0,0,23.778,6Zm-1.956,7.822H17.911V9.911h3.911Z" transform="translate(9.467 1.822)"/><path d="M22,6H49.378V9.911H22Z" transform="translate(17.111 1.822)"/><path d="M38,6h3.911V9.911H38Z" transform="translate(32.4 1.822)"/><path d="M22,10H49.378v3.911H22Z" transform="translate(17.111 5.644)"/><path d="M38,10h3.911v3.911H38Z" transform="translate(32.4 5.644)"/><path d="M15.778,38H7.956A1.956,1.956,0,0,0,6,39.956v7.822a1.956,1.956,0,0,0,1.956,1.956h7.822a1.956,1.956,0,0,0,1.956-1.956V39.956A1.956,1.956,0,0,0,15.778,38Zm-1.956,7.822H9.911V41.911h3.911Z" transform="translate(1.822 32.4)"/><path d="M23.778,38H15.956A1.956,1.956,0,0,0,14,39.956v7.822a1.956,1.956,0,0,0,1.956,1.956h7.822a1.956,1.956,0,0,0,1.956-1.956V39.956A1.956,1.956,0,0,0,23.778,38Zm-1.956,7.822H17.911V41.911h3.911Z" transform="translate(9.467 32.4)"/></g></g></svg>