<svg xmlns="http://www.w3.org/2000/svg" width="35" height="35" viewBox="0 0 35 35"><g transform="translate(-1446 -8002.67)"><g transform="translate(1446 8002.67)" fill="#fff" stroke="#000" stroke-width="1"><circle cx="17.5" cy="17.5" r="17.5" stroke="none"/><circle cx="17.5" cy="17.5" r="17" fill="none"/></g><path d="M3.073,13.729H.227V4.563H3.073ZM1.648,3.313A1.656,1.656,0,1,1,3.3,1.649,1.662,1.662,0,0,1,1.648,3.313ZM13.726,13.729h-2.84V9.267c0-1.063-.021-2.427-1.48-2.427C7.926,6.84,7.7,8,7.7,9.191v4.538H4.856V4.563h2.73v1.25h.04a2.991,2.991,0,0,1,2.693-1.48c2.881,0,3.41,1.9,3.41,4.361v5.035Z" transform="translate(1457.051 8013.088)"/></g></svg>