<?xml version="1.0" encoding="UTF-8" standalone="no"?>
<svg
   width="314"
   height="56"
   viewBox="0 0 314 56"
   version="1.1"
   id="svg31"
   sodipodi:docname="logo.svg"
   inkscape:version="1.1.1 (c3084ef, 2021-09-22)"
   xmlns:inkscape="http://www.inkscape.org/namespaces/inkscape"
   xmlns:sodipodi="http://sodipodi.sourceforge.net/DTD/sodipodi-0.dtd"
   xmlns="http://www.w3.org/2000/svg"
   xmlns:svg="http://www.w3.org/2000/svg">
  <sodipodi:namedview
     id="namedview33"
     pagecolor="#ffffff"
     bordercolor="#666666"
     borderopacity="1.0"
     inkscape:pageshadow="2"
     inkscape:pageopacity="0.0"
     inkscape:pagecheckerboard="0"
     showgrid="false"
     inkscape:zoom="3.589172"
     inkscape:cx="157"
     inkscape:cy="28.000887"
     inkscape:window-width="1440"
     inkscape:window-height="787"
     inkscape:window-x="0"
     inkscape:window-y="25"
     inkscape:window-maximized="0"
     inkscape:current-layer="svg31" />
  <defs
     id="defs5">
    <clipPath
       id="a">
      <rect
         width="314"
         height="56"
         transform="translate(0 6.129)"
         fill="#fff"
         stroke="#707070"
         stroke-width="1"
         id="rect2" />
    </clipPath>
  </defs>
  <g
     id="g73">
    <path
       d="M 22.235,4.985 A 22.235,22.235 0 1 0 44.469,27.22 22.244,22.244 0 0 0 22.235,4.985 Z M 30.7,35.651 a 11.968,11.968 0 1 1 0,-16.926 11.95,11.95 0 0 1 0,16.926 z"
       fill="#1138a5"
       id="path7" />
    <path
       d="M 44.469,6.0106105 V 27.24861 a 22.264,22.264 0 0 1 -10.243,18.734 v -31.385 a 9.61,9.61 0 0 1 1.343,-4.8999995 c 0.031,-0.062 0.062,-0.094 0.094,-0.156 a 9.341,9.341 0 0 1 7.9,-4.434 v 0 a 0.906,0.906 0 0 1 0.906,0.903 z"
       fill="#62ba9e"
       id="path9" />
    <path
       d="m 198.58,51.015 c 0.812,-1.842 1.624,-3.685 2.5,-5.5 a 1.929,1.929 0 0 0 0,-1.842 Q 195.74,31.588 190.431,19.44 c -0.125,-0.312 -0.281,-0.656 -0.437,-0.968 -0.312,-0.593 -0.25,-0.874 0.531,-0.874 2.623,0.031 5.215,0.031 7.838,0 a 1.265,1.265 0 0 1 1.374,0.937 q 2.9,7.448 5.871,14.9 c 0.125,0.344 0.312,0.687 0.531,1.187 2,-5.4 3.935,-10.618 5.808,-15.864 a 1.446,1.446 0 0 1 1.655,-1.187 c 2.5,0.094 5,0.062 7.495,0 0.874,-0.031 0.874,0.219 0.562,0.906 l -9.369,22.015 -4.216,9.931 a 2.97,2.97 0 0 0 -0.125,0.562 c -3.154,0.03 -6.249,0.03 -9.369,0.03 z"
       fill="#1c44b2"
       id="path11" />
    <path
       d="m 96.089,22.161 a 10.526,10.526 0 0 1 8.213,-4.809 c 6,-0.5 10.524,3.123 11.4,9.056 a 24.064,24.064 0 0 1 0.25,3.341 c 0,4.934 -0.031,9.837 0.031,14.771 0,1 -0.281,1.218 -1.249,1.187 q -3.279,-0.094 -6.558,0 c -0.812,0.031 -0.968,-0.25 -0.937,-1 q 0.047,-7.026 0,-14.053 a 7.094,7.094 0 0 0 -0.749,-3.591 5.51,5.51 0 0 0 -6.027,-2.529 5.226,5.226 0 0 0 -4.124,4.251 13.888,13.888 0 0 0 -0.25,3 c 0,4.247 -0.031,8.525 0.031,12.772 0,0.937 -0.281,1.155 -1.155,1.124 -2.217,-0.062 -4.434,-0.031 -6.652,0 -0.656,0 -0.874,-0.156 -0.874,-0.843 0.031,-11.867 0.031,-23.7 0,-35.569 0,-0.562 0.094,-0.843 0.749,-0.843 2.373,0.031 4.747,0.062 7.12,0 0.906,-0.031 0.781,0.5 0.781,1.031 z"
       fill="#1c44b2"
       id="path13" />
    <path
       d="m 76.353,20.162 c -1.249,0 -2.5,-0.031 -3.747,0 -0.718,0.031 -1,-0.187 -1.187,-0.906 a 3.891,3.891 0 0 0 -4.9,-2.811 2.792,2.792 0 0 0 -2.248,2.248 3.241,3.241 0 0 0 1.187,3.31 17.543,17.543 0 0 0 5.278,2.4 c 1.53,0.562 3.06,1.124 4.559,1.78 4.31,1.842 6.589,5.34 6.371,9.837 a 9.846,9.846 0 0 1 -7.182,9.181 17.452,17.452 0 0 1 -14.115,-1.374 10.263,10.263 0 0 1 -5.278,-7.932 c -0.094,-0.749 0.031,-1.031 0.874,-1 2.467,0.062 4.9,0.031 7.37,0 a 0.929,0.929 0 0 1 1.093,0.843 4.269,4.269 0 0 0 5.028,3.435 2.928,2.928 0 0 0 2.717,-2.03 3.237,3.237 0 0 0 -0.781,-3.529 10.264,10.264 0 0 0 -3.747,-2.061 c -2.186,-0.812 -4.4,-1.53 -6.527,-2.467 -4.216,-1.874 -6.371,-5.059 -6.214,-9.681 0.125,-4.185 2.529,-7.464 7,-8.9 5.121,-1.655 10.243,-1.5 14.865,1.686 a 10.169,10.169 0 0 1 4.216,7.214 c 0.094,0.593 -0.094,0.749 -0.625,0.749 -1.353,-0.023 -2.66,0.008 -4.007,0.008 z"
       fill="#1c44b2"
       id="path15" />
    <path
       d="m 281.242,45.675 c -3.185,0 -6.339,-0.031 -9.493,0.031 -0.749,0 -1,-0.468 -1.343,-0.937 -2.436,-3.4 -4.84,-6.839 -7.276,-10.243 a 4.87,4.87 0 0 0 -0.468,-0.5 v 10.713 c 0,0.531 0.031,0.968 -0.75,0.968 -2.373,-0.031 -4.747,-0.031 -7.151,0 -1,0.031 -0.749,-0.656 -0.749,-1.187 V 16.977 c 0,-2.467 0.031,-4.965 -0.031,-7.432 0,-0.781 0.187,-1.093 1.031,-1.062 q 3.279,0.094 6.558,0 c 0.874,-0.031 1.124,0.219 1.124,1.093 -0.031,5.933 -0.031,11.867 -0.031,17.769 v 1.44 c 1.624,-2.124 3.06,-4.028 4.5,-5.933 1.155,-1.53 2.28,-3.029 3.435,-4.559 0.219,-0.312 0.437,-0.656 0.906,-0.656 h 9.796 c -1.53,1.9 -2.9,3.622 -4.278,5.309 -2.155,2.686 -4.31,5.4 -6.527,8.057 a 0.851,0.851 0 0 0 0,1.343 c 3.435,4.06 6.808,8.182 10.212,12.273 0.193,0.276 0.628,0.494 0.535,1.056 z"
       fill="#62ba9e"
       id="path17" />
    <path
       d="m 225.78,27.938 c 0,-5.527 0.031,-11.086 -0.031,-16.613 0,-0.968 0.281,-1.249 1.249,-1.249 6.652,0.031 13.334,0.031 19.986,0 0.937,0 1.187,0.281 1.155,1.187 -0.062,1.593 -0.062,3.185 0,4.747 0.031,0.843 -0.281,1.031 -1.062,1.031 -3.81,-0.031 -7.651,0 -11.461,-0.031 -0.874,0 -1.249,0.156 -1.218,1.124 0.094,1.686 0.062,3.4 0,5.121 -0.031,0.906 0.281,1.093 1.155,1.093 3.31,-0.031 6.62,0 9.931,-0.031 0.812,0 1.093,0.219 1.062,1.031 -0.062,1.561 -0.062,3.092 0,4.653 0.031,0.812 -0.281,0.968 -1,0.968 -3.31,-0.031 -6.62,0.031 -9.931,-0.031 -0.906,0 -1.218,0.219 -1.187,1.155 0.062,1.842 0.062,3.716 0,5.59 -0.031,0.812 0.219,1.062 1.062,1.062 3.872,-0.031 7.713,0 11.586,-0.031 0.874,0 1.155,0.25 1.124,1.124 -0.062,1.655 -0.031,3.341 0,5 0,0.625 -0.156,0.874 -0.843,0.874 q -10.352,-0.047 -20.7,0 c -0.968,0 -0.843,-0.562 -0.843,-1.124 -0.034,-5.564 -0.034,-11.092 -0.034,-16.65 z"
       fill="#62ba9e"
       id="path19" />
    <path
       d="m 166.29,22.254 c 0.468,-0.187 0.531,-0.562 0.749,-0.812 2.592,-3.5 6.183,-4.528 10.337,-3.966 4.216,0.562 6.839,3.092 8.119,7.058 a 16.41,16.41 0 0 1 0.718,4.934 c 0,5.059 -0.031,10.149 0.031,15.208 0,0.812 -0.187,1.062 -1.031,1.031 q -3.279,-0.094 -6.558,0 c -0.906,0.031 -1.187,-0.187 -1.155,-1.124 0.062,-4.715 0.031,-9.462 0.031,-14.178 0,-2.967 -1.374,-5.153 -3.81,-5.715 -3.966,-0.937 -7.182,1.031 -7.307,5.59 -0.156,4.747 -0.062,9.525 -0.031,14.271 0,0.937 -0.281,1.155 -1.155,1.124 -2.217,-0.062 -4.434,-0.031 -6.652,0 -0.656,0 -0.874,-0.156 -0.874,-0.843 0.031,-8.775 0.031,-17.582 0,-26.357 0,-0.656 0.219,-0.874 0.874,-0.874 q 3.513,0.047 7.026,0 c 0.593,0 0.812,0.187 0.812,0.781 a 31.893,31.893 0 0 0 -0.124,3.872 z"
       fill="#1c44b2"
       id="path21" />
    <path
       d="m 141.932,41.179 c -2.779,4 -6.558,5.246 -11.086,4.653 -4.747,-0.625 -8.213,-4.559 -8.557,-9.774 -0.312,-4.9 -0.094,-9.837 -0.094,-14.74 0,-1.187 -0.531,-2.717 0.25,-3.466 0.718,-0.687 2.217,-0.156 3.4,-0.187 1.218,-0.031 2.436,0.062 3.622,-0.031 1.031,-0.062 1.405,0.219 1.374,1.312 -0.062,4.372 -0.031,8.744 -0.031,13.147 a 10.2,10.2 0 0 0 0.375,3.217 4.827,4.827 0 0 0 4.934,3.529 c 2.748,0.031 4.622,-1.124 5.371,-3.4 a 9.4,9.4 0 0 0 0.468,-3.092 c 0,-4.528 0.031,-9.056 -0.031,-13.584 0,-0.874 0.219,-1.124 1.093,-1.093 2.248,0.062 4.528,0.031 6.777,0 0.656,0 0.874,0.187 0.874,0.843 -0.031,8.806 -0.031,17.582 0,26.388 0,0.687 -0.25,0.843 -0.874,0.812 -2.342,-0.031 -4.684,-0.062 -7.026,0 -0.781,0.031 -0.906,-0.281 -0.874,-0.937 0.067,-1.224 0.035,-2.411 0.035,-3.597 z"
       fill="#1c44b2"
       id="path23" />
    <path
       d="m 313.969,34.685 c 0,-5.309 -0.031,-10.618 0.031,-15.926 0,-0.937 -0.281,-1.187 -1.187,-1.155 -2.186,0.062 -4.372,0.031 -6.558,0 -0.718,0 -0.968,0.219 -0.968,0.937 0.031,1.124 0,2.28 0,3.685 a 14.919,14.919 0 0 0 -2.4,-2.842 11.567,11.567 0 0 0 -14.334,0.812 13.985,13.985 0 0 0 -4.278,9.056 c -0.468,4.591 0.156,8.963 3.154,12.741 a 11.475,11.475 0 0 0 15.364,2 17.624,17.624 0 0 0 2.5,-2.842 c 0,1.343 0.062,2.373 -0.031,3.4 -0.094,0.968 0.312,1.155 1.187,1.124 2.092,-0.062 4.216,-0.062 6.308,0 0.906,0.031 1.218,-0.187 1.187,-1.124 -0.006,-3.279 0.025,-6.589 0.025,-9.866 z m -9.837,1.28 a 6.112,6.112 0 0 1 -6.714,2.28 5.894,5.894 0 0 1 -4.31,-5.34 c -0.031,-0.437 0,-0.843 0,-1.28 -0.031,-3.4 1.374,-5.621 4.028,-6.464 a 6.09,6.09 0 0 1 8.151,5.59 7.5,7.5 0 0 1 -1.155,5.212 z"
       fill="#62ba9e"
       id="path25" />
  </g>
</svg>
