<svg xmlns="http://www.w3.org/2000/svg" width="119.998" height="120" viewBox="0 0 119.998 120"><g transform="translate(-2 -1.999)"><path d="M73,35a4.012,4.012,0,0,1,4,4V79H47v2H35V79H5V39a4.012,4.012,0,0,1,4-4Z" transform="translate(3 33)" fill="#62bb9f"/><path d="M47,39V79H39V39a4.012,4.012,0,0,0-4-4h8A4.012,4.012,0,0,1,47,39Z" transform="translate(32.999 33)" fill="#009698"/><path d="M13,43A10,10,0,0,1,3,33a9.882,9.882,0,0,1,2-6,10.02,10.02,0,0,1,8-4h4A20,20,0,0,1,52.579,10.46,11.981,11.981,0,0,1,72.3,23H77a10,10,0,1,1,0,20Z" transform="translate(1 1.001)" fill="#ccf6fe"/><path d="M60,31A10,10,0,0,1,50,41H42a10,10,0,0,0,0-20H37.3a12.1,12.1,0,0,0,.7-4A11.962,11.962,0,0,0,30,5.7,11.6,11.6,0,0,1,34,5,11.968,11.968,0,0,1,45.3,21H50A10,10,0,0,1,60,31Z" transform="translate(27.999 3.001)" fill="#97d4df"/><path d="M29,51A10,10,0,0,1,19,41a9.882,9.882,0,0,1,2-6,10.02,10.02,0,0,1,8-4h4A20,20,0,0,1,68.579,18.46,11.981,11.981,0,0,1,88.3,31H93a10,10,0,1,1,0,20Z" transform="translate(16.999 9.001)" fill="#73daee"/><path d="M65,47l-3.96.98,2.1,3.5-5.66,5.66-3.5-2.1L53,59H45l-.98-3.96-3.5,2.1-5.66-5.66,2.1-3.5L33,47V39l3.96-.98L35.14,35l-.28-.48,5.66-5.66,3.5,2.1L45,27h8l.98,3.96,3.5-2.1,5.66,5.66-.28.48-1.82,3.02L65,39Z" transform="translate(30.999 25)" fill="#fedb41"/><circle cx="6" cy="6" r="6" transform="translate(73.999 62)" fill="#ffde55"/><path d="M82.638,57l-.92,5.12A4,4,0,0,1,77.878,65h-70a4,4,0,0,1-3.84-2.88L3.12,57H36.879v2h12V57Z" transform="translate(1.12 54.999)" fill="#898890"/><path d="M76,39A10,10,0,0,1,66,49H58a10,10,0,0,0,0-20H53.3a12.1,12.1,0,0,0,.7-4,11.962,11.962,0,0,0-8-11.3,11.6,11.6,0,0,1,4-.7A11.968,11.968,0,0,1,61.3,29H66A10,10,0,0,1,76,39Z" transform="translate(43.998 11.001)" fill="#4db8cc"/><path d="M49.26,57l-.92,5.12A4,4,0,0,1,44.5,65h-8a4,4,0,0,0,3.84-2.88L41.26,57Z" transform="translate(34.499 54.999)" fill="#57565c"/><path d="M45,31a8,8,0,1,0,8,8A8,8,0,0,0,45,31Zm0,12a4,4,0,1,1,4-4A4,4,0,0,1,45,43Z" transform="translate(34.999 29)"/><path d="M110,38h-2.16a11.24,11.24,0,0,0,.16-2A14.016,14.016,0,0,0,94,22a13.8,13.8,0,0,0-8.22,2.68,21.976,21.976,0,0,0-9.84-5.84A14.02,14.02,0,0,0,62,6a13.8,13.8,0,0,0-8.22,2.68A22,22,0,0,0,16.08,22H14a12,12,0,1,0,0,24H34.7A11.968,11.968,0,0,0,46,62h17.76l-.24.06A2,2,0,0,0,62,64v2H12a5.968,5.968,0,0,0-5.34,3.28A6.13,6.13,0,0,0,6,72v38H4.24a2,2,0,0,0-1.96,2.34l.92,5.12a.718.718,0,0,0,.04.22A6.042,6.042,0,0,0,9,122H79a6.042,6.042,0,0,0,5.76-4.32.718.718,0,0,0,.04-.22l.92-5.12a2,2,0,0,0-1.96-2.34H82V86h2a2,2,0,0,0,1.94-1.52l.34-1.34,1.18.72a2,2,0,0,0,2.44-.3l5.66-5.66a2,2,0,0,0,.3-2.44l-.72-1.18,1.34-.34A2,2,0,0,0,98,72V64a2,2,0,0,0-1.52-1.94l-.24-.06H110a12,12,0,1,0,0-24ZM37.079,42H14a8,8,0,1,1,0-16h4a2,2,0,0,0,2-2,18,18,0,0,1,32.019-11.28,2.042,2.042,0,0,0,1.46.74,2,2,0,0,0,1.5-.58A9.984,9.984,0,0,1,71.8,18.1c-.6-.06-1.2-.1-1.8-.1a22.04,22.04,0,0,0-21.92,20H46A12,12,0,0,0,37.079,42ZM10,72a2.128,2.128,0,0,1,.22-.9A1.976,1.976,0,0,1,12,70H62v2a2,2,0,0,0,1.52,1.94l1.34.34-.72,1.18a2,2,0,0,0,.3,2.44l5.66,5.66a2,2,0,0,0,2.44.3l1.18-.72.34,1.34A2,2,0,0,0,76,86h2v24H50a2,2,0,0,0-2,2H40a2,2,0,0,0-2-2H10Zm70.9,44.639A2.028,2.028,0,0,1,79,118H9a2.028,2.028,0,0,1-1.9-1.36L6.64,114H36a2,2,0,0,0,2,2H50a2,2,0,0,0,2-2H81.358ZM94,70.44l-2.44.6a2.014,2.014,0,0,0-1.36,1.18,2.038,2.038,0,0,0,.12,1.8l1.3,2.16-3.44,3.44-2.16-1.3a2.038,2.038,0,0,0-1.8-.12,2.014,2.014,0,0,0-1.18,1.36l-.6,2.44h-4.88l-.6-2.44a2.014,2.014,0,0,0-1.18-1.36,2.038,2.038,0,0,0-1.8.12l-2.16,1.3-3.44-3.44,1.3-2.16a2.038,2.038,0,0,0,.12-1.8,2.014,2.014,0,0,0-1.36-1.18L66,70.44V65.56l2.44-.6a2.014,2.014,0,0,0,1.36-1.18,2.038,2.038,0,0,0-.12-1.8l-1.3-2.16,3.44-3.44,2.16,1.28a1.978,1.978,0,0,0,1.8.14,2.014,2.014,0,0,0,1.18-1.36l.6-2.44h4.88l.6,2.44a2.014,2.014,0,0,0,1.18,1.36,1.978,1.978,0,0,0,1.8-.14l2.16-1.28,3.44,3.44-1.3,2.16a2.038,2.038,0,0,0-.12,1.8,2.014,2.014,0,0,0,1.36,1.18l2.44.6ZM110,58H95.458L89.9,52.44a2,2,0,0,0-2.44-.3l-1.18.72-.34-1.34A2,2,0,0,0,84,50H76a2,2,0,0,0-1.94,1.52l-.34,1.34-1.18-.72a2,2,0,0,0-2.44.3L64.539,58H46a8,8,0,0,1,0-16h4a2,2,0,0,0,2-2,18,18,0,0,1,32.019-11.28,2.042,2.042,0,0,0,1.46.74,2,2,0,0,0,1.5-.58A10,10,0,0,1,104,36a10.4,10.4,0,0,1-.58,3.34,2.028,2.028,0,0,0,.24,1.82,2.056,2.056,0,0,0,1.64.84H110a8,8,0,0,1,0,16Z" transform="translate(0 0)"/><path d="M66,58a6,6,0,0,1-6,6H44v4H60A10.012,10.012,0,0,0,70,58V34H66Z" transform="translate(41.998 32)"/><path d="M22,45h4v4H22Z" transform="translate(19.999 42.999)"/><path d="M26,45h4v4H26Z" transform="translate(23.999 42.999)"/><path d="M18,45h4v4H18Z" transform="translate(15.999 42.999)"/></g></svg>