<svg xmlns="http://www.w3.org/2000/svg" width="35" height="35" viewBox="0 0 35 35"><g transform="translate(-1543 -8002.67)"><g transform="translate(1543 8002.67)" fill="#fff" stroke="#000" stroke-width="1"><circle cx="17.5" cy="17.5" r="17.5" stroke="none"/><circle cx="17.5" cy="17.5" r="17" fill="none"/></g><path d="M7.1.457C3.527.457,0,2.836,0,6.687c0,2.449,1.377,3.84,2.212,3.84.344,0,.543-.96.543-1.231,0-.323-.824-1.012-.824-2.358A4.7,4.7,0,0,1,6.814,2.158c2.369,0,4.122,1.346,4.122,3.819,0,1.847-.741,5.311-3.141,5.311A1.544,1.544,0,0,1,6.188,9.765c0-1.315.918-2.588.918-3.944,0-2.3-3.266-1.885-3.266.9a4.086,4.086,0,0,0,.334,1.763c-.48,2.066-1.461,5.144-1.461,7.273,0,.657.094,1.3.157,1.962.118.132.059.118.24.052,1.753-2.4,1.69-2.87,2.483-6.01A2.821,2.821,0,0,0,8,13.01c3.694,0,5.353-3.6,5.353-6.845C13.356,2.711,10.372.457,7.1.457Z" transform="translate(1553.743 8011.269)"/></g></svg>