<svg xmlns="http://www.w3.org/2000/svg" width="39.669" height="37.359" viewBox="0 0 39.669 37.359"><g transform="translate(0 -5.619)"><path d="M22.852,27.9C21.479,20.829,15,17.617,8.393,18.868c.758-3.966,4.471-7.21,6.884-10.224a1.131,1.131,0,0,0,0-1.582,4.633,4.633,0,0,0-3.553-1.14.422.422,0,0,0-.537-.28c-3.882,1.222-6.4,5.369-8.078,8.806A30.67,30.67,0,0,0,.038,29.274C.449,37.22,7.543,44.8,15.992,42.591,22.159,40.98,23.91,33.346,22.852,27.9ZM7.045,34.257s0,0,0-.007c.039-.149.072-.3.107-.45a3.159,3.159,0,0,1,.31.49,3.916,3.916,0,0,1-.421.034C7.043,34.3,7.046,34.28,7.045,34.257ZM5.258,15.61a1.071,1.071,0,0,0,.323.082q-.5.993-.909,2.024a1.2,1.2,0,0,0-.335-.049C4.616,16.969,4.929,16.286,5.258,15.61ZM4.411,35.78c.266.274.55.537.847.79a1.073,1.073,0,0,0-.114.184A8.784,8.784,0,0,1,4.411,35.78Zm7.62-.027a4.584,4.584,0,0,1-.759-1.471.313.313,0,0,0-.038-.118,4.261,4.261,0,0,1-.114-.569,15.787,15.787,0,0,1,1.423,2.458A3.023,3.023,0,0,1,12.03,35.752Z" transform="translate(0)" fill="#0c2e8a"/><path d="M91.707,20.83c.747-3.018,2.785-5.1,4.265-7.822a1,1,0,0,0-.358-1.365c-.921-.428-1.75-.9-2.671-1.256a1.12,1.12,0,0,0-1.765-.4A21.5,21.5,0,0,0,87.8,13.8a12.091,12.091,0,0,0-2.579,5.468,1.188,1.188,0,0,0,.089.657l-.143.246a.9.9,0,0,0,.32,1.219,13.284,13.284,0,0,1,6.946,12.428,4.936,4.936,0,0,0-.222,2.267,20.63,20.63,0,0,1-2.71,7.228,1.049,1.049,0,0,0,.108,1.319.827.827,0,0,0,.659.558c8,1.807,16.048-2.021,16.916-10.75C107.991,26.319,99.53,19.474,91.707,20.83ZM94.75,43.4c.028-.027.053-.056.081-.083a4.625,4.625,0,0,0,1.976-.6c.007.028.011.054.018.083a1,1,0,0,0,.09.2A15.309,15.309,0,0,1,94.75,43.4Zm5.674-15.27c-.076.139-.142.279-.209.419-.005-.039-.006-.079-.012-.118a4.153,4.153,0,0,1,.14-.89l.026.016q.06.251.1.512C100.454,28.089,100.437,28.107,100.424,28.13Zm3.822,8.759c0-.191,0-.383-.007-.576a6.057,6.057,0,0,0,.339-.658A8.851,8.851,0,0,1,104.246,36.889Z" transform="translate(-67.567 -3.24)" fill="#0c2e8a"/></g></svg>