<svg xmlns="http://www.w3.org/2000/svg" width="525.678" height="525.678" viewBox="0 0 525.678 525.678"><g transform="translate(1 1)" opacity="0.23"><path d="M219.788.27h0c-39.256,0-73.692,20.823-93.227,52.1l-1.214,1.876A112.117,112.117,0,0,0,109.49,112V480.94c0,.221.037.441.037.7C182.152,435.1,230.31,353.754,230.31,261.079V10.976A10.584,10.584,0,0,0,219.788.27Z" transform="translate(293.331 0.723)" fill="none" stroke="#5f919b" stroke-width="2"/><path d="M261.839,0C117.215,0,0,117.215,0,261.839S117.215,523.678,261.839,523.678,523.678,406.463,523.678,261.839,406.463,0,261.839,0ZM361.5,361.247a141.1,141.1,0,1,1,0-199.552A141.091,141.091,0,0,1,361.5,361.247Z" fill="none" stroke="#5f919b" stroke-width="2"/></g></svg>