<svg xmlns="http://www.w3.org/2000/svg" width="243.679" height="244.217" viewBox="0 0 243.679 244.217"><g transform="translate(0 0.538)"><path d="M121.84,0a121.84,121.84,0,1,0,121.84,121.84A121.831,121.831,0,0,0,121.84,0Zm46.377,168.1a65.659,65.659,0,1,1,0-92.856A65.653,65.653,0,0,1,168.216,168.1Z" fill="#1138a5"/><path d="M160.814.27h0a51.082,51.082,0,0,0-43.381,24.349l-.565.877a52.581,52.581,0,0,0-7.379,27V224.935c0,.1.017.206.017.327a122.374,122.374,0,0,0,56.2-103.09V5.274A4.936,4.936,0,0,0,160.814.27Z" transform="translate(77.968 -0.808)" fill="#62ba9e"/></g></svg>