<svg xmlns="http://www.w3.org/2000/svg" width="962.345" height="962.345" viewBox="0 0 962.345 962.345"><g transform="translate(1 1)" opacity="0.23"><path d="M311.76.27h0C239.771.27,176.621,38.457,140.8,95.805l-2.226,3.441A205.606,205.606,0,0,0,109.49,205.171V881.744c0,.4.067.809.067,1.282,133.183-85.348,221.5-234.52,221.5-404.473V19.9A19.41,19.41,0,0,0,311.76.27Z" transform="translate(629.221 1.552)" fill="none" stroke="#5f919b" stroke-width="2"/><path d="M480.172,0C214.954,0,0,214.954,0,480.172S214.954,960.345,480.172,960.345,960.345,745.391,960.345,480.172,745.391,0,480.172,0ZM662.944,662.472C561.877,763.54,398.063,763.54,297,662.472s-101.068-264.881,0-365.949,264.881-101.068,365.948,0S764.012,561.4,662.944,662.472Z" fill="none" stroke="#5f919b" stroke-width="2"/></g></svg>