<svg xmlns="http://www.w3.org/2000/svg" width="35" height="35" viewBox="0 0 35 35"><g transform="translate(-1397 -8002.67)"><g transform="translate(1397 8002.67)" fill="#fff" stroke="#000" stroke-width="1"><circle cx="17.5" cy="17.5" r="17.5" stroke="none"/><circle cx="17.5" cy="17.5" r="17" fill="none"/></g><path d="M14.627,6.681c.01.145.01.29.01.434a9.441,9.441,0,0,1-9.506,9.506A9.442,9.442,0,0,1,0,15.122a6.912,6.912,0,0,0,.807.041,6.691,6.691,0,0,0,4.148-1.427,3.347,3.347,0,0,1-3.124-2.317,4.214,4.214,0,0,0,.631.052,3.534,3.534,0,0,0,.879-.114A3.342,3.342,0,0,1,.662,8.077V8.036a3.365,3.365,0,0,0,1.51.424A3.346,3.346,0,0,1,1.138,3.991a9.5,9.5,0,0,0,6.889,3.5,3.772,3.772,0,0,1-.083-.765,3.344,3.344,0,0,1,5.782-2.286,6.578,6.578,0,0,0,2.121-.807A3.332,3.332,0,0,1,14.379,5.47,6.7,6.7,0,0,0,16.3,4.953a7.182,7.182,0,0,1-1.676,1.727Z" transform="translate(1406.841 8011.45)"/></g></svg>