<?xml version="1.0" encoding="UTF-8"?> <svg xmlns="http://www.w3.org/2000/svg" xmlns:xlink="http://www.w3.org/1999/xlink" width="178" height="34.052" viewBox="0 0 178 34.052"><defs><clipPath id="clip-Website_logo"><rect width="178" height="34.052"></rect></clipPath></defs><g id="Website_logo" data-name="Website logo" clip-path="url(#clip-Website_logo)"><g id="Group_1419" data-name="Group 1419" transform="translate(-160.414 -1390.159)"><path id="Path_846" data-name="Path 846" d="M166.087,1504.34a4.872,4.872,0,0,1-3.435-8.321c1.06-1.058,2.85-1.974,2.852-3.472,0-3.477-2.74-3.031-2.737-6.172a3.32,3.32,0,0,1,6.64,0c0,3.14-2.741,2.695-2.737,6.172,0,1.5,1.792,2.414,2.852,3.472a4.872,4.872,0,0,1-3.435,8.321" transform="translate(0 -80.577)" fill="#2040d4"></path><path id="Path_1096" data-name="Path 1096" d="M166.087,1504.34a4.872,4.872,0,0,1-3.435-8.321c1.06-1.058,2.85-1.974,2.852-3.472,0-3.477-2.74-3.031-2.737-6.172a3.32,3.32,0,0,1,6.64,0c0,3.14-2.741,2.695-2.737,6.172,0,1.5,1.792,2.414,2.852,3.472a4.872,4.872,0,0,1-3.435,8.321" transform="translate(0 -80.577)" fill="#2040d4"></path><path id="Path_847" data-name="Path 847" d="M262.962,1489.117a4.872,4.872,0,0,1-5.488,7.135c-1.446-.389-3.135-1.481-4.433-.734-3.013,1.735-1.255,3.889-3.976,5.456a3.32,3.32,0,0,1-3.32-5.75c2.718-1.573,3.7,1.026,6.713-.716,1.3-.75,1.195-2.759,1.581-4.206a4.872,4.872,0,0,1,8.923-1.186" transform="translate(-72.554 -83.752)" fill="#2040d4"></path><path id="Path_1095" data-name="Path 1095" d="M262.962,1489.117a4.872,4.872,0,0,1-5.488,7.135c-1.446-.389-3.135-1.481-4.433-.734-3.013,1.735-1.255,3.889-3.976,5.456a3.32,3.32,0,0,1-3.32-5.75c2.718-1.573,3.7,1.026,6.713-.716,1.3-.75,1.195-2.759,1.581-4.206a4.872,4.872,0,0,1,8.923-1.186" transform="translate(-72.554 -83.752)" fill="#2040d4"></path><path id="Path_848" data-name="Path 848" d="M163.4,1393.462a4.872,4.872,0,0,1,8.923,1.185c.386,1.447.284,3.456,1.581,4.206,3.009,1.742,4-.858,6.713.716a3.32,3.32,0,0,1-3.32,5.75c-2.721-1.567-.963-3.721-3.976-5.456-1.3-.747-2.986.345-4.433.734a4.872,4.872,0,0,1-5.488-7.135Z" transform="translate(-1.338 0)" fill="#2040d4"></path><path id="Path_1097" data-name="Path 1097" d="M163.4,1393.462a4.872,4.872,0,0,1,8.923,1.185c.386,1.447.284,3.456,1.581,4.206,3.009,1.742,4-.858,6.713.716a3.32,3.32,0,0,1-3.32,5.75c-2.721-1.567-.963-3.721-3.976-5.456-1.3-.747-2.986.345-4.433.734a4.872,4.872,0,0,1-5.488-7.135Z" transform="translate(-1.338 0)" fill="#2040d4"></path><path id="Path_849" data-name="Path 849" d="M843.743,1436.551a11.435,11.435,0,0,1,11.615-11.677,11.57,11.57,0,0,1,10.225,5.626.232.232,0,0,1-.081.314l-3.4,2.063a.231.231,0,0,1-.32-.085,6.912,6.912,0,0,0-6.392-3.715,7.474,7.474,0,0,0,.156,14.947,6.322,6.322,0,0,0,6.354-4.459.232.232,0,0,0-.219-.305h-6.589a.231.231,0,0,1-.231-.231v-3.68a.231.231,0,0,1,.231-.231h11.34a.23.23,0,0,1,.231.231v1.513c0,6.1-4.359,11.366-11.117,11.366a11.477,11.477,0,0,1-11.8-11.677" transform="translate(-597.593 -29.632)" fill="#2040d4"></path><path id="Path_850" data-name="Path 850" d="M1041.709,1430.317h3.8a.231.231,0,0,1,.231.231v21.9a.231.231,0,0,1-.231.231h-3.8a.231.231,0,0,1-.231-.231v-21.9a.231.231,0,0,1,.231-.231" transform="translate(-770.724 -34.398)" fill="#2040d4"></path><path id="Path_851" data-name="Path 851" d="M1087.39,1490.527a8.065,8.065,0,1,1,8.065,8.1,8.054,8.054,0,0,1-8.065-8.1m11.989,0a4,4,0,0,0-3.924-4.048,4.051,4.051,0,0,0,0,8.1,4,4,0,0,0,3.924-4.048" transform="translate(-810.922 -80.027)" fill="#2040d4"></path><path id="Path_852" data-name="Path 852" d="M1521.418,1430.317h3.805a.231.231,0,0,1,.231.231v21.9a.231.231,0,0,1-.231.231h-3.805a.231.231,0,0,1-.231-.231v-21.9a.231.231,0,0,1,.231-.231" transform="translate(-1190.741 -34.398)" fill="#2040d4"></path><path id="Path_853" data-name="Path 853" d="M600.164,1482.755v3.992a.233.233,0,0,1-.253.23c-2.041-.146-4.479.84-4.479,3.978v7.21a.232.232,0,0,1-.231.232h-3.554a.232.232,0,0,1-.231-.232v-15.1a.232.232,0,0,1,.231-.232H595.2a.232.232,0,0,1,.231.232v2.446a4.74,4.74,0,0,1,4.5-2.985.231.231,0,0,1,.237.233" transform="translate(-376.663 -80.108)" fill="#2040d4"></path><path id="Path_854" data-name="Path 854" d="M679.174,1484.993h3.553a.232.232,0,0,1,.232.232v15.1a.232.232,0,0,1-.232.232h-3.553a.232.232,0,0,1-.232-.232v-15.1a.232.232,0,0,1,.232-.232" transform="translate(-453.3 -82.271)" fill="#2040d4"></path><path id="Path_855" data-name="Path 855" d="M725.483,1494.382l3.646-1.42a.233.233,0,0,1,.3.125,3.252,3.252,0,0,0,3.182,1.911c1.4,0,2.148-.654,2.148-1.4,0-.841-1.525-1.09-3.332-1.432-2.8-.5-5.6-1.463-5.6-4.8,0-2.615,2.522-4.951,6.383-4.888,3.366,0,5.34,1.334,6.481,3.387a.231.231,0,0,1-.115.324l-3.324,1.4a.228.228,0,0,1-.294-.106,2.963,2.963,0,0,0-2.779-1.519c-1.4,0-2.024.592-2.024,1.276s.9.934,3.238,1.4c2.615.529,5.636,1.464,5.636,4.826,0,2.273-2.118,5.262-6.6,5.2-3.665,0-5.915-1.385-7.067-3.982a.232.232,0,0,1,.13-.309" transform="translate(-493.918 -80.071)" fill="#2040d4"></path><path id="Path_856" data-name="Path 856" d="M674.115,1430.438a2.578,2.578,0,1,1,2.595,2.594,2.62,2.62,0,0,1-2.595-2.594" transform="translate(-449.073 -32.262)" fill="#2040d4"></path><path id="Path_857" data-name="Path 857" d="M1567.044,1600.55a.776.776,0,1,1,.776-.776.748.748,0,0,1-.776.776m0-1.453a.677.677,0,1,0,.67.677.652.652,0,0,0-.67-.677m.146.724.191.367h-.133l-.185-.359h-.184v.359h-.114v-.857h.348a.242.242,0,0,1,.275.247.238.238,0,0,1-.2.243m-.084-.389h-.228v.29h.215c.122,0,.18-.045.18-.144s-.06-.146-.168-.146" transform="translate(-1230.213 -182.09)" fill="#2040d4"></path><path id="Path_858" data-name="Path 858" d="M431.536,1452.316h-8.381a.231.231,0,0,0-.219.157l-1.207,3.62a.23.23,0,0,1-.219.158h-4.162a.231.231,0,0,1-.218-.307l7.491-21.4a.231.231,0,0,1,.218-.154h5.014a.231.231,0,0,1,.218.154l7.521,21.4a.231.231,0,0,1-.218.307H433.18a.23.23,0,0,1-.219-.158l-1.206-3.62a.231.231,0,0,0-.219-.157m-1.279-4.333-2.678-7.977a.231.231,0,0,0-.437,0l-2.678,7.977a.231.231,0,0,0,.219.3h5.355a.231.231,0,0,0,.219-.3" transform="translate(-224.054 -37.962)" fill="#2040d4"></path><path id="Path_859" data-name="Path 859" d="M1387.5,1482.746h-3.808a.232.232,0,0,0-.232.231v1.143a.061.061,0,0,1-.105.043,6.278,6.278,0,0,0-4.534-1.729c-3.518,0-7.566,2.585-7.566,8.1a7.693,7.693,0,0,0,7.5,8.1,6.1,6.1,0,0,0,4.594-1.932.061.061,0,0,1,.108.041v1.348a.232.232,0,0,0,.232.232h3.8a.232.232,0,0,0,.232-.232h.006v-15.1a.232.232,0,0,0-.232-.231m-3.957,8.374a3.993,3.993,0,0,1-3.944,3.583,4.1,4.1,0,0,1-4.172-4.2,4.058,4.058,0,0,1,2.783-3.953,4.161,4.161,0,0,1,5.334,4.574" transform="translate(-1059.467 -80.03)" fill="#2040d4"></path><path id="Path_860" data-name="Path 860" d="M1228.649,1430.6v21.9h.006a.231.231,0,0,0,.231.231h3.8a.232.232,0,0,0,.231-.231v-1.348a.062.062,0,0,1,.108-.041,6.1,6.1,0,0,0,4.594,1.932,7.694,7.694,0,0,0,7.5-8.1c0-5.511-4.048-8.1-7.566-8.1a6.278,6.278,0,0,0-4.534,1.729.061.061,0,0,1-.105-.043V1430.6a.232.232,0,0,0-.231-.232h-3.808a.231.231,0,0,0-.231.232m9.522,10.358a4.057,4.057,0,0,1,2.783,3.953,4.1,4.1,0,0,1-4.172,4.2,3.993,3.993,0,0,1-3.944-3.583,4.161,4.161,0,0,1,5.334-4.574" transform="translate(-934.604 -34.445)" fill="#2040d4"></path></g></g></svg> 